<?xml version="1.0" encoding="utf-8" standalone="no"?>
<!DOCTYPE svg PUBLIC "-//W3C//DTD SVG 1.1//EN"
  "http://www.w3.org/Graphics/SVG/1.1/DTD/svg11.dtd">
<svg xmlns:xlink="http://www.w3.org/1999/xlink" width="368.4pt" height="276.24pt" viewBox="0 0 368.4 276.24" xmlns="http://www.w3.org/2000/svg" version="1.1">
 <metadata>
  <rdf:RDF xmlns:dc="http://purl.org/dc/elements/1.1/" xmlns:cc="http://creativecommons.org/ns#" xmlns:rdf="http://www.w3.org/1999/02/22-rdf-syntax-ns#">
   <cc:Work>
    <dc:type rdf:resource="http://purl.org/dc/dcmitype/StillImage"/>
    <dc:date>2026-05-17T23:52:26.376020</dc:date>
    <dc:format>image/svg+xml</dc:format>
    <dc:creator>
     <cc:Agent>
      <dc:title>Matplotlib v3.10.9, https://matplotlib.org/</dc:title>
     </cc:Agent>
    </dc:creator>
   </cc:Work>
  </rdf:RDF>
 </metadata>
 <defs>
  <style type="text/css">*{stroke-linejoin: round; stroke-linecap: butt}</style>
 </defs>
 <g id="figure_1">
  <g id="patch_1">
   <path d="M 0 276.24 
L 368.4 276.24 
L 368.4 0 
L 0 0 
z
" style="fill: #ffffff"/>
  </g>
  <g id="axes_1">
   <g id="patch_2">
    <path d="M 33.4705 246.7627 
L 361.032 246.7627 
L 361.032 5.5248 
L 33.4705 5.5248 
z
" style="fill: #ffffff"/>
   </g>
   <g id="matplotlib.axis_1">
    <g id="xtick_1">
     <g id="line2d_1">
      <path d="M 75.286862 246.7627 
L 75.286862 5.5248 
" clip-path="url(#pd1bafe6294)" style="fill: none; stroke: #dee2e6; stroke-opacity: 0.25; stroke-width: -1; stroke-linecap: square"/>
     </g>
     <g id="line2d_2">
      <defs>
       <path id="m16248cc92a" d="M 0 0 
L 0 2 
" style="stroke: #000000; stroke-width: 0.3"/>
      </defs>
      <g>
       <use xlink:href="#m16248cc92a" x="75.286862" y="246.7627" style="stroke: #000000; stroke-width: 0.3"/>
      </g>
     </g>
     <g id="text_1">
      <!-- −10 -->
      <g transform="translate(68.571862 256.7627) scale(0.08 -0.08)">
       <defs>
        <path id="Roboto-Light-2212" d="M 3125 2144 
L 516 2144 
L 516 2463 
L 3125 2463 
L 3125 2144 
z
" transform="scale(0.015625)"/>
        <path id="Roboto-Light-31" d="M 2169 0 
L 1794 0 
L 1794 4100 
L 556 3641 
L 556 3991 
L 2106 4566 
L 2169 4566 
L 2169 0 
z
" transform="scale(0.015625)"/>
        <path id="Roboto-Light-30" d="M 3172 1897 
Q 3172 934 2819 435 
Q 2466 -63 1778 -63 
Q 1103 -63 743 426 
Q 384 916 375 1850 
L 375 2666 
Q 375 3625 731 4119 
Q 1088 4613 1772 4613 
Q 2447 4613 2803 4136 
Q 3159 3659 3172 2731 
L 3172 1897 
z
M 2797 2713 
Q 2797 3494 2542 3894 
Q 2288 4294 1772 4294 
Q 1266 4294 1009 3903 
Q 753 3513 747 2750 
L 747 1856 
Q 747 1078 1011 665 
Q 1275 253 1778 253 
Q 2278 253 2536 656 
Q 2794 1059 2797 1838 
L 2797 2713 
z
" transform="scale(0.015625)"/>
       </defs>
       <use xlink:href="#Roboto-Light-2212"/>
       <use xlink:href="#Roboto-Light-31" transform="translate(57.03125 0)"/>
       <use xlink:href="#Roboto-Light-30" transform="translate(112.451172 0)"/>
      </g>
     </g>
    </g>
    <g id="xtick_2">
     <g id="line2d_3">
      <path d="M 144.980798 246.7627 
L 144.980798 5.5248 
" clip-path="url(#pd1bafe6294)" style="fill: none; stroke: #dee2e6; stroke-opacity: 0.25; stroke-width: -1; stroke-linecap: square"/>
     </g>
     <g id="line2d_4">
      <g>
       <use xlink:href="#m16248cc92a" x="144.980798" y="246.7627" style="stroke: #000000; stroke-width: 0.3"/>
      </g>
     </g>
     <g id="text_2">
      <!-- 0 -->
      <g transform="translate(142.763923 256.7627) scale(0.08 -0.08)">
       <use xlink:href="#Roboto-Light-30"/>
      </g>
     </g>
    </g>
    <g id="xtick_3">
     <g id="line2d_5">
      <path d="M 214.674734 246.7627 
L 214.674734 5.5248 
" clip-path="url(#pd1bafe6294)" style="fill: none; stroke: #dee2e6; stroke-opacity: 0.25; stroke-width: -1; stroke-linecap: square"/>
     </g>
     <g id="line2d_6">
      <g>
       <use xlink:href="#m16248cc92a" x="214.674734" y="246.7627" style="stroke: #000000; stroke-width: 0.3"/>
      </g>
     </g>
     <g id="text_3">
      <!-- 10 -->
      <g transform="translate(210.240984 256.7627) scale(0.08 -0.08)">
       <use xlink:href="#Roboto-Light-31"/>
       <use xlink:href="#Roboto-Light-30" transform="translate(55.419922 0)"/>
      </g>
     </g>
    </g>
    <g id="xtick_4">
     <g id="line2d_7">
      <path d="M 284.36867 246.7627 
L 284.36867 5.5248 
" clip-path="url(#pd1bafe6294)" style="fill: none; stroke: #dee2e6; stroke-opacity: 0.25; stroke-width: -1; stroke-linecap: square"/>
     </g>
     <g id="line2d_8">
      <g>
       <use xlink:href="#m16248cc92a" x="284.36867" y="246.7627" style="stroke: #000000; stroke-width: 0.3"/>
      </g>
     </g>
     <g id="text_4">
      <!-- 20 -->
      <g transform="translate(279.93492 256.7627) scale(0.08 -0.08)">
       <defs>
        <path id="Roboto-Light-32" d="M 3278 0 
L 428 0 
L 428 288 
L 1988 2056 
Q 2375 2503 2525 2793 
Q 2675 3084 2675 3359 
Q 2675 3791 2422 4042 
Q 2169 4294 1725 4294 
Q 1266 4294 983 4000 
Q 700 3706 700 3238 
L 328 3238 
Q 328 3622 501 3937 
Q 675 4253 995 4433 
Q 1316 4613 1725 4613 
Q 2350 4613 2701 4284 
Q 3053 3956 3053 3391 
Q 3053 3072 2854 2694 
Q 2656 2316 2156 1750 
L 888 316 
L 3278 316 
L 3278 0 
z
" transform="scale(0.015625)"/>
       </defs>
       <use xlink:href="#Roboto-Light-32"/>
       <use xlink:href="#Roboto-Light-30" transform="translate(55.419922 0)"/>
      </g>
     </g>
    </g>
    <g id="xtick_5">
     <g id="line2d_9">
      <path d="M 354.062606 246.7627 
L 354.062606 5.5248 
" clip-path="url(#pd1bafe6294)" style="fill: none; stroke: #dee2e6; stroke-opacity: 0.25; stroke-width: -1; stroke-linecap: square"/>
     </g>
     <g id="line2d_10">
      <g>
       <use xlink:href="#m16248cc92a" x="354.062606" y="246.7627" style="stroke: #000000; stroke-width: 0.3"/>
      </g>
     </g>
     <g id="text_5">
      <!-- 30 -->
      <g transform="translate(349.628856 256.7627) scale(0.08 -0.08)">
       <defs>
        <path id="Roboto-Light-33" d="M 1259 2478 
L 1647 2478 
Q 1969 2478 2209 2592 
Q 2450 2706 2576 2904 
Q 2703 3103 2703 3363 
Q 2703 3800 2456 4047 
Q 2209 4294 1747 4294 
Q 1309 4294 1029 4036 
Q 750 3778 750 3356 
L 375 3356 
Q 375 3709 553 4001 
Q 731 4294 1047 4453 
Q 1363 4613 1747 4613 
Q 2366 4613 2722 4275 
Q 3078 3938 3078 3350 
Q 3078 3022 2870 2745 
Q 2663 2469 2300 2331 
Q 2725 2213 2944 1923 
Q 3163 1634 3163 1234 
Q 3163 650 2781 293 
Q 2400 -63 1763 -63 
Q 1356 -63 1017 100 
Q 678 263 492 555 
Q 306 847 306 1234 
L 681 1234 
Q 681 800 984 526 
Q 1288 253 1763 253 
Q 2247 253 2517 501 
Q 2788 750 2788 1222 
Q 2788 1678 2495 1918 
Q 2203 2159 1634 2159 
L 1259 2159 
L 1259 2478 
z
" transform="scale(0.015625)"/>
       </defs>
       <use xlink:href="#Roboto-Light-33"/>
       <use xlink:href="#Roboto-Light-30" transform="translate(55.419922 0)"/>
      </g>
     </g>
    </g>
    <g id="text_6">
     <!-- Heat-source temperature [°C] -->
     <g transform="translate(145.56875 268.8877) scale(0.08 -0.08)">
      <defs>
       <path id="Roboto-Regular-48" d="M 4025 0 
L 3422 0 
L 3422 2103 
L 1128 2103 
L 1128 0 
L 528 0 
L 528 4550 
L 1128 4550 
L 1128 2594 
L 3422 2594 
L 3422 4550 
L 4025 4550 
L 4025 0 
z
" transform="scale(0.015625)"/>
       <path id="Roboto-Regular-65" d="M 1841 -63 
Q 1153 -63 722 389 
Q 291 841 291 1597 
L 291 1703 
Q 291 2206 483 2601 
Q 675 2997 1020 3220 
Q 1366 3444 1769 3444 
Q 2428 3444 2793 3009 
Q 3159 2575 3159 1766 
L 3159 1525 
L 869 1525 
Q 881 1025 1161 717 
Q 1441 409 1872 409 
Q 2178 409 2390 534 
Q 2603 659 2763 866 
L 3116 591 
Q 2691 -63 1841 -63 
z
M 1769 2969 
Q 1419 2969 1181 2714 
Q 944 2459 888 2000 
L 2581 2000 
L 2581 2044 
Q 2556 2484 2343 2726 
Q 2131 2969 1769 2969 
z
" transform="scale(0.015625)"/>
       <path id="Roboto-Regular-61" d="M 2525 0 
Q 2475 100 2444 356 
Q 2041 -63 1481 -63 
Q 981 -63 661 220 
Q 341 503 341 938 
Q 341 1466 742 1758 
Q 1144 2050 1872 2050 
L 2434 2050 
L 2434 2316 
Q 2434 2619 2253 2798 
Q 2072 2978 1719 2978 
Q 1409 2978 1200 2822 
Q 991 2666 991 2444 
L 409 2444 
Q 409 2697 589 2933 
Q 769 3169 1076 3306 
Q 1384 3444 1753 3444 
Q 2338 3444 2669 3151 
Q 3000 2859 3013 2347 
L 3013 791 
Q 3013 325 3131 50 
L 3131 0 
L 2525 0 
z
M 1566 441 
Q 1838 441 2081 581 
Q 2325 722 2434 947 
L 2434 1641 
L 1981 1641 
Q 919 1641 919 1019 
Q 919 747 1100 594 
Q 1281 441 1566 441 
z
" transform="scale(0.015625)"/>
       <path id="Roboto-Regular-74" d="M 1222 4200 
L 1222 3381 
L 1853 3381 
L 1853 2934 
L 1222 2934 
L 1222 838 
Q 1222 634 1306 532 
Q 1391 431 1594 431 
Q 1694 431 1869 469 
L 1869 0 
Q 1641 -63 1425 -63 
Q 1038 -63 841 171 
Q 644 406 644 838 
L 644 2934 
L 28 2934 
L 28 3381 
L 644 3381 
L 644 4200 
L 1222 4200 
z
" transform="scale(0.015625)"/>
       <path id="Roboto-Regular-2d" d="M 1641 1697 
L 116 1697 
L 116 2169 
L 1641 2169 
L 1641 1697 
z
" transform="scale(0.015625)"/>
       <path id="Roboto-Regular-73" d="M 2406 897 
Q 2406 1131 2229 1261 
Q 2053 1391 1614 1484 
Q 1175 1578 917 1709 
Q 659 1841 536 2022 
Q 413 2203 413 2453 
Q 413 2869 764 3156 
Q 1116 3444 1663 3444 
Q 2238 3444 2595 3147 
Q 2953 2850 2953 2388 
L 2372 2388 
Q 2372 2625 2170 2797 
Q 1969 2969 1663 2969 
Q 1347 2969 1169 2831 
Q 991 2694 991 2472 
Q 991 2263 1156 2156 
Q 1322 2050 1755 1953 
Q 2188 1856 2456 1722 
Q 2725 1588 2854 1398 
Q 2984 1209 2984 938 
Q 2984 484 2621 210 
Q 2259 -63 1681 -63 
Q 1275 -63 962 81 
Q 650 225 473 483 
Q 297 741 297 1041 
L 875 1041 
Q 891 750 1108 579 
Q 1325 409 1681 409 
Q 2009 409 2207 542 
Q 2406 675 2406 897 
z
" transform="scale(0.015625)"/>
       <path id="Roboto-Regular-6f" d="M 284 1722 
Q 284 2219 479 2616 
Q 675 3013 1023 3228 
Q 1372 3444 1819 3444 
Q 2509 3444 2936 2966 
Q 3363 2488 3363 1694 
L 3363 1653 
Q 3363 1159 3173 767 
Q 2984 375 2632 156 
Q 2281 -63 1825 -63 
Q 1138 -63 711 415 
Q 284 894 284 1681 
L 284 1722 
z
M 866 1653 
Q 866 1091 1127 750 
Q 1388 409 1825 409 
Q 2266 409 2525 754 
Q 2784 1100 2784 1722 
Q 2784 2278 2520 2623 
Q 2256 2969 1819 2969 
Q 1391 2969 1128 2628 
Q 866 2288 866 1653 
z
" transform="scale(0.015625)"/>
       <path id="Roboto-Regular-75" d="M 2525 334 
Q 2188 -63 1534 -63 
Q 994 -63 711 251 
Q 428 566 425 1181 
L 425 3381 
L 1003 3381 
L 1003 1197 
Q 1003 428 1628 428 
Q 2291 428 2509 922 
L 2509 3381 
L 3088 3381 
L 3088 0 
L 2538 0 
L 2525 334 
z
" transform="scale(0.015625)"/>
       <path id="Roboto-Regular-72" d="M 2072 2863 
Q 1941 2884 1788 2884 
Q 1219 2884 1016 2400 
L 1016 0 
L 438 0 
L 438 3381 
L 1000 3381 
L 1009 2991 
Q 1294 3444 1816 3444 
Q 1984 3444 2072 3400 
L 2072 2863 
z
" transform="scale(0.015625)"/>
       <path id="Roboto-Regular-63" d="M 1794 409 
Q 2103 409 2334 596 
Q 2566 784 2591 1066 
L 3138 1066 
Q 3122 775 2937 512 
Q 2753 250 2445 93 
Q 2138 -63 1794 -63 
Q 1103 -63 695 398 
Q 288 859 288 1659 
L 288 1756 
Q 288 2250 469 2634 
Q 650 3019 989 3231 
Q 1328 3444 1791 3444 
Q 2359 3444 2736 3103 
Q 3113 2763 3138 2219 
L 2591 2219 
Q 2566 2547 2342 2758 
Q 2119 2969 1791 2969 
Q 1350 2969 1108 2651 
Q 866 2334 866 1734 
L 866 1625 
Q 866 1041 1106 725 
Q 1347 409 1794 409 
z
" transform="scale(0.015625)"/>
       <path id="Roboto-Regular-20" transform="scale(0.015625)"/>
       <path id="Roboto-Regular-6d" d="M 981 3381 
L 997 3006 
Q 1369 3444 2000 3444 
Q 2709 3444 2966 2900 
Q 3134 3144 3404 3294 
Q 3675 3444 4044 3444 
Q 5156 3444 5175 2266 
L 5175 0 
L 4597 0 
L 4597 2231 
Q 4597 2594 4431 2773 
Q 4266 2953 3875 2953 
Q 3553 2953 3340 2761 
Q 3128 2569 3094 2244 
L 3094 0 
L 2513 0 
L 2513 2216 
Q 2513 2953 1791 2953 
Q 1222 2953 1013 2469 
L 1013 0 
L 434 0 
L 434 3381 
L 981 3381 
z
" transform="scale(0.015625)"/>
       <path id="Roboto-Regular-70" d="M 3294 1653 
Q 3294 881 2941 409 
Q 2588 -63 1984 -63 
Q 1369 -63 1016 328 
L 1016 -1300 
L 438 -1300 
L 438 3381 
L 966 3381 
L 994 3006 
Q 1347 3444 1975 3444 
Q 2584 3444 2939 2984 
Q 3294 2525 3294 1706 
L 3294 1653 
z
M 2716 1719 
Q 2716 2291 2472 2622 
Q 2228 2953 1803 2953 
Q 1278 2953 1016 2488 
L 1016 872 
Q 1275 409 1809 409 
Q 2225 409 2470 739 
Q 2716 1069 2716 1719 
z
" transform="scale(0.015625)"/>
       <path id="Roboto-Regular-5b" d="M 1634 4725 
L 1038 4725 
L 1038 -500 
L 1634 -500 
L 1634 -975 
L 456 -975 
L 456 5200 
L 1634 5200 
L 1634 4725 
z
" transform="scale(0.015625)"/>
       <path id="Roboto-Regular-b0" d="M 406 3800 
Q 406 4125 639 4369 
Q 872 4613 1203 4613 
Q 1528 4613 1758 4370 
Q 1988 4128 1988 3800 
Q 1988 3469 1758 3234 
Q 1528 3000 1203 3000 
Q 875 3000 640 3234 
Q 406 3469 406 3800 
z
M 1203 3400 
Q 1372 3400 1487 3511 
Q 1603 3622 1603 3800 
Q 1603 3981 1487 4098 
Q 1372 4216 1203 4216 
Q 1031 4216 914 4092 
Q 797 3969 797 3800 
Q 797 3631 914 3515 
Q 1031 3400 1203 3400 
z
" transform="scale(0.015625)"/>
       <path id="Roboto-Regular-43" d="M 3875 1444 
Q 3791 722 3342 329 
Q 2894 -63 2150 -63 
Q 1344 -63 858 515 
Q 372 1094 372 2063 
L 372 2500 
Q 372 3134 598 3615 
Q 825 4097 1240 4355 
Q 1656 4613 2203 4613 
Q 2928 4613 3365 4208 
Q 3803 3803 3875 3088 
L 3272 3088 
Q 3194 3631 2933 3875 
Q 2672 4119 2203 4119 
Q 1628 4119 1301 3694 
Q 975 3269 975 2484 
L 975 2044 
Q 975 1303 1284 865 
Q 1594 428 2150 428 
Q 2650 428 2917 654 
Q 3184 881 3272 1444 
L 3875 1444 
z
" transform="scale(0.015625)"/>
       <path id="Roboto-Regular-5d" d="M 28 5200 
L 1209 5200 
L 1209 -975 
L 28 -975 
L 28 -500 
L 631 -500 
L 631 4725 
L 28 4725 
L 28 5200 
z
" transform="scale(0.015625)"/>
      </defs>
      <use xlink:href="#Roboto-Regular-48"/>
      <use xlink:href="#Roboto-Regular-65" transform="translate(71.289062 0)"/>
      <use xlink:href="#Roboto-Regular-61" transform="translate(124.267578 0)"/>
      <use xlink:href="#Roboto-Regular-74" transform="translate(178.662109 0)"/>
      <use xlink:href="#Roboto-Regular-2d" transform="translate(211.328125 0)"/>
      <use xlink:href="#Roboto-Regular-73" transform="translate(238.916016 0)"/>
      <use xlink:href="#Roboto-Regular-6f" transform="translate(290.478516 0)"/>
      <use xlink:href="#Roboto-Regular-75" transform="translate(347.509766 0)"/>
      <use xlink:href="#Roboto-Regular-72" transform="translate(402.636719 0)"/>
      <use xlink:href="#Roboto-Regular-63" transform="translate(436.474609 0)"/>
      <use xlink:href="#Roboto-Regular-65" transform="translate(488.818359 0)"/>
      <use xlink:href="#Roboto-Regular-20" transform="translate(541.796875 0)"/>
      <use xlink:href="#Roboto-Regular-74" transform="translate(566.552734 0)"/>
      <use xlink:href="#Roboto-Regular-65" transform="translate(599.21875 0)"/>
      <use xlink:href="#Roboto-Regular-6d" transform="translate(652.197266 0)"/>
      <use xlink:href="#Roboto-Regular-70" transform="translate(739.84375 0)"/>
      <use xlink:href="#Roboto-Regular-65" transform="translate(795.947266 0)"/>
      <use xlink:href="#Roboto-Regular-72" transform="translate(848.925781 0)"/>
      <use xlink:href="#Roboto-Regular-61" transform="translate(882.763672 0)"/>
      <use xlink:href="#Roboto-Regular-74" transform="translate(937.158203 0)"/>
      <use xlink:href="#Roboto-Regular-75" transform="translate(969.824219 0)"/>
      <use xlink:href="#Roboto-Regular-72" transform="translate(1024.951172 0)"/>
      <use xlink:href="#Roboto-Regular-65" transform="translate(1058.789062 0)"/>
      <use xlink:href="#Roboto-Regular-20" transform="translate(1111.767578 0)"/>
      <use xlink:href="#Roboto-Regular-5b" transform="translate(1136.523438 0)"/>
      <use xlink:href="#Roboto-Regular-b0" transform="translate(1163.037109 0)"/>
      <use xlink:href="#Roboto-Regular-43" transform="translate(1200.390625 0)"/>
      <use xlink:href="#Roboto-Regular-5d" transform="translate(1265.478516 0)"/>
     </g>
    </g>
   </g>
   <g id="matplotlib.axis_2">
    <g id="ytick_1">
     <g id="line2d_11">
      <path d="M 33.4705 246.7627 
L 361.032 246.7627 
" clip-path="url(#pd1bafe6294)" style="fill: none; stroke: #dee2e6; stroke-opacity: 0.25; stroke-width: -1; stroke-linecap: square"/>
     </g>
     <g id="line2d_12">
      <defs>
       <path id="m95f91dc100" d="M 0 0 
L -2 0 
" style="stroke: #000000; stroke-width: 0.3"/>
      </defs>
      <g>
       <use xlink:href="#m95f91dc100" x="33.4705" y="246.7627" style="stroke: #000000; stroke-width: 0.3"/>
      </g>
     </g>
     <g id="text_7">
      <!-- 0.0 -->
      <g transform="translate(19.693 249.7627) scale(0.08 -0.08)">
       <defs>
        <path id="Roboto-Light-2e" d="M 453 225 
Q 453 334 523 411 
Q 594 488 719 488 
Q 844 488 916 411 
Q 988 334 988 225 
Q 988 116 916 45 
Q 844 -25 719 -25 
Q 594 -25 523 45 
Q 453 116 453 225 
z
" transform="scale(0.015625)"/>
       </defs>
       <use xlink:href="#Roboto-Light-30"/>
       <use xlink:href="#Roboto-Light-2e" transform="translate(55.419922 0)"/>
       <use xlink:href="#Roboto-Light-30" transform="translate(79.296875 0)"/>
      </g>
     </g>
    </g>
    <g id="ytick_2">
     <g id="line2d_13">
      <path d="M 33.4705 215.249286 
L 361.032 215.249286 
" clip-path="url(#pd1bafe6294)" style="fill: none; stroke: #dee2e6; stroke-opacity: 0.25; stroke-width: -1; stroke-linecap: square"/>
     </g>
     <g id="line2d_14">
      <g>
       <use xlink:href="#m95f91dc100" x="33.4705" y="215.249286" style="stroke: #000000; stroke-width: 0.3"/>
      </g>
     </g>
     <g id="text_8">
      <!-- 0.5 -->
      <g transform="translate(19.693 218.249286) scale(0.08 -0.08)">
       <defs>
        <path id="Roboto-Light-35" d="M 681 2331 
L 903 4550 
L 3178 4550 
L 3178 4203 
L 1225 4203 
L 1066 2666 
Q 1431 2916 1922 2916 
Q 2538 2916 2903 2516 
Q 3269 2116 3269 1450 
Q 3269 731 2912 334 
Q 2556 -63 1909 -63 
Q 1316 -63 947 268 
Q 578 600 525 1197 
L 884 1197 
Q 938 731 1200 492 
Q 1463 253 1909 253 
Q 2397 253 2645 562 
Q 2894 872 2894 1444 
Q 2894 1944 2616 2259 
Q 2338 2575 1856 2575 
Q 1591 2575 1394 2508 
Q 1197 2441 978 2247 
L 681 2331 
z
" transform="scale(0.015625)"/>
       </defs>
       <use xlink:href="#Roboto-Light-30"/>
       <use xlink:href="#Roboto-Light-2e" transform="translate(55.419922 0)"/>
       <use xlink:href="#Roboto-Light-35" transform="translate(79.296875 0)"/>
      </g>
     </g>
    </g>
    <g id="ytick_3">
     <g id="line2d_15">
      <path d="M 33.4705 183.735871 
L 361.032 183.735871 
" clip-path="url(#pd1bafe6294)" style="fill: none; stroke: #dee2e6; stroke-opacity: 0.25; stroke-width: -1; stroke-linecap: square"/>
     </g>
     <g id="line2d_16">
      <g>
       <use xlink:href="#m95f91dc100" x="33.4705" y="183.735871" style="stroke: #000000; stroke-width: 0.3"/>
      </g>
     </g>
     <g id="text_9">
      <!-- 1.0 -->
      <g transform="translate(19.693 186.735871) scale(0.08 -0.08)">
       <use xlink:href="#Roboto-Light-31"/>
       <use xlink:href="#Roboto-Light-2e" transform="translate(55.419922 0)"/>
       <use xlink:href="#Roboto-Light-30" transform="translate(79.296875 0)"/>
      </g>
     </g>
    </g>
    <g id="ytick_4">
     <g id="line2d_17">
      <path d="M 33.4705 152.222457 
L 361.032 152.222457 
" clip-path="url(#pd1bafe6294)" style="fill: none; stroke: #dee2e6; stroke-opacity: 0.25; stroke-width: -1; stroke-linecap: square"/>
     </g>
     <g id="line2d_18">
      <g>
       <use xlink:href="#m95f91dc100" x="33.4705" y="152.222457" style="stroke: #000000; stroke-width: 0.3"/>
      </g>
     </g>
     <g id="text_10">
      <!-- 1.5 -->
      <g transform="translate(19.693 155.222457) scale(0.08 -0.08)">
       <use xlink:href="#Roboto-Light-31"/>
       <use xlink:href="#Roboto-Light-2e" transform="translate(55.419922 0)"/>
       <use xlink:href="#Roboto-Light-35" transform="translate(79.296875 0)"/>
      </g>
     </g>
    </g>
    <g id="ytick_5">
     <g id="line2d_19">
      <path d="M 33.4705 120.709043 
L 361.032 120.709043 
" clip-path="url(#pd1bafe6294)" style="fill: none; stroke: #dee2e6; stroke-opacity: 0.25; stroke-width: -1; stroke-linecap: square"/>
     </g>
     <g id="line2d_20">
      <g>
       <use xlink:href="#m95f91dc100" x="33.4705" y="120.709043" style="stroke: #000000; stroke-width: 0.3"/>
      </g>
     </g>
     <g id="text_11">
      <!-- 2.0 -->
      <g transform="translate(19.693 123.709043) scale(0.08 -0.08)">
       <use xlink:href="#Roboto-Light-32"/>
       <use xlink:href="#Roboto-Light-2e" transform="translate(55.419922 0)"/>
       <use xlink:href="#Roboto-Light-30" transform="translate(79.296875 0)"/>
      </g>
     </g>
    </g>
    <g id="ytick_6">
     <g id="line2d_21">
      <path d="M 33.4705 89.195628 
L 361.032 89.195628 
" clip-path="url(#pd1bafe6294)" style="fill: none; stroke: #dee2e6; stroke-opacity: 0.25; stroke-width: -1; stroke-linecap: square"/>
     </g>
     <g id="line2d_22">
      <g>
       <use xlink:href="#m95f91dc100" x="33.4705" y="89.195628" style="stroke: #000000; stroke-width: 0.3"/>
      </g>
     </g>
     <g id="text_12">
      <!-- 2.5 -->
      <g transform="translate(19.693 92.195628) scale(0.08 -0.08)">
       <use xlink:href="#Roboto-Light-32"/>
       <use xlink:href="#Roboto-Light-2e" transform="translate(55.419922 0)"/>
       <use xlink:href="#Roboto-Light-35" transform="translate(79.296875 0)"/>
      </g>
     </g>
    </g>
    <g id="ytick_7">
     <g id="line2d_23">
      <path d="M 33.4705 57.682214 
L 361.032 57.682214 
" clip-path="url(#pd1bafe6294)" style="fill: none; stroke: #dee2e6; stroke-opacity: 0.25; stroke-width: -1; stroke-linecap: square"/>
     </g>
     <g id="line2d_24">
      <g>
       <use xlink:href="#m95f91dc100" x="33.4705" y="57.682214" style="stroke: #000000; stroke-width: 0.3"/>
      </g>
     </g>
     <g id="text_13">
      <!-- 3.0 -->
      <g transform="translate(19.693 60.682214) scale(0.08 -0.08)">
       <use xlink:href="#Roboto-Light-33"/>
       <use xlink:href="#Roboto-Light-2e" transform="translate(55.419922 0)"/>
       <use xlink:href="#Roboto-Light-30" transform="translate(79.296875 0)"/>
      </g>
     </g>
    </g>
    <g id="ytick_8">
     <g id="line2d_25">
      <path d="M 33.4705 26.168799 
L 361.032 26.168799 
" clip-path="url(#pd1bafe6294)" style="fill: none; stroke: #dee2e6; stroke-opacity: 0.25; stroke-width: -1; stroke-linecap: square"/>
     </g>
     <g id="line2d_26">
      <g>
       <use xlink:href="#m95f91dc100" x="33.4705" y="26.168799" style="stroke: #000000; stroke-width: 0.3"/>
      </g>
     </g>
     <g id="text_14">
      <!-- 3.5 -->
      <g transform="translate(19.693 29.168799) scale(0.08 -0.08)">
       <use xlink:href="#Roboto-Light-33"/>
       <use xlink:href="#Roboto-Light-2e" transform="translate(55.419922 0)"/>
       <use xlink:href="#Roboto-Light-35" transform="translate(79.296875 0)"/>
      </g>
     </g>
    </g>
    <g id="text_15">
     <!-- System COP [-] -->
     <g transform="translate(13.9855 152.48625) rotate(-90) scale(0.08 -0.08)">
      <defs>
       <path id="Roboto-Regular-53" d="M 1869 2028 
Q 1097 2250 745 2573 
Q 394 2897 394 3372 
Q 394 3909 823 4261 
Q 1253 4613 1941 4613 
Q 2409 4613 2776 4431 
Q 3144 4250 3345 3931 
Q 3547 3613 3547 3234 
L 2944 3234 
Q 2944 3647 2681 3883 
Q 2419 4119 1941 4119 
Q 1497 4119 1248 3923 
Q 1000 3728 1000 3381 
Q 1000 3103 1236 2911 
Q 1472 2719 2039 2559 
Q 2606 2400 2926 2208 
Q 3247 2016 3401 1759 
Q 3556 1503 3556 1156 
Q 3556 603 3125 270 
Q 2694 -63 1972 -63 
Q 1503 -63 1097 117 
Q 691 297 470 609 
Q 250 922 250 1319 
L 853 1319 
Q 853 906 1158 667 
Q 1463 428 1972 428 
Q 2447 428 2700 622 
Q 2953 816 2953 1150 
Q 2953 1484 2718 1667 
Q 2484 1850 1869 2028 
z
" transform="scale(0.015625)"/>
       <path id="Roboto-Regular-79" d="M 1544 847 
L 2331 3381 
L 2950 3381 
L 1591 -522 
Q 1275 -1366 588 -1366 
L 478 -1356 
L 263 -1316 
L 263 -847 
L 419 -859 
Q 713 -859 877 -740 
Q 1041 -622 1147 -306 
L 1275 38 
L 69 3381 
L 700 3381 
L 1544 847 
z
" transform="scale(0.015625)"/>
       <path id="Roboto-Regular-4f" d="M 4028 2128 
Q 4028 1459 3803 961 
Q 3578 463 3165 200 
Q 2753 -63 2203 -63 
Q 1666 -63 1250 201 
Q 834 466 604 955 
Q 375 1444 369 2088 
L 369 2416 
Q 369 3072 597 3575 
Q 825 4078 1242 4345 
Q 1659 4613 2197 4613 
Q 2744 4613 3161 4348 
Q 3578 4084 3803 3582 
Q 4028 3081 4028 2416 
L 4028 2128 
z
M 3431 2422 
Q 3431 3231 3106 3664 
Q 2781 4097 2197 4097 
Q 1628 4097 1301 3664 
Q 975 3231 966 2463 
L 966 2128 
Q 966 1344 1295 895 
Q 1625 447 2203 447 
Q 2784 447 3103 870 
Q 3422 1294 3431 2084 
L 3431 2422 
z
" transform="scale(0.015625)"/>
       <path id="Roboto-Regular-50" d="M 1128 1781 
L 1128 0 
L 528 0 
L 528 4550 
L 2206 4550 
Q 2953 4550 3376 4169 
Q 3800 3788 3800 3159 
Q 3800 2497 3386 2139 
Q 2972 1781 2200 1781 
L 1128 1781 
z
M 1128 2272 
L 2206 2272 
Q 2688 2272 2944 2498 
Q 3200 2725 3200 3153 
Q 3200 3559 2944 3803 
Q 2688 4047 2241 4056 
L 1128 4056 
L 1128 2272 
z
" transform="scale(0.015625)"/>
      </defs>
      <use xlink:href="#Roboto-Regular-53"/>
      <use xlink:href="#Roboto-Regular-79" transform="translate(59.326172 0)"/>
      <use xlink:href="#Roboto-Regular-73" transform="translate(106.640625 0)"/>
      <use xlink:href="#Roboto-Regular-74" transform="translate(158.203125 0)"/>
      <use xlink:href="#Roboto-Regular-65" transform="translate(190.869141 0)"/>
      <use xlink:href="#Roboto-Regular-6d" transform="translate(243.847656 0)"/>
      <use xlink:href="#Roboto-Regular-20" transform="translate(331.494141 0)"/>
      <use xlink:href="#Roboto-Regular-43" transform="translate(356.25 0)"/>
      <use xlink:href="#Roboto-Regular-4f" transform="translate(421.337891 0)"/>
      <use xlink:href="#Roboto-Regular-50" transform="translate(490.087891 0)"/>
      <use xlink:href="#Roboto-Regular-20" transform="translate(553.173828 0)"/>
      <use xlink:href="#Roboto-Regular-5b" transform="translate(577.929688 0)"/>
      <use xlink:href="#Roboto-Regular-2d" transform="translate(604.443359 0)"/>
      <use xlink:href="#Roboto-Regular-5d" transform="translate(632.03125 0)"/>
     </g>
    </g>
   </g>
   <g id="line2d_27">
    <path d="M 40.439894 109.78472 
L 57.863378 105.412532 
L 75.286862 100.747989 
L 92.710346 95.76219 
L 110.13383 90.422283 
L 127.557314 84.690764 
L 144.980798 78.524633 
L 162.404282 71.953286 
L 179.827766 68.633436 
L 197.25125 67.399365 
L 214.674734 66.811139 
L 232.098218 66.4843 
L 249.521702 66.282929 
L 266.945186 64.008649 
L 284.36867 55.892555 
L 301.792154 47.043826 
L 319.215638 37.362482 
L 336.639122 26.729663 
L 354.062606 15.002975 
" clip-path="url(#pd1bafe6294)" style="fill: none; stroke: #fd7e14; stroke-width: 2; stroke-linecap: square"/>
    <defs>
     <path id="m2c80ec6a9e" d="M 0 2 
C 0.530406 2 1.03916 1.789267 1.414214 1.414214 
C 1.789267 1.03916 2 0.530406 2 0 
C 2 -0.530406 1.789267 -1.03916 1.414214 -1.414214 
C 1.03916 -1.789267 0.530406 -2 0 -2 
C -0.530406 -2 -1.03916 -1.789267 -1.414214 -1.414214 
C -1.789267 -1.03916 -2 -0.530406 -2 0 
C -2 0.530406 -1.789267 1.03916 -1.414214 1.414214 
C -1.03916 1.789267 -0.530406 2 0 2 
z
" style="stroke: #fd7e14"/>
    </defs>
    <g clip-path="url(#pd1bafe6294)">
     <use xlink:href="#m2c80ec6a9e" x="40.439894" y="109.78472" style="fill: #fd7e14; stroke: #fd7e14"/>
     <use xlink:href="#m2c80ec6a9e" x="57.863378" y="105.412532" style="fill: #fd7e14; stroke: #fd7e14"/>
     <use xlink:href="#m2c80ec6a9e" x="75.286862" y="100.747989" style="fill: #fd7e14; stroke: #fd7e14"/>
     <use xlink:href="#m2c80ec6a9e" x="92.710346" y="95.76219" style="fill: #fd7e14; stroke: #fd7e14"/>
     <use xlink:href="#m2c80ec6a9e" x="110.13383" y="90.422283" style="fill: #fd7e14; stroke: #fd7e14"/>
     <use xlink:href="#m2c80ec6a9e" x="127.557314" y="84.690764" style="fill: #fd7e14; stroke: #fd7e14"/>
     <use xlink:href="#m2c80ec6a9e" x="144.980798" y="78.524633" style="fill: #fd7e14; stroke: #fd7e14"/>
     <use xlink:href="#m2c80ec6a9e" x="162.404282" y="71.953286" style="fill: #fd7e14; stroke: #fd7e14"/>
     <use xlink:href="#m2c80ec6a9e" x="179.827766" y="68.633436" style="fill: #fd7e14; stroke: #fd7e14"/>
     <use xlink:href="#m2c80ec6a9e" x="197.25125" y="67.399365" style="fill: #fd7e14; stroke: #fd7e14"/>
     <use xlink:href="#m2c80ec6a9e" x="214.674734" y="66.811139" style="fill: #fd7e14; stroke: #fd7e14"/>
     <use xlink:href="#m2c80ec6a9e" x="232.098218" y="66.4843" style="fill: #fd7e14; stroke: #fd7e14"/>
     <use xlink:href="#m2c80ec6a9e" x="249.521702" y="66.282929" style="fill: #fd7e14; stroke: #fd7e14"/>
     <use xlink:href="#m2c80ec6a9e" x="266.945186" y="64.008649" style="fill: #fd7e14; stroke: #fd7e14"/>
     <use xlink:href="#m2c80ec6a9e" x="284.36867" y="55.892555" style="fill: #fd7e14; stroke: #fd7e14"/>
     <use xlink:href="#m2c80ec6a9e" x="301.792154" y="47.043826" style="fill: #fd7e14; stroke: #fd7e14"/>
     <use xlink:href="#m2c80ec6a9e" x="319.215638" y="37.362482" style="fill: #fd7e14; stroke: #fd7e14"/>
     <use xlink:href="#m2c80ec6a9e" x="336.639122" y="26.729663" style="fill: #fd7e14; stroke: #fd7e14"/>
     <use xlink:href="#m2c80ec6a9e" x="354.062606" y="15.002975" style="fill: #fd7e14; stroke: #fd7e14"/>
    </g>
   </g>
   <g id="line2d_28">
    <path d="M 110.13383 106.608392 
L 124.072617 102.392326 
L 138.011404 97.941849 
L 151.950191 93.237187 
L 165.888979 88.256339 
L 179.827766 82.974739 
L 193.766553 77.36486 
L 207.70534 71.395752 
L 221.644128 65.032472 
L 235.582915 58.235416 
L 249.521702 50.959508 
" clip-path="url(#pd1bafe6294)" style="fill: none; stroke: #4c6ef5; stroke-width: 2; stroke-linecap: square"/>
    <defs>
     <path id="mb0c1c35caf" d="M -2 2 
L 2 2 
L 2 -2 
L -2 -2 
z
" style="stroke: #4c6ef5; stroke-linejoin: miter"/>
    </defs>
    <g clip-path="url(#pd1bafe6294)">
     <use xlink:href="#mb0c1c35caf" x="110.13383" y="106.608392" style="fill: #4c6ef5; stroke: #4c6ef5; stroke-linejoin: miter"/>
     <use xlink:href="#mb0c1c35caf" x="124.072617" y="102.392326" style="fill: #4c6ef5; stroke: #4c6ef5; stroke-linejoin: miter"/>
     <use xlink:href="#mb0c1c35caf" x="138.011404" y="97.941849" style="fill: #4c6ef5; stroke: #4c6ef5; stroke-linejoin: miter"/>
     <use xlink:href="#mb0c1c35caf" x="151.950191" y="93.237187" style="fill: #4c6ef5; stroke: #4c6ef5; stroke-linejoin: miter"/>
     <use xlink:href="#mb0c1c35caf" x="165.888979" y="88.256339" style="fill: #4c6ef5; stroke: #4c6ef5; stroke-linejoin: miter"/>
     <use xlink:href="#mb0c1c35caf" x="179.827766" y="82.974739" style="fill: #4c6ef5; stroke: #4c6ef5; stroke-linejoin: miter"/>
     <use xlink:href="#mb0c1c35caf" x="193.766553" y="77.36486" style="fill: #4c6ef5; stroke: #4c6ef5; stroke-linejoin: miter"/>
     <use xlink:href="#mb0c1c35caf" x="207.70534" y="71.395752" style="fill: #4c6ef5; stroke: #4c6ef5; stroke-linejoin: miter"/>
     <use xlink:href="#mb0c1c35caf" x="221.644128" y="65.032472" style="fill: #4c6ef5; stroke: #4c6ef5; stroke-linejoin: miter"/>
     <use xlink:href="#mb0c1c35caf" x="235.582915" y="58.235416" style="fill: #4c6ef5; stroke: #4c6ef5; stroke-linejoin: miter"/>
     <use xlink:href="#mb0c1c35caf" x="249.521702" y="50.959508" style="fill: #4c6ef5; stroke: #4c6ef5; stroke-linejoin: miter"/>
    </g>
   </g>
   <g id="patch_3">
    <path d="M 33.4705 246.7627 
L 33.4705 5.5248 
" style="fill: none; stroke: #000000; stroke-width: 0.3; stroke-linejoin: miter; stroke-linecap: square"/>
   </g>
   <g id="patch_4">
    <path d="M 33.4705 246.7627 
L 361.032 246.7627 
" style="fill: none; stroke: #000000; stroke-width: 0.3; stroke-linejoin: miter; stroke-linecap: square"/>
   </g>
   <g id="text_16">
    <!-- $T_{\mathrm{tank,w}} = 55$ °C -->
    <g style="fill: #343a40" transform="translate(310.59077 223.58918) scale(0.07 -0.07)">
     <defs>
      <path id="NotoSansMath-Regular-54" d="M 1491 0 
L 1491 4064 
L 64 4064 
L 64 4570 
L 3488 4570 
L 3488 4064 
L 2067 4064 
L 2067 0 
L 1491 0 
z
" transform="scale(0.015625)"/>
      <path id="NotoSansMath-Regular-74" d="M 1594 -64 
Q 1325 -64 1097 29 
Q 870 122 729 352 
Q 589 582 589 998 
L 589 2995 
L 102 2995 
L 102 3264 
L 595 3488 
L 819 4218 
L 1152 4218 
L 1152 3430 
L 2144 3430 
L 2144 2995 
L 1152 2995 
L 1152 1011 
Q 1152 698 1302 547 
Q 1453 397 1690 397 
Q 1818 397 1952 419 
Q 2086 442 2170 467 
L 2170 38 
Q 2080 -6 1913 -35 
Q 1747 -64 1594 -64 
z
" transform="scale(0.015625)"/>
      <path id="NotoSansMath-Regular-61" d="M 1376 -64 
Q 909 -64 601 182 
Q 294 429 294 954 
Q 294 1466 697 1744 
Q 1101 2022 1939 2048 
L 2522 2067 
L 2522 2272 
Q 2522 2701 2336 2867 
Q 2150 3034 1811 3034 
Q 1542 3034 1299 2954 
Q 1056 2874 845 2771 
L 672 3194 
Q 896 3315 1203 3401 
Q 1510 3488 1843 3488 
Q 2470 3488 2771 3213 
Q 3072 2938 3072 2336 
L 3072 0 
L 2662 0 
L 2554 486 
L 2528 486 
Q 2304 205 2057 70 
Q 1811 -64 1376 -64 
z
M 1504 390 
Q 1939 390 2227 630 
Q 2515 870 2515 1370 
L 2515 1677 
L 2010 1658 
Q 1370 1632 1123 1453 
Q 877 1274 877 947 
Q 877 659 1053 524 
Q 1229 390 1504 390 
z
" transform="scale(0.015625)"/>
      <path id="NotoSansMath-Regular-6e" d="M 544 0 
L 544 3430 
L 998 3430 
L 1082 2963 
L 1114 2963 
Q 1280 3232 1574 3363 
Q 1869 3494 2195 3494 
Q 2810 3494 3123 3196 
Q 3437 2899 3437 2234 
L 3437 0 
L 2880 0 
L 2880 2195 
Q 2880 3021 2112 3021 
Q 1542 3021 1324 2701 
Q 1107 2381 1107 1779 
L 1107 0 
L 544 0 
z
" transform="scale(0.015625)"/>
      <path id="NotoSansMath-Regular-6b" d="M 544 0 
L 544 4864 
L 1101 4864 
L 1101 2323 
Q 1101 2221 1094 2054 
Q 1088 1888 1075 1766 
L 1101 1766 
Q 1139 1818 1216 1914 
Q 1293 2010 1373 2109 
Q 1453 2208 1510 2272 
L 2605 3430 
L 3264 3430 
L 1875 1965 
L 3360 0 
L 2682 0 
L 1491 1600 
L 1101 1261 
L 1101 0 
L 544 0 
z
" transform="scale(0.015625)"/>
      <path id="NotoSansMath-Regular-2c" d="M 262 -826 
Q 352 -461 445 -25 
Q 538 410 582 742 
L 1184 742 
L 1229 672 
Q 1146 333 989 -73 
Q 832 -480 678 -826 
L 262 -826 
z
" transform="scale(0.015625)"/>
      <path id="NotoSansMath-Regular-77" d="M 1011 6 
L 70 3437 
L 653 3437 
L 1126 1606 
Q 1197 1331 1261 1049 
Q 1325 768 1350 582 
L 1376 582 
Q 1402 691 1437 851 
Q 1472 1011 1517 1187 
Q 1562 1363 1606 1504 
L 2214 3437 
L 2829 3437 
L 3418 1504 
Q 3488 1286 3555 1030 
Q 3622 774 3648 589 
L 3674 589 
Q 3693 749 3760 1030 
Q 3827 1312 3904 1606 
L 4384 3437 
L 4960 3437 
L 4006 6 
L 3347 6 
L 2758 1939 
Q 2675 2202 2614 2454 
Q 2554 2707 2522 2848 
L 2496 2848 
Q 2470 2707 2412 2454 
Q 2355 2202 2266 1933 
L 1651 6 
L 1011 6 
z
" transform="scale(0.015625)"/>
      <path id="NotoSansMath-Regular-3d" d="M 365 2662 
L 365 3117 
L 3296 3117 
L 3296 2662 
L 365 2662 
z
M 365 1389 
L 365 1843 
L 3296 1843 
L 3296 1389 
L 365 1389 
z
" transform="scale(0.015625)"/>
      <path id="NotoSansMath-Regular-35" d="M 1587 -64 
Q 1235 -64 924 0 
Q 614 64 403 186 
L 403 717 
Q 634 576 963 496 
Q 1293 416 1594 416 
Q 2099 416 2409 656 
Q 2720 896 2720 1402 
Q 2720 1850 2445 2090 
Q 2170 2330 1574 2330 
Q 1395 2330 1164 2298 
Q 934 2266 794 2234 
L 512 2413 
L 685 4570 
L 2976 4570 
L 2976 4058 
L 1165 4058 
L 1056 2733 
Q 1165 2752 1350 2777 
Q 1536 2803 1760 2803 
Q 2464 2803 2880 2451 
Q 3296 2099 3296 1459 
Q 3296 749 2845 342 
Q 2394 -64 1587 -64 
z
" transform="scale(0.015625)"/>
      <path id="Roboto-Light-20" transform="scale(0.015625)"/>
      <path id="Roboto-Light-b0" d="M 1969 3831 
Q 1969 3506 1747 3284 
Q 1525 3063 1213 3063 
Q 897 3063 672 3286 
Q 447 3509 447 3831 
Q 447 4153 675 4383 
Q 903 4613 1212 4613 
Q 1522 4613 1745 4383 
Q 1969 4153 1969 3831 
z
M 728 3831 
Q 728 3622 867 3484 
Q 1006 3347 1212 3347 
Q 1419 3347 1553 3484 
Q 1688 3622 1688 3831 
Q 1688 4047 1553 4187 
Q 1419 4328 1213 4328 
Q 1009 4328 868 4187 
Q 728 4047 728 3831 
z
" transform="scale(0.015625)"/>
      <path id="Roboto-Light-43" d="M 3797 1419 
Q 3719 700 3283 318 
Q 2847 -63 2122 -63 
Q 1616 -63 1227 190 
Q 838 444 625 908 
Q 413 1372 409 1969 
L 409 2559 
Q 409 3166 621 3634 
Q 834 4103 1232 4358 
Q 1631 4613 2150 4613 
Q 2881 4613 3304 4217 
Q 3728 3822 3797 3125 
L 3409 3125 
Q 3266 4284 2150 4284 
Q 1531 4284 1164 3821 
Q 797 3359 797 2544 
L 797 1988 
Q 797 1200 1155 731 
Q 1513 263 2122 263 
Q 2725 263 3031 552 
Q 3338 841 3409 1419 
L 3797 1419 
z
" transform="scale(0.015625)"/>
     </defs>
     <use xlink:href="#NotoSansMath-Regular-54" transform="translate(0 0.921875)"/>
     <use xlink:href="#NotoSansMath-Regular-74" transform="translate(55.599991 -15.15625) scale(0.7)"/>
     <use xlink:href="#NotoSansMath-Regular-61" transform="translate(80.869984 -15.15625) scale(0.7)"/>
     <use xlink:href="#NotoSansMath-Regular-6e" transform="translate(120.139978 -15.15625) scale(0.7)"/>
     <use xlink:href="#NotoSansMath-Regular-6b" transform="translate(163.399969 -15.15625) scale(0.7)"/>
     <use xlink:href="#NotoSansMath-Regular-2c" transform="translate(200.779965 -15.15625) scale(0.7)"/>
     <use xlink:href="#NotoSansMath-Regular-77" transform="translate(232.629955 -15.15625) scale(0.7)"/>
     <use xlink:href="#NotoSansMath-Regular-3d" transform="translate(309.029633 0.921875)"/>
     <use xlink:href="#NotoSansMath-Regular-35" transform="translate(384.929626 0.921875)"/>
     <use xlink:href="#NotoSansMath-Regular-35" transform="translate(442.129623 0.921875)"/>
     <use xlink:href="#Roboto-Light-20" transform="translate(499.32962 0.921875)"/>
     <use xlink:href="#Roboto-Light-b0" transform="translate(523.646027 0.921875)"/>
     <use xlink:href="#Roboto-Light-43" transform="translate(561.438995 0.921875)"/>
    </g>
    <!-- $\dot Q_{\mathrm{cond}} = 8$ kW -->
    <g style="fill: #343a40" transform="translate(315.35077 233.27893) scale(0.07 -0.07)">
     <defs>
      <path id="NotoSansMath-Regular-307" d="M 6 4000 
Q -134 4000 -230 4089 
Q -326 4179 -326 4358 
Q -326 4544 -230 4630 
Q -134 4717 6 4717 
Q 134 4717 233 4630 
Q 333 4544 333 4358 
Q 333 4179 233 4089 
Q 134 4000 6 4000 
z
" transform="scale(0.015625)"/>
      <path id="NotoSansMath-Regular-51" d="M 3546 -1088 
L 2662 -58 
Q 2598 -64 2569 -64 
Q 2541 -64 2502 -64 
Q 1792 -64 1321 230 
Q 851 525 620 1056 
Q 390 1587 390 2298 
Q 390 3002 620 3526 
Q 851 4051 1321 4345 
Q 1792 4640 2509 4640 
Q 3194 4640 3661 4349 
Q 4128 4058 4368 3530 
Q 4608 3002 4608 2291 
Q 4608 1453 4272 864 
Q 3936 275 3277 51 
L 4371 -1088 
L 3546 -1088 
z
M 2502 435 
Q 3283 435 3641 931 
Q 4000 1427 4000 2291 
Q 4000 3155 3641 3644 
Q 3283 4134 2509 4134 
Q 1734 4134 1366 3644 
Q 998 3155 998 2291 
Q 998 1427 1363 931 
Q 1728 435 2502 435 
z
" transform="scale(0.015625)"/>
      <path id="NotoSansMath-Regular-63" d="M 1920 -64 
Q 1466 -64 1110 121 
Q 755 307 553 697 
Q 352 1088 352 1696 
Q 352 2330 563 2726 
Q 774 3123 1136 3308 
Q 1498 3494 1958 3494 
Q 2221 3494 2464 3440 
Q 2707 3386 2861 3309 
L 2688 2842 
Q 2534 2899 2329 2950 
Q 2125 3002 1946 3002 
Q 934 3002 934 1702 
Q 934 1082 1180 752 
Q 1427 422 1914 422 
Q 2195 422 2409 480 
Q 2624 538 2803 621 
L 2803 122 
Q 2630 32 2422 -16 
Q 2214 -64 1920 -64 
z
" transform="scale(0.015625)"/>
      <path id="NotoSansMath-Regular-6f" d="M 1926 -64 
Q 1472 -64 1117 144 
Q 762 352 557 752 
Q 352 1152 352 1722 
Q 352 2573 781 3033 
Q 1210 3494 1946 3494 
Q 2413 3494 2768 3286 
Q 3123 3078 3324 2684 
Q 3526 2291 3526 1722 
Q 3526 870 3094 403 
Q 2662 -64 1926 -64 
z
M 1939 403 
Q 2458 403 2701 758 
Q 2944 1114 2944 1722 
Q 2944 2330 2701 2675 
Q 2458 3021 1933 3021 
Q 1408 3021 1171 2675 
Q 934 2330 934 1722 
Q 934 1114 1174 758 
Q 1414 403 1939 403 
z
" transform="scale(0.015625)"/>
      <path id="NotoSansMath-Regular-64" d="M 1760 -64 
Q 1120 -64 736 381 
Q 352 826 352 1709 
Q 352 2592 739 3043 
Q 1126 3494 1766 3494 
Q 2163 3494 2416 3347 
Q 2669 3200 2829 2989 
L 2867 2989 
Q 2861 3072 2845 3235 
Q 2829 3398 2829 3494 
L 2829 4864 
L 3392 4864 
L 3392 0 
L 2938 0 
L 2854 461 
L 2829 461 
Q 2675 243 2419 89 
Q 2163 -64 1760 -64 
z
M 1850 403 
Q 2394 403 2614 700 
Q 2835 998 2835 1600 
L 2835 1702 
Q 2835 2342 2624 2684 
Q 2413 3027 1843 3027 
Q 1389 3027 1161 2665 
Q 934 2304 934 1696 
Q 934 1082 1161 742 
Q 1389 403 1850 403 
z
" transform="scale(0.015625)"/>
      <path id="NotoSansMath-Regular-38" d="M 1843 -64 
Q 1107 -64 710 259 
Q 314 582 314 1165 
Q 314 1478 445 1708 
Q 576 1939 793 2105 
Q 1011 2272 1261 2387 
Q 928 2579 694 2851 
Q 461 3123 461 3546 
Q 461 3898 640 4138 
Q 819 4378 1126 4506 
Q 1434 4634 1824 4634 
Q 2426 4634 2810 4352 
Q 3194 4070 3194 3539 
Q 3194 3264 3075 3059 
Q 2957 2854 2758 2697 
Q 2560 2541 2323 2419 
Q 2605 2285 2835 2115 
Q 3066 1946 3203 1722 
Q 3341 1498 3341 1184 
Q 3341 608 2934 272 
Q 2528 -64 1843 -64 
z
M 1850 2637 
Q 2182 2778 2409 2976 
Q 2637 3174 2637 3520 
Q 2637 3840 2413 4009 
Q 2189 4179 1818 4179 
Q 1466 4179 1238 4009 
Q 1011 3840 1011 3520 
Q 1011 3283 1123 3123 
Q 1235 2963 1427 2851 
Q 1619 2739 1850 2637 
z
M 1830 384 
Q 2298 384 2544 605 
Q 2790 826 2790 1178 
Q 2790 1510 2528 1731 
Q 2266 1952 1830 2118 
L 1728 2157 
Q 1306 1978 1085 1744 
Q 864 1510 864 1158 
Q 864 826 1101 605 
Q 1338 384 1830 384 
z
" transform="scale(0.015625)"/>
      <path id="Roboto-Light-6b" d="M 1291 1703 
L 863 1291 
L 863 0 
L 488 0 
L 488 4800 
L 863 4800 
L 863 1728 
L 1216 2109 
L 2509 3381 
L 2981 3381 
L 1547 1956 
L 3106 0 
L 2659 0 
L 1291 1703 
z
" transform="scale(0.015625)"/>
      <path id="Roboto-Light-57" d="M 1416 1228 
L 1556 522 
L 1728 1197 
L 2716 4550 
L 3063 4550 
L 4038 1197 
L 4206 516 
L 4356 1228 
L 5178 4550 
L 5572 4550 
L 4406 0 
L 4038 0 
L 3006 3559 
L 2891 4009 
L 2778 3559 
L 1722 0 
L 1353 0 
L 191 4550 
L 584 4550 
L 1416 1228 
z
" transform="scale(0.015625)"/>
     </defs>
     <use xlink:href="#NotoSansMath-Regular-307" transform="translate(41.566406 23.296875)"/>
     <use xlink:href="#NotoSansMath-Regular-51" transform="translate(0 0.796875)"/>
     <use xlink:href="#NotoSansMath-Regular-63" transform="translate(79.037881 -15.28125) scale(0.7)"/>
     <use xlink:href="#NotoSansMath-Regular-6f" transform="translate(112.637871 -15.28125) scale(0.7)"/>
     <use xlink:href="#NotoSansMath-Regular-6e" transform="translate(154.98786 -15.28125) scale(0.7)"/>
     <use xlink:href="#NotoSansMath-Regular-64" transform="translate(198.247852 -15.28125) scale(0.7)"/>
     <use xlink:href="#NotoSansMath-Regular-3d" transform="translate(262.677525 0.796875)"/>
     <use xlink:href="#NotoSansMath-Regular-38" transform="translate(338.577519 0.796875)"/>
     <use xlink:href="#Roboto-Light-20" transform="translate(395.777516 0.796875)"/>
     <use xlink:href="#Roboto-Light-6b" transform="translate(420.093922 0.796875)"/>
     <use xlink:href="#Roboto-Light-57" transform="translate(469.068532 0.796875)"/>
    </g>
   </g>
   <g id="legend_1">
    <g id="line2d_29">
     <path d="M 36.9705 12.152925 
L 43.9705 12.152925 
L 50.9705 12.152925 
" style="fill: none; stroke: #fd7e14; stroke-width: 2; stroke-linecap: square"/>
     <g>
      <use xlink:href="#m2c80ec6a9e" x="43.9705" y="12.152925" style="fill: #fd7e14; stroke: #fd7e14"/>
     </g>
    </g>
    <g id="text_17">
     <!-- ASHP (R32, source = outdoor air) -->
     <g transform="translate(53.0705 14.602925) scale(0.07 -0.07)">
      <defs>
       <path id="Roboto-Light-41" d="M 3031 1275 
L 966 1275 
L 497 0 
L 94 0 
L 1816 4550 
L 2181 4550 
L 3903 0 
L 3503 0 
L 3031 1275 
z
M 1084 1603 
L 2909 1603 
L 1997 4081 
L 1084 1603 
z
" transform="scale(0.015625)"/>
       <path id="Roboto-Light-53" d="M 3150 1119 
Q 3150 1497 2884 1717 
Q 2619 1938 1912 2136 
Q 1206 2334 881 2569 
Q 419 2900 419 3438 
Q 419 3959 848 4286 
Q 1278 4613 1947 4613 
Q 2400 4613 2758 4438 
Q 3116 4263 3312 3950 
Q 3509 3638 3509 3253 
L 3122 3253 
Q 3122 3719 2803 4001 
Q 2484 4284 1947 4284 
Q 1425 4284 1115 4051 
Q 806 3819 806 3444 
Q 806 3097 1084 2878 
Q 1363 2659 1975 2492 
Q 2588 2325 2903 2145 
Q 3219 1966 3378 1716 
Q 3538 1466 3538 1125 
Q 3538 588 3108 262 
Q 2678 -63 1975 -63 
Q 1494 -63 1092 109 
Q 691 281 483 590 
Q 275 900 275 1300 
L 659 1300 
Q 659 819 1018 541 
Q 1378 263 1975 263 
Q 2506 263 2828 497 
Q 3150 731 3150 1119 
z
" transform="scale(0.015625)"/>
       <path id="Roboto-Light-48" d="M 3947 0 
L 3559 0 
L 3559 2181 
L 959 2181 
L 959 0 
L 575 0 
L 575 4550 
L 959 4550 
L 959 2506 
L 3559 2506 
L 3559 4550 
L 3947 4550 
L 3947 0 
z
" transform="scale(0.015625)"/>
       <path id="Roboto-Light-50" d="M 959 1853 
L 959 0 
L 575 0 
L 575 4550 
L 2125 4550 
Q 2834 4550 3245 4187 
Q 3656 3825 3656 3191 
Q 3656 2550 3261 2201 
Q 2866 1853 2116 1853 
L 959 1853 
z
M 959 2178 
L 2125 2178 
Q 2684 2178 2978 2443 
Q 3272 2709 3272 3184 
Q 3272 3656 2980 3936 
Q 2688 4216 2150 4222 
L 959 4222 
L 959 2178 
z
" transform="scale(0.015625)"/>
       <path id="Roboto-Light-28" d="M 438 1838 
Q 438 2519 613 3161 
Q 788 3803 1125 4336 
Q 1463 4869 1850 5100 
L 1941 4847 
Q 1734 4700 1531 4419 
Q 1328 4138 1168 3750 
Q 1009 3363 911 2880 
Q 813 2397 813 1784 
Q 813 1131 961 528 
Q 1109 -75 1368 -536 
Q 1628 -997 1941 -1228 
L 1850 -1469 
Q 1453 -1231 1115 -701 
Q 778 -172 608 464 
Q 438 1100 438 1838 
z
" transform="scale(0.015625)"/>
       <path id="Roboto-Light-52" d="M 2275 1894 
L 953 1894 
L 953 0 
L 566 0 
L 566 4550 
L 2044 4550 
Q 2772 4550 3181 4197 
Q 3591 3844 3591 3209 
Q 3591 2772 3334 2437 
Q 3078 2103 2647 1975 
L 3784 41 
L 3784 0 
L 3375 0 
L 2275 1894 
z
M 953 2222 
L 2131 2222 
Q 2616 2222 2909 2497 
Q 3203 2772 3203 3209 
Q 3203 3691 2897 3956 
Q 2591 4222 2038 4222 
L 953 4222 
L 953 2222 
z
" transform="scale(0.015625)"/>
       <path id="Roboto-Light-2c" d="M 409 -850 
L 188 -688 
Q 472 -306 481 103 
L 481 588 
L 847 588 
L 847 197 
Q 847 -453 409 -850 
z
" transform="scale(0.015625)"/>
       <path id="Roboto-Light-73" d="M 2513 859 
Q 2513 1138 2289 1306 
Q 2066 1475 1616 1570 
Q 1166 1666 917 1789 
Q 669 1913 548 2091 
Q 428 2269 428 2522 
Q 428 2922 762 3183 
Q 1097 3444 1619 3444 
Q 2184 3444 2526 3164 
Q 2869 2884 2869 2434 
L 2494 2434 
Q 2494 2731 2245 2928 
Q 1997 3125 1619 3125 
Q 1250 3125 1026 2961 
Q 803 2797 803 2534 
Q 803 2281 989 2142 
Q 1175 2003 1667 1887 
Q 2159 1772 2404 1640 
Q 2650 1509 2769 1325 
Q 2888 1141 2888 878 
Q 2888 450 2542 193 
Q 2197 -63 1641 -63 
Q 1050 -63 683 223 
Q 316 509 316 947 
L 691 947 
Q 713 619 967 436 
Q 1222 253 1641 253 
Q 2031 253 2272 425 
Q 2513 597 2513 859 
z
" transform="scale(0.015625)"/>
       <path id="Roboto-Light-6f" d="M 281 1741 
Q 281 2228 470 2618 
Q 659 3009 1004 3226 
Q 1350 3444 1788 3444 
Q 2463 3444 2881 2970 
Q 3300 2497 3300 1716 
L 3300 1638 
Q 3300 1147 3111 755 
Q 2922 363 2578 150 
Q 2234 -63 1794 -63 
Q 1122 -63 701 410 
Q 281 884 281 1666 
L 281 1741 
z
M 656 1638 
Q 656 1031 970 642 
Q 1284 253 1794 253 
Q 2300 253 2614 642 
Q 2928 1031 2928 1669 
L 2928 1741 
Q 2928 2128 2784 2450 
Q 2641 2772 2381 2948 
Q 2122 3125 1788 3125 
Q 1288 3125 972 2733 
Q 656 2341 656 1706 
L 656 1638 
z
" transform="scale(0.015625)"/>
       <path id="Roboto-Light-75" d="M 2663 428 
Q 2325 -63 1584 -63 
Q 1044 -63 762 251 
Q 481 566 475 1181 
L 475 3381 
L 847 3381 
L 847 1228 
Q 847 263 1628 263 
Q 2441 263 2656 934 
L 2656 3381 
L 3031 3381 
L 3031 0 
L 2669 0 
L 2663 428 
z
" transform="scale(0.015625)"/>
       <path id="Roboto-Light-72" d="M 2050 3063 
Q 1931 3084 1797 3084 
Q 1447 3084 1205 2889 
Q 963 2694 859 2322 
L 859 0 
L 488 0 
L 488 3381 
L 853 3381 
L 859 2844 
Q 1156 3444 1813 3444 
Q 1969 3444 2059 3403 
L 2050 3063 
z
" transform="scale(0.015625)"/>
       <path id="Roboto-Light-63" d="M 1738 253 
Q 2128 253 2392 473 
Q 2656 694 2678 1044 
L 3038 1044 
Q 3022 734 2844 479 
Q 2666 225 2370 81 
Q 2075 -63 1738 -63 
Q 1072 -63 683 400 
Q 294 863 294 1644 
L 294 1756 
Q 294 2256 469 2640 
Q 644 3025 970 3234 
Q 1297 3444 1734 3444 
Q 2291 3444 2652 3112 
Q 3013 2781 3038 2241 
L 2678 2241 
Q 2653 2638 2392 2881 
Q 2131 3125 1734 3125 
Q 1228 3125 948 2759 
Q 669 2394 669 1734 
L 669 1625 
Q 669 978 948 615 
Q 1228 253 1738 253 
z
" transform="scale(0.015625)"/>
       <path id="Roboto-Light-65" d="M 1797 -63 
Q 1366 -63 1017 150 
Q 669 363 475 742 
Q 281 1122 281 1594 
L 281 1728 
Q 281 2216 470 2606 
Q 659 2997 996 3220 
Q 1334 3444 1728 3444 
Q 2344 3444 2705 3023 
Q 3066 2603 3066 1875 
L 3066 1666 
L 653 1666 
L 653 1594 
Q 653 1019 983 636 
Q 1313 253 1813 253 
Q 2113 253 2342 362 
Q 2572 472 2759 713 
L 2994 534 
Q 2581 -63 1797 -63 
z
M 1728 3125 
Q 1306 3125 1017 2815 
Q 728 2506 666 1984 
L 2694 1984 
L 2694 2025 
Q 2678 2513 2415 2819 
Q 2153 3125 1728 3125 
z
" transform="scale(0.015625)"/>
       <path id="Roboto-Light-3d" d="M 3072 2591 
L 466 2591 
L 466 2922 
L 3072 2922 
L 3072 2591 
z
M 3072 1306 
L 466 1306 
L 466 1638 
L 3072 1638 
L 3072 1306 
z
" transform="scale(0.015625)"/>
       <path id="Roboto-Light-74" d="M 1069 4247 
L 1069 3381 
L 1769 3381 
L 1769 3075 
L 1069 3075 
L 1069 822 
Q 1069 541 1170 403 
Q 1272 266 1509 266 
Q 1603 266 1813 297 
L 1828 -9 
Q 1681 -63 1428 -63 
Q 1044 -63 869 160 
Q 694 384 694 819 
L 694 3075 
L 72 3075 
L 72 3381 
L 694 3381 
L 694 4247 
L 1069 4247 
z
" transform="scale(0.015625)"/>
       <path id="Roboto-Light-64" d="M 338 1722 
Q 338 2509 689 2976 
Q 1041 3444 1644 3444 
Q 2328 3444 2688 2903 
L 2688 4800 
L 3059 4800 
L 3059 0 
L 2709 0 
L 2694 450 
Q 2334 -63 1638 -63 
Q 1053 -63 695 407 
Q 338 878 338 1678 
L 338 1722 
z
M 716 1656 
Q 716 1009 975 636 
Q 1234 263 1706 263 
Q 2397 263 2688 872 
L 2688 2459 
Q 2397 3119 1713 3119 
Q 1241 3119 978 2748 
Q 716 2378 716 1656 
z
" transform="scale(0.015625)"/>
       <path id="Roboto-Light-61" d="M 2622 0 
Q 2566 159 2550 472 
Q 2353 216 2048 76 
Q 1744 -63 1403 -63 
Q 916 -63 614 209 
Q 313 481 313 897 
Q 313 1391 723 1678 
Q 1134 1966 1869 1966 
L 2547 1966 
L 2547 2350 
Q 2547 2713 2323 2920 
Q 2100 3128 1672 3128 
Q 1281 3128 1025 2928 
Q 769 2728 769 2447 
L 394 2450 
Q 394 2853 769 3148 
Q 1144 3444 1691 3444 
Q 2256 3444 2582 3161 
Q 2909 2878 2919 2372 
L 2919 772 
Q 2919 281 3022 38 
L 3022 0 
L 2622 0 
z
M 1447 269 
Q 1822 269 2117 450 
Q 2413 631 2547 934 
L 2547 1678 
L 1878 1678 
Q 1319 1672 1003 1473 
Q 688 1275 688 928 
Q 688 644 898 456 
Q 1109 269 1447 269 
z
" transform="scale(0.015625)"/>
       <path id="Roboto-Light-69" d="M 906 0 
L 531 0 
L 531 3381 
L 906 3381 
L 906 0 
z
M 466 4359 
Q 466 4466 534 4539 
Q 603 4613 722 4613 
Q 841 4613 911 4539 
Q 981 4466 981 4359 
Q 981 4253 911 4181 
Q 841 4109 722 4109 
Q 603 4109 534 4181 
Q 466 4253 466 4359 
z
" transform="scale(0.015625)"/>
       <path id="Roboto-Light-29" d="M 1606 1791 
Q 1606 1103 1436 467 
Q 1266 -169 931 -697 
Q 597 -1225 194 -1469 
L 103 -1228 
Q 409 -1009 670 -550 
Q 931 -91 1081 520 
Q 1231 1131 1231 1847 
Q 1231 2494 1081 3095 
Q 931 3697 667 4170 
Q 403 4644 103 4859 
L 194 5100 
Q 588 4859 922 4331 
Q 1256 3803 1431 3159 
Q 1606 2516 1606 1791 
z
" transform="scale(0.015625)"/>
      </defs>
      <use xlink:href="#Roboto-Light-41"/>
      <use xlink:href="#Roboto-Light-53" transform="translate(62.451172 0)"/>
      <use xlink:href="#Roboto-Light-48" transform="translate(121.679688 0)"/>
      <use xlink:href="#Roboto-Light-50" transform="translate(192.431641 0)"/>
      <use xlink:href="#Roboto-Light-20" transform="translate(254.003906 0)"/>
      <use xlink:href="#Roboto-Light-28" transform="translate(278.320312 0)"/>
      <use xlink:href="#Roboto-Light-52" transform="translate(310.205078 0)"/>
      <use xlink:href="#Roboto-Light-33" transform="translate(373.681641 0)"/>
      <use xlink:href="#Roboto-Light-32" transform="translate(429.101562 0)"/>
      <use xlink:href="#Roboto-Light-2c" transform="translate(484.521484 0)"/>
      <use xlink:href="#Roboto-Light-20" transform="translate(503.662109 0)"/>
      <use xlink:href="#Roboto-Light-73" transform="translate(527.978516 0)"/>
      <use xlink:href="#Roboto-Light-6f" transform="translate(578.613281 0)"/>
      <use xlink:href="#Roboto-Light-75" transform="translate(634.619141 0)"/>
      <use xlink:href="#Roboto-Light-72" transform="translate(689.550781 0)"/>
      <use xlink:href="#Roboto-Light-63" transform="translate(723.193359 0)"/>
      <use xlink:href="#Roboto-Light-65" transform="translate(774.707031 0)"/>
      <use xlink:href="#Roboto-Light-20" transform="translate(826.367188 0)"/>
      <use xlink:href="#Roboto-Light-3d" transform="translate(850.683594 0)"/>
      <use xlink:href="#Roboto-Light-20" transform="translate(906.005859 0)"/>
      <use xlink:href="#Roboto-Light-6f" transform="translate(930.322266 0)"/>
      <use xlink:href="#Roboto-Light-75" transform="translate(986.328125 0)"/>
      <use xlink:href="#Roboto-Light-74" transform="translate(1041.259766 0)"/>
      <use xlink:href="#Roboto-Light-64" transform="translate(1073.388672 0)"/>
      <use xlink:href="#Roboto-Light-6f" transform="translate(1128.955078 0)"/>
      <use xlink:href="#Roboto-Light-6f" transform="translate(1184.960938 0)"/>
      <use xlink:href="#Roboto-Light-72" transform="translate(1240.966797 0)"/>
      <use xlink:href="#Roboto-Light-20" transform="translate(1274.609375 0)"/>
      <use xlink:href="#Roboto-Light-61" transform="translate(1298.925781 0)"/>
      <use xlink:href="#Roboto-Light-69" transform="translate(1352.490234 0)"/>
      <use xlink:href="#Roboto-Light-72" transform="translate(1374.902344 0)"/>
      <use xlink:href="#Roboto-Light-29" transform="translate(1408.544922 0)"/>
     </g>
    </g>
    <g id="line2d_30">
     <path d="M 36.9705 22.137769 
L 43.9705 22.137769 
L 50.9705 22.137769 
" style="fill: none; stroke: #4c6ef5; stroke-width: 2; stroke-linecap: square"/>
     <g>
      <use xlink:href="#mb0c1c35caf" x="43.9705" y="22.137769" style="fill: #4c6ef5; stroke: #4c6ef5; stroke-linejoin: miter"/>
     </g>
    </g>
    <g id="text_18">
     <!-- GSHP (R410A, source = ground loop) -->
     <g transform="translate(53.0705 24.587769) scale(0.07 -0.07)">
      <defs>
       <path id="Roboto-Light-47" d="M 3859 541 
Q 3659 256 3232 96 
Q 2806 -63 2278 -63 
Q 1744 -63 1328 193 
Q 913 450 684 919 
Q 456 1388 453 1994 
L 453 2569 
Q 453 3516 931 4064 
Q 1409 4613 2216 4613 
Q 2919 4613 3347 4255 
Q 3775 3897 3856 3269 
L 3472 3269 
Q 3388 3769 3064 4026 
Q 2741 4284 2219 4284 
Q 1581 4284 1209 3831 
Q 838 3378 838 2553 
L 838 2016 
Q 838 1497 1014 1098 
Q 1191 700 1520 481 
Q 1850 263 2278 263 
Q 2775 263 3131 419 
Q 3363 522 3475 659 
L 3475 1834 
L 2253 1834 
L 2253 2159 
L 3859 2159 
L 3859 541 
z
" transform="scale(0.015625)"/>
       <path id="Roboto-Light-34" d="M 2725 1466 
L 3434 1466 
L 3434 1150 
L 2725 1150 
L 2725 0 
L 2350 0 
L 2350 1150 
L 209 1150 
L 209 1363 
L 2316 4550 
L 2725 4550 
L 2725 1466 
z
M 669 1466 
L 2350 1466 
L 2350 4066 
L 2184 3778 
L 669 1466 
z
" transform="scale(0.015625)"/>
       <path id="Roboto-Light-67" d="M 338 1722 
Q 338 2516 689 2980 
Q 1041 3444 1644 3444 
Q 2334 3444 2694 2894 
L 2713 3381 
L 3063 3381 
L 3063 69 
Q 3063 -584 2697 -965 
Q 2331 -1347 1706 -1347 
Q 1353 -1347 1033 -1189 
Q 713 -1031 528 -769 
L 738 -544 
Q 1134 -1031 1681 -1031 
Q 2150 -1031 2412 -754 
Q 2675 -478 2684 13 
L 2684 438 
Q 2325 -63 1638 -63 
Q 1050 -63 694 406 
Q 338 875 338 1672 
L 338 1722 
z
M 716 1656 
Q 716 1009 975 636 
Q 1234 263 1706 263 
Q 2397 263 2684 881 
L 2684 2453 
Q 2553 2778 2306 2948 
Q 2059 3119 1713 3119 
Q 1241 3119 978 2748 
Q 716 2378 716 1656 
z
" transform="scale(0.015625)"/>
       <path id="Roboto-Light-6e" d="M 844 3381 
L 856 2803 
Q 1047 3116 1331 3280 
Q 1616 3444 1959 3444 
Q 2503 3444 2768 3137 
Q 3034 2831 3038 2219 
L 3038 0 
L 2666 0 
L 2666 2222 
Q 2663 2675 2473 2897 
Q 2284 3119 1869 3119 
Q 1522 3119 1255 2901 
Q 988 2684 859 2316 
L 859 0 
L 488 0 
L 488 3381 
L 844 3381 
z
" transform="scale(0.015625)"/>
       <path id="Roboto-Light-6c" d="M 906 0 
L 531 0 
L 531 4800 
L 906 4800 
L 906 0 
z
" transform="scale(0.015625)"/>
       <path id="Roboto-Light-70" d="M 3206 1656 
Q 3206 866 2856 401 
Q 2506 -63 1919 -63 
Q 1225 -63 856 425 
L 856 -1300 
L 484 -1300 
L 484 3381 
L 831 3381 
L 850 2903 
Q 1216 3444 1909 3444 
Q 2516 3444 2861 2984 
Q 3206 2525 3206 1709 
L 3206 1656 
z
M 2831 1722 
Q 2831 2369 2565 2744 
Q 2300 3119 1825 3119 
Q 1481 3119 1234 2953 
Q 988 2788 856 2472 
L 856 850 
Q 991 559 1241 406 
Q 1491 253 1831 253 
Q 2303 253 2567 629 
Q 2831 1006 2831 1722 
z
" transform="scale(0.015625)"/>
      </defs>
      <use xlink:href="#Roboto-Light-47"/>
      <use xlink:href="#Roboto-Light-53" transform="translate(68.359375 0)"/>
      <use xlink:href="#Roboto-Light-48" transform="translate(127.587891 0)"/>
      <use xlink:href="#Roboto-Light-50" transform="translate(198.339844 0)"/>
      <use xlink:href="#Roboto-Light-20" transform="translate(259.912109 0)"/>
      <use xlink:href="#Roboto-Light-28" transform="translate(284.228516 0)"/>
      <use xlink:href="#Roboto-Light-52" transform="translate(316.113281 0)"/>
      <use xlink:href="#Roboto-Light-34" transform="translate(379.589844 0)"/>
      <use xlink:href="#Roboto-Light-31" transform="translate(435.009766 0)"/>
      <use xlink:href="#Roboto-Light-30" transform="translate(490.429688 0)"/>
      <use xlink:href="#Roboto-Light-41" transform="translate(545.849609 0)"/>
      <use xlink:href="#Roboto-Light-2c" transform="translate(608.300781 0)"/>
      <use xlink:href="#Roboto-Light-20" transform="translate(627.441406 0)"/>
      <use xlink:href="#Roboto-Light-73" transform="translate(651.757812 0)"/>
      <use xlink:href="#Roboto-Light-6f" transform="translate(702.392578 0)"/>
      <use xlink:href="#Roboto-Light-75" transform="translate(758.398438 0)"/>
      <use xlink:href="#Roboto-Light-72" transform="translate(813.330078 0)"/>
      <use xlink:href="#Roboto-Light-63" transform="translate(846.972656 0)"/>
      <use xlink:href="#Roboto-Light-65" transform="translate(898.486328 0)"/>
      <use xlink:href="#Roboto-Light-20" transform="translate(950.146484 0)"/>
      <use xlink:href="#Roboto-Light-3d" transform="translate(974.462891 0)"/>
      <use xlink:href="#Roboto-Light-20" transform="translate(1029.785156 0)"/>
      <use xlink:href="#Roboto-Light-67" transform="translate(1054.101562 0)"/>
      <use xlink:href="#Roboto-Light-72" transform="translate(1109.570312 0)"/>
      <use xlink:href="#Roboto-Light-6f" transform="translate(1143.212891 0)"/>
      <use xlink:href="#Roboto-Light-75" transform="translate(1199.21875 0)"/>
      <use xlink:href="#Roboto-Light-6e" transform="translate(1254.150391 0)"/>
      <use xlink:href="#Roboto-Light-64" transform="translate(1309.082031 0)"/>
      <use xlink:href="#Roboto-Light-20" transform="translate(1364.648438 0)"/>
      <use xlink:href="#Roboto-Light-6c" transform="translate(1388.964844 0)"/>
      <use xlink:href="#Roboto-Light-6f" transform="translate(1411.376953 0)"/>
      <use xlink:href="#Roboto-Light-6f" transform="translate(1467.382812 0)"/>
      <use xlink:href="#Roboto-Light-70" transform="translate(1523.388672 0)"/>
      <use xlink:href="#Roboto-Light-29" transform="translate(1578.808594 0)"/>
     </g>
    </g>
   </g>
  </g>
 </g>
 <defs>
  <clipPath id="pd1bafe6294">
   <rect x="33.4705" y="5.5248" width="327.5615" height="241.2379"/>
  </clipPath>
 </defs>
</svg>
