<?xml version="1.0" encoding="utf-8" standalone="no"?>
<!DOCTYPE svg PUBLIC "-//W3C//DTD SVG 1.1//EN"
  "http://www.w3.org/Graphics/SVG/1.1/DTD/svg11.dtd">
<svg xmlns:xlink="http://www.w3.org/1999/xlink" width="368.4pt" height="276.24pt" viewBox="0 0 368.4 276.24" xmlns="http://www.w3.org/2000/svg" version="1.1">
 <metadata>
  <rdf:RDF xmlns:dc="http://purl.org/dc/elements/1.1/" xmlns:cc="http://creativecommons.org/ns#" xmlns:rdf="http://www.w3.org/1999/02/22-rdf-syntax-ns#">
   <cc:Work>
    <dc:type rdf:resource="http://purl.org/dc/dcmitype/StillImage"/>
    <dc:date>2026-05-17T23:52:17.334146</dc:date>
    <dc:format>image/svg+xml</dc:format>
    <dc:creator>
     <cc:Agent>
      <dc:title>Matplotlib v3.10.9, https://matplotlib.org/</dc:title>
     </cc:Agent>
    </dc:creator>
   </cc:Work>
  </rdf:RDF>
 </metadata>
 <defs>
  <style type="text/css">*{stroke-linejoin: round; stroke-linecap: butt}</style>
 </defs>
 <g id="figure_1">
  <g id="patch_1">
   <path d="M 0 276.24 
L 368.4 276.24 
L 368.4 0 
L 0 0 
z
" style="fill: #ffffff"/>
  </g>
  <g id="axes_1">
   <g id="patch_2">
    <path d="M 36.0505 246.599575 
L 355.647 246.599575 
L 355.647 5.5248 
L 36.0505 5.5248 
z
" style="fill: #ffffff"/>
   </g>
   <g id="matplotlib.axis_1">
    <g id="xtick_1">
     <g id="line2d_1">
      <path d="M 36.0505 246.599575 
L 36.0505 5.5248 
" clip-path="url(#p6eec9ccea5)" style="fill: none; stroke: #dee2e6; stroke-opacity: 0.25; stroke-width: -1; stroke-linecap: square"/>
     </g>
     <g id="line2d_2">
      <defs>
       <path id="m7b1bc71937" d="M 0 0 
L 0 2 
" style="stroke: #000000; stroke-width: 0.3"/>
      </defs>
      <g>
       <use xlink:href="#m7b1bc71937" x="36.0505" y="246.599575" style="stroke: #000000; stroke-width: 0.3"/>
      </g>
     </g>
     <g id="text_1">
      <!-- 0.8 -->
      <g transform="translate(30.66175 256.599575) scale(0.08 -0.08)">
       <defs>
        <path id="Roboto-Light-30" d="M 3172 1897 
Q 3172 934 2819 435 
Q 2466 -63 1778 -63 
Q 1103 -63 743 426 
Q 384 916 375 1850 
L 375 2666 
Q 375 3625 731 4119 
Q 1088 4613 1772 4613 
Q 2447 4613 2803 4136 
Q 3159 3659 3172 2731 
L 3172 1897 
z
M 2797 2713 
Q 2797 3494 2542 3894 
Q 2288 4294 1772 4294 
Q 1266 4294 1009 3903 
Q 753 3513 747 2750 
L 747 1856 
Q 747 1078 1011 665 
Q 1275 253 1778 253 
Q 2278 253 2536 656 
Q 2794 1059 2797 1838 
L 2797 2713 
z
" transform="scale(0.015625)"/>
        <path id="Roboto-Light-2e" d="M 453 225 
Q 453 334 523 411 
Q 594 488 719 488 
Q 844 488 916 411 
Q 988 334 988 225 
Q 988 116 916 45 
Q 844 -25 719 -25 
Q 594 -25 523 45 
Q 453 116 453 225 
z
" transform="scale(0.015625)"/>
        <path id="Roboto-Light-38" d="M 3109 3378 
Q 3109 3025 2903 2745 
Q 2697 2466 2359 2334 
Q 2753 2200 2990 1900 
Q 3228 1600 3228 1206 
Q 3228 622 2831 279 
Q 2434 -63 1781 -63 
Q 1122 -63 726 278 
Q 331 619 331 1206 
Q 331 1594 559 1897 
Q 788 2200 1184 2334 
Q 847 2466 647 2745 
Q 447 3025 447 3378 
Q 447 3944 811 4278 
Q 1175 4613 1775 4613 
Q 2375 4613 2742 4275 
Q 3109 3938 3109 3378 
z
M 2853 1203 
Q 2853 1628 2550 1901 
Q 2247 2175 1775 2175 
Q 1303 2175 1003 1906 
Q 703 1638 703 1203 
Q 703 769 993 511 
Q 1284 253 1781 253 
Q 2266 253 2559 509 
Q 2853 766 2853 1203 
z
M 2734 3381 
Q 2734 3772 2464 4033 
Q 2194 4294 1775 4294 
Q 1350 4294 1086 4042 
Q 822 3791 822 3381 
Q 822 2981 1086 2737 
Q 1350 2494 1778 2494 
Q 2200 2494 2467 2739 
Q 2734 2984 2734 3381 
z
" transform="scale(0.015625)"/>
       </defs>
       <use xlink:href="#Roboto-Light-30"/>
       <use xlink:href="#Roboto-Light-2e" transform="translate(55.419922 0)"/>
       <use xlink:href="#Roboto-Light-38" transform="translate(79.296875 0)"/>
      </g>
     </g>
    </g>
    <g id="xtick_2">
     <g id="line2d_3">
      <path d="M 76.000062 246.599575 
L 76.000062 5.5248 
" clip-path="url(#p6eec9ccea5)" style="fill: none; stroke: #dee2e6; stroke-opacity: 0.25; stroke-width: -1; stroke-linecap: square"/>
     </g>
     <g id="line2d_4">
      <g>
       <use xlink:href="#m7b1bc71937" x="76.000062" y="246.599575" style="stroke: #000000; stroke-width: 0.3"/>
      </g>
     </g>
     <g id="text_2">
      <!-- 1.0 -->
      <g transform="translate(70.611312 256.599575) scale(0.08 -0.08)">
       <defs>
        <path id="Roboto-Light-31" d="M 2169 0 
L 1794 0 
L 1794 4100 
L 556 3641 
L 556 3991 
L 2106 4566 
L 2169 4566 
L 2169 0 
z
" transform="scale(0.015625)"/>
       </defs>
       <use xlink:href="#Roboto-Light-31"/>
       <use xlink:href="#Roboto-Light-2e" transform="translate(55.419922 0)"/>
       <use xlink:href="#Roboto-Light-30" transform="translate(79.296875 0)"/>
      </g>
     </g>
    </g>
    <g id="xtick_3">
     <g id="line2d_5">
      <path d="M 115.949625 246.599575 
L 115.949625 5.5248 
" clip-path="url(#p6eec9ccea5)" style="fill: none; stroke: #dee2e6; stroke-opacity: 0.25; stroke-width: -1; stroke-linecap: square"/>
     </g>
     <g id="line2d_6">
      <g>
       <use xlink:href="#m7b1bc71937" x="115.949625" y="246.599575" style="stroke: #000000; stroke-width: 0.3"/>
      </g>
     </g>
     <g id="text_3">
      <!-- 1.2 -->
      <g transform="translate(110.560875 256.599575) scale(0.08 -0.08)">
       <defs>
        <path id="Roboto-Light-32" d="M 3278 0 
L 428 0 
L 428 288 
L 1988 2056 
Q 2375 2503 2525 2793 
Q 2675 3084 2675 3359 
Q 2675 3791 2422 4042 
Q 2169 4294 1725 4294 
Q 1266 4294 983 4000 
Q 700 3706 700 3238 
L 328 3238 
Q 328 3622 501 3937 
Q 675 4253 995 4433 
Q 1316 4613 1725 4613 
Q 2350 4613 2701 4284 
Q 3053 3956 3053 3391 
Q 3053 3072 2854 2694 
Q 2656 2316 2156 1750 
L 888 316 
L 3278 316 
L 3278 0 
z
" transform="scale(0.015625)"/>
       </defs>
       <use xlink:href="#Roboto-Light-31"/>
       <use xlink:href="#Roboto-Light-2e" transform="translate(55.419922 0)"/>
       <use xlink:href="#Roboto-Light-32" transform="translate(79.296875 0)"/>
      </g>
     </g>
    </g>
    <g id="xtick_4">
     <g id="line2d_7">
      <path d="M 155.899188 246.599575 
L 155.899188 5.5248 
" clip-path="url(#p6eec9ccea5)" style="fill: none; stroke: #dee2e6; stroke-opacity: 0.25; stroke-width: -1; stroke-linecap: square"/>
     </g>
     <g id="line2d_8">
      <g>
       <use xlink:href="#m7b1bc71937" x="155.899188" y="246.599575" style="stroke: #000000; stroke-width: 0.3"/>
      </g>
     </g>
     <g id="text_4">
      <!-- 1.4 -->
      <g transform="translate(150.510438 256.599575) scale(0.08 -0.08)">
       <defs>
        <path id="Roboto-Light-34" d="M 2725 1466 
L 3434 1466 
L 3434 1150 
L 2725 1150 
L 2725 0 
L 2350 0 
L 2350 1150 
L 209 1150 
L 209 1363 
L 2316 4550 
L 2725 4550 
L 2725 1466 
z
M 669 1466 
L 2350 1466 
L 2350 4066 
L 2184 3778 
L 669 1466 
z
" transform="scale(0.015625)"/>
       </defs>
       <use xlink:href="#Roboto-Light-31"/>
       <use xlink:href="#Roboto-Light-2e" transform="translate(55.419922 0)"/>
       <use xlink:href="#Roboto-Light-34" transform="translate(79.296875 0)"/>
      </g>
     </g>
    </g>
    <g id="xtick_5">
     <g id="line2d_9">
      <path d="M 195.84875 246.599575 
L 195.84875 5.5248 
" clip-path="url(#p6eec9ccea5)" style="fill: none; stroke: #dee2e6; stroke-opacity: 0.25; stroke-width: -1; stroke-linecap: square"/>
     </g>
     <g id="line2d_10">
      <g>
       <use xlink:href="#m7b1bc71937" x="195.84875" y="246.599575" style="stroke: #000000; stroke-width: 0.3"/>
      </g>
     </g>
     <g id="text_5">
      <!-- 1.6 -->
      <g transform="translate(190.46 256.599575) scale(0.08 -0.08)">
       <defs>
        <path id="Roboto-Light-36" d="M 2634 4584 
L 2634 4256 
L 2591 4256 
Q 1775 4256 1306 3776 
Q 838 3297 788 2444 
Q 975 2703 1265 2845 
Q 1556 2988 1916 2988 
Q 2516 2988 2870 2573 
Q 3225 2159 3225 1491 
Q 3225 1047 3059 690 
Q 2894 334 2584 135 
Q 2275 -63 1878 -63 
Q 1225 -63 815 410 
Q 406 884 406 1634 
L 406 2009 
Q 406 3231 962 3901 
Q 1519 4572 2541 4584 
L 2634 4584 
z
M 1856 2666 
Q 1500 2666 1192 2455 
Q 884 2244 781 1919 
L 781 1600 
Q 781 1006 1086 631 
Q 1391 256 1878 256 
Q 2316 256 2586 603 
Q 2856 950 2856 1478 
Q 2856 2016 2586 2341 
Q 2316 2666 1856 2666 
z
" transform="scale(0.015625)"/>
       </defs>
       <use xlink:href="#Roboto-Light-31"/>
       <use xlink:href="#Roboto-Light-2e" transform="translate(55.419922 0)"/>
       <use xlink:href="#Roboto-Light-36" transform="translate(79.296875 0)"/>
      </g>
     </g>
    </g>
    <g id="xtick_6">
     <g id="line2d_11">
      <path d="M 235.798312 246.599575 
L 235.798312 5.5248 
" clip-path="url(#p6eec9ccea5)" style="fill: none; stroke: #dee2e6; stroke-opacity: 0.25; stroke-width: -1; stroke-linecap: square"/>
     </g>
     <g id="line2d_12">
      <g>
       <use xlink:href="#m7b1bc71937" x="235.798312" y="246.599575" style="stroke: #000000; stroke-width: 0.3"/>
      </g>
     </g>
     <g id="text_6">
      <!-- 1.8 -->
      <g transform="translate(230.409562 256.599575) scale(0.08 -0.08)">
       <use xlink:href="#Roboto-Light-31"/>
       <use xlink:href="#Roboto-Light-2e" transform="translate(55.419922 0)"/>
       <use xlink:href="#Roboto-Light-38" transform="translate(79.296875 0)"/>
      </g>
     </g>
    </g>
    <g id="xtick_7">
     <g id="line2d_13">
      <path d="M 275.747875 246.599575 
L 275.747875 5.5248 
" clip-path="url(#p6eec9ccea5)" style="fill: none; stroke: #dee2e6; stroke-opacity: 0.25; stroke-width: -1; stroke-linecap: square"/>
     </g>
     <g id="line2d_14">
      <g>
       <use xlink:href="#m7b1bc71937" x="275.747875" y="246.599575" style="stroke: #000000; stroke-width: 0.3"/>
      </g>
     </g>
     <g id="text_7">
      <!-- 2.0 -->
      <g transform="translate(270.359125 256.599575) scale(0.08 -0.08)">
       <use xlink:href="#Roboto-Light-32"/>
       <use xlink:href="#Roboto-Light-2e" transform="translate(55.419922 0)"/>
       <use xlink:href="#Roboto-Light-30" transform="translate(79.296875 0)"/>
      </g>
     </g>
    </g>
    <g id="xtick_8">
     <g id="line2d_15">
      <path d="M 315.697437 246.599575 
L 315.697437 5.5248 
" clip-path="url(#p6eec9ccea5)" style="fill: none; stroke: #dee2e6; stroke-opacity: 0.25; stroke-width: -1; stroke-linecap: square"/>
     </g>
     <g id="line2d_16">
      <g>
       <use xlink:href="#m7b1bc71937" x="315.697437" y="246.599575" style="stroke: #000000; stroke-width: 0.3"/>
      </g>
     </g>
     <g id="text_8">
      <!-- 2.2 -->
      <g transform="translate(310.308687 256.599575) scale(0.08 -0.08)">
       <use xlink:href="#Roboto-Light-32"/>
       <use xlink:href="#Roboto-Light-2e" transform="translate(55.419922 0)"/>
       <use xlink:href="#Roboto-Light-32" transform="translate(79.296875 0)"/>
      </g>
     </g>
    </g>
    <g id="xtick_9">
     <g id="line2d_17">
      <path d="M 355.647 246.599575 
L 355.647 5.5248 
" clip-path="url(#p6eec9ccea5)" style="fill: none; stroke: #dee2e6; stroke-opacity: 0.25; stroke-width: -1; stroke-linecap: square"/>
     </g>
     <g id="line2d_18">
      <g>
       <use xlink:href="#m7b1bc71937" x="355.647" y="246.599575" style="stroke: #000000; stroke-width: 0.3"/>
      </g>
     </g>
     <g id="text_9">
      <!-- 2.4 -->
      <g transform="translate(350.25825 256.599575) scale(0.08 -0.08)">
       <use xlink:href="#Roboto-Light-32"/>
       <use xlink:href="#Roboto-Light-2e" transform="translate(55.419922 0)"/>
       <use xlink:href="#Roboto-Light-34" transform="translate(79.296875 0)"/>
      </g>
     </g>
    </g>
    <g id="text_10">
     <!-- Entropy [kJ/(kg·K)] -->
     <g transform="translate(162.71375 268.724575) scale(0.08 -0.08)">
      <defs>
       <path id="Roboto-Regular-45" d="M 3100 2103 
L 1128 2103 
L 1128 491 
L 3419 491 
L 3419 0 
L 528 0 
L 528 4550 
L 3388 4550 
L 3388 4056 
L 1128 4056 
L 1128 2594 
L 3100 2594 
L 3100 2103 
z
" transform="scale(0.015625)"/>
       <path id="Roboto-Regular-6e" d="M 984 3381 
L 1003 2956 
Q 1391 3444 2016 3444 
Q 3088 3444 3097 2234 
L 3097 0 
L 2519 0 
L 2519 2238 
Q 2516 2603 2352 2778 
Q 2188 2953 1841 2953 
Q 1559 2953 1346 2803 
Q 1134 2653 1016 2409 
L 1016 0 
L 438 0 
L 438 3381 
L 984 3381 
z
" transform="scale(0.015625)"/>
       <path id="Roboto-Regular-74" d="M 1222 4200 
L 1222 3381 
L 1853 3381 
L 1853 2934 
L 1222 2934 
L 1222 838 
Q 1222 634 1306 532 
Q 1391 431 1594 431 
Q 1694 431 1869 469 
L 1869 0 
Q 1641 -63 1425 -63 
Q 1038 -63 841 171 
Q 644 406 644 838 
L 644 2934 
L 28 2934 
L 28 3381 
L 644 3381 
L 644 4200 
L 1222 4200 
z
" transform="scale(0.015625)"/>
       <path id="Roboto-Regular-72" d="M 2072 2863 
Q 1941 2884 1788 2884 
Q 1219 2884 1016 2400 
L 1016 0 
L 438 0 
L 438 3381 
L 1000 3381 
L 1009 2991 
Q 1294 3444 1816 3444 
Q 1984 3444 2072 3400 
L 2072 2863 
z
" transform="scale(0.015625)"/>
       <path id="Roboto-Regular-6f" d="M 284 1722 
Q 284 2219 479 2616 
Q 675 3013 1023 3228 
Q 1372 3444 1819 3444 
Q 2509 3444 2936 2966 
Q 3363 2488 3363 1694 
L 3363 1653 
Q 3363 1159 3173 767 
Q 2984 375 2632 156 
Q 2281 -63 1825 -63 
Q 1138 -63 711 415 
Q 284 894 284 1681 
L 284 1722 
z
M 866 1653 
Q 866 1091 1127 750 
Q 1388 409 1825 409 
Q 2266 409 2525 754 
Q 2784 1100 2784 1722 
Q 2784 2278 2520 2623 
Q 2256 2969 1819 2969 
Q 1391 2969 1128 2628 
Q 866 2288 866 1653 
z
" transform="scale(0.015625)"/>
       <path id="Roboto-Regular-70" d="M 3294 1653 
Q 3294 881 2941 409 
Q 2588 -63 1984 -63 
Q 1369 -63 1016 328 
L 1016 -1300 
L 438 -1300 
L 438 3381 
L 966 3381 
L 994 3006 
Q 1347 3444 1975 3444 
Q 2584 3444 2939 2984 
Q 3294 2525 3294 1706 
L 3294 1653 
z
M 2716 1719 
Q 2716 2291 2472 2622 
Q 2228 2953 1803 2953 
Q 1278 2953 1016 2488 
L 1016 872 
Q 1275 409 1809 409 
Q 2225 409 2470 739 
Q 2716 1069 2716 1719 
z
" transform="scale(0.015625)"/>
       <path id="Roboto-Regular-79" d="M 1544 847 
L 2331 3381 
L 2950 3381 
L 1591 -522 
Q 1275 -1366 588 -1366 
L 478 -1356 
L 263 -1316 
L 263 -847 
L 419 -859 
Q 713 -859 877 -740 
Q 1041 -622 1147 -306 
L 1275 38 
L 69 3381 
L 700 3381 
L 1544 847 
z
" transform="scale(0.015625)"/>
       <path id="Roboto-Regular-20" transform="scale(0.015625)"/>
       <path id="Roboto-Regular-5b" d="M 1634 4725 
L 1038 4725 
L 1038 -500 
L 1634 -500 
L 1634 -975 
L 456 -975 
L 456 5200 
L 1634 5200 
L 1634 4725 
z
" transform="scale(0.015625)"/>
       <path id="Roboto-Regular-6b" d="M 1381 1566 
L 1019 1188 
L 1019 0 
L 441 0 
L 441 4800 
L 1019 4800 
L 1019 1897 
L 1328 2269 
L 2381 3381 
L 3084 3381 
L 1769 1969 
L 3238 0 
L 2559 0 
L 1381 1566 
z
" transform="scale(0.015625)"/>
       <path id="Roboto-Regular-4a" d="M 2434 4550 
L 3038 4550 
L 3038 1328 
Q 3038 675 2645 306 
Q 2253 -63 1600 -63 
Q 922 -63 544 284 
Q 166 631 166 1256 
L 766 1256 
Q 766 866 980 647 
Q 1194 428 1600 428 
Q 1972 428 2201 662 
Q 2431 897 2434 1319 
L 2434 4550 
z
" transform="scale(0.015625)"/>
       <path id="Roboto-Regular-2f" d="M 553 -391 
L 56 -391 
L 1956 4550 
L 2450 4550 
L 553 -391 
z
" transform="scale(0.015625)"/>
       <path id="Roboto-Regular-28" d="M 416 1847 
Q 416 2553 605 3203 
Q 794 3853 1169 4384 
Q 1544 4916 1947 5134 
L 2066 4753 
Q 1609 4403 1317 3684 
Q 1025 2966 997 2075 
L 994 1809 
Q 994 603 1434 -284 
Q 1700 -816 2066 -1116 
L 1947 -1469 
Q 1531 -1238 1153 -694 
Q 416 369 416 1847 
z
" transform="scale(0.015625)"/>
       <path id="Roboto-Regular-67" d="M 300 1719 
Q 300 2509 665 2976 
Q 1031 3444 1634 3444 
Q 2253 3444 2600 3006 
L 2628 3381 
L 3156 3381 
L 3156 81 
Q 3156 -575 2767 -953 
Q 2378 -1331 1722 -1331 
Q 1356 -1331 1006 -1175 
Q 656 -1019 472 -747 
L 772 -400 
Q 1144 -859 1681 -859 
Q 2103 -859 2339 -621 
Q 2575 -384 2575 47 
L 2575 338 
Q 2228 -63 1628 -63 
Q 1034 -63 667 415 
Q 300 894 300 1719 
z
M 881 1653 
Q 881 1081 1115 754 
Q 1350 428 1772 428 
Q 2319 428 2575 925 
L 2575 2469 
Q 2309 2953 1778 2953 
Q 1356 2953 1118 2625 
Q 881 2297 881 1653 
z
" transform="scale(0.015625)"/>
       <path id="Roboto-Regular-b7" d="M 459 2278 
Q 459 2428 548 2528 
Q 638 2628 816 2628 
Q 994 2628 1086 2528 
Q 1178 2428 1178 2278 
Q 1178 2131 1086 2032 
Q 994 1934 816 1934 
Q 638 1934 548 2032 
Q 459 2131 459 2278 
z
" transform="scale(0.015625)"/>
       <path id="Roboto-Regular-4b" d="M 1684 2116 
L 1128 1538 
L 1128 0 
L 528 0 
L 528 4550 
L 1128 4550 
L 1128 2300 
L 3150 4550 
L 3875 4550 
L 2084 2541 
L 4016 0 
L 3297 0 
L 1684 2116 
z
" transform="scale(0.015625)"/>
       <path id="Roboto-Regular-29" d="M 1772 1816 
Q 1772 1119 1589 480 
Q 1406 -159 1029 -700 
Q 653 -1241 241 -1469 
L 119 -1116 
Q 600 -747 892 29 
Q 1184 806 1191 1753 
L 1191 1853 
Q 1191 2509 1053 3073 
Q 916 3638 670 4084 
Q 425 4531 119 4781 
L 241 5134 
Q 653 4906 1026 4372 
Q 1400 3838 1586 3194 
Q 1772 2550 1772 1816 
z
" transform="scale(0.015625)"/>
       <path id="Roboto-Regular-5d" d="M 28 5200 
L 1209 5200 
L 1209 -975 
L 28 -975 
L 28 -500 
L 631 -500 
L 631 4725 
L 28 4725 
L 28 5200 
z
" transform="scale(0.015625)"/>
      </defs>
      <use xlink:href="#Roboto-Regular-45"/>
      <use xlink:href="#Roboto-Regular-6e" transform="translate(56.835938 0)"/>
      <use xlink:href="#Roboto-Regular-74" transform="translate(112.011719 0)"/>
      <use xlink:href="#Roboto-Regular-72" transform="translate(144.677734 0)"/>
      <use xlink:href="#Roboto-Regular-6f" transform="translate(178.515625 0)"/>
      <use xlink:href="#Roboto-Regular-70" transform="translate(235.546875 0)"/>
      <use xlink:href="#Roboto-Regular-79" transform="translate(291.650391 0)"/>
      <use xlink:href="#Roboto-Regular-20" transform="translate(338.964844 0)"/>
      <use xlink:href="#Roboto-Regular-5b" transform="translate(363.720703 0)"/>
      <use xlink:href="#Roboto-Regular-6b" transform="translate(390.234375 0)"/>
      <use xlink:href="#Roboto-Regular-4a" transform="translate(440.917969 0)"/>
      <use xlink:href="#Roboto-Regular-2f" transform="translate(496.09375 0)"/>
      <use xlink:href="#Roboto-Regular-28" transform="translate(537.304688 0)"/>
      <use xlink:href="#Roboto-Regular-6b" transform="translate(571.484375 0)"/>
      <use xlink:href="#Roboto-Regular-67" transform="translate(622.167969 0)"/>
      <use xlink:href="#Roboto-Regular-b7" transform="translate(678.271484 0)"/>
      <use xlink:href="#Roboto-Regular-4b" transform="translate(704.345703 0)"/>
      <use xlink:href="#Roboto-Regular-29" transform="translate(767.041016 0)"/>
      <use xlink:href="#Roboto-Regular-5d" transform="translate(801.806641 0)"/>
     </g>
    </g>
   </g>
   <g id="matplotlib.axis_2">
    <g id="ytick_1">
     <g id="line2d_19">
      <path d="M 36.0505 240.255502 
L 355.647 240.255502 
" clip-path="url(#p6eec9ccea5)" style="fill: none; stroke: #dee2e6; stroke-opacity: 0.25; stroke-width: -1; stroke-linecap: square"/>
     </g>
     <g id="line2d_20">
      <defs>
       <path id="m23fa713ddc" d="M 0 0 
L -2 0 
" style="stroke: #000000; stroke-width: 0.3"/>
      </defs>
      <g>
       <use xlink:href="#m23fa713ddc" x="36.0505" y="240.255502" style="stroke: #000000; stroke-width: 0.3"/>
      </g>
     </g>
     <g id="text_11">
      <!-- −25 -->
      <g transform="translate(19.6205 243.255502) scale(0.08 -0.08)">
       <defs>
        <path id="Roboto-Light-2212" d="M 3125 2144 
L 516 2144 
L 516 2463 
L 3125 2463 
L 3125 2144 
z
" transform="scale(0.015625)"/>
        <path id="Roboto-Light-35" d="M 681 2331 
L 903 4550 
L 3178 4550 
L 3178 4203 
L 1225 4203 
L 1066 2666 
Q 1431 2916 1922 2916 
Q 2538 2916 2903 2516 
Q 3269 2116 3269 1450 
Q 3269 731 2912 334 
Q 2556 -63 1909 -63 
Q 1316 -63 947 268 
Q 578 600 525 1197 
L 884 1197 
Q 938 731 1200 492 
Q 1463 253 1909 253 
Q 2397 253 2645 562 
Q 2894 872 2894 1444 
Q 2894 1944 2616 2259 
Q 2338 2575 1856 2575 
Q 1591 2575 1394 2508 
Q 1197 2441 978 2247 
L 681 2331 
z
" transform="scale(0.015625)"/>
       </defs>
       <use xlink:href="#Roboto-Light-2212"/>
       <use xlink:href="#Roboto-Light-32" transform="translate(57.03125 0)"/>
       <use xlink:href="#Roboto-Light-35" transform="translate(112.451172 0)"/>
      </g>
     </g>
    </g>
    <g id="ytick_2">
     <g id="line2d_21">
      <path d="M 36.0505 208.535137 
L 355.647 208.535137 
" clip-path="url(#p6eec9ccea5)" style="fill: none; stroke: #dee2e6; stroke-opacity: 0.25; stroke-width: -1; stroke-linecap: square"/>
     </g>
     <g id="line2d_22">
      <g>
       <use xlink:href="#m23fa713ddc" x="36.0505" y="208.535137" style="stroke: #000000; stroke-width: 0.3"/>
      </g>
     </g>
     <g id="text_12">
      <!-- 0 -->
      <g transform="translate(28.61675 211.535137) scale(0.08 -0.08)">
       <use xlink:href="#Roboto-Light-30"/>
      </g>
     </g>
    </g>
    <g id="ytick_3">
     <g id="line2d_23">
      <path d="M 36.0505 176.814772 
L 355.647 176.814772 
" clip-path="url(#p6eec9ccea5)" style="fill: none; stroke: #dee2e6; stroke-opacity: 0.25; stroke-width: -1; stroke-linecap: square"/>
     </g>
     <g id="line2d_24">
      <g>
       <use xlink:href="#m23fa713ddc" x="36.0505" y="176.814772" style="stroke: #000000; stroke-width: 0.3"/>
      </g>
     </g>
     <g id="text_13">
      <!-- 25 -->
      <g transform="translate(24.183 179.814772) scale(0.08 -0.08)">
       <use xlink:href="#Roboto-Light-32"/>
       <use xlink:href="#Roboto-Light-35" transform="translate(55.419922 0)"/>
      </g>
     </g>
    </g>
    <g id="ytick_4">
     <g id="line2d_25">
      <path d="M 36.0505 145.094407 
L 355.647 145.094407 
" clip-path="url(#p6eec9ccea5)" style="fill: none; stroke: #dee2e6; stroke-opacity: 0.25; stroke-width: -1; stroke-linecap: square"/>
     </g>
     <g id="line2d_26">
      <g>
       <use xlink:href="#m23fa713ddc" x="36.0505" y="145.094407" style="stroke: #000000; stroke-width: 0.3"/>
      </g>
     </g>
     <g id="text_14">
      <!-- 50 -->
      <g transform="translate(24.183 148.094407) scale(0.08 -0.08)">
       <use xlink:href="#Roboto-Light-35"/>
       <use xlink:href="#Roboto-Light-30" transform="translate(55.419922 0)"/>
      </g>
     </g>
    </g>
    <g id="ytick_5">
     <g id="line2d_27">
      <path d="M 36.0505 113.374041 
L 355.647 113.374041 
" clip-path="url(#p6eec9ccea5)" style="fill: none; stroke: #dee2e6; stroke-opacity: 0.25; stroke-width: -1; stroke-linecap: square"/>
     </g>
     <g id="line2d_28">
      <g>
       <use xlink:href="#m23fa713ddc" x="36.0505" y="113.374041" style="stroke: #000000; stroke-width: 0.3"/>
      </g>
     </g>
     <g id="text_15">
      <!-- 75 -->
      <g transform="translate(24.183 116.374041) scale(0.08 -0.08)">
       <defs>
        <path id="Roboto-Light-37" d="M 3231 4334 
L 1288 0 
L 897 0 
L 2828 4231 
L 241 4231 
L 241 4550 
L 3231 4550 
L 3231 4334 
z
" transform="scale(0.015625)"/>
       </defs>
       <use xlink:href="#Roboto-Light-37"/>
       <use xlink:href="#Roboto-Light-35" transform="translate(55.419922 0)"/>
      </g>
     </g>
    </g>
    <g id="ytick_6">
     <g id="line2d_29">
      <path d="M 36.0505 81.653676 
L 355.647 81.653676 
" clip-path="url(#p6eec9ccea5)" style="fill: none; stroke: #dee2e6; stroke-opacity: 0.25; stroke-width: -1; stroke-linecap: square"/>
     </g>
     <g id="line2d_30">
      <g>
       <use xlink:href="#m23fa713ddc" x="36.0505" y="81.653676" style="stroke: #000000; stroke-width: 0.3"/>
      </g>
     </g>
     <g id="text_16">
      <!-- 100 -->
      <g transform="translate(19.74925 84.653676) scale(0.08 -0.08)">
       <use xlink:href="#Roboto-Light-31"/>
       <use xlink:href="#Roboto-Light-30" transform="translate(55.419922 0)"/>
       <use xlink:href="#Roboto-Light-30" transform="translate(110.839844 0)"/>
      </g>
     </g>
    </g>
    <g id="ytick_7">
     <g id="line2d_31">
      <path d="M 36.0505 49.933311 
L 355.647 49.933311 
" clip-path="url(#p6eec9ccea5)" style="fill: none; stroke: #dee2e6; stroke-opacity: 0.25; stroke-width: -1; stroke-linecap: square"/>
     </g>
     <g id="line2d_32">
      <g>
       <use xlink:href="#m23fa713ddc" x="36.0505" y="49.933311" style="stroke: #000000; stroke-width: 0.3"/>
      </g>
     </g>
     <g id="text_17">
      <!-- 125 -->
      <g transform="translate(19.74925 52.933311) scale(0.08 -0.08)">
       <use xlink:href="#Roboto-Light-31"/>
       <use xlink:href="#Roboto-Light-32" transform="translate(55.419922 0)"/>
       <use xlink:href="#Roboto-Light-35" transform="translate(110.839844 0)"/>
      </g>
     </g>
    </g>
    <g id="ytick_8">
     <g id="line2d_33">
      <path d="M 36.0505 18.212946 
L 355.647 18.212946 
" clip-path="url(#p6eec9ccea5)" style="fill: none; stroke: #dee2e6; stroke-opacity: 0.25; stroke-width: -1; stroke-linecap: square"/>
     </g>
     <g id="line2d_34">
      <g>
       <use xlink:href="#m23fa713ddc" x="36.0505" y="18.212946" style="stroke: #000000; stroke-width: 0.3"/>
      </g>
     </g>
     <g id="text_18">
      <!-- 150 -->
      <g transform="translate(19.74925 21.212946) scale(0.08 -0.08)">
       <use xlink:href="#Roboto-Light-31"/>
       <use xlink:href="#Roboto-Light-35" transform="translate(55.419922 0)"/>
       <use xlink:href="#Roboto-Light-30" transform="translate(110.839844 0)"/>
      </g>
     </g>
    </g>
    <g id="text_19">
     <!-- Temperature [°C] -->
     <g transform="translate(13.9955 156.161563) rotate(-90) scale(0.08 -0.08)">
      <defs>
       <path id="Roboto-Regular-54" d="M 3672 4056 
L 2209 4056 
L 2209 0 
L 1613 0 
L 1613 4056 
L 153 4056 
L 153 4550 
L 3672 4550 
L 3672 4056 
z
" transform="scale(0.015625)"/>
       <path id="Roboto-Regular-65" d="M 1841 -63 
Q 1153 -63 722 389 
Q 291 841 291 1597 
L 291 1703 
Q 291 2206 483 2601 
Q 675 2997 1020 3220 
Q 1366 3444 1769 3444 
Q 2428 3444 2793 3009 
Q 3159 2575 3159 1766 
L 3159 1525 
L 869 1525 
Q 881 1025 1161 717 
Q 1441 409 1872 409 
Q 2178 409 2390 534 
Q 2603 659 2763 866 
L 3116 591 
Q 2691 -63 1841 -63 
z
M 1769 2969 
Q 1419 2969 1181 2714 
Q 944 2459 888 2000 
L 2581 2000 
L 2581 2044 
Q 2556 2484 2343 2726 
Q 2131 2969 1769 2969 
z
" transform="scale(0.015625)"/>
       <path id="Roboto-Regular-6d" d="M 981 3381 
L 997 3006 
Q 1369 3444 2000 3444 
Q 2709 3444 2966 2900 
Q 3134 3144 3404 3294 
Q 3675 3444 4044 3444 
Q 5156 3444 5175 2266 
L 5175 0 
L 4597 0 
L 4597 2231 
Q 4597 2594 4431 2773 
Q 4266 2953 3875 2953 
Q 3553 2953 3340 2761 
Q 3128 2569 3094 2244 
L 3094 0 
L 2513 0 
L 2513 2216 
Q 2513 2953 1791 2953 
Q 1222 2953 1013 2469 
L 1013 0 
L 434 0 
L 434 3381 
L 981 3381 
z
" transform="scale(0.015625)"/>
       <path id="Roboto-Regular-61" d="M 2525 0 
Q 2475 100 2444 356 
Q 2041 -63 1481 -63 
Q 981 -63 661 220 
Q 341 503 341 938 
Q 341 1466 742 1758 
Q 1144 2050 1872 2050 
L 2434 2050 
L 2434 2316 
Q 2434 2619 2253 2798 
Q 2072 2978 1719 2978 
Q 1409 2978 1200 2822 
Q 991 2666 991 2444 
L 409 2444 
Q 409 2697 589 2933 
Q 769 3169 1076 3306 
Q 1384 3444 1753 3444 
Q 2338 3444 2669 3151 
Q 3000 2859 3013 2347 
L 3013 791 
Q 3013 325 3131 50 
L 3131 0 
L 2525 0 
z
M 1566 441 
Q 1838 441 2081 581 
Q 2325 722 2434 947 
L 2434 1641 
L 1981 1641 
Q 919 1641 919 1019 
Q 919 747 1100 594 
Q 1281 441 1566 441 
z
" transform="scale(0.015625)"/>
       <path id="Roboto-Regular-75" d="M 2525 334 
Q 2188 -63 1534 -63 
Q 994 -63 711 251 
Q 428 566 425 1181 
L 425 3381 
L 1003 3381 
L 1003 1197 
Q 1003 428 1628 428 
Q 2291 428 2509 922 
L 2509 3381 
L 3088 3381 
L 3088 0 
L 2538 0 
L 2525 334 
z
" transform="scale(0.015625)"/>
       <path id="Roboto-Regular-b0" d="M 406 3800 
Q 406 4125 639 4369 
Q 872 4613 1203 4613 
Q 1528 4613 1758 4370 
Q 1988 4128 1988 3800 
Q 1988 3469 1758 3234 
Q 1528 3000 1203 3000 
Q 875 3000 640 3234 
Q 406 3469 406 3800 
z
M 1203 3400 
Q 1372 3400 1487 3511 
Q 1603 3622 1603 3800 
Q 1603 3981 1487 4098 
Q 1372 4216 1203 4216 
Q 1031 4216 914 4092 
Q 797 3969 797 3800 
Q 797 3631 914 3515 
Q 1031 3400 1203 3400 
z
" transform="scale(0.015625)"/>
       <path id="Roboto-Regular-43" d="M 3875 1444 
Q 3791 722 3342 329 
Q 2894 -63 2150 -63 
Q 1344 -63 858 515 
Q 372 1094 372 2063 
L 372 2500 
Q 372 3134 598 3615 
Q 825 4097 1240 4355 
Q 1656 4613 2203 4613 
Q 2928 4613 3365 4208 
Q 3803 3803 3875 3088 
L 3272 3088 
Q 3194 3631 2933 3875 
Q 2672 4119 2203 4119 
Q 1628 4119 1301 3694 
Q 975 3269 975 2484 
L 975 2044 
Q 975 1303 1284 865 
Q 1594 428 2150 428 
Q 2650 428 2917 654 
Q 3184 881 3272 1444 
L 3875 1444 
z
" transform="scale(0.015625)"/>
      </defs>
      <use xlink:href="#Roboto-Regular-54"/>
      <use xlink:href="#Roboto-Regular-65" transform="translate(59.667969 0)"/>
      <use xlink:href="#Roboto-Regular-6d" transform="translate(112.646484 0)"/>
      <use xlink:href="#Roboto-Regular-70" transform="translate(200.292969 0)"/>
      <use xlink:href="#Roboto-Regular-65" transform="translate(256.396484 0)"/>
      <use xlink:href="#Roboto-Regular-72" transform="translate(309.375 0)"/>
      <use xlink:href="#Roboto-Regular-61" transform="translate(343.212891 0)"/>
      <use xlink:href="#Roboto-Regular-74" transform="translate(397.607422 0)"/>
      <use xlink:href="#Roboto-Regular-75" transform="translate(430.273438 0)"/>
      <use xlink:href="#Roboto-Regular-72" transform="translate(485.400391 0)"/>
      <use xlink:href="#Roboto-Regular-65" transform="translate(519.238281 0)"/>
      <use xlink:href="#Roboto-Regular-20" transform="translate(572.216797 0)"/>
      <use xlink:href="#Roboto-Regular-5b" transform="translate(596.972656 0)"/>
      <use xlink:href="#Roboto-Regular-b0" transform="translate(623.486328 0)"/>
      <use xlink:href="#Roboto-Regular-43" transform="translate(660.839844 0)"/>
      <use xlink:href="#Roboto-Regular-5d" transform="translate(725.927734 0)"/>
     </g>
    </g>
   </g>
   <g id="line2d_35">
    <path d="M 5.23684 275.972633 
L 16.446736 265.93395 
L 28.26113 255.058711 
L 40.653728 243.346914 
L 53.613083 230.798561 
L 67.985141 216.577094 
L 86.246682 198.172842 
L 121.848665 162.200896 
L 132.990834 151.325657 
L 141.891431 142.960088 
L 149.351091 136.267633 
L 155.248772 131.248291 
L 160.456151 127.065507 
L 164.897067 123.719279 
L 169.695155 120.373052 
L 173.642212 117.863381 
L 178.066772 115.35371 
L 181.458607 113.680597 
L 185.527858 112.007483 
L 188.070984 111.170926 
L 191.436569 110.334369 
L 199.449392 109.497812 
L 205.692327 109.434372 
L 205.692327 109.434372 
" clip-path="url(#p6eec9ccea5)" style="fill: none; stroke: #339af0; stroke-width: 2; stroke-linecap: square"/>
   </g>
   <g id="line2d_36">
    <path d="M 353.413891 275.972633 
L 348.361117 270.116735 
L 342.892417 263.42428 
L 337.718144 256.731825 
L 332.80739 250.03937 
L 327.561803 242.510358 
L 322.574264 234.981346 
L 317.290208 226.615777 
L 311.734428 217.413651 
L 305.429943 206.538411 
L 296.510201 190.64383 
L 285.689846 171.403022 
L 280.275222 162.200896 
L 275.602443 154.671884 
L 271.171891 147.979429 
L 267.609988 142.960088 
L 263.769776 137.940746 
L 260.286962 133.757962 
L 257.256425 130.411734 
L 253.94008 127.065507 
L 251.208061 124.555836 
L 248.198291 122.046166 
L 244.812869 119.536495 
L 242.269189 117.863381 
L 239.403672 116.190267 
L 236.072901 114.517154 
L 231.987894 112.84404 
L 229.465486 112.007483 
L 226.364751 111.170926 
L 222.088699 110.334369 
L 211.935261 109.497812 
L 205.692327 109.434372 
L 205.692327 109.434372 
" clip-path="url(#p6eec9ccea5)" style="fill: none; stroke: #ff6b6b; stroke-width: 2; stroke-linecap: square"/>
   </g>
   <g id="line2d_37">
    <path d="M 307.755104 210.595933 
L 312.122044 204.25186 
L 321.444363 42.458829 
L 255.248229 128.346054 
L 158.827084 128.346054 
L 153.82808 131.771853 
L 165.962252 210.595933 
L 307.755104 210.595933 
" clip-path="url(#p6eec9ccea5)" style="fill: none; stroke-dasharray: 2,2; stroke-dashoffset: 0; stroke: #343a40"/>
   </g>
   <g id="line2d_38">
    <path d="M 36.0505 132.406261 
L 355.647 132.406261 
" clip-path="url(#p6eec9ccea5)" style="fill: none; stroke-dasharray: 3,3; stroke-dashoffset: 0; stroke: #ff6b6b; stroke-opacity: 0.7"/>
   </g>
   <g id="line2d_39">
    <path d="M 36.0505 193.309362 
L 355.647 193.309362 
" clip-path="url(#p6eec9ccea5)" style="fill: none; stroke-dasharray: 3,3; stroke-dashoffset: 0; stroke: #fd7e14; stroke-opacity: 0.7"/>
   </g>
   <g id="patch_3">
    <path d="M 36.0505 246.599575 
L 36.0505 5.5248 
" style="fill: none; stroke: #000000; stroke-width: 0.3; stroke-linejoin: miter; stroke-linecap: square"/>
   </g>
   <g id="patch_4">
    <path d="M 36.0505 246.599575 
L 355.647 246.599575 
" style="fill: none; stroke: #000000; stroke-width: 0.3; stroke-linejoin: miter; stroke-linecap: square"/>
   </g>
   <g id="line2d_40">
    <defs>
     <path id="mf07a0bf706" d="M 0 2 
C 0.530406 2 1.03916 1.789267 1.414214 1.414214 
C 1.789267 1.03916 2 0.530406 2 0 
C 2 -0.530406 1.789267 -1.03916 1.414214 -1.414214 
C 1.03916 -1.789267 0.530406 -2 0 -2 
C -0.530406 -2 -1.03916 -1.789267 -1.414214 -1.414214 
C -1.789267 -1.03916 -2 -0.530406 -2 0 
C -2 0.530406 -1.789267 1.03916 -1.414214 1.414214 
C -1.03916 1.789267 -0.530406 2 0 2 
z
" style="stroke: #343a40"/>
    </defs>
    <g clip-path="url(#p6eec9ccea5)">
     <use xlink:href="#mf07a0bf706" x="307.755104" y="210.595933" style="fill: #ffffff; stroke: #343a40"/>
    </g>
   </g>
   <g id="line2d_41">
    <g clip-path="url(#p6eec9ccea5)">
     <use xlink:href="#mf07a0bf706" x="255.248229" y="128.346054" style="fill: #ffffff; stroke: #343a40"/>
    </g>
   </g>
   <g id="line2d_42">
    <g clip-path="url(#p6eec9ccea5)">
     <use xlink:href="#mf07a0bf706" x="158.827084" y="128.346054" style="fill: #ffffff; stroke: #343a40"/>
    </g>
   </g>
   <g id="line2d_43">
    <defs>
     <path id="m6ed703e676" d="M 0 2 
C 0.530406 2 1.03916 1.789267 1.414214 1.414214 
C 1.789267 1.03916 2 0.530406 2 0 
C 2 -0.530406 1.789267 -1.03916 1.414214 -1.414214 
C 1.03916 -1.789267 0.530406 -2 0 -2 
C -0.530406 -2 -1.03916 -1.789267 -1.414214 -1.414214 
C -1.789267 -1.03916 -2 -0.530406 -2 0 
C -2 0.530406 -1.789267 1.03916 -1.414214 1.414214 
C -1.03916 1.789267 -0.530406 2 0 2 
z
" style="stroke: #343a40"/>
    </defs>
    <g clip-path="url(#p6eec9ccea5)">
     <use xlink:href="#m6ed703e676" x="312.122044" y="204.25186" style="fill: #343a40; stroke: #343a40"/>
    </g>
   </g>
   <g id="text_20">
    <!-- cmp,in -->
    <g style="fill: #343a40" transform="translate(320.122044 210.25186) scale(0.07 -0.07)">
     <defs>
      <path id="Roboto-Light-63" d="M 1738 253 
Q 2128 253 2392 473 
Q 2656 694 2678 1044 
L 3038 1044 
Q 3022 734 2844 479 
Q 2666 225 2370 81 
Q 2075 -63 1738 -63 
Q 1072 -63 683 400 
Q 294 863 294 1644 
L 294 1756 
Q 294 2256 469 2640 
Q 644 3025 970 3234 
Q 1297 3444 1734 3444 
Q 2291 3444 2652 3112 
Q 3013 2781 3038 2241 
L 2678 2241 
Q 2653 2638 2392 2881 
Q 2131 3125 1734 3125 
Q 1228 3125 948 2759 
Q 669 2394 669 1734 
L 669 1625 
Q 669 978 948 615 
Q 1228 253 1738 253 
z
" transform="scale(0.015625)"/>
      <path id="Roboto-Light-6d" d="M 828 3381 
L 841 2831 
Q 1028 3138 1309 3291 
Q 1591 3444 1934 3444 
Q 2734 3444 2950 2788 
Q 3131 3103 3434 3273 
Q 3738 3444 4103 3444 
Q 5191 3444 5213 2256 
L 5213 0 
L 4838 0 
L 4838 2228 
Q 4834 2681 4642 2900 
Q 4450 3119 4016 3119 
Q 3613 3113 3334 2858 
Q 3056 2603 3025 2238 
L 3025 0 
L 2650 0 
L 2650 2256 
Q 2647 2691 2445 2905 
Q 2244 3119 1825 3119 
Q 1472 3119 1219 2917 
Q 966 2716 844 2319 
L 844 0 
L 469 0 
L 469 3381 
L 828 3381 
z
" transform="scale(0.015625)"/>
      <path id="Roboto-Light-70" d="M 3206 1656 
Q 3206 866 2856 401 
Q 2506 -63 1919 -63 
Q 1225 -63 856 425 
L 856 -1300 
L 484 -1300 
L 484 3381 
L 831 3381 
L 850 2903 
Q 1216 3444 1909 3444 
Q 2516 3444 2861 2984 
Q 3206 2525 3206 1709 
L 3206 1656 
z
M 2831 1722 
Q 2831 2369 2565 2744 
Q 2300 3119 1825 3119 
Q 1481 3119 1234 2953 
Q 988 2788 856 2472 
L 856 850 
Q 991 559 1241 406 
Q 1491 253 1831 253 
Q 2303 253 2567 629 
Q 2831 1006 2831 1722 
z
" transform="scale(0.015625)"/>
      <path id="Roboto-Light-2c" d="M 409 -850 
L 188 -688 
Q 472 -306 481 103 
L 481 588 
L 847 588 
L 847 197 
Q 847 -453 409 -850 
z
" transform="scale(0.015625)"/>
      <path id="Roboto-Light-69" d="M 906 0 
L 531 0 
L 531 3381 
L 906 3381 
L 906 0 
z
M 466 4359 
Q 466 4466 534 4539 
Q 603 4613 722 4613 
Q 841 4613 911 4539 
Q 981 4466 981 4359 
Q 981 4253 911 4181 
Q 841 4109 722 4109 
Q 603 4109 534 4181 
Q 466 4253 466 4359 
z
" transform="scale(0.015625)"/>
      <path id="Roboto-Light-6e" d="M 844 3381 
L 856 2803 
Q 1047 3116 1331 3280 
Q 1616 3444 1959 3444 
Q 2503 3444 2768 3137 
Q 3034 2831 3038 2219 
L 3038 0 
L 2666 0 
L 2666 2222 
Q 2663 2675 2473 2897 
Q 2284 3119 1869 3119 
Q 1522 3119 1255 2901 
Q 988 2684 859 2316 
L 859 0 
L 488 0 
L 488 3381 
L 844 3381 
z
" transform="scale(0.015625)"/>
     </defs>
     <use xlink:href="#Roboto-Light-63"/>
     <use xlink:href="#Roboto-Light-6d" transform="translate(51.513672 0)"/>
     <use xlink:href="#Roboto-Light-70" transform="translate(140.136719 0)"/>
     <use xlink:href="#Roboto-Light-2c" transform="translate(195.556641 0)"/>
     <use xlink:href="#Roboto-Light-69" transform="translate(214.697266 0)"/>
     <use xlink:href="#Roboto-Light-6e" transform="translate(237.109375 0)"/>
    </g>
   </g>
   <g id="line2d_44">
    <g clip-path="url(#p6eec9ccea5)">
     <use xlink:href="#m6ed703e676" x="321.444363" y="42.458829" style="fill: #343a40; stroke: #343a40"/>
    </g>
   </g>
   <g id="text_21">
    <!-- cmp,out -->
    <g style="fill: #343a40" transform="translate(329.444363 54.458829) scale(0.07 -0.07)">
     <defs>
      <path id="Roboto-Light-6f" d="M 281 1741 
Q 281 2228 470 2618 
Q 659 3009 1004 3226 
Q 1350 3444 1788 3444 
Q 2463 3444 2881 2970 
Q 3300 2497 3300 1716 
L 3300 1638 
Q 3300 1147 3111 755 
Q 2922 363 2578 150 
Q 2234 -63 1794 -63 
Q 1122 -63 701 410 
Q 281 884 281 1666 
L 281 1741 
z
M 656 1638 
Q 656 1031 970 642 
Q 1284 253 1794 253 
Q 2300 253 2614 642 
Q 2928 1031 2928 1669 
L 2928 1741 
Q 2928 2128 2784 2450 
Q 2641 2772 2381 2948 
Q 2122 3125 1788 3125 
Q 1288 3125 972 2733 
Q 656 2341 656 1706 
L 656 1638 
z
" transform="scale(0.015625)"/>
      <path id="Roboto-Light-75" d="M 2663 428 
Q 2325 -63 1584 -63 
Q 1044 -63 762 251 
Q 481 566 475 1181 
L 475 3381 
L 847 3381 
L 847 1228 
Q 847 263 1628 263 
Q 2441 263 2656 934 
L 2656 3381 
L 3031 3381 
L 3031 0 
L 2669 0 
L 2663 428 
z
" transform="scale(0.015625)"/>
      <path id="Roboto-Light-74" d="M 1069 4247 
L 1069 3381 
L 1769 3381 
L 1769 3075 
L 1069 3075 
L 1069 822 
Q 1069 541 1170 403 
Q 1272 266 1509 266 
Q 1603 266 1813 297 
L 1828 -9 
Q 1681 -63 1428 -63 
Q 1044 -63 869 160 
Q 694 384 694 819 
L 694 3075 
L 72 3075 
L 72 3381 
L 694 3381 
L 694 4247 
L 1069 4247 
z
" transform="scale(0.015625)"/>
     </defs>
     <use xlink:href="#Roboto-Light-63"/>
     <use xlink:href="#Roboto-Light-6d" transform="translate(51.513672 0)"/>
     <use xlink:href="#Roboto-Light-70" transform="translate(140.136719 0)"/>
     <use xlink:href="#Roboto-Light-2c" transform="translate(195.556641 0)"/>
     <use xlink:href="#Roboto-Light-6f" transform="translate(214.697266 0)"/>
     <use xlink:href="#Roboto-Light-75" transform="translate(270.703125 0)"/>
     <use xlink:href="#Roboto-Light-74" transform="translate(325.634766 0)"/>
    </g>
   </g>
   <g id="line2d_45">
    <g clip-path="url(#p6eec9ccea5)">
     <use xlink:href="#m6ed703e676" x="153.82808" y="131.771853" style="fill: #343a40; stroke: #343a40"/>
    </g>
   </g>
   <g id="text_22">
    <!-- exp,in -->
    <g style="fill: #343a40" transform="translate(123.82808 123.771853) scale(0.07 -0.07)">
     <defs>
      <path id="Roboto-Light-65" d="M 1797 -63 
Q 1366 -63 1017 150 
Q 669 363 475 742 
Q 281 1122 281 1594 
L 281 1728 
Q 281 2216 470 2606 
Q 659 2997 996 3220 
Q 1334 3444 1728 3444 
Q 2344 3444 2705 3023 
Q 3066 2603 3066 1875 
L 3066 1666 
L 653 1666 
L 653 1594 
Q 653 1019 983 636 
Q 1313 253 1813 253 
Q 2113 253 2342 362 
Q 2572 472 2759 713 
L 2994 534 
Q 2581 -63 1797 -63 
z
M 1728 3125 
Q 1306 3125 1017 2815 
Q 728 2506 666 1984 
L 2694 1984 
L 2694 2025 
Q 2678 2513 2415 2819 
Q 2153 3125 1728 3125 
z
" transform="scale(0.015625)"/>
      <path id="Roboto-Light-78" d="M 1550 2009 
L 2463 3381 
L 2906 3381 
L 1759 1722 
L 2956 0 
L 2516 0 
L 1553 1431 
L 591 0 
L 150 0 
L 1344 1722 
L 197 3381 
L 638 3381 
L 1550 2009 
z
" transform="scale(0.015625)"/>
     </defs>
     <use xlink:href="#Roboto-Light-65"/>
     <use xlink:href="#Roboto-Light-78" transform="translate(51.660156 0)"/>
     <use xlink:href="#Roboto-Light-70" transform="translate(100.292969 0)"/>
     <use xlink:href="#Roboto-Light-2c" transform="translate(155.712891 0)"/>
     <use xlink:href="#Roboto-Light-69" transform="translate(174.853516 0)"/>
     <use xlink:href="#Roboto-Light-6e" transform="translate(197.265625 0)"/>
    </g>
   </g>
   <g id="line2d_46">
    <g clip-path="url(#p6eec9ccea5)">
     <use xlink:href="#m6ed703e676" x="165.962252" y="210.595933" style="fill: #343a40; stroke: #343a40"/>
    </g>
   </g>
   <g id="text_23">
    <!-- exp,out -->
    <g style="fill: #343a40" transform="translate(135.962252 224.595933) scale(0.07 -0.07)">
     <use xlink:href="#Roboto-Light-65"/>
     <use xlink:href="#Roboto-Light-78" transform="translate(51.660156 0)"/>
     <use xlink:href="#Roboto-Light-70" transform="translate(100.292969 0)"/>
     <use xlink:href="#Roboto-Light-2c" transform="translate(155.712891 0)"/>
     <use xlink:href="#Roboto-Light-6f" transform="translate(174.853516 0)"/>
     <use xlink:href="#Roboto-Light-75" transform="translate(230.859375 0)"/>
     <use xlink:href="#Roboto-Light-74" transform="translate(285.791016 0)"/>
    </g>
   </g>
   <g id="text_24">
    <!-- Tank water: 60 °C -->
    <g style="fill: #ff6b6b" transform="translate(291.684141 128.599817) scale(0.07 -0.07)">
     <defs>
      <path id="Roboto-Light-54" d="M 3663 4222 
L 2103 4222 
L 2103 0 
L 1719 0 
L 1719 4222 
L 163 4222 
L 163 4550 
L 3663 4550 
L 3663 4222 
z
" transform="scale(0.015625)"/>
      <path id="Roboto-Light-61" d="M 2622 0 
Q 2566 159 2550 472 
Q 2353 216 2048 76 
Q 1744 -63 1403 -63 
Q 916 -63 614 209 
Q 313 481 313 897 
Q 313 1391 723 1678 
Q 1134 1966 1869 1966 
L 2547 1966 
L 2547 2350 
Q 2547 2713 2323 2920 
Q 2100 3128 1672 3128 
Q 1281 3128 1025 2928 
Q 769 2728 769 2447 
L 394 2450 
Q 394 2853 769 3148 
Q 1144 3444 1691 3444 
Q 2256 3444 2582 3161 
Q 2909 2878 2919 2372 
L 2919 772 
Q 2919 281 3022 38 
L 3022 0 
L 2622 0 
z
M 1447 269 
Q 1822 269 2117 450 
Q 2413 631 2547 934 
L 2547 1678 
L 1878 1678 
Q 1319 1672 1003 1473 
Q 688 1275 688 928 
Q 688 644 898 456 
Q 1109 269 1447 269 
z
" transform="scale(0.015625)"/>
      <path id="Roboto-Light-6b" d="M 1291 1703 
L 863 1291 
L 863 0 
L 488 0 
L 488 4800 
L 863 4800 
L 863 1728 
L 1216 2109 
L 2509 3381 
L 2981 3381 
L 1547 1956 
L 3106 0 
L 2659 0 
L 1291 1703 
z
" transform="scale(0.015625)"/>
      <path id="Roboto-Light-20" transform="scale(0.015625)"/>
      <path id="Roboto-Light-77" d="M 1297 778 
L 1353 488 
L 1428 794 
L 2241 3381 
L 2559 3381 
L 3363 816 
L 3450 459 
L 3522 788 
L 4216 3381 
L 4603 3381 
L 3619 0 
L 3300 0 
L 2431 2681 
L 2391 2866 
L 2350 2678 
L 1497 0 
L 1178 0 
L 197 3381 
L 581 3381 
L 1297 778 
z
" transform="scale(0.015625)"/>
      <path id="Roboto-Light-72" d="M 2050 3063 
Q 1931 3084 1797 3084 
Q 1447 3084 1205 2889 
Q 963 2694 859 2322 
L 859 0 
L 488 0 
L 488 3381 
L 853 3381 
L 859 2844 
Q 1156 3444 1813 3444 
Q 1969 3444 2059 3403 
L 2050 3063 
z
" transform="scale(0.015625)"/>
      <path id="Roboto-Light-3a" d="M 397 225 
Q 397 334 467 411 
Q 538 488 663 488 
Q 788 488 860 411 
Q 932 334 932 225 
Q 932 116 860 45 
Q 788 -25 663 -25 
Q 538 -25 467 45 
Q 397 116 397 225 
z
M 405 3105 
Q 405 3214 475 3291 
Q 546 3368 671 3368 
Q 796 3368 868 3291 
Q 940 3214 940 3105 
Q 940 2996 868 2925 
Q 796 2855 671 2855 
Q 546 2855 475 2925 
Q 405 2996 405 3105 
z
" transform="scale(0.015625)"/>
      <path id="Roboto-Light-b0" d="M 1969 3831 
Q 1969 3506 1747 3284 
Q 1525 3063 1213 3063 
Q 897 3063 672 3286 
Q 447 3509 447 3831 
Q 447 4153 675 4383 
Q 903 4613 1212 4613 
Q 1522 4613 1745 4383 
Q 1969 4153 1969 3831 
z
M 728 3831 
Q 728 3622 867 3484 
Q 1006 3347 1212 3347 
Q 1419 3347 1553 3484 
Q 1688 3622 1688 3831 
Q 1688 4047 1553 4187 
Q 1419 4328 1213 4328 
Q 1009 4328 868 4187 
Q 728 4047 728 3831 
z
" transform="scale(0.015625)"/>
      <path id="Roboto-Light-43" d="M 3797 1419 
Q 3719 700 3283 318 
Q 2847 -63 2122 -63 
Q 1616 -63 1227 190 
Q 838 444 625 908 
Q 413 1372 409 1969 
L 409 2559 
Q 409 3166 621 3634 
Q 834 4103 1232 4358 
Q 1631 4613 2150 4613 
Q 2881 4613 3304 4217 
Q 3728 3822 3797 3125 
L 3409 3125 
Q 3266 4284 2150 4284 
Q 1531 4284 1164 3821 
Q 797 3359 797 2544 
L 797 1988 
Q 797 1200 1155 731 
Q 1513 263 2122 263 
Q 2725 263 3031 552 
Q 3338 841 3409 1419 
L 3797 1419 
z
" transform="scale(0.015625)"/>
     </defs>
     <use xlink:href="#Roboto-Light-54"/>
     <use xlink:href="#Roboto-Light-61" transform="translate(59.716797 0)"/>
     <use xlink:href="#Roboto-Light-6e" transform="translate(113.28125 0)"/>
     <use xlink:href="#Roboto-Light-6b" transform="translate(168.212891 0)"/>
     <use xlink:href="#Roboto-Light-20" transform="translate(217.1875 0)"/>
     <use xlink:href="#Roboto-Light-77" transform="translate(241.503906 0)"/>
     <use xlink:href="#Roboto-Light-61" transform="translate(316.894531 0)"/>
     <use xlink:href="#Roboto-Light-74" transform="translate(370.458984 0)"/>
     <use xlink:href="#Roboto-Light-65" transform="translate(402.587891 0)"/>
     <use xlink:href="#Roboto-Light-72" transform="translate(454.248047 0)"/>
     <use xlink:href="#Roboto-Light-3a" transform="translate(487.890625 0)"/>
     <use xlink:href="#Roboto-Light-20" transform="translate(508.886719 0)"/>
     <use xlink:href="#Roboto-Light-36" transform="translate(533.203125 0)"/>
     <use xlink:href="#Roboto-Light-30" transform="translate(588.623047 0)"/>
     <use xlink:href="#Roboto-Light-20" transform="translate(644.042969 0)"/>
     <use xlink:href="#Roboto-Light-b0" transform="translate(668.359375 0)"/>
     <use xlink:href="#Roboto-Light-43" transform="translate(706.152344 0)"/>
    </g>
   </g>
   <g id="text_25">
    <!-- Outdoor air: 12 °C -->
    <g style="fill: #fd7e14" transform="translate(291.545234 204.728693) scale(0.07 -0.07)">
     <defs>
      <path id="Roboto-Light-4f" d="M 3938 2028 
Q 3938 1400 3720 925 
Q 3503 450 3100 193 
Q 2697 -63 2169 -63 
Q 1372 -63 881 507 
Q 391 1078 391 2047 
L 391 2516 
Q 391 3138 611 3617 
Q 831 4097 1234 4355 
Q 1638 4613 2163 4613 
Q 2688 4613 3089 4359 
Q 3491 4106 3709 3643 
Q 3928 3181 3938 2572 
L 3938 2028 
z
M 3553 2522 
Q 3553 3344 3181 3809 
Q 2809 4275 2163 4275 
Q 1528 4275 1151 3808 
Q 775 3341 775 2503 
L 775 2028 
Q 775 1219 1150 745 
Q 1525 272 2169 272 
Q 2822 272 3187 739 
Q 3553 1206 3553 2041 
L 3553 2522 
z
" transform="scale(0.015625)"/>
      <path id="Roboto-Light-64" d="M 338 1722 
Q 338 2509 689 2976 
Q 1041 3444 1644 3444 
Q 2328 3444 2688 2903 
L 2688 4800 
L 3059 4800 
L 3059 0 
L 2709 0 
L 2694 450 
Q 2334 -63 1638 -63 
Q 1053 -63 695 407 
Q 338 878 338 1678 
L 338 1722 
z
M 716 1656 
Q 716 1009 975 636 
Q 1234 263 1706 263 
Q 2397 263 2688 872 
L 2688 2459 
Q 2397 3119 1713 3119 
Q 1241 3119 978 2748 
Q 716 2378 716 1656 
z
" transform="scale(0.015625)"/>
     </defs>
     <use xlink:href="#Roboto-Light-4f"/>
     <use xlink:href="#Roboto-Light-75" transform="translate(67.675781 0)"/>
     <use xlink:href="#Roboto-Light-74" transform="translate(122.607422 0)"/>
     <use xlink:href="#Roboto-Light-64" transform="translate(154.736328 0)"/>
     <use xlink:href="#Roboto-Light-6f" transform="translate(210.302734 0)"/>
     <use xlink:href="#Roboto-Light-6f" transform="translate(266.308594 0)"/>
     <use xlink:href="#Roboto-Light-72" transform="translate(322.314453 0)"/>
     <use xlink:href="#Roboto-Light-20" transform="translate(355.957031 0)"/>
     <use xlink:href="#Roboto-Light-61" transform="translate(380.273438 0)"/>
     <use xlink:href="#Roboto-Light-69" transform="translate(433.837891 0)"/>
     <use xlink:href="#Roboto-Light-72" transform="translate(456.25 0)"/>
     <use xlink:href="#Roboto-Light-3a" transform="translate(489.892578 0)"/>
     <use xlink:href="#Roboto-Light-20" transform="translate(510.888672 0)"/>
     <use xlink:href="#Roboto-Light-31" transform="translate(535.205078 0)"/>
     <use xlink:href="#Roboto-Light-32" transform="translate(590.625 0)"/>
     <use xlink:href="#Roboto-Light-20" transform="translate(646.044922 0)"/>
     <use xlink:href="#Roboto-Light-b0" transform="translate(670.361328 0)"/>
     <use xlink:href="#Roboto-Light-43" transform="translate(708.154297 0)"/>
    </g>
   </g>
   <g id="legend_1">
    <g id="line2d_47">
     <path d="M 39.5505 11.896988 
L 46.5505 11.896988 
L 53.5505 11.896988 
" style="fill: none; stroke: #339af0; stroke-width: 2; stroke-linecap: square"/>
    </g>
    <g id="text_26">
     <!-- Sat. liquid -->
     <g transform="translate(55.6505 14.346988) scale(0.07 -0.07)">
      <defs>
       <path id="Roboto-Light-53" d="M 3150 1119 
Q 3150 1497 2884 1717 
Q 2619 1938 1912 2136 
Q 1206 2334 881 2569 
Q 419 2900 419 3438 
Q 419 3959 848 4286 
Q 1278 4613 1947 4613 
Q 2400 4613 2758 4438 
Q 3116 4263 3312 3950 
Q 3509 3638 3509 3253 
L 3122 3253 
Q 3122 3719 2803 4001 
Q 2484 4284 1947 4284 
Q 1425 4284 1115 4051 
Q 806 3819 806 3444 
Q 806 3097 1084 2878 
Q 1363 2659 1975 2492 
Q 2588 2325 2903 2145 
Q 3219 1966 3378 1716 
Q 3538 1466 3538 1125 
Q 3538 588 3108 262 
Q 2678 -63 1975 -63 
Q 1494 -63 1092 109 
Q 691 281 483 590 
Q 275 900 275 1300 
L 659 1300 
Q 659 819 1018 541 
Q 1378 263 1975 263 
Q 2506 263 2828 497 
Q 3150 731 3150 1119 
z
" transform="scale(0.015625)"/>
       <path id="Roboto-Light-6c" d="M 906 0 
L 531 0 
L 531 4800 
L 906 4800 
L 906 0 
z
" transform="scale(0.015625)"/>
       <path id="Roboto-Light-71" d="M 338 1722 
Q 338 2516 689 2980 
Q 1041 3444 1650 3444 
Q 2334 3444 2691 2922 
L 2709 3381 
L 3059 3381 
L 3059 -1300 
L 2684 -1300 
L 2684 419 
Q 2316 -63 1644 -63 
Q 1050 -63 694 406 
Q 338 875 338 1672 
L 338 1722 
z
M 716 1656 
Q 716 1000 980 626 
Q 1244 253 1713 253 
Q 2384 253 2684 838 
L 2684 2494 
Q 2544 2797 2295 2961 
Q 2047 3125 1719 3125 
Q 1247 3125 981 2751 
Q 716 2378 716 1656 
z
" transform="scale(0.015625)"/>
      </defs>
      <use xlink:href="#Roboto-Light-53"/>
      <use xlink:href="#Roboto-Light-61" transform="translate(59.228516 0)"/>
      <use xlink:href="#Roboto-Light-74" transform="translate(112.792969 0)"/>
      <use xlink:href="#Roboto-Light-2e" transform="translate(144.921875 0)"/>
      <use xlink:href="#Roboto-Light-20" transform="translate(168.798828 0)"/>
      <use xlink:href="#Roboto-Light-6c" transform="translate(193.115234 0)"/>
      <use xlink:href="#Roboto-Light-69" transform="translate(215.527344 0)"/>
      <use xlink:href="#Roboto-Light-71" transform="translate(237.939453 0)"/>
      <use xlink:href="#Roboto-Light-75" transform="translate(293.701172 0)"/>
      <use xlink:href="#Roboto-Light-69" transform="translate(348.632812 0)"/>
      <use xlink:href="#Roboto-Light-64" transform="translate(371.044922 0)"/>
     </g>
    </g>
    <g id="line2d_48">
     <path d="M 90.762063 11.896988 
L 97.762063 11.896988 
L 104.762063 11.896988 
" style="fill: none; stroke: #ff6b6b; stroke-width: 2; stroke-linecap: square"/>
    </g>
    <g id="text_27">
     <!-- Sat. vapor -->
     <g transform="translate(106.862063 14.346988) scale(0.07 -0.07)">
      <defs>
       <path id="Roboto-Light-76" d="M 1541 516 
L 2569 3381 
L 2953 3381 
L 1691 0 
L 1388 0 
L 119 3381 
L 503 3381 
L 1541 516 
z
" transform="scale(0.015625)"/>
      </defs>
      <use xlink:href="#Roboto-Light-53"/>
      <use xlink:href="#Roboto-Light-61" transform="translate(59.228516 0)"/>
      <use xlink:href="#Roboto-Light-74" transform="translate(112.792969 0)"/>
      <use xlink:href="#Roboto-Light-2e" transform="translate(144.921875 0)"/>
      <use xlink:href="#Roboto-Light-20" transform="translate(168.798828 0)"/>
      <use xlink:href="#Roboto-Light-76" transform="translate(193.115234 0)"/>
      <use xlink:href="#Roboto-Light-61" transform="translate(241.210938 0)"/>
      <use xlink:href="#Roboto-Light-70" transform="translate(294.775391 0)"/>
      <use xlink:href="#Roboto-Light-6f" transform="translate(350.195312 0)"/>
      <use xlink:href="#Roboto-Light-72" transform="translate(406.201172 0)"/>
     </g>
    </g>
    <g id="line2d_49">
     <path d="M 142.900031 11.896988 
L 149.900031 11.896988 
L 156.900031 11.896988 
" style="fill: none; stroke-dasharray: 2,2; stroke-dashoffset: 0; stroke: #343a40"/>
    </g>
    <g id="text_28">
     <!-- Ref. cycle -->
     <g transform="translate(159.000031 14.346988) scale(0.07 -0.07)">
      <defs>
       <path id="Roboto-Light-52" d="M 2275 1894 
L 953 1894 
L 953 0 
L 566 0 
L 566 4550 
L 2044 4550 
Q 2772 4550 3181 4197 
Q 3591 3844 3591 3209 
Q 3591 2772 3334 2437 
Q 3078 2103 2647 1975 
L 3784 41 
L 3784 0 
L 3375 0 
L 2275 1894 
z
M 953 2222 
L 2131 2222 
Q 2616 2222 2909 2497 
Q 3203 2772 3203 3209 
Q 3203 3691 2897 3956 
Q 2591 4222 2038 4222 
L 953 4222 
L 953 2222 
z
" transform="scale(0.015625)"/>
       <path id="Roboto-Light-66" d="M 756 0 
L 756 3075 
L 197 3075 
L 197 3381 
L 756 3381 
L 756 3791 
Q 756 4309 1020 4587 
Q 1284 4866 1756 4866 
Q 1969 4866 2153 4813 
L 2125 4500 
Q 1969 4538 1784 4538 
Q 1475 4538 1303 4345 
Q 1131 4153 1131 3800 
L 1131 3381 
L 1938 3381 
L 1938 3075 
L 1131 3075 
L 1131 0 
L 756 0 
z
" transform="scale(0.015625)"/>
       <path id="Roboto-Light-79" d="M 1559 538 
L 2547 3381 
L 2950 3381 
L 1506 -575 
L 1431 -750 
Q 1153 -1366 572 -1366 
Q 438 -1366 284 -1322 
L 281 -1013 
L 475 -1031 
Q 750 -1031 920 -895 
Q 1091 -759 1209 -428 
L 1375 28 
L 100 3381 
L 509 3381 
L 1559 538 
z
" transform="scale(0.015625)"/>
      </defs>
      <use xlink:href="#Roboto-Light-52"/>
      <use xlink:href="#Roboto-Light-65" transform="translate(63.476562 0)"/>
      <use xlink:href="#Roboto-Light-66" transform="translate(115.136719 0)"/>
      <use xlink:href="#Roboto-Light-2e" transform="translate(148.242188 0)"/>
      <use xlink:href="#Roboto-Light-20" transform="translate(172.119141 0)"/>
      <use xlink:href="#Roboto-Light-63" transform="translate(196.435547 0)"/>
      <use xlink:href="#Roboto-Light-79" transform="translate(247.949219 0)"/>
      <use xlink:href="#Roboto-Light-63" transform="translate(295.458984 0)"/>
      <use xlink:href="#Roboto-Light-6c" transform="translate(346.972656 0)"/>
      <use xlink:href="#Roboto-Light-65" transform="translate(369.384766 0)"/>
     </g>
    </g>
   </g>
  </g>
 </g>
 <defs>
  <clipPath id="p6eec9ccea5">
   <rect x="36.0505" y="5.5248" width="319.5965" height="241.074775"/>
  </clipPath>
 </defs>
</svg>
