<?xml version="1.0" encoding="utf-8" standalone="no"?>
<!DOCTYPE svg PUBLIC "-//W3C//DTD SVG 1.1//EN"
  "http://www.w3.org/Graphics/SVG/1.1/DTD/svg11.dtd">
<svg xmlns:xlink="http://www.w3.org/1999/xlink" width="972pt" height="388.8pt" viewBox="0 0 972 388.8" xmlns="http://www.w3.org/2000/svg" version="1.1">
 <metadata>
  <rdf:RDF xmlns:dc="http://purl.org/dc/elements/1.1/" xmlns:cc="http://creativecommons.org/ns#" xmlns:rdf="http://www.w3.org/1999/02/22-rdf-syntax-ns#">
   <cc:Work>
    <dc:type rdf:resource="http://purl.org/dc/dcmitype/StillImage"/>
    <dc:date>2026-05-17T23:19:13.784914</dc:date>
    <dc:format>image/svg+xml</dc:format>
    <dc:creator>
     <cc:Agent>
      <dc:title>Matplotlib v3.10.9, https://matplotlib.org/</dc:title>
     </cc:Agent>
    </dc:creator>
   </cc:Work>
  </rdf:RDF>
 </metadata>
 <defs>
  <style type="text/css">*{stroke-linejoin: round; stroke-linecap: butt}</style>
 </defs>
 <g id="figure_1">
  <g id="patch_1">
   <path d="M 0 388.8 
L 972 388.8 
L 972 0 
L 0 0 
z
" style="fill: #ffffff"/>
  </g>
  <g id="axes_1">
   <g id="patch_2">
    <path d="M 54.467739 340.579375 
L 468.277307 340.579375 
L 468.277307 18.648 
L 54.467739 18.648 
z
" style="fill: #ffffff"/>
   </g>
   <g id="matplotlib.axis_1">
    <g id="xtick_1">
     <g id="line2d_1">
      <path d="M 54.467739 340.579375 
L 54.467739 18.648 
" clip-path="url(#pa2c7ce62bb)" style="fill: none; stroke: #b0b0b0; stroke-opacity: 0.25; stroke-width: 0.8; stroke-linecap: square"/>
     </g>
     <g id="line2d_2">
      <defs>
       <path id="m40026b6356" d="M 0 0 
L 0 3.5 
" style="stroke: #000000; stroke-width: 0.8"/>
      </defs>
      <g>
       <use xlink:href="#m40026b6356" x="54.467739" y="340.579375" style="stroke: #000000; stroke-width: 0.8"/>
      </g>
     </g>
     <g id="text_1">
      <!-- 0 -->
      <g transform="translate(51.467739 355.775) scale(0.12 -0.12)">
       <defs>
        <path id="STIXGeneral-Regular-30" d="M 3046 2112 
Q 3046 1683 2963 1302 
Q 2880 922 2717 602 
Q 2554 282 2266 96 
Q 1978 -90 1600 -90 
Q 1210 -90 915 108 
Q 621 307 461 640 
Q 301 973 227 1350 
Q 154 1728 154 2150 
Q 154 2746 301 3222 
Q 448 3699 790 4012 
Q 1133 4326 1626 4326 
Q 2253 4326 2649 3712 
Q 3046 3098 3046 2112 
z
M 2432 2080 
Q 2432 3091 2217 3625 
Q 2003 4160 1587 4160 
Q 1190 4160 979 3622 
Q 768 3085 768 2106 
Q 768 1120 979 598 
Q 1190 77 1600 77 
Q 2003 77 2217 598 
Q 2432 1120 2432 2080 
z
" transform="scale(0.015625)"/>
       </defs>
       <use xlink:href="#STIXGeneral-Regular-30"/>
      </g>
     </g>
    </g>
    <g id="xtick_2">
     <g id="line2d_3">
      <path d="M 113.583392 340.579375 
L 113.583392 18.648 
" clip-path="url(#pa2c7ce62bb)" style="fill: none; stroke: #b0b0b0; stroke-opacity: 0.25; stroke-width: 0.8; stroke-linecap: square"/>
     </g>
     <g id="line2d_4">
      <g>
       <use xlink:href="#m40026b6356" x="113.583392" y="340.579375" style="stroke: #000000; stroke-width: 0.8"/>
      </g>
     </g>
     <g id="text_2">
      <!-- 100 -->
      <g transform="translate(104.583392 355.775) scale(0.12 -0.12)">
       <defs>
        <path id="STIXGeneral-Regular-31" d="M 2522 0 
L 755 0 
L 755 96 
Q 1107 115 1235 227 
Q 1363 339 1363 608 
L 1363 3482 
Q 1363 3795 1171 3795 
Q 1082 3795 883 3718 
L 710 3654 
L 710 3744 
L 1856 4326 
L 1914 4307 
L 1914 486 
Q 1914 275 2042 185 
Q 2170 96 2522 96 
L 2522 0 
z
" transform="scale(0.015625)"/>
       </defs>
       <use xlink:href="#STIXGeneral-Regular-31"/>
       <use xlink:href="#STIXGeneral-Regular-30" transform="translate(49.999985 0)"/>
       <use xlink:href="#STIXGeneral-Regular-30" transform="translate(99.999969 0)"/>
      </g>
     </g>
    </g>
    <g id="xtick_3">
     <g id="line2d_5">
      <path d="M 172.699044 340.579375 
L 172.699044 18.648 
" clip-path="url(#pa2c7ce62bb)" style="fill: none; stroke: #b0b0b0; stroke-opacity: 0.25; stroke-width: 0.8; stroke-linecap: square"/>
     </g>
     <g id="line2d_6">
      <g>
       <use xlink:href="#m40026b6356" x="172.699044" y="340.579375" style="stroke: #000000; stroke-width: 0.8"/>
      </g>
     </g>
     <g id="text_3">
      <!-- 200 -->
      <g transform="translate(163.699044 355.775) scale(0.12 -0.12)">
       <defs>
        <path id="STIXGeneral-Regular-32" d="M 3034 877 
L 2688 0 
L 186 0 
L 186 77 
L 1325 1286 
Q 1773 1754 1965 2144 
Q 2157 2534 2157 2950 
Q 2157 3379 1920 3616 
Q 1683 3853 1267 3853 
Q 922 3853 720 3673 
Q 518 3494 326 3021 
L 192 3053 
Q 301 3648 630 3987 
Q 960 4326 1523 4326 
Q 2054 4326 2380 4006 
Q 2707 3686 2707 3200 
Q 2707 2477 1888 1613 
L 832 486 
L 2330 486 
Q 2541 486 2665 569 
Q 2790 653 2944 915 
L 3034 877 
z
" transform="scale(0.015625)"/>
       </defs>
       <use xlink:href="#STIXGeneral-Regular-32"/>
       <use xlink:href="#STIXGeneral-Regular-30" transform="translate(49.999985 0)"/>
       <use xlink:href="#STIXGeneral-Regular-30" transform="translate(99.999969 0)"/>
      </g>
     </g>
    </g>
    <g id="xtick_4">
     <g id="line2d_7">
      <path d="M 231.814697 340.579375 
L 231.814697 18.648 
" clip-path="url(#pa2c7ce62bb)" style="fill: none; stroke: #b0b0b0; stroke-opacity: 0.25; stroke-width: 0.8; stroke-linecap: square"/>
     </g>
     <g id="line2d_8">
      <g>
       <use xlink:href="#m40026b6356" x="231.814697" y="340.579375" style="stroke: #000000; stroke-width: 0.8"/>
      </g>
     </g>
     <g id="text_4">
      <!-- 300 -->
      <g transform="translate(222.814697 355.775) scale(0.12 -0.12)">
       <defs>
        <path id="STIXGeneral-Regular-33" d="M 390 3264 
L 288 3290 
Q 435 3770 748 4048 
Q 1062 4326 1542 4326 
Q 1990 4326 2265 4083 
Q 2541 3840 2541 3450 
Q 2541 2925 1946 2566 
Q 2298 2413 2477 2227 
Q 2758 1914 2758 1402 
Q 2758 890 2464 506 
Q 2246 211 1840 60 
Q 1434 -90 979 -90 
Q 262 -90 262 275 
Q 262 378 339 442 
Q 416 506 525 506 
Q 685 506 915 339 
Q 1197 141 1466 141 
Q 1818 141 2058 425 
Q 2298 710 2298 1120 
Q 2298 1856 1632 2048 
Q 1434 2112 979 2112 
L 979 2202 
Q 1338 2323 1517 2432 
Q 2035 2726 2035 3290 
Q 2035 3610 1852 3776 
Q 1670 3942 1344 3942 
Q 768 3942 390 3264 
z
" transform="scale(0.015625)"/>
       </defs>
       <use xlink:href="#STIXGeneral-Regular-33"/>
       <use xlink:href="#STIXGeneral-Regular-30" transform="translate(49.999985 0)"/>
       <use xlink:href="#STIXGeneral-Regular-30" transform="translate(99.999969 0)"/>
      </g>
     </g>
    </g>
    <g id="xtick_5">
     <g id="line2d_9">
      <path d="M 290.930349 340.579375 
L 290.930349 18.648 
" clip-path="url(#pa2c7ce62bb)" style="fill: none; stroke: #b0b0b0; stroke-opacity: 0.25; stroke-width: 0.8; stroke-linecap: square"/>
     </g>
     <g id="line2d_10">
      <g>
       <use xlink:href="#m40026b6356" x="290.930349" y="340.579375" style="stroke: #000000; stroke-width: 0.8"/>
      </g>
     </g>
     <g id="text_5">
      <!-- 400 -->
      <g transform="translate(281.930349 355.775) scale(0.12 -0.12)">
       <defs>
        <path id="STIXGeneral-Regular-34" d="M 3027 1069 
L 2368 1069 
L 2368 0 
L 1869 0 
L 1869 1069 
L 77 1069 
L 77 1478 
L 2086 4326 
L 2368 4326 
L 2368 1478 
L 3027 1478 
L 3027 1069 
z
M 1869 1478 
L 1869 3674 
L 333 1478 
L 1869 1478 
z
" transform="scale(0.015625)"/>
       </defs>
       <use xlink:href="#STIXGeneral-Regular-34"/>
       <use xlink:href="#STIXGeneral-Regular-30" transform="translate(49.999985 0)"/>
       <use xlink:href="#STIXGeneral-Regular-30" transform="translate(99.999969 0)"/>
      </g>
     </g>
    </g>
    <g id="xtick_6">
     <g id="line2d_11">
      <path d="M 350.046002 340.579375 
L 350.046002 18.648 
" clip-path="url(#pa2c7ce62bb)" style="fill: none; stroke: #b0b0b0; stroke-opacity: 0.25; stroke-width: 0.8; stroke-linecap: square"/>
     </g>
     <g id="line2d_12">
      <g>
       <use xlink:href="#m40026b6356" x="350.046002" y="340.579375" style="stroke: #000000; stroke-width: 0.8"/>
      </g>
     </g>
     <g id="text_6">
      <!-- 500 -->
      <g transform="translate(341.046002 355.775) scale(0.12 -0.12)">
       <defs>
        <path id="STIXGeneral-Regular-35" d="M 2803 4358 
L 2573 3814 
Q 2534 3731 2400 3731 
L 1158 3731 
L 902 3187 
Q 1606 3053 1920 2896 
Q 2234 2739 2502 2368 
Q 2726 2061 2726 1555 
Q 2726 1094 2576 780 
Q 2426 467 2099 224 
Q 1664 -90 1011 -90 
Q 646 -90 422 19 
Q 198 128 198 307 
Q 198 550 486 550 
Q 717 550 960 352 
Q 1210 147 1414 147 
Q 1747 147 2012 480 
Q 2278 813 2278 1229 
Q 2278 1843 1850 2189 
Q 1293 2637 486 2637 
Q 410 2637 410 2688 
L 416 2720 
L 1114 4237 
L 2438 4237 
Q 2547 4237 2608 4269 
Q 2669 4301 2746 4403 
L 2803 4358 
z
" transform="scale(0.015625)"/>
       </defs>
       <use xlink:href="#STIXGeneral-Regular-35"/>
       <use xlink:href="#STIXGeneral-Regular-30" transform="translate(49.999985 0)"/>
       <use xlink:href="#STIXGeneral-Regular-30" transform="translate(99.999969 0)"/>
      </g>
     </g>
    </g>
    <g id="xtick_7">
     <g id="line2d_13">
      <path d="M 409.161654 340.579375 
L 409.161654 18.648 
" clip-path="url(#pa2c7ce62bb)" style="fill: none; stroke: #b0b0b0; stroke-opacity: 0.25; stroke-width: 0.8; stroke-linecap: square"/>
     </g>
     <g id="line2d_14">
      <g>
       <use xlink:href="#m40026b6356" x="409.161654" y="340.579375" style="stroke: #000000; stroke-width: 0.8"/>
      </g>
     </g>
     <g id="text_7">
      <!-- 600 -->
      <g transform="translate(400.161654 355.775) scale(0.12 -0.12)">
       <defs>
        <path id="STIXGeneral-Regular-36" d="M 2854 4378 
L 2867 4275 
Q 2112 4154 1606 3664 
Q 1101 3174 973 2451 
Q 1344 2739 1786 2739 
Q 2349 2739 2672 2380 
Q 2995 2022 2995 1402 
Q 2995 774 2669 378 
Q 2291 -90 1651 -90 
Q 870 -90 518 557 
Q 218 1107 218 1786 
Q 218 2835 915 3552 
Q 1312 3962 1731 4131 
Q 2150 4301 2854 4378 
z
M 2419 1203 
Q 2419 2445 1555 2445 
Q 1235 2445 1024 2275 
Q 813 2106 813 1702 
Q 813 954 1046 522 
Q 1280 90 1722 90 
Q 2061 90 2240 394 
Q 2419 698 2419 1203 
z
" transform="scale(0.015625)"/>
       </defs>
       <use xlink:href="#STIXGeneral-Regular-36"/>
       <use xlink:href="#STIXGeneral-Regular-30" transform="translate(49.999985 0)"/>
       <use xlink:href="#STIXGeneral-Regular-30" transform="translate(99.999969 0)"/>
      </g>
     </g>
    </g>
    <g id="xtick_8">
     <g id="line2d_15">
      <path d="M 468.277307 340.579375 
L 468.277307 18.648 
" clip-path="url(#pa2c7ce62bb)" style="fill: none; stroke: #b0b0b0; stroke-opacity: 0.25; stroke-width: 0.8; stroke-linecap: square"/>
     </g>
     <g id="line2d_16">
      <g>
       <use xlink:href="#m40026b6356" x="468.277307" y="340.579375" style="stroke: #000000; stroke-width: 0.8"/>
      </g>
     </g>
     <g id="text_8">
      <!-- 700 -->
      <g transform="translate(459.277307 355.775) scale(0.12 -0.12)">
       <defs>
        <path id="STIXGeneral-Regular-37" d="M 2874 4134 
L 1517 -51 
L 1101 -51 
L 2368 3763 
L 992 3763 
Q 717 3763 582 3667 
Q 448 3571 243 3238 
L 128 3296 
L 512 4237 
L 2874 4237 
L 2874 4134 
z
" transform="scale(0.015625)"/>
       </defs>
       <use xlink:href="#STIXGeneral-Regular-37"/>
       <use xlink:href="#STIXGeneral-Regular-30" transform="translate(49.999985 0)"/>
       <use xlink:href="#STIXGeneral-Regular-30" transform="translate(99.999969 0)"/>
      </g>
     </g>
    </g>
    <g id="text_9">
     <!-- Enthalpy [kJ/kg] -->
     <g transform="translate(214.627836 371.940938) scale(0.14 -0.14)">
      <defs>
       <path id="STIXGeneral-Regular-45" d="M 3821 1082 
L 3526 0 
L 77 0 
L 77 122 
Q 442 147 538 252 
Q 634 358 634 730 
L 634 3520 
Q 634 3878 534 3987 
Q 435 4096 77 4115 
L 77 4237 
L 3469 4237 
L 3494 3322 
L 3334 3322 
Q 3264 3750 3085 3872 
Q 2906 3994 2349 3994 
L 1510 3994 
Q 1370 3994 1328 3952 
Q 1286 3910 1286 3763 
L 1286 2355 
L 2253 2355 
Q 2656 2355 2787 2470 
Q 2918 2586 2976 2970 
L 3123 2970 
L 3123 1472 
L 2976 1472 
Q 2918 1875 2790 1984 
Q 2662 2093 2253 2093 
L 1286 2093 
L 1286 538 
Q 1286 346 1420 291 
Q 1555 237 1933 237 
L 2163 237 
Q 2848 237 3136 403 
Q 3424 570 3642 1082 
L 3821 1082 
z
" transform="scale(0.015625)"/>
       <path id="STIXGeneral-Regular-6e" d="M 3104 0 
L 1773 0 
L 1779 96 
Q 2016 115 2096 233 
Q 2176 352 2176 672 
L 2176 1946 
Q 2176 2592 1709 2592 
Q 1549 2592 1408 2515 
Q 1267 2438 1050 2227 
L 1050 461 
Q 1050 269 1136 192 
Q 1222 115 1466 96 
L 1466 0 
L 115 0 
L 115 96 
Q 358 115 435 214 
Q 512 314 512 602 
L 512 2157 
Q 512 2394 467 2483 
Q 422 2573 288 2573 
Q 160 2573 102 2547 
L 102 2656 
Q 550 2784 979 2944 
L 1030 2925 
L 1030 2426 
L 1037 2426 
Q 1491 2944 1958 2944 
Q 2323 2944 2518 2688 
Q 2714 2432 2714 1958 
L 2714 544 
Q 2714 288 2790 205 
Q 2867 122 3104 96 
L 3104 0 
z
" transform="scale(0.015625)"/>
       <path id="STIXGeneral-Regular-74" d="M 1702 493 
L 1786 422 
Q 1478 -64 1011 -64 
Q 448 -64 448 749 
L 448 2675 
L 109 2675 
Q 83 2694 83 2720 
Q 83 2771 192 2842 
Q 435 2982 813 3526 
Q 826 3546 874 3606 
Q 922 3667 941 3706 
Q 986 3706 986 3622 
L 986 2880 
L 1632 2880 
L 1632 2675 
L 986 2675 
L 986 845 
Q 986 538 1062 403 
Q 1139 269 1318 269 
Q 1510 269 1702 493 
z
" transform="scale(0.015625)"/>
       <path id="STIXGeneral-Regular-68" d="M 3117 0 
L 1760 0 
L 1760 96 
Q 2042 128 2118 224 
Q 2195 320 2195 653 
L 2195 1920 
Q 2195 2598 1722 2598 
Q 1530 2598 1370 2508 
Q 1210 2419 1005 2195 
L 1005 653 
Q 1005 320 1081 224 
Q 1158 128 1440 96 
L 1440 0 
L 58 0 
L 58 96 
Q 333 134 400 224 
Q 467 314 467 653 
L 467 3667 
Q 467 3872 406 3933 
Q 346 3994 141 3994 
Q 83 3994 64 3987 
L 64 4090 
L 237 4141 
Q 730 4288 973 4371 
L 1005 4352 
L 1005 2406 
Q 1229 2694 1446 2819 
Q 1664 2944 1946 2944 
Q 2733 2944 2733 1926 
L 2733 653 
Q 2733 320 2793 233 
Q 2854 147 3117 96 
L 3117 0 
z
" transform="scale(0.015625)"/>
       <path id="STIXGeneral-Regular-61" d="M 2829 422 
L 2829 243 
Q 2586 -64 2253 -64 
Q 1888 -64 1843 403 
L 1837 403 
Q 1427 -64 909 -64 
Q 608 -64 422 112 
Q 237 288 237 602 
Q 237 1050 685 1350 
Q 992 1555 1837 1869 
L 1837 2214 
Q 1837 2502 1699 2646 
Q 1562 2790 1338 2790 
Q 1146 2790 1018 2697 
Q 890 2605 890 2477 
Q 890 2419 909 2348 
Q 928 2278 928 2208 
Q 928 2112 841 2029 
Q 755 1946 634 1946 
Q 525 1946 441 2029 
Q 358 2112 358 2240 
Q 358 2547 685 2752 
Q 986 2944 1421 2944 
Q 1939 2944 2176 2656 
Q 2291 2522 2323 2384 
Q 2355 2246 2355 1946 
L 2355 723 
Q 2355 301 2554 301 
Q 2682 301 2829 422 
z
M 1837 813 
L 1837 1715 
Q 1248 1510 1018 1293 
Q 800 1094 800 800 
Q 800 557 921 432 
Q 1043 307 1242 307 
Q 1453 307 1613 410 
Q 1747 506 1792 589 
Q 1837 672 1837 813 
z
" transform="scale(0.015625)"/>
       <path id="STIXGeneral-Regular-6c" d="M 1645 0 
L 134 0 
L 134 96 
Q 435 122 531 221 
Q 627 320 627 589 
L 627 3590 
Q 627 3821 569 3910 
Q 512 4000 358 4000 
Q 224 4000 122 3987 
L 122 4090 
Q 730 4237 1133 4371 
L 1165 4346 
L 1165 557 
Q 1165 288 1254 201 
Q 1344 115 1645 96 
L 1645 0 
z
" transform="scale(0.015625)"/>
       <path id="STIXGeneral-Regular-70" d="M 1018 2931 
L 1018 2438 
Q 1421 2944 1939 2944 
Q 2406 2944 2707 2560 
Q 3008 2176 3008 1581 
Q 3008 883 2621 409 
Q 2234 -64 1664 -64 
Q 1466 -64 1328 -6 
Q 1190 51 1018 211 
L 1018 -794 
Q 1018 -1094 1120 -1180 
Q 1222 -1267 1581 -1274 
L 1581 -1389 
L 32 -1389 
L 32 -1280 
Q 314 -1254 397 -1171 
Q 480 -1088 480 -838 
L 480 2157 
Q 480 2381 429 2451 
Q 378 2522 218 2522 
Q 115 2522 58 2515 
L 58 2618 
Q 506 2752 979 2944 
L 1018 2931 
z
M 1018 2138 
L 1018 563 
Q 1018 422 1238 281 
Q 1459 141 1683 141 
Q 2029 141 2243 467 
Q 2458 794 2458 1325 
Q 2458 1888 2243 2224 
Q 2029 2560 1670 2560 
Q 1446 2560 1232 2419 
Q 1018 2278 1018 2138 
z
" transform="scale(0.015625)"/>
       <path id="STIXGeneral-Regular-79" d="M 3040 2880 
L 3040 2784 
Q 2925 2771 2854 2700 
Q 2784 2630 2720 2458 
L 1760 -160 
Q 1510 -838 1257 -1116 
Q 1005 -1395 640 -1395 
Q 435 -1395 313 -1289 
Q 192 -1184 192 -1024 
Q 192 -902 272 -816 
Q 352 -730 467 -730 
Q 653 -730 800 -813 
Q 883 -858 966 -858 
Q 1101 -858 1286 -576 
Q 1376 -448 1459 -211 
Q 1542 26 1542 115 
Q 1542 198 1274 762 
L 429 2566 
Q 346 2752 90 2790 
L 90 2880 
L 1402 2880 
L 1402 2784 
Q 1197 2778 1117 2739 
Q 1037 2701 1037 2611 
Q 1037 2541 1120 2349 
L 1837 749 
L 2458 2515 
Q 2483 2573 2483 2630 
Q 2483 2784 2189 2784 
L 2189 2880 
L 3040 2880 
z
" transform="scale(0.015625)"/>
       <path id="STIXGeneral-Regular-20" transform="scale(0.015625)"/>
       <path id="STIXGeneral-Regular-5b" d="M 1914 -998 
L 563 -998 
L 563 4237 
L 1914 4237 
L 1914 4077 
L 1382 4077 
Q 1216 4077 1133 4006 
Q 1050 3936 1050 3770 
L 1050 -493 
Q 1050 -838 1382 -838 
L 1914 -838 
L 1914 -998 
z
" transform="scale(0.015625)"/>
       <path id="STIXGeneral-Regular-6b" d="M 3232 0 
L 1837 0 
L 1837 96 
L 1958 96 
Q 2093 96 2093 192 
Q 2093 250 2022 339 
L 1062 1606 
L 1062 429 
Q 1062 262 1142 185 
Q 1222 109 1414 102 
L 1542 96 
L 1542 0 
L 45 0 
L 45 96 
Q 390 154 457 214 
Q 525 275 525 525 
L 525 3610 
Q 525 3840 467 3920 
Q 410 4000 250 4000 
Q 211 4000 45 3987 
L 45 4090 
L 237 4141 
Q 621 4243 1037 4371 
L 1062 4358 
L 1062 1670 
L 1939 2451 
Q 2086 2586 2086 2675 
Q 2086 2739 2019 2761 
Q 1952 2784 1766 2790 
L 1766 2880 
L 3072 2880 
L 3072 2784 
Q 2752 2784 2505 2646 
Q 2259 2509 1690 1978 
L 1504 1805 
L 2483 563 
Q 2829 122 3232 96 
L 3232 0 
z
" transform="scale(0.015625)"/>
       <path id="STIXGeneral-Regular-4a" d="M 2266 4237 
L 2266 4115 
Q 1875 4083 1776 3984 
Q 1677 3885 1677 3514 
L 1677 1184 
Q 1677 -90 608 -90 
Q 314 -90 138 32 
Q -38 154 -38 371 
Q -38 499 54 601 
Q 147 704 275 704 
Q 486 704 589 435 
Q 602 403 621 348 
Q 640 294 649 265 
Q 659 237 678 208 
Q 698 179 723 166 
Q 749 154 787 154 
Q 928 154 976 253 
Q 1024 352 1024 602 
L 1024 3520 
Q 1024 3898 928 3990 
Q 832 4083 429 4115 
L 429 4237 
L 2266 4237 
z
" transform="scale(0.015625)"/>
       <path id="STIXGeneral-Regular-2f" d="M 1837 4326 
L 378 -90 
L -58 -90 
L 1408 4326 
L 1837 4326 
z
" transform="scale(0.015625)"/>
       <path id="STIXGeneral-Regular-67" d="M 3008 2483 
L 2477 2483 
Q 2598 2208 2598 1946 
Q 2598 1453 2265 1203 
Q 1933 954 1600 954 
Q 1530 954 1357 973 
L 1235 986 
Q 1107 947 979 812 
Q 851 678 851 582 
Q 851 435 1350 410 
L 2176 371 
Q 2528 358 2739 172 
Q 2950 -13 2950 -314 
Q 2950 -685 2566 -986 
Q 2035 -1395 1286 -1395 
Q 826 -1395 502 -1212 
Q 179 -1030 179 -774 
Q 179 -595 320 -419 
Q 461 -243 806 6 
Q 602 102 534 172 
Q 467 243 467 346 
Q 467 531 762 787 
Q 909 915 1037 1043 
Q 717 1203 579 1401 
Q 442 1600 442 1901 
Q 442 2336 752 2640 
Q 1062 2944 1510 2944 
Q 1766 2944 2022 2848 
L 2163 2797 
Q 2349 2733 2515 2733 
L 3008 2733 
L 3008 2483 
z
M 973 2163 
L 973 2144 
Q 973 1683 1155 1398 
Q 1338 1114 1632 1114 
Q 1850 1114 1978 1270 
Q 2106 1427 2106 1690 
Q 2106 2112 1914 2464 
Q 1754 2765 1446 2765 
Q 1222 2765 1097 2605 
Q 973 2445 973 2163 
z
M 2771 -410 
Q 2771 -230 2595 -163 
Q 2419 -96 1978 -96 
Q 1344 -96 941 -13 
Q 749 -243 688 -348 
Q 627 -454 627 -563 
Q 627 -774 880 -902 
Q 1133 -1030 1555 -1030 
Q 2099 -1030 2435 -860 
Q 2771 -691 2771 -410 
z
" transform="scale(0.015625)"/>
       <path id="STIXGeneral-Regular-5d" d="M 1568 -998 
L 218 -998 
L 218 -838 
L 781 -838 
Q 947 -838 1014 -768 
Q 1082 -698 1082 -544 
L 1082 3731 
Q 1082 4077 755 4077 
L 218 4077 
L 218 4237 
L 1568 4237 
L 1568 -998 
z
" transform="scale(0.015625)"/>
      </defs>
      <use xlink:href="#STIXGeneral-Regular-45"/>
      <use xlink:href="#STIXGeneral-Regular-6e" transform="translate(61.099991 0)"/>
      <use xlink:href="#STIXGeneral-Regular-74" transform="translate(111.099976 0)"/>
      <use xlink:href="#STIXGeneral-Regular-68" transform="translate(138.899963 0)"/>
      <use xlink:href="#STIXGeneral-Regular-61" transform="translate(188.899948 0)"/>
      <use xlink:href="#STIXGeneral-Regular-6c" transform="translate(233.299942 0)"/>
      <use xlink:href="#STIXGeneral-Regular-70" transform="translate(261.09993 0)"/>
      <use xlink:href="#STIXGeneral-Regular-79" transform="translate(311.099915 0)"/>
      <use xlink:href="#STIXGeneral-Regular-20" transform="translate(361.099899 0)"/>
      <use xlink:href="#STIXGeneral-Regular-5b" transform="translate(386.099884 0)"/>
      <use xlink:href="#STIXGeneral-Regular-6b" transform="translate(419.399872 0)"/>
      <use xlink:href="#STIXGeneral-Regular-4a" transform="translate(469.399857 0)"/>
      <use xlink:href="#STIXGeneral-Regular-2f" transform="translate(506.699844 0)"/>
      <use xlink:href="#STIXGeneral-Regular-6b" transform="translate(534.499832 0)"/>
      <use xlink:href="#STIXGeneral-Regular-67" transform="translate(584.499817 0)"/>
      <use xlink:href="#STIXGeneral-Regular-5d" transform="translate(634.499802 0)"/>
     </g>
    </g>
   </g>
   <g id="matplotlib.axis_2">
    <g id="ytick_1">
     <g id="line2d_17">
      <path d="M 54.467739 340.579375 
L 468.277307 340.579375 
" clip-path="url(#pa2c7ce62bb)" style="fill: none; stroke: #b0b0b0; stroke-opacity: 0.25; stroke-width: 0.8; stroke-linecap: square"/>
     </g>
     <g id="line2d_18">
      <defs>
       <path id="m2b7a5cb17b" d="M 0 0 
L -3.5 0 
" style="stroke: #000000; stroke-width: 0.8"/>
      </defs>
      <g>
       <use xlink:href="#m2b7a5cb17b" x="54.467739" y="340.579375" style="stroke: #000000; stroke-width: 0.8"/>
      </g>
     </g>
     <g id="text_10">
      <!-- $\mathdefault{10^{2}}$ -->
      <g transform="translate(30.427739 344.677188) scale(0.12 -0.12)">
       <use xlink:href="#STIXGeneral-Regular-31" transform="translate(0 0.684375)"/>
       <use xlink:href="#STIXGeneral-Regular-30" transform="translate(49.999985 0.684375)"/>
       <use xlink:href="#STIXGeneral-Regular-32" transform="translate(101.574969 36.684375) scale(0.7)"/>
      </g>
     </g>
    </g>
    <g id="ytick_2">
     <g id="line2d_19">
      <path d="M 54.467739 179.613688 
L 468.277307 179.613688 
" clip-path="url(#pa2c7ce62bb)" style="fill: none; stroke: #b0b0b0; stroke-opacity: 0.25; stroke-width: 0.8; stroke-linecap: square"/>
     </g>
     <g id="line2d_20">
      <g>
       <use xlink:href="#m2b7a5cb17b" x="54.467739" y="179.613688" style="stroke: #000000; stroke-width: 0.8"/>
      </g>
     </g>
     <g id="text_11">
      <!-- $\mathdefault{10^{3}}$ -->
      <g transform="translate(30.427739 183.7115) scale(0.12 -0.12)">
       <use xlink:href="#STIXGeneral-Regular-31" transform="translate(0 0.684375)"/>
       <use xlink:href="#STIXGeneral-Regular-30" transform="translate(49.999985 0.684375)"/>
       <use xlink:href="#STIXGeneral-Regular-33" transform="translate(101.574969 36.684375) scale(0.7)"/>
      </g>
     </g>
    </g>
    <g id="ytick_3">
     <g id="line2d_21">
      <path d="M 54.467739 18.648 
L 468.277307 18.648 
" clip-path="url(#pa2c7ce62bb)" style="fill: none; stroke: #b0b0b0; stroke-opacity: 0.25; stroke-width: 0.8; stroke-linecap: square"/>
     </g>
     <g id="line2d_22">
      <g>
       <use xlink:href="#m2b7a5cb17b" x="54.467739" y="18.648" style="stroke: #000000; stroke-width: 0.8"/>
      </g>
     </g>
     <g id="text_12">
      <!-- $\mathdefault{10^{4}}$ -->
      <g transform="translate(30.427739 22.745812) scale(0.12 -0.12)">
       <use xlink:href="#STIXGeneral-Regular-31" transform="translate(0 0.684375)"/>
       <use xlink:href="#STIXGeneral-Regular-30" transform="translate(49.999985 0.684375)"/>
       <use xlink:href="#STIXGeneral-Regular-34" transform="translate(101.574969 36.684375) scale(0.7)"/>
      </g>
     </g>
    </g>
    <g id="ytick_4">
     <g id="line2d_23">
      <path d="M 54.467739 292.123875 
L 468.277307 292.123875 
" clip-path="url(#pa2c7ce62bb)" style="fill: none; stroke: #b0b0b0; stroke-opacity: 0.25; stroke-width: 0.8; stroke-linecap: square"/>
     </g>
     <g id="line2d_24">
      <defs>
       <path id="m2fbcb1b50a" d="M 0 0 
L -2 0 
" style="stroke: #000000; stroke-width: 0.6"/>
      </defs>
      <g>
       <use xlink:href="#m2fbcb1b50a" x="54.467739" y="292.123875" style="stroke: #000000; stroke-width: 0.6"/>
      </g>
     </g>
    </g>
    <g id="ytick_5">
     <g id="line2d_25">
      <path d="M 54.467739 263.779224 
L 468.277307 263.779224 
" clip-path="url(#pa2c7ce62bb)" style="fill: none; stroke: #b0b0b0; stroke-opacity: 0.25; stroke-width: 0.8; stroke-linecap: square"/>
     </g>
     <g id="line2d_26">
      <g>
       <use xlink:href="#m2fbcb1b50a" x="54.467739" y="263.779224" style="stroke: #000000; stroke-width: 0.6"/>
      </g>
     </g>
    </g>
    <g id="ytick_6">
     <g id="line2d_27">
      <path d="M 54.467739 243.668375 
L 468.277307 243.668375 
" clip-path="url(#pa2c7ce62bb)" style="fill: none; stroke: #b0b0b0; stroke-opacity: 0.25; stroke-width: 0.8; stroke-linecap: square"/>
     </g>
     <g id="line2d_28">
      <g>
       <use xlink:href="#m2fbcb1b50a" x="54.467739" y="243.668375" style="stroke: #000000; stroke-width: 0.6"/>
      </g>
     </g>
    </g>
    <g id="ytick_7">
     <g id="line2d_29">
      <path d="M 54.467739 228.069188 
L 468.277307 228.069188 
" clip-path="url(#pa2c7ce62bb)" style="fill: none; stroke: #b0b0b0; stroke-opacity: 0.25; stroke-width: 0.8; stroke-linecap: square"/>
     </g>
     <g id="line2d_30">
      <g>
       <use xlink:href="#m2fbcb1b50a" x="54.467739" y="228.069188" style="stroke: #000000; stroke-width: 0.6"/>
      </g>
     </g>
    </g>
    <g id="ytick_8">
     <g id="line2d_31">
      <path d="M 54.467739 215.323724 
L 468.277307 215.323724 
" clip-path="url(#pa2c7ce62bb)" style="fill: none; stroke: #b0b0b0; stroke-opacity: 0.25; stroke-width: 0.8; stroke-linecap: square"/>
     </g>
     <g id="line2d_32">
      <g>
       <use xlink:href="#m2fbcb1b50a" x="54.467739" y="215.323724" style="stroke: #000000; stroke-width: 0.6"/>
      </g>
     </g>
    </g>
    <g id="ytick_9">
     <g id="line2d_33">
      <path d="M 54.467739 204.547588 
L 468.277307 204.547588 
" clip-path="url(#pa2c7ce62bb)" style="fill: none; stroke: #b0b0b0; stroke-opacity: 0.25; stroke-width: 0.8; stroke-linecap: square"/>
     </g>
     <g id="line2d_34">
      <g>
       <use xlink:href="#m2fbcb1b50a" x="54.467739" y="204.547588" style="stroke: #000000; stroke-width: 0.6"/>
      </g>
     </g>
    </g>
    <g id="ytick_10">
     <g id="line2d_35">
      <path d="M 54.467739 195.212874 
L 468.277307 195.212874 
" clip-path="url(#pa2c7ce62bb)" style="fill: none; stroke: #b0b0b0; stroke-opacity: 0.25; stroke-width: 0.8; stroke-linecap: square"/>
     </g>
     <g id="line2d_36">
      <g>
       <use xlink:href="#m2fbcb1b50a" x="54.467739" y="195.212874" style="stroke: #000000; stroke-width: 0.6"/>
      </g>
     </g>
    </g>
    <g id="ytick_11">
     <g id="line2d_37">
      <path d="M 54.467739 186.979073 
L 468.277307 186.979073 
" clip-path="url(#pa2c7ce62bb)" style="fill: none; stroke: #b0b0b0; stroke-opacity: 0.25; stroke-width: 0.8; stroke-linecap: square"/>
     </g>
     <g id="line2d_38">
      <g>
       <use xlink:href="#m2fbcb1b50a" x="54.467739" y="186.979073" style="stroke: #000000; stroke-width: 0.6"/>
      </g>
     </g>
    </g>
    <g id="ytick_12">
     <g id="line2d_39">
      <path d="M 54.467739 131.158187 
L 468.277307 131.158187 
" clip-path="url(#pa2c7ce62bb)" style="fill: none; stroke: #b0b0b0; stroke-opacity: 0.25; stroke-width: 0.8; stroke-linecap: square"/>
     </g>
     <g id="line2d_40">
      <g>
       <use xlink:href="#m2fbcb1b50a" x="54.467739" y="131.158187" style="stroke: #000000; stroke-width: 0.6"/>
      </g>
     </g>
    </g>
    <g id="ytick_13">
     <g id="line2d_41">
      <path d="M 54.467739 102.813537 
L 468.277307 102.813537 
" clip-path="url(#pa2c7ce62bb)" style="fill: none; stroke: #b0b0b0; stroke-opacity: 0.25; stroke-width: 0.8; stroke-linecap: square"/>
     </g>
     <g id="line2d_42">
      <g>
       <use xlink:href="#m2fbcb1b50a" x="54.467739" y="102.813537" style="stroke: #000000; stroke-width: 0.6"/>
      </g>
     </g>
    </g>
    <g id="ytick_14">
     <g id="line2d_43">
      <path d="M 54.467739 82.702687 
L 468.277307 82.702687 
" clip-path="url(#pa2c7ce62bb)" style="fill: none; stroke: #b0b0b0; stroke-opacity: 0.25; stroke-width: 0.8; stroke-linecap: square"/>
     </g>
     <g id="line2d_44">
      <g>
       <use xlink:href="#m2fbcb1b50a" x="54.467739" y="82.702687" style="stroke: #000000; stroke-width: 0.6"/>
      </g>
     </g>
    </g>
    <g id="ytick_15">
     <g id="line2d_45">
      <path d="M 54.467739 67.1035 
L 468.277307 67.1035 
" clip-path="url(#pa2c7ce62bb)" style="fill: none; stroke: #b0b0b0; stroke-opacity: 0.25; stroke-width: 0.8; stroke-linecap: square"/>
     </g>
     <g id="line2d_46">
      <g>
       <use xlink:href="#m2fbcb1b50a" x="54.467739" y="67.1035" style="stroke: #000000; stroke-width: 0.6"/>
      </g>
     </g>
    </g>
    <g id="ytick_16">
     <g id="line2d_47">
      <path d="M 54.467739 54.358037 
L 468.277307 54.358037 
" clip-path="url(#pa2c7ce62bb)" style="fill: none; stroke: #b0b0b0; stroke-opacity: 0.25; stroke-width: 0.8; stroke-linecap: square"/>
     </g>
     <g id="line2d_48">
      <g>
       <use xlink:href="#m2fbcb1b50a" x="54.467739" y="54.358037" style="stroke: #000000; stroke-width: 0.6"/>
      </g>
     </g>
    </g>
    <g id="ytick_17">
     <g id="line2d_49">
      <path d="M 54.467739 43.5819 
L 468.277307 43.5819 
" clip-path="url(#pa2c7ce62bb)" style="fill: none; stroke: #b0b0b0; stroke-opacity: 0.25; stroke-width: 0.8; stroke-linecap: square"/>
     </g>
     <g id="line2d_50">
      <g>
       <use xlink:href="#m2fbcb1b50a" x="54.467739" y="43.5819" style="stroke: #000000; stroke-width: 0.6"/>
      </g>
     </g>
    </g>
    <g id="ytick_18">
     <g id="line2d_51">
      <path d="M 54.467739 34.247187 
L 468.277307 34.247187 
" clip-path="url(#pa2c7ce62bb)" style="fill: none; stroke: #b0b0b0; stroke-opacity: 0.25; stroke-width: 0.8; stroke-linecap: square"/>
     </g>
     <g id="line2d_52">
      <g>
       <use xlink:href="#m2fbcb1b50a" x="54.467739" y="34.247187" style="stroke: #000000; stroke-width: 0.6"/>
      </g>
     </g>
    </g>
    <g id="ytick_19">
     <g id="line2d_53">
      <path d="M 54.467739 26.013386 
L 468.277307 26.013386 
" clip-path="url(#pa2c7ce62bb)" style="fill: none; stroke: #b0b0b0; stroke-opacity: 0.25; stroke-width: 0.8; stroke-linecap: square"/>
     </g>
     <g id="line2d_54">
      <g>
       <use xlink:href="#m2fbcb1b50a" x="54.467739" y="26.013386" style="stroke: #000000; stroke-width: 0.6"/>
      </g>
     </g>
    </g>
    <g id="text_13">
     <!-- Pressure [kPa] -->
     <g transform="translate(23.389302 220.257438) rotate(-90) scale(0.14 -0.14)">
      <defs>
       <path id="STIXGeneral-Regular-50" d="M 102 4237 
L 1760 4237 
Q 2669 4237 3149 3834 
Q 3469 3565 3469 3072 
Q 3469 2560 3104 2234 
Q 2835 1990 2553 1916 
Q 2272 1843 1734 1843 
Q 1549 1843 1293 1862 
L 1293 717 
Q 1293 352 1398 246 
Q 1504 141 1894 122 
L 1894 0 
L 102 0 
L 102 122 
Q 474 147 557 256 
Q 640 365 640 781 
L 640 3526 
Q 640 3885 547 3987 
Q 454 4090 102 4115 
L 102 4237 
z
M 1293 3770 
L 1293 2118 
Q 1510 2099 1683 2099 
Q 2202 2099 2486 2352 
Q 2771 2605 2771 3040 
Q 2771 3558 2476 3779 
Q 2182 4000 1517 4000 
Q 1382 4000 1337 3952 
Q 1293 3904 1293 3770 
z
" transform="scale(0.015625)"/>
       <path id="STIXGeneral-Regular-72" d="M 1024 2931 
L 1024 2342 
Q 1267 2688 1430 2816 
Q 1594 2944 1792 2944 
Q 1958 2944 2051 2854 
Q 2144 2765 2144 2605 
Q 2144 2470 2077 2393 
Q 2010 2317 1894 2317 
Q 1773 2317 1638 2445 
Q 1536 2541 1472 2541 
Q 1338 2541 1181 2355 
Q 1024 2170 1024 2016 
L 1024 576 
Q 1024 301 1133 205 
Q 1242 109 1568 96 
L 1568 0 
L 32 0 
L 32 96 
Q 339 154 412 224 
Q 486 294 486 538 
L 486 2138 
Q 486 2349 438 2435 
Q 390 2522 269 2522 
Q 166 2522 45 2496 
L 45 2598 
Q 448 2726 992 2944 
L 1024 2931 
z
" transform="scale(0.015625)"/>
       <path id="STIXGeneral-Regular-65" d="M 2611 1050 
L 2714 1005 
Q 2330 -64 1376 -64 
Q 813 -64 486 329 
Q 160 723 160 1389 
Q 160 2074 525 2509 
Q 890 2944 1485 2944 
Q 2061 2944 2374 2502 
Q 2560 2246 2592 1773 
L 621 1773 
Q 646 1370 700 1158 
Q 755 947 915 730 
Q 1184 378 1626 378 
Q 1939 378 2153 531 
Q 2368 685 2611 1050 
z
M 634 1978 
L 1939 1978 
Q 1882 2381 1750 2547 
Q 1619 2714 1312 2714 
Q 1043 2714 864 2525 
Q 685 2336 634 1978 
z
" transform="scale(0.015625)"/>
       <path id="STIXGeneral-Regular-73" d="M 998 1926 
L 1664 1523 
Q 1984 1331 2105 1164 
Q 2227 998 2227 736 
Q 2227 416 1961 176 
Q 1696 -64 1331 -64 
Q 1030 -64 864 -6 
Q 691 51 570 51 
Q 461 51 416 -26 
L 333 -26 
L 333 979 
L 435 979 
Q 538 512 730 294 
Q 922 77 1248 77 
Q 1485 77 1632 211 
Q 1779 346 1779 550 
Q 1779 845 1440 1030 
L 1094 1222 
Q 326 1651 326 2150 
Q 326 2522 566 2730 
Q 806 2938 1210 2938 
Q 1491 2938 1638 2867 
Q 1754 2816 1818 2816 
Q 1862 2816 1920 2880 
L 1990 2880 
L 2022 2010 
L 1926 2010 
Q 1818 2445 1654 2621 
Q 1491 2797 1203 2797 
Q 986 2797 854 2688 
Q 723 2579 723 2362 
Q 723 2253 796 2128 
Q 870 2003 998 1926 
z
" transform="scale(0.015625)"/>
       <path id="STIXGeneral-Regular-75" d="M 3072 320 
L 3072 230 
Q 2573 96 2195 -58 
L 2163 -38 
L 2163 486 
L 2150 486 
Q 1747 -64 1235 -64 
Q 870 -64 662 160 
Q 454 384 454 755 
L 454 2362 
Q 454 2598 371 2688 
Q 288 2778 58 2790 
L 58 2880 
L 992 2880 
L 992 813 
Q 992 595 1123 451 
Q 1254 307 1446 307 
Q 1760 307 1984 506 
Q 2067 582 2099 649 
Q 2131 717 2131 877 
L 2131 2355 
Q 2131 2605 2041 2678 
Q 1952 2752 1658 2771 
L 1658 2880 
L 2669 2880 
L 2669 685 
Q 2669 461 2742 390 
Q 2816 320 3034 320 
L 3072 320 
z
" transform="scale(0.015625)"/>
      </defs>
      <use xlink:href="#STIXGeneral-Regular-50"/>
      <use xlink:href="#STIXGeneral-Regular-72" transform="translate(55.699997 0)"/>
      <use xlink:href="#STIXGeneral-Regular-65" transform="translate(88.999985 0)"/>
      <use xlink:href="#STIXGeneral-Regular-73" transform="translate(133.399979 0)"/>
      <use xlink:href="#STIXGeneral-Regular-73" transform="translate(172.299973 0)"/>
      <use xlink:href="#STIXGeneral-Regular-75" transform="translate(211.199966 0)"/>
      <use xlink:href="#STIXGeneral-Regular-72" transform="translate(261.199951 0)"/>
      <use xlink:href="#STIXGeneral-Regular-65" transform="translate(294.499939 0)"/>
      <use xlink:href="#STIXGeneral-Regular-20" transform="translate(338.899933 0)"/>
      <use xlink:href="#STIXGeneral-Regular-5b" transform="translate(363.899918 0)"/>
      <use xlink:href="#STIXGeneral-Regular-6b" transform="translate(397.199905 0)"/>
      <use xlink:href="#STIXGeneral-Regular-50" transform="translate(447.19989 0)"/>
      <use xlink:href="#STIXGeneral-Regular-61" transform="translate(502.899887 0)"/>
      <use xlink:href="#STIXGeneral-Regular-5d" transform="translate(547.299881 0)"/>
     </g>
    </g>
   </g>
   <g id="line2d_55">
    <path d="M 120.802744 345.039963 
L 125.14179 328.731693 
L 129.502535 313.169976 
L 133.887768 298.303543 
L 138.300422 284.085303 
L 142.743594 270.47194 
L 147.22058 257.423558 
L 151.734905 244.903355 
L 156.290373 232.87734 
L 160.891116 221.314071 
L 165.541664 210.184426 
L 170.247035 199.46139 
L 175.012835 189.119861 
L 179.845407 179.136477 
L 184.752006 169.48945 
L 189.741049 160.158414 
L 194.822435 151.124282 
L 200.007995 142.369104 
L 205.312131 133.875935 
L 210.752732 125.628689 
L 215.541798 118.743687 
L 220.466043 112.018704 
L 225.549087 105.444586 
L 230.822316 99.012262 
L 235.392672 93.75372 
L 240.159577 88.581868 
L 245.172179 83.490983 
L 249.40725 79.472405 
L 253.902329 75.498066 
L 258.745761 71.563709 
L 262.694685 68.635964 
L 267.037757 65.724546 
L 270.255972 63.790481 
L 273.881302 61.859588 
L 278.229009 59.928496 
L 280.939791 58.96103 
L 284.512786 57.990327 
L 292.928345 57.012301 
L 299.417228 56.937465 
L 299.417228 56.937465 
" clip-path="url(#pa2c7ce62bb)" style="fill: none; stroke: #4dabf7; stroke-width: 1.6; stroke-linecap: square"/>
   </g>
   <g id="line2d_56">
    <path d="M 347.498442 345.039963 
L 356.16617 239.690725 
L 357.800321 216.492747 
L 358.894056 197.961234 
L 359.609058 181.953626 
L 359.960015 169.48945 
L 360.070738 157.547742 
L 359.940033 147.338914 
L 359.624706 138.698048 
L 359.096275 130.312199 
L 358.450771 123.315336 
L 357.602353 116.484701 
L 356.520754 109.811017 
L 355.413411 104.36293 
L 354.087835 99.012262 
L 352.844878 94.798317 
L 351.41241 90.640564 
L 349.757077 86.536132 
L 347.833867 82.481986 
L 346.178532 79.472405 
L 344.300232 76.487721 
L 342.146799 73.526193 
L 339.641081 70.585766 
L 337.717151 68.635964 
L 335.527338 66.693447 
L 332.983729 64.756967 
L 329.935229 62.824806 
L 328.13824 61.859588 
L 326.07837 60.894364 
L 323.640412 59.928496 
L 320.592746 58.96103 
L 316.312684 57.990327 
L 305.906111 57.012301 
L 299.417228 56.937465 
L 299.417228 56.937465 
" clip-path="url(#pa2c7ce62bb)" style="fill: none; stroke: #ff6b6b; stroke-width: 1.6; stroke-linecap: square"/>
   </g>
   <g id="line2d_57">
    <path d="M 358.905727 197.737272 
L 362.446837 197.737272 
L 417.230356 79.003935 
L 345.900552 79.003935 
L 249.919794 79.003935 
L 244.963183 79.003935 
L 244.963183 197.737272 
L 358.905727 197.737272 
" clip-path="url(#pa2c7ce62bb)" style="fill: none; stroke-dasharray: 1.8,1.8; stroke-dashoffset: 0; stroke: #212529; stroke-width: 0.9"/>
   </g>
   <g id="patch_3">
    <path d="M 54.467739 340.579375 
L 54.467739 18.648 
" style="fill: none; stroke: #000000; stroke-width: 0.8; stroke-linejoin: miter; stroke-linecap: square"/>
   </g>
   <g id="patch_4">
    <path d="M 468.277307 340.579375 
L 468.277307 18.648 
" style="fill: none; stroke: #000000; stroke-width: 0.8; stroke-linejoin: miter; stroke-linecap: square"/>
   </g>
   <g id="patch_5">
    <path d="M 54.467739 340.579375 
L 468.277307 340.579375 
" style="fill: none; stroke: #000000; stroke-width: 0.8; stroke-linejoin: miter; stroke-linecap: square"/>
   </g>
   <g id="patch_6">
    <path d="M 54.467739 18.648 
L 468.277307 18.648 
" style="fill: none; stroke: #000000; stroke-width: 0.8; stroke-linejoin: miter; stroke-linecap: square"/>
   </g>
   <g id="line2d_58">
    <defs>
     <path id="mc94ecdf537" d="M 0 3.5 
C 0.928211 3.5 1.81853 3.131218 2.474874 2.474874 
C 3.131218 1.81853 3.5 0.928211 3.5 0 
C 3.5 -0.928211 3.131218 -1.81853 2.474874 -2.474874 
C 1.81853 -3.131218 0.928211 -3.5 0 -3.5 
C -0.928211 -3.5 -1.81853 -3.131218 -2.474874 -2.474874 
C -3.131218 -1.81853 -3.5 -0.928211 -3.5 0 
C -3.5 0.928211 -3.131218 1.81853 -2.474874 2.474874 
C -1.81853 3.131218 -0.928211 3.5 0 3.5 
z
" style="stroke: #212529; stroke-width: 1.4"/>
    </defs>
    <g clip-path="url(#pa2c7ce62bb)">
     <use xlink:href="#mc94ecdf537" x="358.905727" y="197.737272" style="fill: #ffffff; stroke: #212529; stroke-width: 1.4"/>
    </g>
   </g>
   <g id="line2d_59">
    <g clip-path="url(#pa2c7ce62bb)">
     <use xlink:href="#mc94ecdf537" x="345.900552" y="79.003935" style="fill: #ffffff; stroke: #212529; stroke-width: 1.4"/>
    </g>
   </g>
   <g id="line2d_60">
    <g clip-path="url(#pa2c7ce62bb)">
     <use xlink:href="#mc94ecdf537" x="249.919794" y="79.003935" style="fill: #ffffff; stroke: #212529; stroke-width: 1.4"/>
    </g>
   </g>
   <g id="line2d_61">
    <defs>
     <path id="m41cc652660" d="M 0 3.5 
C 0.928211 3.5 1.81853 3.131218 2.474874 2.474874 
C 3.131218 1.81853 3.5 0.928211 3.5 0 
C 3.5 -0.928211 3.131218 -1.81853 2.474874 -2.474874 
C 1.81853 -3.131218 0.928211 -3.5 0 -3.5 
C -0.928211 -3.5 -1.81853 -3.131218 -2.474874 -2.474874 
C -3.131218 -1.81853 -3.5 -0.928211 -3.5 0 
C -3.5 0.928211 -3.131218 1.81853 -2.474874 2.474874 
C -1.81853 3.131218 -0.928211 3.5 0 3.5 
z
" style="stroke: #212529"/>
    </defs>
    <g clip-path="url(#pa2c7ce62bb)">
     <use xlink:href="#m41cc652660" x="362.446837" y="197.737272" style="fill: #212529; stroke: #212529"/>
    </g>
   </g>
   <g id="text_14">
    <!-- cmp,in -->
    <g style="fill: #212529" transform="translate(370.446837 203.737272) scale(0.12 -0.12)">
     <defs>
      <path id="STIXGeneral-Regular-63" d="M 2547 998 
L 2637 941 
Q 2362 403 2112 205 
Q 1786 -64 1376 -64 
Q 845 -64 502 336 
Q 160 736 160 1357 
Q 160 2170 698 2618 
Q 1094 2944 1562 2944 
Q 1965 2944 2256 2749 
Q 2547 2554 2547 2285 
Q 2547 2176 2457 2096 
Q 2368 2016 2246 2016 
Q 2022 2016 1939 2310 
L 1901 2451 
Q 1850 2630 1773 2694 
Q 1696 2758 1523 2758 
Q 1133 2758 893 2451 
Q 653 2144 653 1645 
Q 653 1094 928 745 
Q 1203 397 1645 397 
Q 1920 397 2118 528 
Q 2317 659 2547 998 
z
" transform="scale(0.015625)"/>
      <path id="STIXGeneral-Regular-6d" d="M 4960 0 
L 3565 0 
L 3565 96 
Q 3834 122 3907 208 
Q 3981 294 3981 576 
L 3981 1894 
Q 3981 2278 3869 2444 
Q 3757 2611 3488 2611 
Q 3264 2611 3107 2521 
Q 2950 2432 2803 2221 
L 2803 608 
Q 2803 301 2896 201 
Q 2989 102 3264 96 
L 3264 0 
L 1830 0 
L 1830 96 
Q 2112 115 2189 188 
Q 2266 262 2266 550 
L 2266 1901 
Q 2266 2611 1850 2611 
Q 1670 2611 1468 2531 
Q 1267 2451 1171 2336 
Q 1088 2240 1088 2227 
L 1088 448 
Q 1088 243 1177 176 
Q 1267 109 1523 96 
L 1523 0 
L 102 0 
L 102 96 
Q 371 102 460 195 
Q 550 288 550 563 
L 550 2150 
Q 550 2387 499 2480 
Q 448 2573 326 2573 
Q 230 2573 122 2547 
L 122 2656 
Q 557 2778 1011 2944 
L 1062 2925 
L 1062 2451 
L 1075 2451 
Q 1363 2752 1584 2848 
Q 1805 2944 2054 2944 
Q 2560 2944 2733 2406 
Q 3232 2944 3776 2944 
Q 4518 2944 4518 1792 
L 4518 493 
Q 4518 282 4582 202 
Q 4646 122 4794 109 
L 4960 96 
L 4960 0 
z
" transform="scale(0.015625)"/>
      <path id="STIXGeneral-Regular-2c" d="M 531 -902 
L 467 -781 
Q 998 -422 998 -96 
Q 998 -13 909 -13 
Q 883 -13 822 -25 
Q 762 -38 723 -38 
Q 352 -38 352 288 
Q 352 454 457 553 
Q 563 653 736 653 
Q 954 653 1101 496 
Q 1248 339 1248 96 
Q 1248 -198 1053 -473 
Q 858 -749 531 -902 
z
" transform="scale(0.015625)"/>
      <path id="STIXGeneral-Regular-69" d="M 1152 4045 
Q 1152 3904 1056 3811 
Q 960 3718 819 3718 
Q 685 3718 592 3811 
Q 499 3904 499 4045 
Q 499 4179 595 4275 
Q 691 4371 826 4371 
Q 966 4371 1059 4275 
Q 1152 4179 1152 4045 
z
M 1619 0 
L 102 0 
L 102 96 
Q 435 115 521 211 
Q 608 307 608 666 
L 608 2118 
Q 608 2342 563 2432 
Q 518 2522 397 2522 
Q 243 2522 128 2490 
L 128 2592 
L 1120 2944 
L 1146 2918 
L 1146 672 
Q 1146 314 1226 218 
Q 1306 122 1619 96 
L 1619 0 
z
" transform="scale(0.015625)"/>
     </defs>
     <use xlink:href="#STIXGeneral-Regular-63"/>
     <use xlink:href="#STIXGeneral-Regular-6d" transform="translate(44.399994 0)"/>
     <use xlink:href="#STIXGeneral-Regular-70" transform="translate(122.199982 0)"/>
     <use xlink:href="#STIXGeneral-Regular-2c" transform="translate(172.199966 0)"/>
     <use xlink:href="#STIXGeneral-Regular-69" transform="translate(197.199951 0)"/>
     <use xlink:href="#STIXGeneral-Regular-6e" transform="translate(224.999939 0)"/>
    </g>
   </g>
   <g id="line2d_62">
    <g clip-path="url(#pa2c7ce62bb)">
     <use xlink:href="#m41cc652660" x="417.230356" y="79.003935" style="fill: #212529; stroke: #212529"/>
    </g>
   </g>
   <g id="text_15">
    <!-- cmp,out -->
    <g style="fill: #212529" transform="translate(425.230356 75.003935) scale(0.12 -0.12)">
     <defs>
      <path id="STIXGeneral-Regular-6f" d="M 3008 1478 
Q 3008 806 2608 371 
Q 2208 -64 1568 -64 
Q 979 -64 582 368 
Q 186 800 186 1459 
Q 186 2125 582 2534 
Q 979 2944 1626 2944 
Q 2221 2944 2614 2537 
Q 3008 2131 3008 1478 
z
M 2432 1306 
Q 2432 2035 2112 2445 
Q 1856 2765 1504 2765 
Q 1171 2765 966 2493 
Q 762 2221 762 1747 
Q 762 928 1101 435 
Q 1318 115 1677 115 
Q 2029 115 2230 432 
Q 2432 749 2432 1306 
z
" transform="scale(0.015625)"/>
     </defs>
     <use xlink:href="#STIXGeneral-Regular-63"/>
     <use xlink:href="#STIXGeneral-Regular-6d" transform="translate(44.399994 0)"/>
     <use xlink:href="#STIXGeneral-Regular-70" transform="translate(122.199982 0)"/>
     <use xlink:href="#STIXGeneral-Regular-2c" transform="translate(172.199966 0)"/>
     <use xlink:href="#STIXGeneral-Regular-6f" transform="translate(197.199951 0)"/>
     <use xlink:href="#STIXGeneral-Regular-75" transform="translate(247.199936 0)"/>
     <use xlink:href="#STIXGeneral-Regular-74" transform="translate(297.199921 0)"/>
    </g>
   </g>
   <g id="line2d_63">
    <g clip-path="url(#pa2c7ce62bb)">
     <use xlink:href="#m41cc652660" x="244.963183" y="79.003935" style="fill: #212529; stroke: #212529"/>
    </g>
   </g>
   <g id="text_16">
    <!-- exp,in -->
    <g style="fill: #212529" transform="translate(222.963183 71.003935) scale(0.12 -0.12)">
     <defs>
      <path id="STIXGeneral-Regular-78" d="M 3066 0 
L 1779 0 
L 1779 96 
Q 1939 109 1987 137 
Q 2035 166 2035 250 
Q 2035 307 1997 365 
L 1414 1261 
L 909 474 
Q 781 275 781 211 
Q 781 96 1037 96 
L 1037 0 
L 109 0 
L 109 96 
Q 269 109 355 169 
Q 442 230 576 422 
L 1306 1478 
L 704 2400 
Q 557 2624 454 2704 
Q 352 2784 211 2784 
L 154 2784 
L 154 2880 
L 1478 2880 
L 1478 2784 
Q 1203 2778 1203 2643 
Q 1203 2509 1498 2074 
Q 1581 1958 1587 1946 
Q 1619 1990 1779 2227 
Q 1811 2285 1856 2349 
Q 1901 2413 1923 2451 
Q 1946 2490 1971 2528 
Q 1997 2566 2006 2595 
Q 2016 2624 2016 2643 
Q 2016 2765 1760 2784 
L 1760 2880 
L 2771 2880 
L 2771 2784 
Q 2445 2771 2253 2502 
L 1722 1734 
L 2541 480 
Q 2790 96 3066 96 
L 3066 0 
z
" transform="scale(0.015625)"/>
     </defs>
     <use xlink:href="#STIXGeneral-Regular-65"/>
     <use xlink:href="#STIXGeneral-Regular-78" transform="translate(44.399994 0)"/>
     <use xlink:href="#STIXGeneral-Regular-70" transform="translate(94.399979 0)"/>
     <use xlink:href="#STIXGeneral-Regular-2c" transform="translate(144.399963 0)"/>
     <use xlink:href="#STIXGeneral-Regular-69" transform="translate(169.399948 0)"/>
     <use xlink:href="#STIXGeneral-Regular-6e" transform="translate(197.199936 0)"/>
    </g>
   </g>
   <g id="line2d_64">
    <g clip-path="url(#pa2c7ce62bb)">
     <use xlink:href="#m41cc652660" x="244.963183" y="197.737272" style="fill: #212529; stroke: #212529"/>
    </g>
   </g>
   <g id="text_17">
    <!-- exp,out -->
    <g style="fill: #212529" transform="translate(214.963183 211.737272) scale(0.12 -0.12)">
     <use xlink:href="#STIXGeneral-Regular-65"/>
     <use xlink:href="#STIXGeneral-Regular-78" transform="translate(44.399994 0)"/>
     <use xlink:href="#STIXGeneral-Regular-70" transform="translate(94.399979 0)"/>
     <use xlink:href="#STIXGeneral-Regular-2c" transform="translate(144.399963 0)"/>
     <use xlink:href="#STIXGeneral-Regular-6f" transform="translate(169.399948 0)"/>
     <use xlink:href="#STIXGeneral-Regular-75" transform="translate(219.399933 0)"/>
     <use xlink:href="#STIXGeneral-Regular-74" transform="translate(269.399918 0)"/>
    </g>
   </g>
   <g id="text_18">
    <!-- a -->
    <g transform="translate(62.74393 40.472816) scale(0.18 -0.18)">
     <defs>
      <path id="STIXGeneral-Bold-61" d="M 3027 410 
L 3123 275 
Q 2784 -90 2406 -90 
Q 2170 -90 2051 9 
Q 1933 109 1882 352 
Q 1395 -90 864 -90 
Q 544 -90 352 80 
Q 160 250 160 589 
Q 160 1018 589 1306 
Q 909 1517 1875 1792 
L 1875 2227 
Q 1875 2541 1756 2681 
Q 1638 2822 1357 2822 
Q 1178 2822 1059 2758 
Q 941 2694 941 2586 
Q 941 2515 1011 2438 
Q 1133 2291 1133 2170 
Q 1133 2003 1011 1894 
Q 890 1786 698 1786 
Q 499 1786 390 1901 
Q 282 2016 282 2221 
Q 282 2598 618 2812 
Q 954 3027 1504 3027 
Q 2093 3027 2425 2803 
Q 2758 2579 2758 2170 
L 2758 499 
Q 2758 320 2893 320 
Q 2938 320 2963 346 
L 3027 410 
z
M 1875 621 
L 1875 1568 
Q 1094 1350 1094 794 
Q 1094 589 1187 477 
Q 1280 365 1427 365 
Q 1696 365 1875 621 
z
" transform="scale(0.015625)"/>
     </defs>
     <use xlink:href="#STIXGeneral-Bold-61"/>
    </g>
   </g>
   <g id="legend_1">
    <g id="line2d_65">
     <path d="M 98.372504 33.648 
L 110.372504 33.648 
L 122.372504 33.648 
" style="fill: none; stroke: #4dabf7; stroke-width: 1.6; stroke-linecap: square"/>
    </g>
    <g id="text_19">
     <!-- Sat. liquid -->
     <g transform="translate(131.972504 37.848) scale(0.12 -0.12)">
      <defs>
       <path id="STIXGeneral-Regular-53" d="M 3002 2963 
L 2842 2963 
Q 2733 3360 2579 3565 
Q 2189 4064 1651 4064 
Q 1357 4064 1181 3894 
Q 1005 3725 1005 3456 
Q 1005 3328 1069 3206 
Q 1133 3085 1206 2998 
Q 1280 2912 1465 2784 
Q 1651 2656 1766 2589 
Q 1882 2522 2150 2362 
Q 2669 2061 2905 1763 
Q 3142 1466 3142 1107 
Q 3142 576 2771 243 
Q 2400 -90 1837 -90 
Q 1421 -90 1082 58 
Q 915 128 781 128 
Q 704 128 653 70 
Q 602 13 602 -83 
L 461 -83 
L 275 1274 
L 416 1274 
Q 845 141 1734 141 
Q 2074 141 2285 342 
Q 2496 544 2496 858 
Q 2496 1158 2310 1363 
Q 2003 1696 1235 2106 
Q 454 2522 454 3206 
Q 454 3718 768 4022 
Q 1082 4326 1568 4326 
Q 1907 4326 2240 4186 
Q 2413 4109 2522 4109 
Q 2688 4109 2726 4326 
L 2861 4326 
L 3002 2963 
z
" transform="scale(0.015625)"/>
       <path id="STIXGeneral-Regular-2e" d="M 1158 275 
Q 1158 134 1052 32 
Q 947 -70 800 -70 
Q 653 -70 550 32 
Q 448 134 448 281 
Q 448 429 553 534 
Q 659 640 806 640 
Q 947 640 1052 531 
Q 1158 422 1158 275 
z
" transform="scale(0.015625)"/>
       <path id="STIXGeneral-Regular-71" d="M 3123 -1389 
L 1613 -1389 
L 1613 -1280 
Q 1952 -1254 2067 -1158 
Q 2182 -1062 2182 -794 
L 2182 410 
Q 1747 -64 1178 -64 
Q 730 -64 442 320 
Q 154 704 154 1312 
Q 154 2003 560 2473 
Q 966 2944 1562 2944 
Q 1920 2944 2304 2720 
L 2650 2925 
L 2720 2925 
L 2720 -902 
Q 2720 -1107 2797 -1180 
Q 2874 -1254 3123 -1280 
L 3123 -1389 
z
M 2182 813 
L 2182 2131 
Q 2182 2758 1587 2758 
Q 1178 2758 941 2432 
Q 704 2106 704 1542 
Q 704 1210 803 925 
Q 902 640 1062 499 
Q 1254 326 1542 326 
Q 1882 326 2106 531 
Q 2182 602 2182 813 
z
" transform="scale(0.015625)"/>
       <path id="STIXGeneral-Regular-64" d="M 3142 269 
L 2202 -64 
L 2176 -45 
L 2176 365 
Q 1869 -64 1357 -64 
Q 826 -64 499 317 
Q 173 698 173 1312 
Q 173 1990 563 2467 
Q 954 2944 1504 2944 
Q 1850 2944 2176 2669 
L 2176 3667 
Q 2176 3866 2118 3930 
Q 2061 3994 1882 3994 
Q 1792 3994 1741 3987 
L 1741 4090 
Q 2323 4243 2682 4371 
L 2714 4358 
L 2714 730 
Q 2714 506 2768 435 
Q 2822 365 2995 365 
Q 3034 365 3142 371 
L 3142 269 
z
M 2176 653 
L 2176 2125 
Q 2176 2381 1981 2573 
Q 1786 2765 1523 2765 
Q 1158 2765 940 2438 
Q 723 2112 723 1568 
Q 723 979 963 624 
Q 1203 269 1606 269 
Q 1907 269 2080 474 
Q 2176 582 2176 653 
z
" transform="scale(0.015625)"/>
      </defs>
      <use xlink:href="#STIXGeneral-Regular-53"/>
      <use xlink:href="#STIXGeneral-Regular-61" transform="translate(55.599991 0)"/>
      <use xlink:href="#STIXGeneral-Regular-74" transform="translate(99.999985 0)"/>
      <use xlink:href="#STIXGeneral-Regular-2e" transform="translate(127.799973 0)"/>
      <use xlink:href="#STIXGeneral-Regular-20" transform="translate(152.799957 0)"/>
      <use xlink:href="#STIXGeneral-Regular-6c" transform="translate(177.799942 0)"/>
      <use xlink:href="#STIXGeneral-Regular-69" transform="translate(205.59993 0)"/>
      <use xlink:href="#STIXGeneral-Regular-71" transform="translate(233.399918 0)"/>
      <use xlink:href="#STIXGeneral-Regular-75" transform="translate(283.399902 0)"/>
      <use xlink:href="#STIXGeneral-Regular-69" transform="translate(333.399887 0)"/>
      <use xlink:href="#STIXGeneral-Regular-64" transform="translate(361.199875 0)"/>
     </g>
    </g>
    <g id="line2d_66">
     <path d="M 205.315004 33.648 
L 217.315004 33.648 
L 229.315004 33.648 
" style="fill: none; stroke: #ff6b6b; stroke-width: 1.6; stroke-linecap: square"/>
    </g>
    <g id="text_20">
     <!-- Sat. vapor -->
     <g transform="translate(238.915004 37.848) scale(0.12 -0.12)">
      <defs>
       <path id="STIXGeneral-Regular-76" d="M 3053 2880 
L 3053 2784 
Q 2906 2771 2835 2688 
Q 2765 2605 2637 2285 
L 1818 230 
Q 1690 -90 1638 -90 
Q 1587 -90 1523 77 
Q 1510 96 1497 141 
Q 1485 186 1472 211 
L 704 2048 
Q 499 2534 403 2652 
Q 307 2771 122 2784 
L 122 2880 
L 1376 2880 
L 1376 2784 
Q 1210 2771 1146 2732 
Q 1082 2694 1082 2611 
Q 1082 2509 1139 2368 
L 1792 730 
L 2426 2387 
Q 2464 2483 2464 2579 
Q 2464 2758 2163 2784 
L 2163 2880 
L 3053 2880 
z
" transform="scale(0.015625)"/>
      </defs>
      <use xlink:href="#STIXGeneral-Regular-53"/>
      <use xlink:href="#STIXGeneral-Regular-61" transform="translate(55.599991 0)"/>
      <use xlink:href="#STIXGeneral-Regular-74" transform="translate(99.999985 0)"/>
      <use xlink:href="#STIXGeneral-Regular-2e" transform="translate(127.799973 0)"/>
      <use xlink:href="#STIXGeneral-Regular-20" transform="translate(152.799957 0)"/>
      <use xlink:href="#STIXGeneral-Regular-76" transform="translate(177.799942 0)"/>
      <use xlink:href="#STIXGeneral-Regular-61" transform="translate(227.799927 0)"/>
      <use xlink:href="#STIXGeneral-Regular-70" transform="translate(272.199921 0)"/>
      <use xlink:href="#STIXGeneral-Regular-6f" transform="translate(322.199905 0)"/>
      <use xlink:href="#STIXGeneral-Regular-72" transform="translate(372.19989 0)"/>
     </g>
    </g>
    <g id="line2d_67">
     <path d="M 311.575004 33.648 
L 323.575004 33.648 
L 335.575004 33.648 
" style="fill: none; stroke-dasharray: 1.8,1.8; stroke-dashoffset: 0; stroke: #212529; stroke-width: 0.9"/>
    </g>
    <g id="text_21">
     <!-- Ref. cycle -->
     <g transform="translate(345.175004 37.848) scale(0.12 -0.12)">
      <defs>
       <path id="STIXGeneral-Regular-52" d="M 4224 0 
L 3187 0 
L 1664 1971 
L 1306 1958 
L 1306 717 
Q 1306 352 1405 249 
Q 1504 147 1875 122 
L 1875 0 
L 109 0 
L 109 122 
Q 474 154 563 262 
Q 653 371 653 794 
L 653 3526 
Q 653 3885 563 3987 
Q 474 4090 109 4115 
L 109 4237 
L 1850 4237 
Q 2726 4237 3187 3859 
Q 3501 3603 3501 3091 
Q 3501 2221 2342 2042 
L 3622 422 
Q 3757 256 3878 198 
Q 4000 141 4224 122 
L 4224 0 
z
M 1306 3731 
L 1306 2195 
Q 1766 2202 1990 2246 
Q 2214 2291 2438 2413 
Q 2803 2618 2803 3142 
Q 2803 4000 1632 4000 
Q 1459 4000 1382 3945 
Q 1306 3891 1306 3731 
z
" transform="scale(0.015625)"/>
       <path id="STIXGeneral-Regular-66" d="M 134 2880 
L 659 2880 
Q 666 3264 710 3478 
Q 755 3693 883 3910 
Q 1152 4371 1786 4371 
Q 2074 4371 2262 4259 
Q 2451 4147 2451 3974 
Q 2451 3866 2374 3789 
Q 2298 3712 2182 3712 
Q 2029 3712 1894 3942 
Q 1741 4192 1555 4192 
Q 1197 4192 1197 3622 
L 1197 2880 
L 1978 2880 
L 1978 2675 
L 1197 2675 
L 1197 666 
Q 1197 307 1299 208 
Q 1402 109 1792 96 
L 1792 0 
L 128 0 
L 128 96 
Q 474 115 566 214 
Q 659 314 659 666 
L 659 2675 
L 134 2675 
L 134 2880 
z
" transform="scale(0.015625)"/>
      </defs>
      <use xlink:href="#STIXGeneral-Regular-52"/>
      <use xlink:href="#STIXGeneral-Regular-65" transform="translate(66.699997 0)"/>
      <use xlink:href="#STIXGeneral-Regular-66" transform="translate(111.099991 0)"/>
      <use xlink:href="#STIXGeneral-Regular-2e" transform="translate(144.399979 0)"/>
      <use xlink:href="#STIXGeneral-Regular-20" transform="translate(169.399963 0)"/>
      <use xlink:href="#STIXGeneral-Regular-63" transform="translate(194.399948 0)"/>
      <use xlink:href="#STIXGeneral-Regular-79" transform="translate(238.799942 0)"/>
      <use xlink:href="#STIXGeneral-Regular-63" transform="translate(288.799927 0)"/>
      <use xlink:href="#STIXGeneral-Regular-6c" transform="translate(333.199921 0)"/>
      <use xlink:href="#STIXGeneral-Regular-65" transform="translate(360.999908 0)"/>
     </g>
    </g>
   </g>
  </g>
  <g id="axes_2">
   <g id="patch_7">
    <path d="M 535.150432 340.579375 
L 948.96 340.579375 
L 948.96 18.648 
L 535.150432 18.648 
z
" style="fill: #ffffff"/>
   </g>
   <g id="matplotlib.axis_3">
    <g id="xtick_9">
     <g id="line2d_68">
      <path d="M 535.150432 340.579375 
L 535.150432 18.648 
" clip-path="url(#p7cb46217b4)" style="fill: none; stroke: #b0b0b0; stroke-opacity: 0.25; stroke-width: 0.8; stroke-linecap: square"/>
     </g>
     <g id="line2d_69">
      <g>
       <use xlink:href="#m40026b6356" x="535.150432" y="340.579375" style="stroke: #000000; stroke-width: 0.8"/>
      </g>
     </g>
     <g id="text_22">
      <!-- 0 -->
      <g transform="translate(532.150432 355.775) scale(0.12 -0.12)">
       <use xlink:href="#STIXGeneral-Regular-30"/>
      </g>
     </g>
    </g>
    <g id="xtick_10">
     <g id="line2d_70">
      <path d="M 594.266085 340.579375 
L 594.266085 18.648 
" clip-path="url(#p7cb46217b4)" style="fill: none; stroke: #b0b0b0; stroke-opacity: 0.25; stroke-width: 0.8; stroke-linecap: square"/>
     </g>
     <g id="line2d_71">
      <g>
       <use xlink:href="#m40026b6356" x="594.266085" y="340.579375" style="stroke: #000000; stroke-width: 0.8"/>
      </g>
     </g>
     <g id="text_23">
      <!-- 100 -->
      <g transform="translate(585.266085 355.775) scale(0.12 -0.12)">
       <use xlink:href="#STIXGeneral-Regular-31"/>
       <use xlink:href="#STIXGeneral-Regular-30" transform="translate(49.999985 0)"/>
       <use xlink:href="#STIXGeneral-Regular-30" transform="translate(99.999969 0)"/>
      </g>
     </g>
    </g>
    <g id="xtick_11">
     <g id="line2d_72">
      <path d="M 653.381737 340.579375 
L 653.381737 18.648 
" clip-path="url(#p7cb46217b4)" style="fill: none; stroke: #b0b0b0; stroke-opacity: 0.25; stroke-width: 0.8; stroke-linecap: square"/>
     </g>
     <g id="line2d_73">
      <g>
       <use xlink:href="#m40026b6356" x="653.381737" y="340.579375" style="stroke: #000000; stroke-width: 0.8"/>
      </g>
     </g>
     <g id="text_24">
      <!-- 200 -->
      <g transform="translate(644.381737 355.775) scale(0.12 -0.12)">
       <use xlink:href="#STIXGeneral-Regular-32"/>
       <use xlink:href="#STIXGeneral-Regular-30" transform="translate(49.999985 0)"/>
       <use xlink:href="#STIXGeneral-Regular-30" transform="translate(99.999969 0)"/>
      </g>
     </g>
    </g>
    <g id="xtick_12">
     <g id="line2d_74">
      <path d="M 712.49739 340.579375 
L 712.49739 18.648 
" clip-path="url(#p7cb46217b4)" style="fill: none; stroke: #b0b0b0; stroke-opacity: 0.25; stroke-width: 0.8; stroke-linecap: square"/>
     </g>
     <g id="line2d_75">
      <g>
       <use xlink:href="#m40026b6356" x="712.49739" y="340.579375" style="stroke: #000000; stroke-width: 0.8"/>
      </g>
     </g>
     <g id="text_25">
      <!-- 300 -->
      <g transform="translate(703.49739 355.775) scale(0.12 -0.12)">
       <use xlink:href="#STIXGeneral-Regular-33"/>
       <use xlink:href="#STIXGeneral-Regular-30" transform="translate(49.999985 0)"/>
       <use xlink:href="#STIXGeneral-Regular-30" transform="translate(99.999969 0)"/>
      </g>
     </g>
    </g>
    <g id="xtick_13">
     <g id="line2d_76">
      <path d="M 771.613042 340.579375 
L 771.613042 18.648 
" clip-path="url(#p7cb46217b4)" style="fill: none; stroke: #b0b0b0; stroke-opacity: 0.25; stroke-width: 0.8; stroke-linecap: square"/>
     </g>
     <g id="line2d_77">
      <g>
       <use xlink:href="#m40026b6356" x="771.613042" y="340.579375" style="stroke: #000000; stroke-width: 0.8"/>
      </g>
     </g>
     <g id="text_26">
      <!-- 400 -->
      <g transform="translate(762.613042 355.775) scale(0.12 -0.12)">
       <use xlink:href="#STIXGeneral-Regular-34"/>
       <use xlink:href="#STIXGeneral-Regular-30" transform="translate(49.999985 0)"/>
       <use xlink:href="#STIXGeneral-Regular-30" transform="translate(99.999969 0)"/>
      </g>
     </g>
    </g>
    <g id="xtick_14">
     <g id="line2d_78">
      <path d="M 830.728695 340.579375 
L 830.728695 18.648 
" clip-path="url(#p7cb46217b4)" style="fill: none; stroke: #b0b0b0; stroke-opacity: 0.25; stroke-width: 0.8; stroke-linecap: square"/>
     </g>
     <g id="line2d_79">
      <g>
       <use xlink:href="#m40026b6356" x="830.728695" y="340.579375" style="stroke: #000000; stroke-width: 0.8"/>
      </g>
     </g>
     <g id="text_27">
      <!-- 500 -->
      <g transform="translate(821.728695 355.775) scale(0.12 -0.12)">
       <use xlink:href="#STIXGeneral-Regular-35"/>
       <use xlink:href="#STIXGeneral-Regular-30" transform="translate(49.999985 0)"/>
       <use xlink:href="#STIXGeneral-Regular-30" transform="translate(99.999969 0)"/>
      </g>
     </g>
    </g>
    <g id="xtick_15">
     <g id="line2d_80">
      <path d="M 889.844347 340.579375 
L 889.844347 18.648 
" clip-path="url(#p7cb46217b4)" style="fill: none; stroke: #b0b0b0; stroke-opacity: 0.25; stroke-width: 0.8; stroke-linecap: square"/>
     </g>
     <g id="line2d_81">
      <g>
       <use xlink:href="#m40026b6356" x="889.844347" y="340.579375" style="stroke: #000000; stroke-width: 0.8"/>
      </g>
     </g>
     <g id="text_28">
      <!-- 600 -->
      <g transform="translate(880.844347 355.775) scale(0.12 -0.12)">
       <use xlink:href="#STIXGeneral-Regular-36"/>
       <use xlink:href="#STIXGeneral-Regular-30" transform="translate(49.999985 0)"/>
       <use xlink:href="#STIXGeneral-Regular-30" transform="translate(99.999969 0)"/>
      </g>
     </g>
    </g>
    <g id="xtick_16">
     <g id="line2d_82">
      <path d="M 948.96 340.579375 
L 948.96 18.648 
" clip-path="url(#p7cb46217b4)" style="fill: none; stroke: #b0b0b0; stroke-opacity: 0.25; stroke-width: 0.8; stroke-linecap: square"/>
     </g>
     <g id="line2d_83">
      <g>
       <use xlink:href="#m40026b6356" x="948.96" y="340.579375" style="stroke: #000000; stroke-width: 0.8"/>
      </g>
     </g>
     <g id="text_29">
      <!-- 700 -->
      <g transform="translate(939.96 355.775) scale(0.12 -0.12)">
       <use xlink:href="#STIXGeneral-Regular-37"/>
       <use xlink:href="#STIXGeneral-Regular-30" transform="translate(49.999985 0)"/>
       <use xlink:href="#STIXGeneral-Regular-30" transform="translate(99.999969 0)"/>
      </g>
     </g>
    </g>
    <g id="text_30">
     <!-- Enthalpy [kJ/kg] -->
     <g transform="translate(695.310529 371.940938) scale(0.14 -0.14)">
      <use xlink:href="#STIXGeneral-Regular-45"/>
      <use xlink:href="#STIXGeneral-Regular-6e" transform="translate(61.099991 0)"/>
      <use xlink:href="#STIXGeneral-Regular-74" transform="translate(111.099976 0)"/>
      <use xlink:href="#STIXGeneral-Regular-68" transform="translate(138.899963 0)"/>
      <use xlink:href="#STIXGeneral-Regular-61" transform="translate(188.899948 0)"/>
      <use xlink:href="#STIXGeneral-Regular-6c" transform="translate(233.299942 0)"/>
      <use xlink:href="#STIXGeneral-Regular-70" transform="translate(261.09993 0)"/>
      <use xlink:href="#STIXGeneral-Regular-79" transform="translate(311.099915 0)"/>
      <use xlink:href="#STIXGeneral-Regular-20" transform="translate(361.099899 0)"/>
      <use xlink:href="#STIXGeneral-Regular-5b" transform="translate(386.099884 0)"/>
      <use xlink:href="#STIXGeneral-Regular-6b" transform="translate(419.399872 0)"/>
      <use xlink:href="#STIXGeneral-Regular-4a" transform="translate(469.399857 0)"/>
      <use xlink:href="#STIXGeneral-Regular-2f" transform="translate(506.699844 0)"/>
      <use xlink:href="#STIXGeneral-Regular-6b" transform="translate(534.499832 0)"/>
      <use xlink:href="#STIXGeneral-Regular-67" transform="translate(584.499817 0)"/>
      <use xlink:href="#STIXGeneral-Regular-5d" transform="translate(634.499802 0)"/>
     </g>
    </g>
   </g>
   <g id="matplotlib.axis_4">
    <g id="ytick_20">
     <g id="line2d_84">
      <path d="M 535.150432 340.579375 
L 948.96 340.579375 
" clip-path="url(#p7cb46217b4)" style="fill: none; stroke: #b0b0b0; stroke-opacity: 0.25; stroke-width: 0.8; stroke-linecap: square"/>
     </g>
     <g id="line2d_85">
      <g>
       <use xlink:href="#m2b7a5cb17b" x="535.150432" y="340.579375" style="stroke: #000000; stroke-width: 0.8"/>
      </g>
     </g>
     <g id="text_31">
      <!-- −20 -->
      <g transform="translate(507.930432 344.677188) scale(0.12 -0.12)">
       <defs>
        <path id="STIXGeneral-Regular-2212" d="M 3974 1408 
L 410 1408 
L 410 1830 
L 3974 1830 
L 3974 1408 
z
" transform="scale(0.015625)"/>
       </defs>
       <use xlink:href="#STIXGeneral-Regular-2212"/>
       <use xlink:href="#STIXGeneral-Regular-32" transform="translate(68.499985 0)"/>
       <use xlink:href="#STIXGeneral-Regular-30" transform="translate(118.499969 0)"/>
      </g>
     </g>
    </g>
    <g id="ytick_21">
     <g id="line2d_86">
      <path d="M 535.150432 304.809222 
L 948.96 304.809222 
" clip-path="url(#p7cb46217b4)" style="fill: none; stroke: #b0b0b0; stroke-opacity: 0.25; stroke-width: 0.8; stroke-linecap: square"/>
     </g>
     <g id="line2d_87">
      <g>
       <use xlink:href="#m2b7a5cb17b" x="535.150432" y="304.809222" style="stroke: #000000; stroke-width: 0.8"/>
      </g>
     </g>
     <g id="text_32">
      <!-- 0 -->
      <g transform="translate(522.150432 308.907035) scale(0.12 -0.12)">
       <use xlink:href="#STIXGeneral-Regular-30"/>
      </g>
     </g>
    </g>
    <g id="ytick_22">
     <g id="line2d_88">
      <path d="M 535.150432 269.039069 
L 948.96 269.039069 
" clip-path="url(#p7cb46217b4)" style="fill: none; stroke: #b0b0b0; stroke-opacity: 0.25; stroke-width: 0.8; stroke-linecap: square"/>
     </g>
     <g id="line2d_89">
      <g>
       <use xlink:href="#m2b7a5cb17b" x="535.150432" y="269.039069" style="stroke: #000000; stroke-width: 0.8"/>
      </g>
     </g>
     <g id="text_33">
      <!-- 20 -->
      <g transform="translate(516.150432 273.136882) scale(0.12 -0.12)">
       <use xlink:href="#STIXGeneral-Regular-32"/>
       <use xlink:href="#STIXGeneral-Regular-30" transform="translate(49.999985 0)"/>
      </g>
     </g>
    </g>
    <g id="ytick_23">
     <g id="line2d_90">
      <path d="M 535.150432 233.268917 
L 948.96 233.268917 
" clip-path="url(#p7cb46217b4)" style="fill: none; stroke: #b0b0b0; stroke-opacity: 0.25; stroke-width: 0.8; stroke-linecap: square"/>
     </g>
     <g id="line2d_91">
      <g>
       <use xlink:href="#m2b7a5cb17b" x="535.150432" y="233.268917" style="stroke: #000000; stroke-width: 0.8"/>
      </g>
     </g>
     <g id="text_34">
      <!-- 40 -->
      <g transform="translate(516.150432 237.366729) scale(0.12 -0.12)">
       <use xlink:href="#STIXGeneral-Regular-34"/>
       <use xlink:href="#STIXGeneral-Regular-30" transform="translate(49.999985 0)"/>
      </g>
     </g>
    </g>
    <g id="ytick_24">
     <g id="line2d_92">
      <path d="M 535.150432 197.498764 
L 948.96 197.498764 
" clip-path="url(#p7cb46217b4)" style="fill: none; stroke: #b0b0b0; stroke-opacity: 0.25; stroke-width: 0.8; stroke-linecap: square"/>
     </g>
     <g id="line2d_93">
      <g>
       <use xlink:href="#m2b7a5cb17b" x="535.150432" y="197.498764" style="stroke: #000000; stroke-width: 0.8"/>
      </g>
     </g>
     <g id="text_35">
      <!-- 60 -->
      <g transform="translate(516.150432 201.596576) scale(0.12 -0.12)">
       <use xlink:href="#STIXGeneral-Regular-36"/>
       <use xlink:href="#STIXGeneral-Regular-30" transform="translate(49.999985 0)"/>
      </g>
     </g>
    </g>
    <g id="ytick_25">
     <g id="line2d_94">
      <path d="M 535.150432 161.728611 
L 948.96 161.728611 
" clip-path="url(#p7cb46217b4)" style="fill: none; stroke: #b0b0b0; stroke-opacity: 0.25; stroke-width: 0.8; stroke-linecap: square"/>
     </g>
     <g id="line2d_95">
      <g>
       <use xlink:href="#m2b7a5cb17b" x="535.150432" y="161.728611" style="stroke: #000000; stroke-width: 0.8"/>
      </g>
     </g>
     <g id="text_36">
      <!-- 80 -->
      <g transform="translate(516.150432 165.826424) scale(0.12 -0.12)">
       <defs>
        <path id="STIXGeneral-Regular-38" d="M 2848 992 
Q 2848 499 2505 204 
Q 2163 -90 1587 -90 
Q 1050 -90 704 204 
Q 358 499 358 954 
Q 358 1293 524 1533 
Q 691 1773 1190 2125 
Q 710 2522 553 2765 
Q 397 3008 397 3328 
Q 397 3782 745 4054 
Q 1094 4326 1638 4326 
Q 2106 4326 2410 4060 
Q 2714 3795 2714 3411 
Q 2714 3059 2531 2848 
Q 2349 2637 1856 2374 
Q 2432 1990 2640 1689 
Q 2848 1389 2848 992 
z
M 2272 3411 
Q 2272 3744 2086 3945 
Q 1901 4147 1574 4147 
Q 1248 4147 1059 3977 
Q 870 3808 870 3513 
Q 870 3219 1059 2979 
Q 1248 2739 1670 2490 
Q 1997 2682 2134 2896 
Q 2272 3110 2272 3411 
z
M 1734 1741 
L 1357 1997 
Q 1075 1766 960 1545 
Q 845 1325 845 1011 
Q 845 576 1065 333 
Q 1286 90 1658 90 
Q 1971 90 2166 285 
Q 2362 480 2362 794 
Q 2362 1082 2214 1299 
Q 2067 1517 1734 1741 
z
" transform="scale(0.015625)"/>
       </defs>
       <use xlink:href="#STIXGeneral-Regular-38"/>
       <use xlink:href="#STIXGeneral-Regular-30" transform="translate(49.999985 0)"/>
      </g>
     </g>
    </g>
    <g id="ytick_26">
     <g id="line2d_96">
      <path d="M 535.150432 125.958458 
L 948.96 125.958458 
" clip-path="url(#p7cb46217b4)" style="fill: none; stroke: #b0b0b0; stroke-opacity: 0.25; stroke-width: 0.8; stroke-linecap: square"/>
     </g>
     <g id="line2d_97">
      <g>
       <use xlink:href="#m2b7a5cb17b" x="535.150432" y="125.958458" style="stroke: #000000; stroke-width: 0.8"/>
      </g>
     </g>
     <g id="text_37">
      <!-- 100 -->
      <g transform="translate(510.150432 130.056271) scale(0.12 -0.12)">
       <use xlink:href="#STIXGeneral-Regular-31"/>
       <use xlink:href="#STIXGeneral-Regular-30" transform="translate(49.999985 0)"/>
       <use xlink:href="#STIXGeneral-Regular-30" transform="translate(99.999969 0)"/>
      </g>
     </g>
    </g>
    <g id="ytick_27">
     <g id="line2d_98">
      <path d="M 535.150432 90.188306 
L 948.96 90.188306 
" clip-path="url(#p7cb46217b4)" style="fill: none; stroke: #b0b0b0; stroke-opacity: 0.25; stroke-width: 0.8; stroke-linecap: square"/>
     </g>
     <g id="line2d_99">
      <g>
       <use xlink:href="#m2b7a5cb17b" x="535.150432" y="90.188306" style="stroke: #000000; stroke-width: 0.8"/>
      </g>
     </g>
     <g id="text_38">
      <!-- 120 -->
      <g transform="translate(510.150432 94.286118) scale(0.12 -0.12)">
       <use xlink:href="#STIXGeneral-Regular-31"/>
       <use xlink:href="#STIXGeneral-Regular-32" transform="translate(49.999985 0)"/>
       <use xlink:href="#STIXGeneral-Regular-30" transform="translate(99.999969 0)"/>
      </g>
     </g>
    </g>
    <g id="ytick_28">
     <g id="line2d_100">
      <path d="M 535.150432 54.418153 
L 948.96 54.418153 
" clip-path="url(#p7cb46217b4)" style="fill: none; stroke: #b0b0b0; stroke-opacity: 0.25; stroke-width: 0.8; stroke-linecap: square"/>
     </g>
     <g id="line2d_101">
      <g>
       <use xlink:href="#m2b7a5cb17b" x="535.150432" y="54.418153" style="stroke: #000000; stroke-width: 0.8"/>
      </g>
     </g>
     <g id="text_39">
      <!-- 140 -->
      <g transform="translate(510.150432 58.515965) scale(0.12 -0.12)">
       <use xlink:href="#STIXGeneral-Regular-31"/>
       <use xlink:href="#STIXGeneral-Regular-34" transform="translate(49.999985 0)"/>
       <use xlink:href="#STIXGeneral-Regular-30" transform="translate(99.999969 0)"/>
      </g>
     </g>
    </g>
    <g id="ytick_29">
     <g id="line2d_102">
      <path d="M 535.150432 18.648 
L 948.96 18.648 
" clip-path="url(#p7cb46217b4)" style="fill: none; stroke: #b0b0b0; stroke-opacity: 0.25; stroke-width: 0.8; stroke-linecap: square"/>
     </g>
     <g id="line2d_103">
      <g>
       <use xlink:href="#m2b7a5cb17b" x="535.150432" y="18.648" style="stroke: #000000; stroke-width: 0.8"/>
      </g>
     </g>
     <g id="text_40">
      <!-- 160 -->
      <g transform="translate(510.150432 22.745812) scale(0.12 -0.12)">
       <use xlink:href="#STIXGeneral-Regular-31"/>
       <use xlink:href="#STIXGeneral-Regular-36" transform="translate(49.999985 0)"/>
       <use xlink:href="#STIXGeneral-Regular-30" transform="translate(99.999969 0)"/>
      </g>
     </g>
    </g>
    <g id="text_41">
     <!-- Temperature [°C] -->
     <g transform="translate(500.891995 229.257906) rotate(-90) scale(0.14 -0.14)">
      <defs>
       <path id="STIXGeneral-Regular-54" d="M 3795 3149 
L 3642 3149 
Q 3539 3674 3353 3821 
Q 3168 3968 2656 3968 
L 2278 3968 
L 2278 710 
Q 2278 346 2387 243 
Q 2496 141 2893 122 
L 2893 0 
L 1024 0 
L 1024 122 
Q 1427 147 1526 256 
Q 1626 365 1626 787 
L 1626 3968 
L 1242 3968 
Q 723 3968 540 3817 
Q 358 3667 262 3149 
L 109 3149 
L 154 4237 
L 3750 4237 
L 3795 3149 
z
" transform="scale(0.015625)"/>
       <path id="STIXGeneral-Regular-b0" d="M 2195 3411 
Q 2195 3027 1929 2761 
Q 1664 2496 1280 2496 
Q 890 2496 627 2761 
Q 365 3027 365 3418 
Q 365 3802 633 4064 
Q 902 4326 1293 4326 
Q 1664 4326 1929 4057 
Q 2195 3789 2195 3411 
z
M 1946 3418 
Q 1946 3699 1744 3904 
Q 1542 4109 1267 4109 
Q 1005 4109 809 3901 
Q 614 3693 614 3411 
Q 614 3123 809 2918 
Q 1005 2714 1280 2714 
Q 1555 2714 1750 2922 
Q 1946 3130 1946 3418 
z
" transform="scale(0.015625)"/>
       <path id="STIXGeneral-Regular-43" d="M 3930 838 
L 4051 723 
Q 3482 -90 2304 -90 
Q 1376 -90 794 480 
Q 179 1082 179 2080 
Q 179 3014 755 3661 
Q 1357 4326 2310 4326 
Q 2720 4326 3072 4230 
Q 3475 4115 3514 4115 
Q 3725 4115 3782 4326 
L 3910 4326 
L 3968 2874 
L 3821 2874 
Q 3718 3334 3488 3584 
Q 3034 4070 2458 4070 
Q 1747 4070 1334 3548 
Q 922 3027 922 2182 
Q 922 1152 1382 653 
Q 1811 192 2522 192 
Q 2944 192 3251 339 
Q 3558 486 3930 838 
z
" transform="scale(0.015625)"/>
      </defs>
      <use xlink:href="#STIXGeneral-Regular-54"/>
      <use xlink:href="#STIXGeneral-Regular-65" transform="translate(61.099991 0)"/>
      <use xlink:href="#STIXGeneral-Regular-6d" transform="translate(105.499985 0)"/>
      <use xlink:href="#STIXGeneral-Regular-70" transform="translate(183.299973 0)"/>
      <use xlink:href="#STIXGeneral-Regular-65" transform="translate(233.299957 0)"/>
      <use xlink:href="#STIXGeneral-Regular-72" transform="translate(277.699951 0)"/>
      <use xlink:href="#STIXGeneral-Regular-61" transform="translate(310.999939 0)"/>
      <use xlink:href="#STIXGeneral-Regular-74" transform="translate(355.399933 0)"/>
      <use xlink:href="#STIXGeneral-Regular-75" transform="translate(383.199921 0)"/>
      <use xlink:href="#STIXGeneral-Regular-72" transform="translate(433.199905 0)"/>
      <use xlink:href="#STIXGeneral-Regular-65" transform="translate(466.499893 0)"/>
      <use xlink:href="#STIXGeneral-Regular-20" transform="translate(510.899887 0)"/>
      <use xlink:href="#STIXGeneral-Regular-5b" transform="translate(535.899872 0)"/>
      <use xlink:href="#STIXGeneral-Regular-b0" transform="translate(569.19986 0)"/>
      <use xlink:href="#STIXGeneral-Regular-43" transform="translate(609.199844 0)"/>
      <use xlink:href="#STIXGeneral-Regular-5d" transform="translate(675.899841 0)"/>
     </g>
    </g>
   </g>
   <g id="line2d_104">
    <path d="M 606.780902 389.8 
L 620.249339 364.492351 
L 632.417598 342.087518 
L 643.560522 322.041089 
L 653.645255 304.353063 
L 663.322296 287.844238 
L 671.865667 273.693817 
L 679.943002 260.722598 
L 687.534467 248.930581 
L 694.614111 238.317765 
L 701.148736 228.884151 
L 707.966551 219.450538 
L 714.225835 211.196125 
L 719.871073 204.120915 
L 724.829639 198.224906 
L 730.089943 192.328898 
L 734.585022 187.612091 
L 739.428454 182.895284 
L 743.377378 179.357679 
L 747.72045 175.820073 
L 750.938665 173.46167 
L 754.563995 171.103266 
L 756.612638 169.924065 
L 758.911702 168.744863 
L 761.622484 167.565661 
L 765.195479 166.386459 
L 773.611038 165.207258 
L 780.099921 165.117832 
L 780.099921 165.117832 
" clip-path="url(#p7cb46217b4)" style="fill: none; stroke: #4dabf7; stroke-width: 1.6; stroke-linecap: square"/>
   </g>
   <g id="line2d_105">
    <path d="M 829.837421 389.8 
L 832.279992 373.925965 
L 834.420477 358.596342 
L 836.1819 344.445922 
L 837.710786 330.295501 
L 838.881255 317.324282 
L 839.728387 305.532264 
L 840.341699 293.740247 
L 840.667437 283.127431 
L 840.753431 273.693817 
L 840.622726 264.260204 
L 840.307399 256.005791 
L 839.778968 247.751379 
L 839.006881 239.496967 
L 838.121903 232.421757 
L 836.997925 225.346546 
L 835.849523 219.450538 
L 834.47605 213.554529 
L 832.836892 207.65852 
L 831.297775 202.941713 
L 829.515072 198.224906 
L 827.987021 194.687301 
L 826.262099 191.149696 
L 824.298845 187.612091 
L 822.038233 184.074485 
L 820.323774 181.716082 
L 818.399844 179.357679 
L 816.210031 176.999275 
L 813.666422 174.640872 
L 810.617922 172.282468 
L 808.820933 171.103266 
L 806.761063 169.924065 
L 804.323105 168.744863 
L 801.275439 167.565661 
L 796.995377 166.386459 
L 786.588803 165.207258 
L 780.099921 165.117832 
L 780.099921 165.117832 
" clip-path="url(#p7cb46217b4)" style="fill: none; stroke: #ff6b6b; stroke-width: 1.6; stroke-linecap: square"/>
   </g>
   <g id="line2d_106">
    <path d="M 839.58842 307.714099 
L 843.12953 298.771561 
L 897.913049 70.709816 
L 826.583245 191.775539 
L 730.602487 191.775539 
L 725.645876 196.60451 
L 725.645876 307.714099 
L 839.58842 307.714099 
" clip-path="url(#p7cb46217b4)" style="fill: none; stroke-dasharray: 1.8,1.8; stroke-dashoffset: 0; stroke: #212529; stroke-width: 0.9"/>
   </g>
   <g id="line2d_107">
    <path d="M 535.150432 197.498764 
L 948.96 197.498764 
" clip-path="url(#p7cb46217b4)" style="fill: none; stroke-dasharray: 3.6,3.6; stroke-dashoffset: 0; stroke: #fa5252; stroke-opacity: 0.9; stroke-width: 1.2"/>
   </g>
   <g id="line2d_108">
    <path d="M 535.150432 283.347131 
L 948.96 283.347131 
" clip-path="url(#p7cb46217b4)" style="fill: none; stroke-dasharray: 3.6,3.6; stroke-dashoffset: 0; stroke: #fd7e14; stroke-opacity: 0.9; stroke-width: 1.2"/>
   </g>
   <g id="patch_8">
    <path d="M 535.150432 340.579375 
L 535.150432 18.648 
" style="fill: none; stroke: #000000; stroke-width: 0.8; stroke-linejoin: miter; stroke-linecap: square"/>
   </g>
   <g id="patch_9">
    <path d="M 948.96 340.579375 
L 948.96 18.648 
" style="fill: none; stroke: #000000; stroke-width: 0.8; stroke-linejoin: miter; stroke-linecap: square"/>
   </g>
   <g id="patch_10">
    <path d="M 535.150432 340.579375 
L 948.96 340.579375 
" style="fill: none; stroke: #000000; stroke-width: 0.8; stroke-linejoin: miter; stroke-linecap: square"/>
   </g>
   <g id="patch_11">
    <path d="M 535.150432 18.648 
L 948.96 18.648 
" style="fill: none; stroke: #000000; stroke-width: 0.8; stroke-linejoin: miter; stroke-linecap: square"/>
   </g>
   <g id="line2d_109">
    <g clip-path="url(#p7cb46217b4)">
     <use xlink:href="#mc94ecdf537" x="839.58842" y="307.714099" style="fill: #ffffff; stroke: #212529; stroke-width: 1.4"/>
    </g>
   </g>
   <g id="line2d_110">
    <g clip-path="url(#p7cb46217b4)">
     <use xlink:href="#mc94ecdf537" x="826.583245" y="191.775539" style="fill: #ffffff; stroke: #212529; stroke-width: 1.4"/>
    </g>
   </g>
   <g id="line2d_111">
    <g clip-path="url(#p7cb46217b4)">
     <use xlink:href="#mc94ecdf537" x="730.602487" y="191.775539" style="fill: #ffffff; stroke: #212529; stroke-width: 1.4"/>
    </g>
   </g>
   <g id="line2d_112">
    <g clip-path="url(#p7cb46217b4)">
     <use xlink:href="#m41cc652660" x="843.12953" y="298.771561" style="fill: #212529; stroke: #212529"/>
    </g>
   </g>
   <g id="text_42">
    <!-- cmp,in -->
    <g style="fill: #212529" transform="translate(851.12953 302.771561) scale(0.12 -0.12)">
     <use xlink:href="#STIXGeneral-Regular-63"/>
     <use xlink:href="#STIXGeneral-Regular-6d" transform="translate(44.399994 0)"/>
     <use xlink:href="#STIXGeneral-Regular-70" transform="translate(122.199982 0)"/>
     <use xlink:href="#STIXGeneral-Regular-2c" transform="translate(172.199966 0)"/>
     <use xlink:href="#STIXGeneral-Regular-69" transform="translate(197.199951 0)"/>
     <use xlink:href="#STIXGeneral-Regular-6e" transform="translate(224.999939 0)"/>
    </g>
   </g>
   <g id="line2d_113">
    <g clip-path="url(#p7cb46217b4)">
     <use xlink:href="#m41cc652660" x="897.913049" y="70.709816" style="fill: #212529; stroke: #212529"/>
    </g>
   </g>
   <g id="text_43">
    <!-- cmp,out -->
    <g style="fill: #212529" transform="translate(847.913049 66.709816) scale(0.12 -0.12)">
     <use xlink:href="#STIXGeneral-Regular-63"/>
     <use xlink:href="#STIXGeneral-Regular-6d" transform="translate(44.399994 0)"/>
     <use xlink:href="#STIXGeneral-Regular-70" transform="translate(122.199982 0)"/>
     <use xlink:href="#STIXGeneral-Regular-2c" transform="translate(172.199966 0)"/>
     <use xlink:href="#STIXGeneral-Regular-6f" transform="translate(197.199951 0)"/>
     <use xlink:href="#STIXGeneral-Regular-75" transform="translate(247.199936 0)"/>
     <use xlink:href="#STIXGeneral-Regular-74" transform="translate(297.199921 0)"/>
    </g>
   </g>
   <g id="line2d_114">
    <g clip-path="url(#p7cb46217b4)">
     <use xlink:href="#m41cc652660" x="725.645876" y="196.60451" style="fill: #212529; stroke: #212529"/>
    </g>
   </g>
   <g id="text_44">
    <!-- exp,in -->
    <g style="fill: #212529" transform="translate(695.645876 188.60451) scale(0.12 -0.12)">
     <use xlink:href="#STIXGeneral-Regular-65"/>
     <use xlink:href="#STIXGeneral-Regular-78" transform="translate(44.399994 0)"/>
     <use xlink:href="#STIXGeneral-Regular-70" transform="translate(94.399979 0)"/>
     <use xlink:href="#STIXGeneral-Regular-2c" transform="translate(144.399963 0)"/>
     <use xlink:href="#STIXGeneral-Regular-69" transform="translate(169.399948 0)"/>
     <use xlink:href="#STIXGeneral-Regular-6e" transform="translate(197.199936 0)"/>
    </g>
   </g>
   <g id="line2d_115">
    <g clip-path="url(#p7cb46217b4)">
     <use xlink:href="#m41cc652660" x="725.645876" y="307.714099" style="fill: #212529; stroke: #212529"/>
    </g>
   </g>
   <g id="text_45">
    <!-- exp,out -->
    <g style="fill: #212529" transform="translate(693.645876 321.714099) scale(0.12 -0.12)">
     <use xlink:href="#STIXGeneral-Regular-65"/>
     <use xlink:href="#STIXGeneral-Regular-78" transform="translate(44.399994 0)"/>
     <use xlink:href="#STIXGeneral-Regular-70" transform="translate(94.399979 0)"/>
     <use xlink:href="#STIXGeneral-Regular-2c" transform="translate(144.399963 0)"/>
     <use xlink:href="#STIXGeneral-Regular-6f" transform="translate(169.399948 0)"/>
     <use xlink:href="#STIXGeneral-Regular-75" transform="translate(219.399933 0)"/>
     <use xlink:href="#STIXGeneral-Regular-74" transform="translate(269.399918 0)"/>
    </g>
   </g>
   <g id="text_46">
    <!-- Tank water: 60.0°C -->
    <g style="fill: #fa5252" transform="translate(544.01778 192.133241) scale(0.11 -0.11)">
     <defs>
      <path id="STIXGeneral-Regular-77" d="M 4442 2880 
L 4442 2784 
Q 4346 2752 4301 2691 
Q 4256 2630 4179 2438 
L 3296 224 
Q 3168 -90 3117 -90 
Q 3085 -90 3062 -48 
Q 3040 -6 2963 186 
L 2381 1696 
L 1664 160 
Q 1549 -90 1504 -90 
Q 1446 -90 1338 192 
L 474 2381 
Q 378 2630 314 2700 
Q 250 2771 134 2784 
L 134 2880 
L 1286 2880 
L 1286 2784 
Q 1120 2765 1056 2720 
Q 992 2675 992 2573 
Q 992 2477 1030 2381 
L 1664 710 
L 2246 1984 
L 2118 2342 
Q 2029 2598 1942 2681 
Q 1856 2765 1677 2784 
L 1677 2880 
L 2976 2880 
L 2976 2784 
Q 2752 2752 2678 2707 
Q 2605 2662 2605 2560 
Q 2605 2458 2714 2176 
L 3251 742 
L 3827 2163 
Q 3936 2432 3936 2592 
Q 3936 2669 3875 2710 
Q 3814 2752 3654 2784 
L 3654 2880 
L 4442 2880 
z
" transform="scale(0.015625)"/>
      <path id="STIXGeneral-Regular-3a" d="M 1123 2832 
Q 1229 2726 1229 2579 
Q 1229 2432 1126 2329 
Q 1024 2227 877 2227 
Q 730 2227 624 2332 
Q 518 2438 518 2579 
Q 518 2733 620 2835 
Q 723 2938 877 2938 
Q 1018 2938 1123 2832 
z
M 1229 282 
Q 1229 141 1126 35 
Q 1024 -70 877 -70 
Q 730 -70 624 35 
Q 518 141 518 282 
Q 518 435 620 537 
Q 723 640 877 640 
Q 1018 640 1123 534 
Q 1229 429 1229 282 
z
" transform="scale(0.015625)"/>
     </defs>
     <use xlink:href="#STIXGeneral-Regular-54"/>
     <use xlink:href="#STIXGeneral-Regular-61" transform="translate(61.099991 0)"/>
     <use xlink:href="#STIXGeneral-Regular-6e" transform="translate(105.499985 0)"/>
     <use xlink:href="#STIXGeneral-Regular-6b" transform="translate(155.499969 0)"/>
     <use xlink:href="#STIXGeneral-Regular-20" transform="translate(205.499954 0)"/>
     <use xlink:href="#STIXGeneral-Regular-77" transform="translate(230.499939 0)"/>
     <use xlink:href="#STIXGeneral-Regular-61" transform="translate(302.699921 0)"/>
     <use xlink:href="#STIXGeneral-Regular-74" transform="translate(347.099915 0)"/>
     <use xlink:href="#STIXGeneral-Regular-65" transform="translate(374.899902 0)"/>
     <use xlink:href="#STIXGeneral-Regular-72" transform="translate(419.299896 0)"/>
     <use xlink:href="#STIXGeneral-Regular-3a" transform="translate(452.599884 0)"/>
     <use xlink:href="#STIXGeneral-Regular-20" transform="translate(480.399872 0)"/>
     <use xlink:href="#STIXGeneral-Regular-36" transform="translate(505.399857 0)"/>
     <use xlink:href="#STIXGeneral-Regular-30" transform="translate(555.399841 0)"/>
     <use xlink:href="#STIXGeneral-Regular-2e" transform="translate(605.399826 0)"/>
     <use xlink:href="#STIXGeneral-Regular-30" transform="translate(630.399811 0)"/>
     <use xlink:href="#STIXGeneral-Regular-b0" transform="translate(680.399796 0)"/>
     <use xlink:href="#STIXGeneral-Regular-43" transform="translate(720.39978 0)"/>
    </g>
   </g>
   <g id="text_47">
    <!-- Outdoor air: 12.0°C -->
    <g style="fill: #fd7e14" transform="translate(544.01778 301.232207) scale(0.11 -0.11)">
     <defs>
      <path id="STIXGeneral-Regular-4f" d="M 4403 2118 
Q 4403 1133 3820 521 
Q 3238 -90 2310 -90 
Q 1376 -90 797 524 
Q 218 1139 218 2138 
Q 218 3110 797 3718 
Q 1376 4326 2310 4326 
Q 3245 4326 3824 3702 
Q 4403 3078 4403 2118 
z
M 3674 2157 
Q 3674 2701 3520 3133 
Q 3366 3565 3091 3795 
Q 2733 4096 2304 4096 
Q 1760 4096 1389 3667 
Q 1184 3437 1065 3011 
Q 947 2586 947 2125 
Q 947 960 1523 429 
Q 1837 141 2317 141 
Q 2816 141 3142 448 
Q 3674 960 3674 2157 
z
" transform="scale(0.015625)"/>
     </defs>
     <use xlink:href="#STIXGeneral-Regular-4f"/>
     <use xlink:href="#STIXGeneral-Regular-75" transform="translate(72.199982 0)"/>
     <use xlink:href="#STIXGeneral-Regular-74" transform="translate(122.199966 0)"/>
     <use xlink:href="#STIXGeneral-Regular-64" transform="translate(149.999954 0)"/>
     <use xlink:href="#STIXGeneral-Regular-6f" transform="translate(199.999939 0)"/>
     <use xlink:href="#STIXGeneral-Regular-6f" transform="translate(249.999924 0)"/>
     <use xlink:href="#STIXGeneral-Regular-72" transform="translate(299.999908 0)"/>
     <use xlink:href="#STIXGeneral-Regular-20" transform="translate(333.299896 0)"/>
     <use xlink:href="#STIXGeneral-Regular-61" transform="translate(358.299881 0)"/>
     <use xlink:href="#STIXGeneral-Regular-69" transform="translate(402.699875 0)"/>
     <use xlink:href="#STIXGeneral-Regular-72" transform="translate(430.499863 0)"/>
     <use xlink:href="#STIXGeneral-Regular-3a" transform="translate(463.79985 0)"/>
     <use xlink:href="#STIXGeneral-Regular-20" transform="translate(491.599838 0)"/>
     <use xlink:href="#STIXGeneral-Regular-31" transform="translate(516.599823 0)"/>
     <use xlink:href="#STIXGeneral-Regular-32" transform="translate(566.599808 0)"/>
     <use xlink:href="#STIXGeneral-Regular-2e" transform="translate(616.599792 0)"/>
     <use xlink:href="#STIXGeneral-Regular-30" transform="translate(641.599777 0)"/>
     <use xlink:href="#STIXGeneral-Regular-b0" transform="translate(691.599762 0)"/>
     <use xlink:href="#STIXGeneral-Regular-43" transform="translate(731.599747 0)"/>
    </g>
   </g>
   <g id="text_48">
    <!-- b -->
    <g transform="translate(543.426623 40.472816) scale(0.18 -0.18)">
     <defs>
      <path id="STIXGeneral-Bold-62" d="M 1350 4326 
L 1350 2669 
Q 1690 3027 2131 3027 
Q 2662 3027 2998 2611 
Q 3334 2195 3334 1530 
Q 3334 806 2931 358 
Q 2528 -90 1888 -90 
Q 1440 -90 1043 275 
L 538 -83 
L 461 -83 
L 461 3802 
Q 461 3994 397 4061 
Q 333 4128 109 4173 
L 109 4326 
L 1350 4326 
z
M 1350 2304 
L 1350 621 
Q 1350 390 1472 252 
Q 1594 115 1792 115 
Q 2394 115 2394 1414 
Q 2394 2682 1798 2682 
Q 1638 2682 1536 2595 
Q 1434 2509 1350 2304 
z
" transform="scale(0.015625)"/>
     </defs>
     <use xlink:href="#STIXGeneral-Bold-62"/>
    </g>
   </g>
   <g id="legend_2">
    <g id="line2d_116">
     <path d="M 579.055197 33.648 
L 591.055197 33.648 
L 603.055197 33.648 
" style="fill: none; stroke: #4dabf7; stroke-width: 1.6; stroke-linecap: square"/>
    </g>
    <g id="text_49">
     <!-- Sat. liquid -->
     <g transform="translate(612.655197 37.848) scale(0.12 -0.12)">
      <use xlink:href="#STIXGeneral-Regular-53"/>
      <use xlink:href="#STIXGeneral-Regular-61" transform="translate(55.599991 0)"/>
      <use xlink:href="#STIXGeneral-Regular-74" transform="translate(99.999985 0)"/>
      <use xlink:href="#STIXGeneral-Regular-2e" transform="translate(127.799973 0)"/>
      <use xlink:href="#STIXGeneral-Regular-20" transform="translate(152.799957 0)"/>
      <use xlink:href="#STIXGeneral-Regular-6c" transform="translate(177.799942 0)"/>
      <use xlink:href="#STIXGeneral-Regular-69" transform="translate(205.59993 0)"/>
      <use xlink:href="#STIXGeneral-Regular-71" transform="translate(233.399918 0)"/>
      <use xlink:href="#STIXGeneral-Regular-75" transform="translate(283.399902 0)"/>
      <use xlink:href="#STIXGeneral-Regular-69" transform="translate(333.399887 0)"/>
      <use xlink:href="#STIXGeneral-Regular-64" transform="translate(361.199875 0)"/>
     </g>
    </g>
    <g id="line2d_117">
     <path d="M 685.997697 33.648 
L 697.997697 33.648 
L 709.997697 33.648 
" style="fill: none; stroke: #ff6b6b; stroke-width: 1.6; stroke-linecap: square"/>
    </g>
    <g id="text_50">
     <!-- Sat. vapor -->
     <g transform="translate(719.597697 37.848) scale(0.12 -0.12)">
      <use xlink:href="#STIXGeneral-Regular-53"/>
      <use xlink:href="#STIXGeneral-Regular-61" transform="translate(55.599991 0)"/>
      <use xlink:href="#STIXGeneral-Regular-74" transform="translate(99.999985 0)"/>
      <use xlink:href="#STIXGeneral-Regular-2e" transform="translate(127.799973 0)"/>
      <use xlink:href="#STIXGeneral-Regular-20" transform="translate(152.799957 0)"/>
      <use xlink:href="#STIXGeneral-Regular-76" transform="translate(177.799942 0)"/>
      <use xlink:href="#STIXGeneral-Regular-61" transform="translate(227.799927 0)"/>
      <use xlink:href="#STIXGeneral-Regular-70" transform="translate(272.199921 0)"/>
      <use xlink:href="#STIXGeneral-Regular-6f" transform="translate(322.199905 0)"/>
      <use xlink:href="#STIXGeneral-Regular-72" transform="translate(372.19989 0)"/>
     </g>
    </g>
    <g id="line2d_118">
     <path d="M 792.257697 33.648 
L 804.257697 33.648 
L 816.257697 33.648 
" style="fill: none; stroke-dasharray: 1.8,1.8; stroke-dashoffset: 0; stroke: #212529; stroke-width: 0.9"/>
    </g>
    <g id="text_51">
     <!-- Ref. cycle -->
     <g transform="translate(825.857697 37.848) scale(0.12 -0.12)">
      <use xlink:href="#STIXGeneral-Regular-52"/>
      <use xlink:href="#STIXGeneral-Regular-65" transform="translate(66.699997 0)"/>
      <use xlink:href="#STIXGeneral-Regular-66" transform="translate(111.099991 0)"/>
      <use xlink:href="#STIXGeneral-Regular-2e" transform="translate(144.399979 0)"/>
      <use xlink:href="#STIXGeneral-Regular-20" transform="translate(169.399963 0)"/>
      <use xlink:href="#STIXGeneral-Regular-63" transform="translate(194.399948 0)"/>
      <use xlink:href="#STIXGeneral-Regular-79" transform="translate(238.799942 0)"/>
      <use xlink:href="#STIXGeneral-Regular-63" transform="translate(288.799927 0)"/>
      <use xlink:href="#STIXGeneral-Regular-6c" transform="translate(333.199921 0)"/>
      <use xlink:href="#STIXGeneral-Regular-65" transform="translate(360.999908 0)"/>
     </g>
    </g>
   </g>
  </g>
 </g>
 <defs>
  <clipPath id="pa2c7ce62bb">
   <rect x="54.467739" y="18.648" width="413.809568" height="321.931375"/>
  </clipPath>
  <clipPath id="p7cb46217b4">
   <rect x="535.150432" y="18.648" width="413.809568" height="321.931375"/>
  </clipPath>
 </defs>
</svg>
