<?xml version="1.0" encoding="utf-8" standalone="no"?>
<!DOCTYPE svg PUBLIC "-//W3C//DTD SVG 1.1//EN"
  "http://www.w3.org/Graphics/SVG/1.1/DTD/svg11.dtd">
<svg xmlns:xlink="http://www.w3.org/1999/xlink" width="481.68pt" height="200.64pt" viewBox="0 0 481.68 200.64" xmlns="http://www.w3.org/2000/svg" version="1.1">
 <metadata>
  <rdf:RDF xmlns:dc="http://purl.org/dc/elements/1.1/" xmlns:cc="http://creativecommons.org/ns#" xmlns:rdf="http://www.w3.org/1999/02/22-rdf-syntax-ns#">
   <cc:Work>
    <dc:type rdf:resource="http://purl.org/dc/dcmitype/StillImage"/>
    <dc:date>2026-05-18T17:10:58.062986</dc:date>
    <dc:format>image/svg+xml</dc:format>
    <dc:creator>
     <cc:Agent>
      <dc:title>Matplotlib v3.10.9, https://matplotlib.org/</dc:title>
     </cc:Agent>
    </dc:creator>
   </cc:Work>
  </rdf:RDF>
 </metadata>
 <defs>
  <style type="text/css">*{stroke-linejoin: round; stroke-linecap: butt}</style>
 </defs>
 <g id="figure_1">
  <g id="patch_1">
   <path d="M 0 200.64 
L 481.68 200.64 
L 481.68 0 
L 0 0 
z
" style="fill: #ffffff"/>
  </g>
  <g id="axes_1">
   <g id="patch_2">
    <path d="M 38.3161 172.6147 
L 231.269401 172.6147 
L 231.269401 14.6928 
L 38.3161 14.6928 
z
" style="fill: #ffffff"/>
   </g>
   <g id="matplotlib.axis_1">
    <g id="xtick_1">
     <g id="line2d_1">
      <path d="M 38.3161 172.6147 
L 38.3161 14.6928 
" clip-path="url(#p89d4301bb1)" style="fill: none; stroke: #dee2e6; stroke-opacity: 0.25; stroke-width: -1; stroke-linecap: square"/>
     </g>
     <g id="line2d_2">
      <defs>
       <path id="ma34981a40d" d="M 0 0 
L 0 2 
" style="stroke: #000000; stroke-width: 0.3"/>
      </defs>
      <g>
       <use xlink:href="#ma34981a40d" x="38.3161" y="172.6147" style="stroke: #000000; stroke-width: 0.3"/>
      </g>
     </g>
     <g id="text_1">
      <!-- 0 -->
      <g transform="translate(36.099225 182.6147) scale(0.08 -0.08)">
       <defs>
        <path id="Roboto-Light-30" d="M 3172 1897 
Q 3172 934 2819 435 
Q 2466 -63 1778 -63 
Q 1103 -63 743 426 
Q 384 916 375 1850 
L 375 2666 
Q 375 3625 731 4119 
Q 1088 4613 1772 4613 
Q 2447 4613 2803 4136 
Q 3159 3659 3172 2731 
L 3172 1897 
z
M 2797 2713 
Q 2797 3494 2542 3894 
Q 2288 4294 1772 4294 
Q 1266 4294 1009 3903 
Q 753 3513 747 2750 
L 747 1856 
Q 747 1078 1011 665 
Q 1275 253 1778 253 
Q 2278 253 2536 656 
Q 2794 1059 2797 1838 
L 2797 2713 
z
" transform="scale(0.015625)"/>
       </defs>
       <use xlink:href="#Roboto-Light-30"/>
      </g>
     </g>
    </g>
    <g id="xtick_2">
     <g id="line2d_3">
      <path d="M 65.880857 172.6147 
L 65.880857 14.6928 
" clip-path="url(#p89d4301bb1)" style="fill: none; stroke: #dee2e6; stroke-opacity: 0.25; stroke-width: -1; stroke-linecap: square"/>
     </g>
     <g id="line2d_4">
      <g>
       <use xlink:href="#ma34981a40d" x="65.880857" y="172.6147" style="stroke: #000000; stroke-width: 0.3"/>
      </g>
     </g>
     <g id="text_2">
      <!-- 100 -->
      <g transform="translate(59.230232 182.6147) scale(0.08 -0.08)">
       <defs>
        <path id="Roboto-Light-31" d="M 2169 0 
L 1794 0 
L 1794 4100 
L 556 3641 
L 556 3991 
L 2106 4566 
L 2169 4566 
L 2169 0 
z
" transform="scale(0.015625)"/>
       </defs>
       <use xlink:href="#Roboto-Light-31"/>
       <use xlink:href="#Roboto-Light-30" transform="translate(55.419922 0)"/>
       <use xlink:href="#Roboto-Light-30" transform="translate(110.839844 0)"/>
      </g>
     </g>
    </g>
    <g id="xtick_3">
     <g id="line2d_5">
      <path d="M 93.445615 172.6147 
L 93.445615 14.6928 
" clip-path="url(#p89d4301bb1)" style="fill: none; stroke: #dee2e6; stroke-opacity: 0.25; stroke-width: -1; stroke-linecap: square"/>
     </g>
     <g id="line2d_6">
      <g>
       <use xlink:href="#ma34981a40d" x="93.445615" y="172.6147" style="stroke: #000000; stroke-width: 0.3"/>
      </g>
     </g>
     <g id="text_3">
      <!-- 200 -->
      <g transform="translate(86.79499 182.6147) scale(0.08 -0.08)">
       <defs>
        <path id="Roboto-Light-32" d="M 3278 0 
L 428 0 
L 428 288 
L 1988 2056 
Q 2375 2503 2525 2793 
Q 2675 3084 2675 3359 
Q 2675 3791 2422 4042 
Q 2169 4294 1725 4294 
Q 1266 4294 983 4000 
Q 700 3706 700 3238 
L 328 3238 
Q 328 3622 501 3937 
Q 675 4253 995 4433 
Q 1316 4613 1725 4613 
Q 2350 4613 2701 4284 
Q 3053 3956 3053 3391 
Q 3053 3072 2854 2694 
Q 2656 2316 2156 1750 
L 888 316 
L 3278 316 
L 3278 0 
z
" transform="scale(0.015625)"/>
       </defs>
       <use xlink:href="#Roboto-Light-32"/>
       <use xlink:href="#Roboto-Light-30" transform="translate(55.419922 0)"/>
       <use xlink:href="#Roboto-Light-30" transform="translate(110.839844 0)"/>
      </g>
     </g>
    </g>
    <g id="xtick_4">
     <g id="line2d_7">
      <path d="M 121.010372 172.6147 
L 121.010372 14.6928 
" clip-path="url(#p89d4301bb1)" style="fill: none; stroke: #dee2e6; stroke-opacity: 0.25; stroke-width: -1; stroke-linecap: square"/>
     </g>
     <g id="line2d_8">
      <g>
       <use xlink:href="#ma34981a40d" x="121.010372" y="172.6147" style="stroke: #000000; stroke-width: 0.3"/>
      </g>
     </g>
     <g id="text_4">
      <!-- 300 -->
      <g transform="translate(114.359747 182.6147) scale(0.08 -0.08)">
       <defs>
        <path id="Roboto-Light-33" d="M 1259 2478 
L 1647 2478 
Q 1969 2478 2209 2592 
Q 2450 2706 2576 2904 
Q 2703 3103 2703 3363 
Q 2703 3800 2456 4047 
Q 2209 4294 1747 4294 
Q 1309 4294 1029 4036 
Q 750 3778 750 3356 
L 375 3356 
Q 375 3709 553 4001 
Q 731 4294 1047 4453 
Q 1363 4613 1747 4613 
Q 2366 4613 2722 4275 
Q 3078 3938 3078 3350 
Q 3078 3022 2870 2745 
Q 2663 2469 2300 2331 
Q 2725 2213 2944 1923 
Q 3163 1634 3163 1234 
Q 3163 650 2781 293 
Q 2400 -63 1763 -63 
Q 1356 -63 1017 100 
Q 678 263 492 555 
Q 306 847 306 1234 
L 681 1234 
Q 681 800 984 526 
Q 1288 253 1763 253 
Q 2247 253 2517 501 
Q 2788 750 2788 1222 
Q 2788 1678 2495 1918 
Q 2203 2159 1634 2159 
L 1259 2159 
L 1259 2478 
z
" transform="scale(0.015625)"/>
       </defs>
       <use xlink:href="#Roboto-Light-33"/>
       <use xlink:href="#Roboto-Light-30" transform="translate(55.419922 0)"/>
       <use xlink:href="#Roboto-Light-30" transform="translate(110.839844 0)"/>
      </g>
     </g>
    </g>
    <g id="xtick_5">
     <g id="line2d_9">
      <path d="M 148.575129 172.6147 
L 148.575129 14.6928 
" clip-path="url(#p89d4301bb1)" style="fill: none; stroke: #dee2e6; stroke-opacity: 0.25; stroke-width: -1; stroke-linecap: square"/>
     </g>
     <g id="line2d_10">
      <g>
       <use xlink:href="#ma34981a40d" x="148.575129" y="172.6147" style="stroke: #000000; stroke-width: 0.3"/>
      </g>
     </g>
     <g id="text_5">
      <!-- 400 -->
      <g transform="translate(141.924504 182.6147) scale(0.08 -0.08)">
       <defs>
        <path id="Roboto-Light-34" d="M 2725 1466 
L 3434 1466 
L 3434 1150 
L 2725 1150 
L 2725 0 
L 2350 0 
L 2350 1150 
L 209 1150 
L 209 1363 
L 2316 4550 
L 2725 4550 
L 2725 1466 
z
M 669 1466 
L 2350 1466 
L 2350 4066 
L 2184 3778 
L 669 1466 
z
" transform="scale(0.015625)"/>
       </defs>
       <use xlink:href="#Roboto-Light-34"/>
       <use xlink:href="#Roboto-Light-30" transform="translate(55.419922 0)"/>
       <use xlink:href="#Roboto-Light-30" transform="translate(110.839844 0)"/>
      </g>
     </g>
    </g>
    <g id="xtick_6">
     <g id="line2d_11">
      <path d="M 176.139887 172.6147 
L 176.139887 14.6928 
" clip-path="url(#p89d4301bb1)" style="fill: none; stroke: #dee2e6; stroke-opacity: 0.25; stroke-width: -1; stroke-linecap: square"/>
     </g>
     <g id="line2d_12">
      <g>
       <use xlink:href="#ma34981a40d" x="176.139887" y="172.6147" style="stroke: #000000; stroke-width: 0.3"/>
      </g>
     </g>
     <g id="text_6">
      <!-- 500 -->
      <g transform="translate(169.489262 182.6147) scale(0.08 -0.08)">
       <defs>
        <path id="Roboto-Light-35" d="M 681 2331 
L 903 4550 
L 3178 4550 
L 3178 4203 
L 1225 4203 
L 1066 2666 
Q 1431 2916 1922 2916 
Q 2538 2916 2903 2516 
Q 3269 2116 3269 1450 
Q 3269 731 2912 334 
Q 2556 -63 1909 -63 
Q 1316 -63 947 268 
Q 578 600 525 1197 
L 884 1197 
Q 938 731 1200 492 
Q 1463 253 1909 253 
Q 2397 253 2645 562 
Q 2894 872 2894 1444 
Q 2894 1944 2616 2259 
Q 2338 2575 1856 2575 
Q 1591 2575 1394 2508 
Q 1197 2441 978 2247 
L 681 2331 
z
" transform="scale(0.015625)"/>
       </defs>
       <use xlink:href="#Roboto-Light-35"/>
       <use xlink:href="#Roboto-Light-30" transform="translate(55.419922 0)"/>
       <use xlink:href="#Roboto-Light-30" transform="translate(110.839844 0)"/>
      </g>
     </g>
    </g>
    <g id="xtick_7">
     <g id="line2d_13">
      <path d="M 203.704644 172.6147 
L 203.704644 14.6928 
" clip-path="url(#p89d4301bb1)" style="fill: none; stroke: #dee2e6; stroke-opacity: 0.25; stroke-width: -1; stroke-linecap: square"/>
     </g>
     <g id="line2d_14">
      <g>
       <use xlink:href="#ma34981a40d" x="203.704644" y="172.6147" style="stroke: #000000; stroke-width: 0.3"/>
      </g>
     </g>
     <g id="text_7">
      <!-- 600 -->
      <g transform="translate(197.054019 182.6147) scale(0.08 -0.08)">
       <defs>
        <path id="Roboto-Light-36" d="M 2634 4584 
L 2634 4256 
L 2591 4256 
Q 1775 4256 1306 3776 
Q 838 3297 788 2444 
Q 975 2703 1265 2845 
Q 1556 2988 1916 2988 
Q 2516 2988 2870 2573 
Q 3225 2159 3225 1491 
Q 3225 1047 3059 690 
Q 2894 334 2584 135 
Q 2275 -63 1878 -63 
Q 1225 -63 815 410 
Q 406 884 406 1634 
L 406 2009 
Q 406 3231 962 3901 
Q 1519 4572 2541 4584 
L 2634 4584 
z
M 1856 2666 
Q 1500 2666 1192 2455 
Q 884 2244 781 1919 
L 781 1600 
Q 781 1006 1086 631 
Q 1391 256 1878 256 
Q 2316 256 2586 603 
Q 2856 950 2856 1478 
Q 2856 2016 2586 2341 
Q 2316 2666 1856 2666 
z
" transform="scale(0.015625)"/>
       </defs>
       <use xlink:href="#Roboto-Light-36"/>
       <use xlink:href="#Roboto-Light-30" transform="translate(55.419922 0)"/>
       <use xlink:href="#Roboto-Light-30" transform="translate(110.839844 0)"/>
      </g>
     </g>
    </g>
    <g id="xtick_8">
     <g id="line2d_15">
      <path d="M 231.269401 172.6147 
L 231.269401 14.6928 
" clip-path="url(#p89d4301bb1)" style="fill: none; stroke: #dee2e6; stroke-opacity: 0.25; stroke-width: -1; stroke-linecap: square"/>
     </g>
     <g id="line2d_16">
      <g>
       <use xlink:href="#ma34981a40d" x="231.269401" y="172.6147" style="stroke: #000000; stroke-width: 0.3"/>
      </g>
     </g>
     <g id="text_8">
      <!-- 700 -->
      <g transform="translate(224.618776 182.6147) scale(0.08 -0.08)">
       <defs>
        <path id="Roboto-Light-37" d="M 3231 4334 
L 1288 0 
L 897 0 
L 2828 4231 
L 241 4231 
L 241 4550 
L 3231 4550 
L 3231 4334 
z
" transform="scale(0.015625)"/>
       </defs>
       <use xlink:href="#Roboto-Light-37"/>
       <use xlink:href="#Roboto-Light-30" transform="translate(55.419922 0)"/>
       <use xlink:href="#Roboto-Light-30" transform="translate(110.839844 0)"/>
      </g>
     </g>
    </g>
    <g id="text_9">
     <!-- Enthalpy [kJ/kg] -->
     <g transform="translate(106.252751 194.7397) scale(0.08 -0.08)">
      <defs>
       <path id="Roboto-Regular-45" d="M 3100 2103 
L 1128 2103 
L 1128 491 
L 3419 491 
L 3419 0 
L 528 0 
L 528 4550 
L 3388 4550 
L 3388 4056 
L 1128 4056 
L 1128 2594 
L 3100 2594 
L 3100 2103 
z
" transform="scale(0.015625)"/>
       <path id="Roboto-Regular-6e" d="M 984 3381 
L 1003 2956 
Q 1391 3444 2016 3444 
Q 3088 3444 3097 2234 
L 3097 0 
L 2519 0 
L 2519 2238 
Q 2516 2603 2352 2778 
Q 2188 2953 1841 2953 
Q 1559 2953 1346 2803 
Q 1134 2653 1016 2409 
L 1016 0 
L 438 0 
L 438 3381 
L 984 3381 
z
" transform="scale(0.015625)"/>
       <path id="Roboto-Regular-74" d="M 1222 4200 
L 1222 3381 
L 1853 3381 
L 1853 2934 
L 1222 2934 
L 1222 838 
Q 1222 634 1306 532 
Q 1391 431 1594 431 
Q 1694 431 1869 469 
L 1869 0 
Q 1641 -63 1425 -63 
Q 1038 -63 841 171 
Q 644 406 644 838 
L 644 2934 
L 28 2934 
L 28 3381 
L 644 3381 
L 644 4200 
L 1222 4200 
z
" transform="scale(0.015625)"/>
       <path id="Roboto-Regular-68" d="M 1016 2972 
Q 1400 3444 2016 3444 
Q 3088 3444 3097 2234 
L 3097 0 
L 2519 0 
L 2519 2238 
Q 2516 2603 2352 2778 
Q 2188 2953 1841 2953 
Q 1559 2953 1346 2803 
Q 1134 2653 1016 2409 
L 1016 0 
L 438 0 
L 438 4800 
L 1016 4800 
L 1016 2972 
z
" transform="scale(0.015625)"/>
       <path id="Roboto-Regular-61" d="M 2525 0 
Q 2475 100 2444 356 
Q 2041 -63 1481 -63 
Q 981 -63 661 220 
Q 341 503 341 938 
Q 341 1466 742 1758 
Q 1144 2050 1872 2050 
L 2434 2050 
L 2434 2316 
Q 2434 2619 2253 2798 
Q 2072 2978 1719 2978 
Q 1409 2978 1200 2822 
Q 991 2666 991 2444 
L 409 2444 
Q 409 2697 589 2933 
Q 769 3169 1076 3306 
Q 1384 3444 1753 3444 
Q 2338 3444 2669 3151 
Q 3000 2859 3013 2347 
L 3013 791 
Q 3013 325 3131 50 
L 3131 0 
L 2525 0 
z
M 1566 441 
Q 1838 441 2081 581 
Q 2325 722 2434 947 
L 2434 1641 
L 1981 1641 
Q 919 1641 919 1019 
Q 919 747 1100 594 
Q 1281 441 1566 441 
z
" transform="scale(0.015625)"/>
       <path id="Roboto-Regular-6c" d="M 1066 0 
L 488 0 
L 488 4800 
L 1066 4800 
L 1066 0 
z
" transform="scale(0.015625)"/>
       <path id="Roboto-Regular-70" d="M 3294 1653 
Q 3294 881 2941 409 
Q 2588 -63 1984 -63 
Q 1369 -63 1016 328 
L 1016 -1300 
L 438 -1300 
L 438 3381 
L 966 3381 
L 994 3006 
Q 1347 3444 1975 3444 
Q 2584 3444 2939 2984 
Q 3294 2525 3294 1706 
L 3294 1653 
z
M 2716 1719 
Q 2716 2291 2472 2622 
Q 2228 2953 1803 2953 
Q 1278 2953 1016 2488 
L 1016 872 
Q 1275 409 1809 409 
Q 2225 409 2470 739 
Q 2716 1069 2716 1719 
z
" transform="scale(0.015625)"/>
       <path id="Roboto-Regular-79" d="M 1544 847 
L 2331 3381 
L 2950 3381 
L 1591 -522 
Q 1275 -1366 588 -1366 
L 478 -1356 
L 263 -1316 
L 263 -847 
L 419 -859 
Q 713 -859 877 -740 
Q 1041 -622 1147 -306 
L 1275 38 
L 69 3381 
L 700 3381 
L 1544 847 
z
" transform="scale(0.015625)"/>
       <path id="Roboto-Regular-20" transform="scale(0.015625)"/>
       <path id="Roboto-Regular-5b" d="M 1634 4725 
L 1038 4725 
L 1038 -500 
L 1634 -500 
L 1634 -975 
L 456 -975 
L 456 5200 
L 1634 5200 
L 1634 4725 
z
" transform="scale(0.015625)"/>
       <path id="Roboto-Regular-6b" d="M 1381 1566 
L 1019 1188 
L 1019 0 
L 441 0 
L 441 4800 
L 1019 4800 
L 1019 1897 
L 1328 2269 
L 2381 3381 
L 3084 3381 
L 1769 1969 
L 3238 0 
L 2559 0 
L 1381 1566 
z
" transform="scale(0.015625)"/>
       <path id="Roboto-Regular-4a" d="M 2434 4550 
L 3038 4550 
L 3038 1328 
Q 3038 675 2645 306 
Q 2253 -63 1600 -63 
Q 922 -63 544 284 
Q 166 631 166 1256 
L 766 1256 
Q 766 866 980 647 
Q 1194 428 1600 428 
Q 1972 428 2201 662 
Q 2431 897 2434 1319 
L 2434 4550 
z
" transform="scale(0.015625)"/>
       <path id="Roboto-Regular-2f" d="M 553 -391 
L 56 -391 
L 1956 4550 
L 2450 4550 
L 553 -391 
z
" transform="scale(0.015625)"/>
       <path id="Roboto-Regular-67" d="M 300 1719 
Q 300 2509 665 2976 
Q 1031 3444 1634 3444 
Q 2253 3444 2600 3006 
L 2628 3381 
L 3156 3381 
L 3156 81 
Q 3156 -575 2767 -953 
Q 2378 -1331 1722 -1331 
Q 1356 -1331 1006 -1175 
Q 656 -1019 472 -747 
L 772 -400 
Q 1144 -859 1681 -859 
Q 2103 -859 2339 -621 
Q 2575 -384 2575 47 
L 2575 338 
Q 2228 -63 1628 -63 
Q 1034 -63 667 415 
Q 300 894 300 1719 
z
M 881 1653 
Q 881 1081 1115 754 
Q 1350 428 1772 428 
Q 2319 428 2575 925 
L 2575 2469 
Q 2309 2953 1778 2953 
Q 1356 2953 1118 2625 
Q 881 2297 881 1653 
z
" transform="scale(0.015625)"/>
       <path id="Roboto-Regular-5d" d="M 28 5200 
L 1209 5200 
L 1209 -975 
L 28 -975 
L 28 -500 
L 631 -500 
L 631 4725 
L 28 4725 
L 28 5200 
z
" transform="scale(0.015625)"/>
      </defs>
      <use xlink:href="#Roboto-Regular-45"/>
      <use xlink:href="#Roboto-Regular-6e" transform="translate(56.835938 0)"/>
      <use xlink:href="#Roboto-Regular-74" transform="translate(112.011719 0)"/>
      <use xlink:href="#Roboto-Regular-68" transform="translate(144.677734 0)"/>
      <use xlink:href="#Roboto-Regular-61" transform="translate(199.755859 0)"/>
      <use xlink:href="#Roboto-Regular-6c" transform="translate(254.150391 0)"/>
      <use xlink:href="#Roboto-Regular-70" transform="translate(278.417969 0)"/>
      <use xlink:href="#Roboto-Regular-79" transform="translate(334.521484 0)"/>
      <use xlink:href="#Roboto-Regular-20" transform="translate(381.835938 0)"/>
      <use xlink:href="#Roboto-Regular-5b" transform="translate(406.591797 0)"/>
      <use xlink:href="#Roboto-Regular-6b" transform="translate(433.105469 0)"/>
      <use xlink:href="#Roboto-Regular-4a" transform="translate(483.789062 0)"/>
      <use xlink:href="#Roboto-Regular-2f" transform="translate(538.964844 0)"/>
      <use xlink:href="#Roboto-Regular-6b" transform="translate(580.175781 0)"/>
      <use xlink:href="#Roboto-Regular-67" transform="translate(630.859375 0)"/>
      <use xlink:href="#Roboto-Regular-5d" transform="translate(686.962891 0)"/>
     </g>
    </g>
   </g>
   <g id="matplotlib.axis_2">
    <g id="ytick_1">
     <g id="line2d_17">
      <path d="M 38.3161 172.6147 
L 231.269401 172.6147 
" clip-path="url(#p89d4301bb1)" style="fill: none; stroke: #dee2e6; stroke-opacity: 0.25; stroke-width: -1; stroke-linecap: square"/>
     </g>
     <g id="line2d_18">
      <defs>
       <path id="m033e7cd914" d="M 0 0 
L -2 0 
" style="stroke: #000000; stroke-width: 0.3"/>
      </defs>
      <g>
       <use xlink:href="#m033e7cd914" x="38.3161" y="172.6147" style="stroke: #000000; stroke-width: 0.3"/>
      </g>
     </g>
     <g id="text_10">
      <!-- $\mathdefault{10^{2}}$ -->
      <g transform="translate(22.9961 175.6147) scale(0.08 -0.08)">
       <use xlink:href="#Roboto-Light-31" transform="translate(0 0.565625)"/>
       <use xlink:href="#Roboto-Light-30" transform="translate(55.419922 0.565625)"/>
       <use xlink:href="#Roboto-Light-32" transform="translate(111.764336 37.545313) scale(0.7)"/>
      </g>
     </g>
    </g>
    <g id="ytick_2">
     <g id="line2d_19">
      <path d="M 38.3161 93.65375 
L 231.269401 93.65375 
" clip-path="url(#p89d4301bb1)" style="fill: none; stroke: #dee2e6; stroke-opacity: 0.25; stroke-width: -1; stroke-linecap: square"/>
     </g>
     <g id="line2d_20">
      <g>
       <use xlink:href="#m033e7cd914" x="38.3161" y="93.65375" style="stroke: #000000; stroke-width: 0.3"/>
      </g>
     </g>
     <g id="text_11">
      <!-- $\mathdefault{10^{3}}$ -->
      <g transform="translate(22.9961 96.65375) scale(0.08 -0.08)">
       <use xlink:href="#Roboto-Light-31" transform="translate(0 0.565625)"/>
       <use xlink:href="#Roboto-Light-30" transform="translate(55.419922 0.565625)"/>
       <use xlink:href="#Roboto-Light-33" transform="translate(111.764336 37.545313) scale(0.7)"/>
      </g>
     </g>
    </g>
    <g id="ytick_3">
     <g id="line2d_21">
      <path d="M 38.3161 14.6928 
L 231.269401 14.6928 
" clip-path="url(#p89d4301bb1)" style="fill: none; stroke: #dee2e6; stroke-opacity: 0.25; stroke-width: -1; stroke-linecap: square"/>
     </g>
     <g id="line2d_22">
      <g>
       <use xlink:href="#m033e7cd914" x="38.3161" y="14.6928" style="stroke: #000000; stroke-width: 0.3"/>
      </g>
     </g>
     <g id="text_12">
      <!-- $\mathdefault{10^{4}}$ -->
      <g transform="translate(22.9961 17.6928) scale(0.08 -0.08)">
       <use xlink:href="#Roboto-Light-31" transform="translate(0 0.254688)"/>
       <use xlink:href="#Roboto-Light-30" transform="translate(55.419922 0.254688)"/>
       <use xlink:href="#Roboto-Light-34" transform="translate(111.764336 37.234375) scale(0.7)"/>
      </g>
     </g>
    </g>
    <g id="ytick_4">
     <g id="line2d_23">
      <path d="M 38.3161 148.845086 
L 231.269401 148.845086 
" clip-path="url(#p89d4301bb1)" style="fill: none; stroke: #dee2e6; stroke-opacity: 0.25; stroke-width: -1; stroke-linecap: square"/>
     </g>
     <g id="line2d_24">
      <defs>
       <path id="m16ce3c1104" d="M 0 0 
L -1 0 
" style="stroke: #000000; stroke-width: 0.2"/>
      </defs>
      <g>
       <use xlink:href="#m16ce3c1104" x="38.3161" y="148.845086" style="stroke: #000000; stroke-width: 0.2"/>
      </g>
     </g>
    </g>
    <g id="ytick_5">
     <g id="line2d_25">
      <path d="M 38.3161 134.940752 
L 231.269401 134.940752 
" clip-path="url(#p89d4301bb1)" style="fill: none; stroke: #dee2e6; stroke-opacity: 0.25; stroke-width: -1; stroke-linecap: square"/>
     </g>
     <g id="line2d_26">
      <g>
       <use xlink:href="#m16ce3c1104" x="38.3161" y="134.940752" style="stroke: #000000; stroke-width: 0.2"/>
      </g>
     </g>
    </g>
    <g id="ytick_6">
     <g id="line2d_27">
      <path d="M 38.3161 125.075471 
L 231.269401 125.075471 
" clip-path="url(#p89d4301bb1)" style="fill: none; stroke: #dee2e6; stroke-opacity: 0.25; stroke-width: -1; stroke-linecap: square"/>
     </g>
     <g id="line2d_28">
      <g>
       <use xlink:href="#m16ce3c1104" x="38.3161" y="125.075471" style="stroke: #000000; stroke-width: 0.2"/>
      </g>
     </g>
    </g>
    <g id="ytick_7">
     <g id="line2d_29">
      <path d="M 38.3161 117.423364 
L 231.269401 117.423364 
" clip-path="url(#p89d4301bb1)" style="fill: none; stroke: #dee2e6; stroke-opacity: 0.25; stroke-width: -1; stroke-linecap: square"/>
     </g>
     <g id="line2d_30">
      <g>
       <use xlink:href="#m16ce3c1104" x="38.3161" y="117.423364" style="stroke: #000000; stroke-width: 0.2"/>
      </g>
     </g>
    </g>
    <g id="ytick_8">
     <g id="line2d_31">
      <path d="M 38.3161 111.171138 
L 231.269401 111.171138 
" clip-path="url(#p89d4301bb1)" style="fill: none; stroke: #dee2e6; stroke-opacity: 0.25; stroke-width: -1; stroke-linecap: square"/>
     </g>
     <g id="line2d_32">
      <g>
       <use xlink:href="#m16ce3c1104" x="38.3161" y="111.171138" style="stroke: #000000; stroke-width: 0.2"/>
      </g>
     </g>
    </g>
    <g id="ytick_9">
     <g id="line2d_33">
      <path d="M 38.3161 105.884956 
L 231.269401 105.884956 
" clip-path="url(#p89d4301bb1)" style="fill: none; stroke: #dee2e6; stroke-opacity: 0.25; stroke-width: -1; stroke-linecap: square"/>
     </g>
     <g id="line2d_34">
      <g>
       <use xlink:href="#m16ce3c1104" x="38.3161" y="105.884956" style="stroke: #000000; stroke-width: 0.2"/>
      </g>
     </g>
    </g>
    <g id="ytick_10">
     <g id="line2d_35">
      <path d="M 38.3161 101.305857 
L 231.269401 101.305857 
" clip-path="url(#p89d4301bb1)" style="fill: none; stroke: #dee2e6; stroke-opacity: 0.25; stroke-width: -1; stroke-linecap: square"/>
     </g>
     <g id="line2d_36">
      <g>
       <use xlink:href="#m16ce3c1104" x="38.3161" y="101.305857" style="stroke: #000000; stroke-width: 0.2"/>
      </g>
     </g>
    </g>
    <g id="ytick_11">
     <g id="line2d_37">
      <path d="M 38.3161 97.266805 
L 231.269401 97.266805 
" clip-path="url(#p89d4301bb1)" style="fill: none; stroke: #dee2e6; stroke-opacity: 0.25; stroke-width: -1; stroke-linecap: square"/>
     </g>
     <g id="line2d_38">
      <g>
       <use xlink:href="#m16ce3c1104" x="38.3161" y="97.266805" style="stroke: #000000; stroke-width: 0.2"/>
      </g>
     </g>
    </g>
    <g id="ytick_12">
     <g id="line2d_39">
      <path d="M 38.3161 69.884136 
L 231.269401 69.884136 
" clip-path="url(#p89d4301bb1)" style="fill: none; stroke: #dee2e6; stroke-opacity: 0.25; stroke-width: -1; stroke-linecap: square"/>
     </g>
     <g id="line2d_40">
      <g>
       <use xlink:href="#m16ce3c1104" x="38.3161" y="69.884136" style="stroke: #000000; stroke-width: 0.2"/>
      </g>
     </g>
    </g>
    <g id="ytick_13">
     <g id="line2d_41">
      <path d="M 38.3161 55.979802 
L 231.269401 55.979802 
" clip-path="url(#p89d4301bb1)" style="fill: none; stroke: #dee2e6; stroke-opacity: 0.25; stroke-width: -1; stroke-linecap: square"/>
     </g>
     <g id="line2d_42">
      <g>
       <use xlink:href="#m16ce3c1104" x="38.3161" y="55.979802" style="stroke: #000000; stroke-width: 0.2"/>
      </g>
     </g>
    </g>
    <g id="ytick_14">
     <g id="line2d_43">
      <path d="M 38.3161 46.114521 
L 231.269401 46.114521 
" clip-path="url(#p89d4301bb1)" style="fill: none; stroke: #dee2e6; stroke-opacity: 0.25; stroke-width: -1; stroke-linecap: square"/>
     </g>
     <g id="line2d_44">
      <g>
       <use xlink:href="#m16ce3c1104" x="38.3161" y="46.114521" style="stroke: #000000; stroke-width: 0.2"/>
      </g>
     </g>
    </g>
    <g id="ytick_15">
     <g id="line2d_45">
      <path d="M 38.3161 38.462414 
L 231.269401 38.462414 
" clip-path="url(#p89d4301bb1)" style="fill: none; stroke: #dee2e6; stroke-opacity: 0.25; stroke-width: -1; stroke-linecap: square"/>
     </g>
     <g id="line2d_46">
      <g>
       <use xlink:href="#m16ce3c1104" x="38.3161" y="38.462414" style="stroke: #000000; stroke-width: 0.2"/>
      </g>
     </g>
    </g>
    <g id="ytick_16">
     <g id="line2d_47">
      <path d="M 38.3161 32.210188 
L 231.269401 32.210188 
" clip-path="url(#p89d4301bb1)" style="fill: none; stroke: #dee2e6; stroke-opacity: 0.25; stroke-width: -1; stroke-linecap: square"/>
     </g>
     <g id="line2d_48">
      <g>
       <use xlink:href="#m16ce3c1104" x="38.3161" y="32.210188" style="stroke: #000000; stroke-width: 0.2"/>
      </g>
     </g>
    </g>
    <g id="ytick_17">
     <g id="line2d_49">
      <path d="M 38.3161 26.924006 
L 231.269401 26.924006 
" clip-path="url(#p89d4301bb1)" style="fill: none; stroke: #dee2e6; stroke-opacity: 0.25; stroke-width: -1; stroke-linecap: square"/>
     </g>
     <g id="line2d_50">
      <g>
       <use xlink:href="#m16ce3c1104" x="38.3161" y="26.924006" style="stroke: #000000; stroke-width: 0.2"/>
      </g>
     </g>
    </g>
    <g id="ytick_18">
     <g id="line2d_51">
      <path d="M 38.3161 22.344907 
L 231.269401 22.344907 
" clip-path="url(#p89d4301bb1)" style="fill: none; stroke: #dee2e6; stroke-opacity: 0.25; stroke-width: -1; stroke-linecap: square"/>
     </g>
     <g id="line2d_52">
      <g>
       <use xlink:href="#m16ce3c1104" x="38.3161" y="22.344907" style="stroke: #000000; stroke-width: 0.2"/>
      </g>
     </g>
    </g>
    <g id="ytick_19">
     <g id="line2d_53">
      <path d="M 38.3161 18.305855 
L 231.269401 18.305855 
" clip-path="url(#p89d4301bb1)" style="fill: none; stroke: #dee2e6; stroke-opacity: 0.25; stroke-width: -1; stroke-linecap: square"/>
     </g>
     <g id="line2d_54">
      <g>
       <use xlink:href="#m16ce3c1104" x="38.3161" y="18.305855" style="stroke: #000000; stroke-width: 0.2"/>
      </g>
     </g>
    </g>
    <g id="text_13">
     <!-- Pressure [kPa] -->
     <g transform="translate(17.3711 119.291875) rotate(-90) scale(0.08 -0.08)">
      <defs>
       <path id="Roboto-Regular-50" d="M 1128 1781 
L 1128 0 
L 528 0 
L 528 4550 
L 2206 4550 
Q 2953 4550 3376 4169 
Q 3800 3788 3800 3159 
Q 3800 2497 3386 2139 
Q 2972 1781 2200 1781 
L 1128 1781 
z
M 1128 2272 
L 2206 2272 
Q 2688 2272 2944 2498 
Q 3200 2725 3200 3153 
Q 3200 3559 2944 3803 
Q 2688 4047 2241 4056 
L 1128 4056 
L 1128 2272 
z
" transform="scale(0.015625)"/>
       <path id="Roboto-Regular-72" d="M 2072 2863 
Q 1941 2884 1788 2884 
Q 1219 2884 1016 2400 
L 1016 0 
L 438 0 
L 438 3381 
L 1000 3381 
L 1009 2991 
Q 1294 3444 1816 3444 
Q 1984 3444 2072 3400 
L 2072 2863 
z
" transform="scale(0.015625)"/>
       <path id="Roboto-Regular-65" d="M 1841 -63 
Q 1153 -63 722 389 
Q 291 841 291 1597 
L 291 1703 
Q 291 2206 483 2601 
Q 675 2997 1020 3220 
Q 1366 3444 1769 3444 
Q 2428 3444 2793 3009 
Q 3159 2575 3159 1766 
L 3159 1525 
L 869 1525 
Q 881 1025 1161 717 
Q 1441 409 1872 409 
Q 2178 409 2390 534 
Q 2603 659 2763 866 
L 3116 591 
Q 2691 -63 1841 -63 
z
M 1769 2969 
Q 1419 2969 1181 2714 
Q 944 2459 888 2000 
L 2581 2000 
L 2581 2044 
Q 2556 2484 2343 2726 
Q 2131 2969 1769 2969 
z
" transform="scale(0.015625)"/>
       <path id="Roboto-Regular-73" d="M 2406 897 
Q 2406 1131 2229 1261 
Q 2053 1391 1614 1484 
Q 1175 1578 917 1709 
Q 659 1841 536 2022 
Q 413 2203 413 2453 
Q 413 2869 764 3156 
Q 1116 3444 1663 3444 
Q 2238 3444 2595 3147 
Q 2953 2850 2953 2388 
L 2372 2388 
Q 2372 2625 2170 2797 
Q 1969 2969 1663 2969 
Q 1347 2969 1169 2831 
Q 991 2694 991 2472 
Q 991 2263 1156 2156 
Q 1322 2050 1755 1953 
Q 2188 1856 2456 1722 
Q 2725 1588 2854 1398 
Q 2984 1209 2984 938 
Q 2984 484 2621 210 
Q 2259 -63 1681 -63 
Q 1275 -63 962 81 
Q 650 225 473 483 
Q 297 741 297 1041 
L 875 1041 
Q 891 750 1108 579 
Q 1325 409 1681 409 
Q 2009 409 2207 542 
Q 2406 675 2406 897 
z
" transform="scale(0.015625)"/>
       <path id="Roboto-Regular-75" d="M 2525 334 
Q 2188 -63 1534 -63 
Q 994 -63 711 251 
Q 428 566 425 1181 
L 425 3381 
L 1003 3381 
L 1003 1197 
Q 1003 428 1628 428 
Q 2291 428 2509 922 
L 2509 3381 
L 3088 3381 
L 3088 0 
L 2538 0 
L 2525 334 
z
" transform="scale(0.015625)"/>
      </defs>
      <use xlink:href="#Roboto-Regular-50"/>
      <use xlink:href="#Roboto-Regular-72" transform="translate(63.085938 0)"/>
      <use xlink:href="#Roboto-Regular-65" transform="translate(96.923828 0)"/>
      <use xlink:href="#Roboto-Regular-73" transform="translate(149.902344 0)"/>
      <use xlink:href="#Roboto-Regular-73" transform="translate(201.464844 0)"/>
      <use xlink:href="#Roboto-Regular-75" transform="translate(253.027344 0)"/>
      <use xlink:href="#Roboto-Regular-72" transform="translate(308.154297 0)"/>
      <use xlink:href="#Roboto-Regular-65" transform="translate(341.992188 0)"/>
      <use xlink:href="#Roboto-Regular-20" transform="translate(394.970703 0)"/>
      <use xlink:href="#Roboto-Regular-5b" transform="translate(419.726562 0)"/>
      <use xlink:href="#Roboto-Regular-6b" transform="translate(446.240234 0)"/>
      <use xlink:href="#Roboto-Regular-50" transform="translate(496.923828 0)"/>
      <use xlink:href="#Roboto-Regular-61" transform="translate(560.009766 0)"/>
      <use xlink:href="#Roboto-Regular-5d" transform="translate(614.404297 0)"/>
     </g>
    </g>
   </g>
   <g id="line2d_55">
    <path d="M 69.247135 174.80282 
L 72.140491 163.487952 
L 75.348489 151.876492 
L 78.588083 141.050778 
L 81.864986 130.930162 
L 85.185527 121.443681 
L 88.556851 112.528683 
L 91.987183 104.129658 
L 95.486227 96.197242 
L 98.736639 89.353681 
L 102.064399 82.829406 
L 105.483211 76.597216 
L 109.010911 70.632158 
L 112.671663 64.911117 
L 116.108202 59.952851 
L 119.717074 55.159434 
L 123.115329 51.024833 
L 126.28824 47.495562 
L 129.21352 44.529922 
L 132.414952 41.613036 
L 135.409255 39.214157 
L 138.165903 37.311334 
L 140.62541 35.890038 
L 142.652682 34.94275 
L 143.916679 34.468165 
L 145.582714 33.991991 
L 149.506765 33.512225 
L 152.532436 33.475514 
L 152.532436 33.475514 
" clip-path="url(#p89d4301bb1)" style="fill: none; stroke: #339af0; stroke-width: 2; stroke-linecap: square"/>
   </g>
   <g id="line2d_56">
    <path d="M 174.951997 174.80282 
L 179.395533 117.324054 
L 180.265604 102.654051 
L 180.684671 92.051183 
L 180.814534 83.46826 
L 180.701693 75.989084 
L 180.401683 70.04944 
L 179.938179 64.911117 
L 179.340185 60.495353 
L 178.527654 56.21116 
L 177.597621 52.562119 
L 176.59451 49.502661 
L 175.573992 46.997642 
L 174.336543 44.529922 
L 173.141743 42.580328 
L 171.698873 40.650348 
L 170.391126 39.214157 
L 168.801084 37.785975 
L 167.50902 36.837229 
L 165.92462 35.890038 
L 163.827349 34.94275 
L 162.406268 34.468165 
L 160.410538 33.991991 
L 155.558106 33.512225 
L 152.532436 33.475514 
L 152.532436 33.475514 
" clip-path="url(#p89d4301bb1)" style="fill: none; stroke: #ff6b6b; stroke-width: 2; stroke-linecap: square"/>
   </g>
   <g id="line2d_57">
    <path d="M 180.271046 102.544188 
L 181.922214 102.544188 
L 207.466961 44.300116 
L 174.206925 44.300116 
L 129.452512 44.300116 
L 127.141317 44.300116 
L 127.141317 102.544188 
L 180.271046 102.544188 
" clip-path="url(#p89d4301bb1)" style="fill: none; stroke-dasharray: 2,2; stroke-dashoffset: 0; stroke: #343a40"/>
   </g>
   <g id="patch_3">
    <path d="M 38.3161 172.6147 
L 38.3161 14.6928 
" style="fill: none; stroke: #000000; stroke-width: 0.3; stroke-linejoin: miter; stroke-linecap: square"/>
   </g>
   <g id="patch_4">
    <path d="M 38.3161 172.6147 
L 231.269401 172.6147 
" style="fill: none; stroke: #000000; stroke-width: 0.3; stroke-linejoin: miter; stroke-linecap: square"/>
   </g>
   <g id="line2d_58">
    <defs>
     <path id="meb11f0a45a" d="M 0 2 
C 0.530406 2 1.03916 1.789267 1.414214 1.414214 
C 1.789267 1.03916 2 0.530406 2 0 
C 2 -0.530406 1.789267 -1.03916 1.414214 -1.414214 
C 1.03916 -1.789267 0.530406 -2 0 -2 
C -0.530406 -2 -1.03916 -1.789267 -1.414214 -1.414214 
C -1.789267 -1.03916 -2 -0.530406 -2 0 
C -2 0.530406 -1.789267 1.03916 -1.414214 1.414214 
C -1.03916 1.789267 -0.530406 2 0 2 
z
" style="stroke: #343a40"/>
    </defs>
    <g clip-path="url(#p89d4301bb1)">
     <use xlink:href="#meb11f0a45a" x="180.271046" y="102.544188" style="fill: #ffffff; stroke: #343a40"/>
    </g>
   </g>
   <g id="line2d_59">
    <g clip-path="url(#p89d4301bb1)">
     <use xlink:href="#meb11f0a45a" x="174.206925" y="44.300116" style="fill: #ffffff; stroke: #343a40"/>
    </g>
   </g>
   <g id="line2d_60">
    <g clip-path="url(#p89d4301bb1)">
     <use xlink:href="#meb11f0a45a" x="129.452512" y="44.300116" style="fill: #ffffff; stroke: #343a40"/>
    </g>
   </g>
   <g id="line2d_61">
    <defs>
     <path id="m639b886c71" d="M 0 2 
C 0.530406 2 1.03916 1.789267 1.414214 1.414214 
C 1.789267 1.03916 2 0.530406 2 0 
C 2 -0.530406 1.789267 -1.03916 1.414214 -1.414214 
C 1.03916 -1.789267 0.530406 -2 0 -2 
C -0.530406 -2 -1.03916 -1.789267 -1.414214 -1.414214 
C -1.789267 -1.03916 -2 -0.530406 -2 0 
C -2 0.530406 -1.789267 1.03916 -1.414214 1.414214 
C -1.03916 1.789267 -0.530406 2 0 2 
z
" style="stroke: #343a40"/>
    </defs>
    <g clip-path="url(#p89d4301bb1)">
     <use xlink:href="#m639b886c71" x="181.922214" y="102.544188" style="fill: #343a40; stroke: #343a40"/>
    </g>
   </g>
   <g id="text_14">
    <!-- cmp,in -->
    <g style="fill: #343a40" transform="translate(189.922214 108.544188) scale(0.07 -0.07)">
     <defs>
      <path id="Roboto-Light-63" d="M 1738 253 
Q 2128 253 2392 473 
Q 2656 694 2678 1044 
L 3038 1044 
Q 3022 734 2844 479 
Q 2666 225 2370 81 
Q 2075 -63 1738 -63 
Q 1072 -63 683 400 
Q 294 863 294 1644 
L 294 1756 
Q 294 2256 469 2640 
Q 644 3025 970 3234 
Q 1297 3444 1734 3444 
Q 2291 3444 2652 3112 
Q 3013 2781 3038 2241 
L 2678 2241 
Q 2653 2638 2392 2881 
Q 2131 3125 1734 3125 
Q 1228 3125 948 2759 
Q 669 2394 669 1734 
L 669 1625 
Q 669 978 948 615 
Q 1228 253 1738 253 
z
" transform="scale(0.015625)"/>
      <path id="Roboto-Light-6d" d="M 828 3381 
L 841 2831 
Q 1028 3138 1309 3291 
Q 1591 3444 1934 3444 
Q 2734 3444 2950 2788 
Q 3131 3103 3434 3273 
Q 3738 3444 4103 3444 
Q 5191 3444 5213 2256 
L 5213 0 
L 4838 0 
L 4838 2228 
Q 4834 2681 4642 2900 
Q 4450 3119 4016 3119 
Q 3613 3113 3334 2858 
Q 3056 2603 3025 2238 
L 3025 0 
L 2650 0 
L 2650 2256 
Q 2647 2691 2445 2905 
Q 2244 3119 1825 3119 
Q 1472 3119 1219 2917 
Q 966 2716 844 2319 
L 844 0 
L 469 0 
L 469 3381 
L 828 3381 
z
" transform="scale(0.015625)"/>
      <path id="Roboto-Light-70" d="M 3206 1656 
Q 3206 866 2856 401 
Q 2506 -63 1919 -63 
Q 1225 -63 856 425 
L 856 -1300 
L 484 -1300 
L 484 3381 
L 831 3381 
L 850 2903 
Q 1216 3444 1909 3444 
Q 2516 3444 2861 2984 
Q 3206 2525 3206 1709 
L 3206 1656 
z
M 2831 1722 
Q 2831 2369 2565 2744 
Q 2300 3119 1825 3119 
Q 1481 3119 1234 2953 
Q 988 2788 856 2472 
L 856 850 
Q 991 559 1241 406 
Q 1491 253 1831 253 
Q 2303 253 2567 629 
Q 2831 1006 2831 1722 
z
" transform="scale(0.015625)"/>
      <path id="Roboto-Light-2c" d="M 409 -850 
L 188 -688 
Q 472 -306 481 103 
L 481 588 
L 847 588 
L 847 197 
Q 847 -453 409 -850 
z
" transform="scale(0.015625)"/>
      <path id="Roboto-Light-69" d="M 906 0 
L 531 0 
L 531 3381 
L 906 3381 
L 906 0 
z
M 466 4359 
Q 466 4466 534 4539 
Q 603 4613 722 4613 
Q 841 4613 911 4539 
Q 981 4466 981 4359 
Q 981 4253 911 4181 
Q 841 4109 722 4109 
Q 603 4109 534 4181 
Q 466 4253 466 4359 
z
" transform="scale(0.015625)"/>
      <path id="Roboto-Light-6e" d="M 844 3381 
L 856 2803 
Q 1047 3116 1331 3280 
Q 1616 3444 1959 3444 
Q 2503 3444 2768 3137 
Q 3034 2831 3038 2219 
L 3038 0 
L 2666 0 
L 2666 2222 
Q 2663 2675 2473 2897 
Q 2284 3119 1869 3119 
Q 1522 3119 1255 2901 
Q 988 2684 859 2316 
L 859 0 
L 488 0 
L 488 3381 
L 844 3381 
z
" transform="scale(0.015625)"/>
     </defs>
     <use xlink:href="#Roboto-Light-63"/>
     <use xlink:href="#Roboto-Light-6d" transform="translate(51.513672 0)"/>
     <use xlink:href="#Roboto-Light-70" transform="translate(140.136719 0)"/>
     <use xlink:href="#Roboto-Light-2c" transform="translate(195.556641 0)"/>
     <use xlink:href="#Roboto-Light-69" transform="translate(214.697266 0)"/>
     <use xlink:href="#Roboto-Light-6e" transform="translate(237.109375 0)"/>
    </g>
   </g>
   <g id="line2d_62">
    <g clip-path="url(#p89d4301bb1)">
     <use xlink:href="#m639b886c71" x="207.466961" y="44.300116" style="fill: #343a40; stroke: #343a40"/>
    </g>
   </g>
   <g id="text_15">
    <!-- cmp,out -->
    <g style="fill: #343a40" transform="translate(215.466961 40.300116) scale(0.07 -0.07)">
     <defs>
      <path id="Roboto-Light-6f" d="M 281 1741 
Q 281 2228 470 2618 
Q 659 3009 1004 3226 
Q 1350 3444 1788 3444 
Q 2463 3444 2881 2970 
Q 3300 2497 3300 1716 
L 3300 1638 
Q 3300 1147 3111 755 
Q 2922 363 2578 150 
Q 2234 -63 1794 -63 
Q 1122 -63 701 410 
Q 281 884 281 1666 
L 281 1741 
z
M 656 1638 
Q 656 1031 970 642 
Q 1284 253 1794 253 
Q 2300 253 2614 642 
Q 2928 1031 2928 1669 
L 2928 1741 
Q 2928 2128 2784 2450 
Q 2641 2772 2381 2948 
Q 2122 3125 1788 3125 
Q 1288 3125 972 2733 
Q 656 2341 656 1706 
L 656 1638 
z
" transform="scale(0.015625)"/>
      <path id="Roboto-Light-75" d="M 2663 428 
Q 2325 -63 1584 -63 
Q 1044 -63 762 251 
Q 481 566 475 1181 
L 475 3381 
L 847 3381 
L 847 1228 
Q 847 263 1628 263 
Q 2441 263 2656 934 
L 2656 3381 
L 3031 3381 
L 3031 0 
L 2669 0 
L 2663 428 
z
" transform="scale(0.015625)"/>
      <path id="Roboto-Light-74" d="M 1069 4247 
L 1069 3381 
L 1769 3381 
L 1769 3075 
L 1069 3075 
L 1069 822 
Q 1069 541 1170 403 
Q 1272 266 1509 266 
Q 1603 266 1813 297 
L 1828 -9 
Q 1681 -63 1428 -63 
Q 1044 -63 869 160 
Q 694 384 694 819 
L 694 3075 
L 72 3075 
L 72 3381 
L 694 3381 
L 694 4247 
L 1069 4247 
z
" transform="scale(0.015625)"/>
     </defs>
     <use xlink:href="#Roboto-Light-63"/>
     <use xlink:href="#Roboto-Light-6d" transform="translate(51.513672 0)"/>
     <use xlink:href="#Roboto-Light-70" transform="translate(140.136719 0)"/>
     <use xlink:href="#Roboto-Light-2c" transform="translate(195.556641 0)"/>
     <use xlink:href="#Roboto-Light-6f" transform="translate(214.697266 0)"/>
     <use xlink:href="#Roboto-Light-75" transform="translate(270.703125 0)"/>
     <use xlink:href="#Roboto-Light-74" transform="translate(325.634766 0)"/>
    </g>
   </g>
   <g id="line2d_63">
    <g clip-path="url(#p89d4301bb1)">
     <use xlink:href="#m639b886c71" x="127.141317" y="44.300116" style="fill: #343a40; stroke: #343a40"/>
    </g>
   </g>
   <g id="text_16">
    <!-- exp,in -->
    <g style="fill: #343a40" transform="translate(105.141317 36.300116) scale(0.07 -0.07)">
     <defs>
      <path id="Roboto-Light-65" d="M 1797 -63 
Q 1366 -63 1017 150 
Q 669 363 475 742 
Q 281 1122 281 1594 
L 281 1728 
Q 281 2216 470 2606 
Q 659 2997 996 3220 
Q 1334 3444 1728 3444 
Q 2344 3444 2705 3023 
Q 3066 2603 3066 1875 
L 3066 1666 
L 653 1666 
L 653 1594 
Q 653 1019 983 636 
Q 1313 253 1813 253 
Q 2113 253 2342 362 
Q 2572 472 2759 713 
L 2994 534 
Q 2581 -63 1797 -63 
z
M 1728 3125 
Q 1306 3125 1017 2815 
Q 728 2506 666 1984 
L 2694 1984 
L 2694 2025 
Q 2678 2513 2415 2819 
Q 2153 3125 1728 3125 
z
" transform="scale(0.015625)"/>
      <path id="Roboto-Light-78" d="M 1550 2009 
L 2463 3381 
L 2906 3381 
L 1759 1722 
L 2956 0 
L 2516 0 
L 1553 1431 
L 591 0 
L 150 0 
L 1344 1722 
L 197 3381 
L 638 3381 
L 1550 2009 
z
" transform="scale(0.015625)"/>
     </defs>
     <use xlink:href="#Roboto-Light-65"/>
     <use xlink:href="#Roboto-Light-78" transform="translate(51.660156 0)"/>
     <use xlink:href="#Roboto-Light-70" transform="translate(100.292969 0)"/>
     <use xlink:href="#Roboto-Light-2c" transform="translate(155.712891 0)"/>
     <use xlink:href="#Roboto-Light-69" transform="translate(174.853516 0)"/>
     <use xlink:href="#Roboto-Light-6e" transform="translate(197.265625 0)"/>
    </g>
   </g>
   <g id="line2d_64">
    <g clip-path="url(#p89d4301bb1)">
     <use xlink:href="#m639b886c71" x="127.141317" y="102.544188" style="fill: #343a40; stroke: #343a40"/>
    </g>
   </g>
   <g id="text_17">
    <!-- exp,out -->
    <g style="fill: #343a40" transform="translate(97.141317 116.544188) scale(0.07 -0.07)">
     <use xlink:href="#Roboto-Light-65"/>
     <use xlink:href="#Roboto-Light-78" transform="translate(51.660156 0)"/>
     <use xlink:href="#Roboto-Light-70" transform="translate(100.292969 0)"/>
     <use xlink:href="#Roboto-Light-2c" transform="translate(155.712891 0)"/>
     <use xlink:href="#Roboto-Light-6f" transform="translate(174.853516 0)"/>
     <use xlink:href="#Roboto-Light-75" transform="translate(230.859375 0)"/>
     <use xlink:href="#Roboto-Light-74" transform="translate(285.791016 0)"/>
    </g>
   </g>
   <g id="text_18">
    <!-- a -->
    <g transform="translate(28.668435 12.458425) scale(0.11 -0.11)">
     <defs>
      <path id="Roboto-Medium-61" d="M 2409 0 
Q 2359 97 2322 316 
Q 1959 -63 1434 -63 
Q 925 -63 603 228 
Q 281 519 281 947 
Q 281 1488 682 1777 
Q 1084 2066 1831 2066 
L 2297 2066 
L 2297 2288 
Q 2297 2550 2150 2708 
Q 2003 2866 1703 2866 
Q 1444 2866 1278 2736 
Q 1113 2606 1113 2406 
L 353 2406 
Q 353 2684 537 2926 
Q 722 3169 1039 3306 
Q 1356 3444 1747 3444 
Q 2341 3444 2694 3145 
Q 3047 2847 3056 2306 
L 3056 781 
Q 3056 325 3184 53 
L 3184 0 
L 2409 0 
z
M 1575 547 
Q 1800 547 1998 656 
Q 2197 766 2297 950 
L 2297 1588 
L 1888 1588 
Q 1466 1588 1253 1441 
Q 1041 1294 1041 1025 
Q 1041 806 1186 676 
Q 1331 547 1575 547 
z
" transform="scale(0.015625)"/>
     </defs>
     <use xlink:href="#Roboto-Medium-61"/>
    </g>
   </g>
   <g id="legend_1">
    <g id="line2d_65">
     <path d="M 53.393298 21.064988 
L 60.393298 21.064988 
L 67.393298 21.064988 
" style="fill: none; stroke: #339af0; stroke-width: 2; stroke-linecap: square"/>
    </g>
    <g id="text_19">
     <!-- Sat. liquid -->
     <g transform="translate(69.493298 23.514988) scale(0.07 -0.07)">
      <defs>
       <path id="Roboto-Light-53" d="M 3150 1119 
Q 3150 1497 2884 1717 
Q 2619 1938 1912 2136 
Q 1206 2334 881 2569 
Q 419 2900 419 3438 
Q 419 3959 848 4286 
Q 1278 4613 1947 4613 
Q 2400 4613 2758 4438 
Q 3116 4263 3312 3950 
Q 3509 3638 3509 3253 
L 3122 3253 
Q 3122 3719 2803 4001 
Q 2484 4284 1947 4284 
Q 1425 4284 1115 4051 
Q 806 3819 806 3444 
Q 806 3097 1084 2878 
Q 1363 2659 1975 2492 
Q 2588 2325 2903 2145 
Q 3219 1966 3378 1716 
Q 3538 1466 3538 1125 
Q 3538 588 3108 262 
Q 2678 -63 1975 -63 
Q 1494 -63 1092 109 
Q 691 281 483 590 
Q 275 900 275 1300 
L 659 1300 
Q 659 819 1018 541 
Q 1378 263 1975 263 
Q 2506 263 2828 497 
Q 3150 731 3150 1119 
z
" transform="scale(0.015625)"/>
       <path id="Roboto-Light-61" d="M 2622 0 
Q 2566 159 2550 472 
Q 2353 216 2048 76 
Q 1744 -63 1403 -63 
Q 916 -63 614 209 
Q 313 481 313 897 
Q 313 1391 723 1678 
Q 1134 1966 1869 1966 
L 2547 1966 
L 2547 2350 
Q 2547 2713 2323 2920 
Q 2100 3128 1672 3128 
Q 1281 3128 1025 2928 
Q 769 2728 769 2447 
L 394 2450 
Q 394 2853 769 3148 
Q 1144 3444 1691 3444 
Q 2256 3444 2582 3161 
Q 2909 2878 2919 2372 
L 2919 772 
Q 2919 281 3022 38 
L 3022 0 
L 2622 0 
z
M 1447 269 
Q 1822 269 2117 450 
Q 2413 631 2547 934 
L 2547 1678 
L 1878 1678 
Q 1319 1672 1003 1473 
Q 688 1275 688 928 
Q 688 644 898 456 
Q 1109 269 1447 269 
z
" transform="scale(0.015625)"/>
       <path id="Roboto-Light-2e" d="M 453 225 
Q 453 334 523 411 
Q 594 488 719 488 
Q 844 488 916 411 
Q 988 334 988 225 
Q 988 116 916 45 
Q 844 -25 719 -25 
Q 594 -25 523 45 
Q 453 116 453 225 
z
" transform="scale(0.015625)"/>
       <path id="Roboto-Light-20" transform="scale(0.015625)"/>
       <path id="Roboto-Light-6c" d="M 906 0 
L 531 0 
L 531 4800 
L 906 4800 
L 906 0 
z
" transform="scale(0.015625)"/>
       <path id="Roboto-Light-71" d="M 338 1722 
Q 338 2516 689 2980 
Q 1041 3444 1650 3444 
Q 2334 3444 2691 2922 
L 2709 3381 
L 3059 3381 
L 3059 -1300 
L 2684 -1300 
L 2684 419 
Q 2316 -63 1644 -63 
Q 1050 -63 694 406 
Q 338 875 338 1672 
L 338 1722 
z
M 716 1656 
Q 716 1000 980 626 
Q 1244 253 1713 253 
Q 2384 253 2684 838 
L 2684 2494 
Q 2544 2797 2295 2961 
Q 2047 3125 1719 3125 
Q 1247 3125 981 2751 
Q 716 2378 716 1656 
z
" transform="scale(0.015625)"/>
       <path id="Roboto-Light-64" d="M 338 1722 
Q 338 2509 689 2976 
Q 1041 3444 1644 3444 
Q 2328 3444 2688 2903 
L 2688 4800 
L 3059 4800 
L 3059 0 
L 2709 0 
L 2694 450 
Q 2334 -63 1638 -63 
Q 1053 -63 695 407 
Q 338 878 338 1678 
L 338 1722 
z
M 716 1656 
Q 716 1009 975 636 
Q 1234 263 1706 263 
Q 2397 263 2688 872 
L 2688 2459 
Q 2397 3119 1713 3119 
Q 1241 3119 978 2748 
Q 716 2378 716 1656 
z
" transform="scale(0.015625)"/>
      </defs>
      <use xlink:href="#Roboto-Light-53"/>
      <use xlink:href="#Roboto-Light-61" transform="translate(59.228516 0)"/>
      <use xlink:href="#Roboto-Light-74" transform="translate(112.792969 0)"/>
      <use xlink:href="#Roboto-Light-2e" transform="translate(144.921875 0)"/>
      <use xlink:href="#Roboto-Light-20" transform="translate(168.798828 0)"/>
      <use xlink:href="#Roboto-Light-6c" transform="translate(193.115234 0)"/>
      <use xlink:href="#Roboto-Light-69" transform="translate(215.527344 0)"/>
      <use xlink:href="#Roboto-Light-71" transform="translate(237.939453 0)"/>
      <use xlink:href="#Roboto-Light-75" transform="translate(293.701172 0)"/>
      <use xlink:href="#Roboto-Light-69" transform="translate(348.632812 0)"/>
      <use xlink:href="#Roboto-Light-64" transform="translate(371.044922 0)"/>
     </g>
    </g>
    <g id="line2d_66">
     <path d="M 104.604861 21.064988 
L 111.604861 21.064988 
L 118.604861 21.064988 
" style="fill: none; stroke: #ff6b6b; stroke-width: 2; stroke-linecap: square"/>
    </g>
    <g id="text_20">
     <!-- Sat. vapor -->
     <g transform="translate(120.704861 23.514988) scale(0.07 -0.07)">
      <defs>
       <path id="Roboto-Light-76" d="M 1541 516 
L 2569 3381 
L 2953 3381 
L 1691 0 
L 1388 0 
L 119 3381 
L 503 3381 
L 1541 516 
z
" transform="scale(0.015625)"/>
       <path id="Roboto-Light-72" d="M 2050 3063 
Q 1931 3084 1797 3084 
Q 1447 3084 1205 2889 
Q 963 2694 859 2322 
L 859 0 
L 488 0 
L 488 3381 
L 853 3381 
L 859 2844 
Q 1156 3444 1813 3444 
Q 1969 3444 2059 3403 
L 2050 3063 
z
" transform="scale(0.015625)"/>
      </defs>
      <use xlink:href="#Roboto-Light-53"/>
      <use xlink:href="#Roboto-Light-61" transform="translate(59.228516 0)"/>
      <use xlink:href="#Roboto-Light-74" transform="translate(112.792969 0)"/>
      <use xlink:href="#Roboto-Light-2e" transform="translate(144.921875 0)"/>
      <use xlink:href="#Roboto-Light-20" transform="translate(168.798828 0)"/>
      <use xlink:href="#Roboto-Light-76" transform="translate(193.115234 0)"/>
      <use xlink:href="#Roboto-Light-61" transform="translate(241.210938 0)"/>
      <use xlink:href="#Roboto-Light-70" transform="translate(294.775391 0)"/>
      <use xlink:href="#Roboto-Light-6f" transform="translate(350.195312 0)"/>
      <use xlink:href="#Roboto-Light-72" transform="translate(406.201172 0)"/>
     </g>
    </g>
    <g id="line2d_67">
     <path d="M 156.742829 21.064988 
L 163.742829 21.064988 
L 170.742829 21.064988 
" style="fill: none; stroke-dasharray: 2,2; stroke-dashoffset: 0; stroke: #343a40"/>
    </g>
    <g id="text_21">
     <!-- Ref. cycle -->
     <g transform="translate(172.842829 23.514988) scale(0.07 -0.07)">
      <defs>
       <path id="Roboto-Light-52" d="M 2275 1894 
L 953 1894 
L 953 0 
L 566 0 
L 566 4550 
L 2044 4550 
Q 2772 4550 3181 4197 
Q 3591 3844 3591 3209 
Q 3591 2772 3334 2437 
Q 3078 2103 2647 1975 
L 3784 41 
L 3784 0 
L 3375 0 
L 2275 1894 
z
M 953 2222 
L 2131 2222 
Q 2616 2222 2909 2497 
Q 3203 2772 3203 3209 
Q 3203 3691 2897 3956 
Q 2591 4222 2038 4222 
L 953 4222 
L 953 2222 
z
" transform="scale(0.015625)"/>
       <path id="Roboto-Light-66" d="M 756 0 
L 756 3075 
L 197 3075 
L 197 3381 
L 756 3381 
L 756 3791 
Q 756 4309 1020 4587 
Q 1284 4866 1756 4866 
Q 1969 4866 2153 4813 
L 2125 4500 
Q 1969 4538 1784 4538 
Q 1475 4538 1303 4345 
Q 1131 4153 1131 3800 
L 1131 3381 
L 1938 3381 
L 1938 3075 
L 1131 3075 
L 1131 0 
L 756 0 
z
" transform="scale(0.015625)"/>
       <path id="Roboto-Light-79" d="M 1559 538 
L 2547 3381 
L 2950 3381 
L 1506 -575 
L 1431 -750 
Q 1153 -1366 572 -1366 
Q 438 -1366 284 -1322 
L 281 -1013 
L 475 -1031 
Q 750 -1031 920 -895 
Q 1091 -759 1209 -428 
L 1375 28 
L 100 3381 
L 509 3381 
L 1559 538 
z
" transform="scale(0.015625)"/>
      </defs>
      <use xlink:href="#Roboto-Light-52"/>
      <use xlink:href="#Roboto-Light-65" transform="translate(63.476562 0)"/>
      <use xlink:href="#Roboto-Light-66" transform="translate(115.136719 0)"/>
      <use xlink:href="#Roboto-Light-2e" transform="translate(148.242188 0)"/>
      <use xlink:href="#Roboto-Light-20" transform="translate(172.119141 0)"/>
      <use xlink:href="#Roboto-Light-63" transform="translate(196.435547 0)"/>
      <use xlink:href="#Roboto-Light-79" transform="translate(247.949219 0)"/>
      <use xlink:href="#Roboto-Light-63" transform="translate(295.458984 0)"/>
      <use xlink:href="#Roboto-Light-6c" transform="translate(346.972656 0)"/>
      <use xlink:href="#Roboto-Light-65" transform="translate(369.384766 0)"/>
     </g>
    </g>
   </g>
  </g>
  <g id="axes_2">
   <g id="patch_5">
    <path d="M 269.860062 172.6147 
L 462.813363 172.6147 
L 462.813363 14.6928 
L 269.860062 14.6928 
z
" style="fill: #ffffff"/>
   </g>
   <g id="matplotlib.axis_3">
    <g id="xtick_9">
     <g id="line2d_68">
      <path d="M 269.860062 172.6147 
L 269.860062 14.6928 
" clip-path="url(#pc6de012efe)" style="fill: none; stroke: #dee2e6; stroke-opacity: 0.25; stroke-width: -1; stroke-linecap: square"/>
     </g>
     <g id="line2d_69">
      <g>
       <use xlink:href="#ma34981a40d" x="269.860062" y="172.6147" style="stroke: #000000; stroke-width: 0.3"/>
      </g>
     </g>
     <g id="text_22">
      <!-- 0 -->
      <g transform="translate(267.643187 182.6147) scale(0.08 -0.08)">
       <use xlink:href="#Roboto-Light-30"/>
      </g>
     </g>
    </g>
    <g id="xtick_10">
     <g id="line2d_70">
      <path d="M 297.424819 172.6147 
L 297.424819 14.6928 
" clip-path="url(#pc6de012efe)" style="fill: none; stroke: #dee2e6; stroke-opacity: 0.25; stroke-width: -1; stroke-linecap: square"/>
     </g>
     <g id="line2d_71">
      <g>
       <use xlink:href="#ma34981a40d" x="297.424819" y="172.6147" style="stroke: #000000; stroke-width: 0.3"/>
      </g>
     </g>
     <g id="text_23">
      <!-- 100 -->
      <g transform="translate(290.774194 182.6147) scale(0.08 -0.08)">
       <use xlink:href="#Roboto-Light-31"/>
       <use xlink:href="#Roboto-Light-30" transform="translate(55.419922 0)"/>
       <use xlink:href="#Roboto-Light-30" transform="translate(110.839844 0)"/>
      </g>
     </g>
    </g>
    <g id="xtick_11">
     <g id="line2d_72">
      <path d="M 324.989576 172.6147 
L 324.989576 14.6928 
" clip-path="url(#pc6de012efe)" style="fill: none; stroke: #dee2e6; stroke-opacity: 0.25; stroke-width: -1; stroke-linecap: square"/>
     </g>
     <g id="line2d_73">
      <g>
       <use xlink:href="#ma34981a40d" x="324.989576" y="172.6147" style="stroke: #000000; stroke-width: 0.3"/>
      </g>
     </g>
     <g id="text_24">
      <!-- 200 -->
      <g transform="translate(318.338951 182.6147) scale(0.08 -0.08)">
       <use xlink:href="#Roboto-Light-32"/>
       <use xlink:href="#Roboto-Light-30" transform="translate(55.419922 0)"/>
       <use xlink:href="#Roboto-Light-30" transform="translate(110.839844 0)"/>
      </g>
     </g>
    </g>
    <g id="xtick_12">
     <g id="line2d_74">
      <path d="M 352.554334 172.6147 
L 352.554334 14.6928 
" clip-path="url(#pc6de012efe)" style="fill: none; stroke: #dee2e6; stroke-opacity: 0.25; stroke-width: -1; stroke-linecap: square"/>
     </g>
     <g id="line2d_75">
      <g>
       <use xlink:href="#ma34981a40d" x="352.554334" y="172.6147" style="stroke: #000000; stroke-width: 0.3"/>
      </g>
     </g>
     <g id="text_25">
      <!-- 300 -->
      <g transform="translate(345.903709 182.6147) scale(0.08 -0.08)">
       <use xlink:href="#Roboto-Light-33"/>
       <use xlink:href="#Roboto-Light-30" transform="translate(55.419922 0)"/>
       <use xlink:href="#Roboto-Light-30" transform="translate(110.839844 0)"/>
      </g>
     </g>
    </g>
    <g id="xtick_13">
     <g id="line2d_76">
      <path d="M 380.119091 172.6147 
L 380.119091 14.6928 
" clip-path="url(#pc6de012efe)" style="fill: none; stroke: #dee2e6; stroke-opacity: 0.25; stroke-width: -1; stroke-linecap: square"/>
     </g>
     <g id="line2d_77">
      <g>
       <use xlink:href="#ma34981a40d" x="380.119091" y="172.6147" style="stroke: #000000; stroke-width: 0.3"/>
      </g>
     </g>
     <g id="text_26">
      <!-- 400 -->
      <g transform="translate(373.468466 182.6147) scale(0.08 -0.08)">
       <use xlink:href="#Roboto-Light-34"/>
       <use xlink:href="#Roboto-Light-30" transform="translate(55.419922 0)"/>
       <use xlink:href="#Roboto-Light-30" transform="translate(110.839844 0)"/>
      </g>
     </g>
    </g>
    <g id="xtick_14">
     <g id="line2d_78">
      <path d="M 407.683848 172.6147 
L 407.683848 14.6928 
" clip-path="url(#pc6de012efe)" style="fill: none; stroke: #dee2e6; stroke-opacity: 0.25; stroke-width: -1; stroke-linecap: square"/>
     </g>
     <g id="line2d_79">
      <g>
       <use xlink:href="#ma34981a40d" x="407.683848" y="172.6147" style="stroke: #000000; stroke-width: 0.3"/>
      </g>
     </g>
     <g id="text_27">
      <!-- 500 -->
      <g transform="translate(401.033223 182.6147) scale(0.08 -0.08)">
       <use xlink:href="#Roboto-Light-35"/>
       <use xlink:href="#Roboto-Light-30" transform="translate(55.419922 0)"/>
       <use xlink:href="#Roboto-Light-30" transform="translate(110.839844 0)"/>
      </g>
     </g>
    </g>
    <g id="xtick_15">
     <g id="line2d_80">
      <path d="M 435.248606 172.6147 
L 435.248606 14.6928 
" clip-path="url(#pc6de012efe)" style="fill: none; stroke: #dee2e6; stroke-opacity: 0.25; stroke-width: -1; stroke-linecap: square"/>
     </g>
     <g id="line2d_81">
      <g>
       <use xlink:href="#ma34981a40d" x="435.248606" y="172.6147" style="stroke: #000000; stroke-width: 0.3"/>
      </g>
     </g>
     <g id="text_28">
      <!-- 600 -->
      <g transform="translate(428.597981 182.6147) scale(0.08 -0.08)">
       <use xlink:href="#Roboto-Light-36"/>
       <use xlink:href="#Roboto-Light-30" transform="translate(55.419922 0)"/>
       <use xlink:href="#Roboto-Light-30" transform="translate(110.839844 0)"/>
      </g>
     </g>
    </g>
    <g id="xtick_16">
     <g id="line2d_82">
      <path d="M 462.813363 172.6147 
L 462.813363 14.6928 
" clip-path="url(#pc6de012efe)" style="fill: none; stroke: #dee2e6; stroke-opacity: 0.25; stroke-width: -1; stroke-linecap: square"/>
     </g>
     <g id="line2d_83">
      <g>
       <use xlink:href="#ma34981a40d" x="462.813363" y="172.6147" style="stroke: #000000; stroke-width: 0.3"/>
      </g>
     </g>
     <g id="text_29">
      <!-- 700 -->
      <g transform="translate(456.162738 182.6147) scale(0.08 -0.08)">
       <use xlink:href="#Roboto-Light-37"/>
       <use xlink:href="#Roboto-Light-30" transform="translate(55.419922 0)"/>
       <use xlink:href="#Roboto-Light-30" transform="translate(110.839844 0)"/>
      </g>
     </g>
    </g>
    <g id="text_30">
     <!-- Enthalpy [kJ/kg] -->
     <g transform="translate(337.796712 194.7397) scale(0.08 -0.08)">
      <use xlink:href="#Roboto-Regular-45"/>
      <use xlink:href="#Roboto-Regular-6e" transform="translate(56.835938 0)"/>
      <use xlink:href="#Roboto-Regular-74" transform="translate(112.011719 0)"/>
      <use xlink:href="#Roboto-Regular-68" transform="translate(144.677734 0)"/>
      <use xlink:href="#Roboto-Regular-61" transform="translate(199.755859 0)"/>
      <use xlink:href="#Roboto-Regular-6c" transform="translate(254.150391 0)"/>
      <use xlink:href="#Roboto-Regular-70" transform="translate(278.417969 0)"/>
      <use xlink:href="#Roboto-Regular-79" transform="translate(334.521484 0)"/>
      <use xlink:href="#Roboto-Regular-20" transform="translate(381.835938 0)"/>
      <use xlink:href="#Roboto-Regular-5b" transform="translate(406.591797 0)"/>
      <use xlink:href="#Roboto-Regular-6b" transform="translate(433.105469 0)"/>
      <use xlink:href="#Roboto-Regular-4a" transform="translate(483.789062 0)"/>
      <use xlink:href="#Roboto-Regular-2f" transform="translate(538.964844 0)"/>
      <use xlink:href="#Roboto-Regular-6b" transform="translate(580.175781 0)"/>
      <use xlink:href="#Roboto-Regular-67" transform="translate(630.859375 0)"/>
      <use xlink:href="#Roboto-Regular-5d" transform="translate(686.962891 0)"/>
     </g>
    </g>
   </g>
   <g id="matplotlib.axis_4">
    <g id="ytick_20">
     <g id="line2d_84">
      <path d="M 269.860062 172.6147 
L 462.813363 172.6147 
" clip-path="url(#pc6de012efe)" style="fill: none; stroke: #dee2e6; stroke-opacity: 0.25; stroke-width: -1; stroke-linecap: square"/>
     </g>
     <g id="line2d_85">
      <g>
       <use xlink:href="#m033e7cd914" x="269.860062" y="172.6147" style="stroke: #000000; stroke-width: 0.3"/>
      </g>
     </g>
     <g id="text_31">
      <!-- −20 -->
      <g transform="translate(253.430062 175.6147) scale(0.08 -0.08)">
       <defs>
        <path id="Roboto-Light-2212" d="M 3125 2144 
L 516 2144 
L 516 2463 
L 3125 2463 
L 3125 2144 
z
" transform="scale(0.015625)"/>
       </defs>
       <use xlink:href="#Roboto-Light-2212"/>
       <use xlink:href="#Roboto-Light-32" transform="translate(57.03125 0)"/>
       <use xlink:href="#Roboto-Light-30" transform="translate(112.451172 0)"/>
      </g>
     </g>
    </g>
    <g id="ytick_21">
     <g id="line2d_86">
      <path d="M 269.860062 155.067822 
L 462.813363 155.067822 
" clip-path="url(#pc6de012efe)" style="fill: none; stroke: #dee2e6; stroke-opacity: 0.25; stroke-width: -1; stroke-linecap: square"/>
     </g>
     <g id="line2d_87">
      <g>
       <use xlink:href="#m033e7cd914" x="269.860062" y="155.067822" style="stroke: #000000; stroke-width: 0.3"/>
      </g>
     </g>
     <g id="text_32">
      <!-- 0 -->
      <g transform="translate(262.426312 158.067822) scale(0.08 -0.08)">
       <use xlink:href="#Roboto-Light-30"/>
      </g>
     </g>
    </g>
    <g id="ytick_22">
     <g id="line2d_88">
      <path d="M 269.860062 137.520944 
L 462.813363 137.520944 
" clip-path="url(#pc6de012efe)" style="fill: none; stroke: #dee2e6; stroke-opacity: 0.25; stroke-width: -1; stroke-linecap: square"/>
     </g>
     <g id="line2d_89">
      <g>
       <use xlink:href="#m033e7cd914" x="269.860062" y="137.520944" style="stroke: #000000; stroke-width: 0.3"/>
      </g>
     </g>
     <g id="text_33">
      <!-- 20 -->
      <g transform="translate(257.992562 140.520944) scale(0.08 -0.08)">
       <use xlink:href="#Roboto-Light-32"/>
       <use xlink:href="#Roboto-Light-30" transform="translate(55.419922 0)"/>
      </g>
     </g>
    </g>
    <g id="ytick_23">
     <g id="line2d_90">
      <path d="M 269.860062 119.974067 
L 462.813363 119.974067 
" clip-path="url(#pc6de012efe)" style="fill: none; stroke: #dee2e6; stroke-opacity: 0.25; stroke-width: -1; stroke-linecap: square"/>
     </g>
     <g id="line2d_91">
      <g>
       <use xlink:href="#m033e7cd914" x="269.860062" y="119.974067" style="stroke: #000000; stroke-width: 0.3"/>
      </g>
     </g>
     <g id="text_34">
      <!-- 40 -->
      <g transform="translate(257.992562 122.974067) scale(0.08 -0.08)">
       <use xlink:href="#Roboto-Light-34"/>
       <use xlink:href="#Roboto-Light-30" transform="translate(55.419922 0)"/>
      </g>
     </g>
    </g>
    <g id="ytick_24">
     <g id="line2d_92">
      <path d="M 269.860062 102.427189 
L 462.813363 102.427189 
" clip-path="url(#pc6de012efe)" style="fill: none; stroke: #dee2e6; stroke-opacity: 0.25; stroke-width: -1; stroke-linecap: square"/>
     </g>
     <g id="line2d_93">
      <g>
       <use xlink:href="#m033e7cd914" x="269.860062" y="102.427189" style="stroke: #000000; stroke-width: 0.3"/>
      </g>
     </g>
     <g id="text_35">
      <!-- 60 -->
      <g transform="translate(257.992562 105.427189) scale(0.08 -0.08)">
       <use xlink:href="#Roboto-Light-36"/>
       <use xlink:href="#Roboto-Light-30" transform="translate(55.419922 0)"/>
      </g>
     </g>
    </g>
    <g id="ytick_25">
     <g id="line2d_94">
      <path d="M 269.860062 84.880311 
L 462.813363 84.880311 
" clip-path="url(#pc6de012efe)" style="fill: none; stroke: #dee2e6; stroke-opacity: 0.25; stroke-width: -1; stroke-linecap: square"/>
     </g>
     <g id="line2d_95">
      <g>
       <use xlink:href="#m033e7cd914" x="269.860062" y="84.880311" style="stroke: #000000; stroke-width: 0.3"/>
      </g>
     </g>
     <g id="text_36">
      <!-- 80 -->
      <g transform="translate(257.992562 87.880311) scale(0.08 -0.08)">
       <defs>
        <path id="Roboto-Light-38" d="M 3109 3378 
Q 3109 3025 2903 2745 
Q 2697 2466 2359 2334 
Q 2753 2200 2990 1900 
Q 3228 1600 3228 1206 
Q 3228 622 2831 279 
Q 2434 -63 1781 -63 
Q 1122 -63 726 278 
Q 331 619 331 1206 
Q 331 1594 559 1897 
Q 788 2200 1184 2334 
Q 847 2466 647 2745 
Q 447 3025 447 3378 
Q 447 3944 811 4278 
Q 1175 4613 1775 4613 
Q 2375 4613 2742 4275 
Q 3109 3938 3109 3378 
z
M 2853 1203 
Q 2853 1628 2550 1901 
Q 2247 2175 1775 2175 
Q 1303 2175 1003 1906 
Q 703 1638 703 1203 
Q 703 769 993 511 
Q 1284 253 1781 253 
Q 2266 253 2559 509 
Q 2853 766 2853 1203 
z
M 2734 3381 
Q 2734 3772 2464 4033 
Q 2194 4294 1775 4294 
Q 1350 4294 1086 4042 
Q 822 3791 822 3381 
Q 822 2981 1086 2737 
Q 1350 2494 1778 2494 
Q 2200 2494 2467 2739 
Q 2734 2984 2734 3381 
z
" transform="scale(0.015625)"/>
       </defs>
       <use xlink:href="#Roboto-Light-38"/>
       <use xlink:href="#Roboto-Light-30" transform="translate(55.419922 0)"/>
      </g>
     </g>
    </g>
    <g id="ytick_26">
     <g id="line2d_96">
      <path d="M 269.860062 67.333433 
L 462.813363 67.333433 
" clip-path="url(#pc6de012efe)" style="fill: none; stroke: #dee2e6; stroke-opacity: 0.25; stroke-width: -1; stroke-linecap: square"/>
     </g>
     <g id="line2d_97">
      <g>
       <use xlink:href="#m033e7cd914" x="269.860062" y="67.333433" style="stroke: #000000; stroke-width: 0.3"/>
      </g>
     </g>
     <g id="text_37">
      <!-- 100 -->
      <g transform="translate(253.558812 70.333433) scale(0.08 -0.08)">
       <use xlink:href="#Roboto-Light-31"/>
       <use xlink:href="#Roboto-Light-30" transform="translate(55.419922 0)"/>
       <use xlink:href="#Roboto-Light-30" transform="translate(110.839844 0)"/>
      </g>
     </g>
    </g>
    <g id="ytick_27">
     <g id="line2d_98">
      <path d="M 269.860062 49.786556 
L 462.813363 49.786556 
" clip-path="url(#pc6de012efe)" style="fill: none; stroke: #dee2e6; stroke-opacity: 0.25; stroke-width: -1; stroke-linecap: square"/>
     </g>
     <g id="line2d_99">
      <g>
       <use xlink:href="#m033e7cd914" x="269.860062" y="49.786556" style="stroke: #000000; stroke-width: 0.3"/>
      </g>
     </g>
     <g id="text_38">
      <!-- 120 -->
      <g transform="translate(253.558812 52.786556) scale(0.08 -0.08)">
       <use xlink:href="#Roboto-Light-31"/>
       <use xlink:href="#Roboto-Light-32" transform="translate(55.419922 0)"/>
       <use xlink:href="#Roboto-Light-30" transform="translate(110.839844 0)"/>
      </g>
     </g>
    </g>
    <g id="ytick_28">
     <g id="line2d_100">
      <path d="M 269.860062 32.239678 
L 462.813363 32.239678 
" clip-path="url(#pc6de012efe)" style="fill: none; stroke: #dee2e6; stroke-opacity: 0.25; stroke-width: -1; stroke-linecap: square"/>
     </g>
     <g id="line2d_101">
      <g>
       <use xlink:href="#m033e7cd914" x="269.860062" y="32.239678" style="stroke: #000000; stroke-width: 0.3"/>
      </g>
     </g>
     <g id="text_39">
      <!-- 140 -->
      <g transform="translate(253.558812 35.239678) scale(0.08 -0.08)">
       <use xlink:href="#Roboto-Light-31"/>
       <use xlink:href="#Roboto-Light-34" transform="translate(55.419922 0)"/>
       <use xlink:href="#Roboto-Light-30" transform="translate(110.839844 0)"/>
      </g>
     </g>
    </g>
    <g id="ytick_29">
     <g id="line2d_102">
      <path d="M 269.860062 14.6928 
L 462.813363 14.6928 
" clip-path="url(#pc6de012efe)" style="fill: none; stroke: #dee2e6; stroke-opacity: 0.25; stroke-width: -1; stroke-linecap: square"/>
     </g>
     <g id="line2d_103">
      <g>
       <use xlink:href="#m033e7cd914" x="269.860062" y="14.6928" style="stroke: #000000; stroke-width: 0.3"/>
      </g>
     </g>
     <g id="text_40">
      <!-- 160 -->
      <g transform="translate(253.558812 17.6928) scale(0.08 -0.08)">
       <use xlink:href="#Roboto-Light-31"/>
       <use xlink:href="#Roboto-Light-36" transform="translate(55.419922 0)"/>
       <use xlink:href="#Roboto-Light-30" transform="translate(110.839844 0)"/>
      </g>
     </g>
    </g>
    <g id="text_41">
     <!-- Temperature [°C] -->
     <g transform="translate(247.805062 123.753125) rotate(-90) scale(0.08 -0.08)">
      <defs>
       <path id="Roboto-Regular-54" d="M 3672 4056 
L 2209 4056 
L 2209 0 
L 1613 0 
L 1613 4056 
L 153 4056 
L 153 4550 
L 3672 4550 
L 3672 4056 
z
" transform="scale(0.015625)"/>
       <path id="Roboto-Regular-6d" d="M 981 3381 
L 997 3006 
Q 1369 3444 2000 3444 
Q 2709 3444 2966 2900 
Q 3134 3144 3404 3294 
Q 3675 3444 4044 3444 
Q 5156 3444 5175 2266 
L 5175 0 
L 4597 0 
L 4597 2231 
Q 4597 2594 4431 2773 
Q 4266 2953 3875 2953 
Q 3553 2953 3340 2761 
Q 3128 2569 3094 2244 
L 3094 0 
L 2513 0 
L 2513 2216 
Q 2513 2953 1791 2953 
Q 1222 2953 1013 2469 
L 1013 0 
L 434 0 
L 434 3381 
L 981 3381 
z
" transform="scale(0.015625)"/>
       <path id="Roboto-Regular-b0" d="M 406 3800 
Q 406 4125 639 4369 
Q 872 4613 1203 4613 
Q 1528 4613 1758 4370 
Q 1988 4128 1988 3800 
Q 1988 3469 1758 3234 
Q 1528 3000 1203 3000 
Q 875 3000 640 3234 
Q 406 3469 406 3800 
z
M 1203 3400 
Q 1372 3400 1487 3511 
Q 1603 3622 1603 3800 
Q 1603 3981 1487 4098 
Q 1372 4216 1203 4216 
Q 1031 4216 914 4092 
Q 797 3969 797 3800 
Q 797 3631 914 3515 
Q 1031 3400 1203 3400 
z
" transform="scale(0.015625)"/>
       <path id="Roboto-Regular-43" d="M 3875 1444 
Q 3791 722 3342 329 
Q 2894 -63 2150 -63 
Q 1344 -63 858 515 
Q 372 1094 372 2063 
L 372 2500 
Q 372 3134 598 3615 
Q 825 4097 1240 4355 
Q 1656 4613 2203 4613 
Q 2928 4613 3365 4208 
Q 3803 3803 3875 3088 
L 3272 3088 
Q 3194 3631 2933 3875 
Q 2672 4119 2203 4119 
Q 1628 4119 1301 3694 
Q 975 3269 975 2484 
L 975 2044 
Q 975 1303 1284 865 
Q 1594 428 2150 428 
Q 2650 428 2917 654 
Q 3184 881 3272 1444 
L 3875 1444 
z
" transform="scale(0.015625)"/>
      </defs>
      <use xlink:href="#Roboto-Regular-54"/>
      <use xlink:href="#Roboto-Regular-65" transform="translate(59.667969 0)"/>
      <use xlink:href="#Roboto-Regular-6d" transform="translate(112.646484 0)"/>
      <use xlink:href="#Roboto-Regular-70" transform="translate(200.292969 0)"/>
      <use xlink:href="#Roboto-Regular-65" transform="translate(256.396484 0)"/>
      <use xlink:href="#Roboto-Regular-72" transform="translate(309.375 0)"/>
      <use xlink:href="#Roboto-Regular-61" transform="translate(343.212891 0)"/>
      <use xlink:href="#Roboto-Regular-74" transform="translate(397.607422 0)"/>
      <use xlink:href="#Roboto-Regular-75" transform="translate(430.273438 0)"/>
      <use xlink:href="#Roboto-Regular-72" transform="translate(485.400391 0)"/>
      <use xlink:href="#Roboto-Regular-65" transform="translate(519.238281 0)"/>
      <use xlink:href="#Roboto-Regular-20" transform="translate(572.216797 0)"/>
      <use xlink:href="#Roboto-Regular-5b" transform="translate(596.972656 0)"/>
      <use xlink:href="#Roboto-Regular-b0" transform="translate(623.486328 0)"/>
      <use xlink:href="#Roboto-Regular-43" transform="translate(660.839844 0)"/>
      <use xlink:href="#Roboto-Regular-5d" transform="translate(725.927734 0)"/>
     </g>
    </g>
   </g>
   <g id="line2d_104">
    <path d="M 300.820344 201.64 
L 310.428313 182.609741 
L 318.255148 167.569995 
L 325.112451 154.844055 
L 331.270247 143.853471 
L 337.027172 134.019791 
L 342.366771 125.343014 
L 347.262624 117.823141 
L 351.674869 111.460171 
L 355.544059 106.254105 
L 359.266671 101.626491 
L 362.316203 98.15578 
L 365.111892 95.263521 
L 367.60416 92.949714 
L 369.709865 91.214359 
L 372.169372 89.479004 
L 374.196643 88.3221 
L 375.460641 87.743648 
L 377.126676 87.165196 
L 381.050727 86.586745 
L 384.076397 86.542877 
L 384.076397 86.542877 
" clip-path="url(#pc6de012efe)" style="fill: none; stroke: #339af0; stroke-width: 2; stroke-linecap: square"/>
   </g>
   <g id="line2d_105">
    <path d="M 406.505322 201.64 
L 408.326124 189.551162 
L 409.759839 178.560578 
L 410.828795 168.726898 
L 411.614439 159.47167 
L 412.092735 151.373345 
L 412.328268 143.853471 
L 412.3328 136.91205 
L 412.121439 130.54908 
L 411.713106 124.764562 
L 411.131192 119.558496 
L 410.404495 114.930882 
L 409.568495 110.88172 
L 408.497028 106.832557 
L 407.337622 103.361846 
L 406.148372 100.469587 
L 405.004681 98.15578 
L 403.631614 95.841973 
L 402.397244 94.106618 
L 400.914009 92.371262 
L 399.052981 90.635907 
L 397.468582 89.479004 
L 395.371311 88.3221 
L 393.950229 87.743648 
L 391.954499 87.165196 
L 387.102068 86.586745 
L 384.076397 86.542877 
L 384.076397 86.542877 
" clip-path="url(#pc6de012efe)" style="fill: none; stroke: #ff6b6b; stroke-width: 2; stroke-linecap: square"/>
   </g>
   <g id="line2d_106">
    <path d="M 411.815008 156.492796 
L 413.466175 152.106076 
L 439.010922 40.231475 
L 405.750886 99.619688 
L 360.996474 99.619688 
L 358.685279 101.988517 
L 358.685279 156.492796 
L 411.815008 156.492796 
" clip-path="url(#pc6de012efe)" style="fill: none; stroke-dasharray: 2,2; stroke-dashoffset: 0; stroke: #343a40"/>
   </g>
   <g id="line2d_107">
    <path d="M 269.860062 102.427189 
L 462.813363 102.427189 
" clip-path="url(#pc6de012efe)" style="fill: none; stroke-dasharray: 3,3; stroke-dashoffset: 0; stroke: #ff6b6b; stroke-opacity: 0.9"/>
   </g>
   <g id="line2d_108">
    <path d="M 269.860062 144.539696 
L 462.813363 144.539696 
" clip-path="url(#pc6de012efe)" style="fill: none; stroke-dasharray: 3,3; stroke-dashoffset: 0; stroke: #fd7e14; stroke-opacity: 0.9"/>
   </g>
   <g id="patch_6">
    <path d="M 269.860062 172.6147 
L 269.860062 14.6928 
" style="fill: none; stroke: #000000; stroke-width: 0.3; stroke-linejoin: miter; stroke-linecap: square"/>
   </g>
   <g id="patch_7">
    <path d="M 269.860062 172.6147 
L 462.813363 172.6147 
" style="fill: none; stroke: #000000; stroke-width: 0.3; stroke-linejoin: miter; stroke-linecap: square"/>
   </g>
   <g id="line2d_109">
    <g clip-path="url(#pc6de012efe)">
     <use xlink:href="#meb11f0a45a" x="411.815008" y="156.492796" style="fill: #ffffff; stroke: #343a40"/>
    </g>
   </g>
   <g id="line2d_110">
    <g clip-path="url(#pc6de012efe)">
     <use xlink:href="#meb11f0a45a" x="405.750886" y="99.619688" style="fill: #ffffff; stroke: #343a40"/>
    </g>
   </g>
   <g id="line2d_111">
    <g clip-path="url(#pc6de012efe)">
     <use xlink:href="#meb11f0a45a" x="360.996474" y="99.619688" style="fill: #ffffff; stroke: #343a40"/>
    </g>
   </g>
   <g id="line2d_112">
    <g clip-path="url(#pc6de012efe)">
     <use xlink:href="#m639b886c71" x="413.466175" y="152.106076" style="fill: #343a40; stroke: #343a40"/>
    </g>
   </g>
   <g id="text_42">
    <!-- cmp,in -->
    <g style="fill: #343a40" transform="translate(421.466175 156.106076) scale(0.07 -0.07)">
     <use xlink:href="#Roboto-Light-63"/>
     <use xlink:href="#Roboto-Light-6d" transform="translate(51.513672 0)"/>
     <use xlink:href="#Roboto-Light-70" transform="translate(140.136719 0)"/>
     <use xlink:href="#Roboto-Light-2c" transform="translate(195.556641 0)"/>
     <use xlink:href="#Roboto-Light-69" transform="translate(214.697266 0)"/>
     <use xlink:href="#Roboto-Light-6e" transform="translate(237.109375 0)"/>
    </g>
   </g>
   <g id="line2d_113">
    <g clip-path="url(#pc6de012efe)">
     <use xlink:href="#m639b886c71" x="439.010922" y="40.231475" style="fill: #343a40; stroke: #343a40"/>
    </g>
   </g>
   <g id="text_43">
    <!-- cmp,out -->
    <g style="fill: #343a40" transform="translate(389.010922 36.231475) scale(0.07 -0.07)">
     <use xlink:href="#Roboto-Light-63"/>
     <use xlink:href="#Roboto-Light-6d" transform="translate(51.513672 0)"/>
     <use xlink:href="#Roboto-Light-70" transform="translate(140.136719 0)"/>
     <use xlink:href="#Roboto-Light-2c" transform="translate(195.556641 0)"/>
     <use xlink:href="#Roboto-Light-6f" transform="translate(214.697266 0)"/>
     <use xlink:href="#Roboto-Light-75" transform="translate(270.703125 0)"/>
     <use xlink:href="#Roboto-Light-74" transform="translate(325.634766 0)"/>
    </g>
   </g>
   <g id="line2d_114">
    <g clip-path="url(#pc6de012efe)">
     <use xlink:href="#m639b886c71" x="358.685279" y="101.988517" style="fill: #343a40; stroke: #343a40"/>
    </g>
   </g>
   <g id="text_44">
    <!-- exp,in -->
    <g style="fill: #343a40" transform="translate(328.685279 93.988517) scale(0.07 -0.07)">
     <use xlink:href="#Roboto-Light-65"/>
     <use xlink:href="#Roboto-Light-78" transform="translate(51.660156 0)"/>
     <use xlink:href="#Roboto-Light-70" transform="translate(100.292969 0)"/>
     <use xlink:href="#Roboto-Light-2c" transform="translate(155.712891 0)"/>
     <use xlink:href="#Roboto-Light-69" transform="translate(174.853516 0)"/>
     <use xlink:href="#Roboto-Light-6e" transform="translate(197.265625 0)"/>
    </g>
   </g>
   <g id="line2d_115">
    <g clip-path="url(#pc6de012efe)">
     <use xlink:href="#m639b886c71" x="358.685279" y="156.492796" style="fill: #343a40; stroke: #343a40"/>
    </g>
   </g>
   <g id="text_45">
    <!-- exp,out -->
    <g style="fill: #343a40" transform="translate(326.685279 170.492796) scale(0.07 -0.07)">
     <use xlink:href="#Roboto-Light-65"/>
     <use xlink:href="#Roboto-Light-78" transform="translate(51.660156 0)"/>
     <use xlink:href="#Roboto-Light-70" transform="translate(100.292969 0)"/>
     <use xlink:href="#Roboto-Light-2c" transform="translate(155.712891 0)"/>
     <use xlink:href="#Roboto-Light-6f" transform="translate(174.853516 0)"/>
     <use xlink:href="#Roboto-Light-75" transform="translate(230.859375 0)"/>
     <use xlink:href="#Roboto-Light-74" transform="translate(285.791016 0)"/>
    </g>
   </g>
   <g id="text_46">
    <!-- Tank water: 60.0 °C -->
    <g style="fill: #ff6b6b" transform="translate(273.994775 99.795157) scale(0.07 -0.07)">
     <defs>
      <path id="Roboto-Light-54" d="M 3663 4222 
L 2103 4222 
L 2103 0 
L 1719 0 
L 1719 4222 
L 163 4222 
L 163 4550 
L 3663 4550 
L 3663 4222 
z
" transform="scale(0.015625)"/>
      <path id="Roboto-Light-6b" d="M 1291 1703 
L 863 1291 
L 863 0 
L 488 0 
L 488 4800 
L 863 4800 
L 863 1728 
L 1216 2109 
L 2509 3381 
L 2981 3381 
L 1547 1956 
L 3106 0 
L 2659 0 
L 1291 1703 
z
" transform="scale(0.015625)"/>
      <path id="Roboto-Light-77" d="M 1297 778 
L 1353 488 
L 1428 794 
L 2241 3381 
L 2559 3381 
L 3363 816 
L 3450 459 
L 3522 788 
L 4216 3381 
L 4603 3381 
L 3619 0 
L 3300 0 
L 2431 2681 
L 2391 2866 
L 2350 2678 
L 1497 0 
L 1178 0 
L 197 3381 
L 581 3381 
L 1297 778 
z
" transform="scale(0.015625)"/>
      <path id="Roboto-Light-3a" d="M 397 225 
Q 397 334 467 411 
Q 538 488 663 488 
Q 788 488 860 411 
Q 932 334 932 225 
Q 932 116 860 45 
Q 788 -25 663 -25 
Q 538 -25 467 45 
Q 397 116 397 225 
z
M 405 3105 
Q 405 3214 475 3291 
Q 546 3368 671 3368 
Q 796 3368 868 3291 
Q 940 3214 940 3105 
Q 940 2996 868 2925 
Q 796 2855 671 2855 
Q 546 2855 475 2925 
Q 405 2996 405 3105 
z
" transform="scale(0.015625)"/>
      <path id="Roboto-Light-b0" d="M 1969 3831 
Q 1969 3506 1747 3284 
Q 1525 3063 1213 3063 
Q 897 3063 672 3286 
Q 447 3509 447 3831 
Q 447 4153 675 4383 
Q 903 4613 1212 4613 
Q 1522 4613 1745 4383 
Q 1969 4153 1969 3831 
z
M 728 3831 
Q 728 3622 867 3484 
Q 1006 3347 1212 3347 
Q 1419 3347 1553 3484 
Q 1688 3622 1688 3831 
Q 1688 4047 1553 4187 
Q 1419 4328 1213 4328 
Q 1009 4328 868 4187 
Q 728 4047 728 3831 
z
" transform="scale(0.015625)"/>
      <path id="Roboto-Light-43" d="M 3797 1419 
Q 3719 700 3283 318 
Q 2847 -63 2122 -63 
Q 1616 -63 1227 190 
Q 838 444 625 908 
Q 413 1372 409 1969 
L 409 2559 
Q 409 3166 621 3634 
Q 834 4103 1232 4358 
Q 1631 4613 2150 4613 
Q 2881 4613 3304 4217 
Q 3728 3822 3797 3125 
L 3409 3125 
Q 3266 4284 2150 4284 
Q 1531 4284 1164 3821 
Q 797 3359 797 2544 
L 797 1988 
Q 797 1200 1155 731 
Q 1513 263 2122 263 
Q 2725 263 3031 552 
Q 3338 841 3409 1419 
L 3797 1419 
z
" transform="scale(0.015625)"/>
     </defs>
     <use xlink:href="#Roboto-Light-54"/>
     <use xlink:href="#Roboto-Light-61" transform="translate(59.716797 0)"/>
     <use xlink:href="#Roboto-Light-6e" transform="translate(113.28125 0)"/>
     <use xlink:href="#Roboto-Light-6b" transform="translate(168.212891 0)"/>
     <use xlink:href="#Roboto-Light-20" transform="translate(217.1875 0)"/>
     <use xlink:href="#Roboto-Light-77" transform="translate(241.503906 0)"/>
     <use xlink:href="#Roboto-Light-61" transform="translate(316.894531 0)"/>
     <use xlink:href="#Roboto-Light-74" transform="translate(370.458984 0)"/>
     <use xlink:href="#Roboto-Light-65" transform="translate(402.587891 0)"/>
     <use xlink:href="#Roboto-Light-72" transform="translate(454.248047 0)"/>
     <use xlink:href="#Roboto-Light-3a" transform="translate(487.890625 0)"/>
     <use xlink:href="#Roboto-Light-20" transform="translate(508.886719 0)"/>
     <use xlink:href="#Roboto-Light-36" transform="translate(533.203125 0)"/>
     <use xlink:href="#Roboto-Light-30" transform="translate(588.623047 0)"/>
     <use xlink:href="#Roboto-Light-2e" transform="translate(644.042969 0)"/>
     <use xlink:href="#Roboto-Light-30" transform="translate(667.919922 0)"/>
     <use xlink:href="#Roboto-Light-20" transform="translate(723.339844 0)"/>
     <use xlink:href="#Roboto-Light-b0" transform="translate(747.65625 0)"/>
     <use xlink:href="#Roboto-Light-43" transform="translate(785.449219 0)"/>
    </g>
   </g>
   <g id="text_47">
    <!-- Outdoor air: 12.0 °C -->
    <g style="fill: #fd7e14" transform="translate(273.994775 153.313134) scale(0.07 -0.07)">
     <defs>
      <path id="Roboto-Light-4f" d="M 3938 2028 
Q 3938 1400 3720 925 
Q 3503 450 3100 193 
Q 2697 -63 2169 -63 
Q 1372 -63 881 507 
Q 391 1078 391 2047 
L 391 2516 
Q 391 3138 611 3617 
Q 831 4097 1234 4355 
Q 1638 4613 2163 4613 
Q 2688 4613 3089 4359 
Q 3491 4106 3709 3643 
Q 3928 3181 3938 2572 
L 3938 2028 
z
M 3553 2522 
Q 3553 3344 3181 3809 
Q 2809 4275 2163 4275 
Q 1528 4275 1151 3808 
Q 775 3341 775 2503 
L 775 2028 
Q 775 1219 1150 745 
Q 1525 272 2169 272 
Q 2822 272 3187 739 
Q 3553 1206 3553 2041 
L 3553 2522 
z
" transform="scale(0.015625)"/>
     </defs>
     <use xlink:href="#Roboto-Light-4f"/>
     <use xlink:href="#Roboto-Light-75" transform="translate(67.675781 0)"/>
     <use xlink:href="#Roboto-Light-74" transform="translate(122.607422 0)"/>
     <use xlink:href="#Roboto-Light-64" transform="translate(154.736328 0)"/>
     <use xlink:href="#Roboto-Light-6f" transform="translate(210.302734 0)"/>
     <use xlink:href="#Roboto-Light-6f" transform="translate(266.308594 0)"/>
     <use xlink:href="#Roboto-Light-72" transform="translate(322.314453 0)"/>
     <use xlink:href="#Roboto-Light-20" transform="translate(355.957031 0)"/>
     <use xlink:href="#Roboto-Light-61" transform="translate(380.273438 0)"/>
     <use xlink:href="#Roboto-Light-69" transform="translate(433.837891 0)"/>
     <use xlink:href="#Roboto-Light-72" transform="translate(456.25 0)"/>
     <use xlink:href="#Roboto-Light-3a" transform="translate(489.892578 0)"/>
     <use xlink:href="#Roboto-Light-20" transform="translate(510.888672 0)"/>
     <use xlink:href="#Roboto-Light-31" transform="translate(535.205078 0)"/>
     <use xlink:href="#Roboto-Light-32" transform="translate(590.625 0)"/>
     <use xlink:href="#Roboto-Light-2e" transform="translate(646.044922 0)"/>
     <use xlink:href="#Roboto-Light-30" transform="translate(669.921875 0)"/>
     <use xlink:href="#Roboto-Light-20" transform="translate(725.341797 0)"/>
     <use xlink:href="#Roboto-Light-b0" transform="translate(749.658203 0)"/>
     <use xlink:href="#Roboto-Light-43" transform="translate(787.451172 0)"/>
    </g>
   </g>
   <g id="text_48">
    <!-- b -->
    <g transform="translate(260.212397 12.458425) scale(0.11 -0.11)">
     <defs>
      <path id="Roboto-Medium-62" d="M 3356 1656 
Q 3356 869 3004 403 
Q 2653 -63 2038 -63 
Q 1444 -63 1113 366 
L 1075 0 
L 388 0 
L 388 4800 
L 1147 4800 
L 1147 3056 
Q 1475 3444 2031 3444 
Q 2650 3444 3003 2984 
Q 3356 2525 3356 1700 
L 3356 1656 
z
M 2597 1722 
Q 2597 2272 2403 2547 
Q 2209 2822 1841 2822 
Q 1347 2822 1147 2391 
L 1147 997 
Q 1350 556 1847 556 
Q 2203 556 2397 822 
Q 2591 1088 2597 1625 
L 2597 1722 
z
" transform="scale(0.015625)"/>
     </defs>
     <use xlink:href="#Roboto-Medium-62"/>
    </g>
   </g>
   <g id="legend_2">
    <g id="line2d_116">
     <path d="M 284.93726 21.064988 
L 291.93726 21.064988 
L 298.93726 21.064988 
" style="fill: none; stroke: #339af0; stroke-width: 2; stroke-linecap: square"/>
    </g>
    <g id="text_49">
     <!-- Sat. liquid -->
     <g transform="translate(301.03726 23.514988) scale(0.07 -0.07)">
      <use xlink:href="#Roboto-Light-53"/>
      <use xlink:href="#Roboto-Light-61" transform="translate(59.228516 0)"/>
      <use xlink:href="#Roboto-Light-74" transform="translate(112.792969 0)"/>
      <use xlink:href="#Roboto-Light-2e" transform="translate(144.921875 0)"/>
      <use xlink:href="#Roboto-Light-20" transform="translate(168.798828 0)"/>
      <use xlink:href="#Roboto-Light-6c" transform="translate(193.115234 0)"/>
      <use xlink:href="#Roboto-Light-69" transform="translate(215.527344 0)"/>
      <use xlink:href="#Roboto-Light-71" transform="translate(237.939453 0)"/>
      <use xlink:href="#Roboto-Light-75" transform="translate(293.701172 0)"/>
      <use xlink:href="#Roboto-Light-69" transform="translate(348.632812 0)"/>
      <use xlink:href="#Roboto-Light-64" transform="translate(371.044922 0)"/>
     </g>
    </g>
    <g id="line2d_117">
     <path d="M 336.148822 21.064988 
L 343.148822 21.064988 
L 350.148822 21.064988 
" style="fill: none; stroke: #ff6b6b; stroke-width: 2; stroke-linecap: square"/>
    </g>
    <g id="text_50">
     <!-- Sat. vapor -->
     <g transform="translate(352.248822 23.514988) scale(0.07 -0.07)">
      <use xlink:href="#Roboto-Light-53"/>
      <use xlink:href="#Roboto-Light-61" transform="translate(59.228516 0)"/>
      <use xlink:href="#Roboto-Light-74" transform="translate(112.792969 0)"/>
      <use xlink:href="#Roboto-Light-2e" transform="translate(144.921875 0)"/>
      <use xlink:href="#Roboto-Light-20" transform="translate(168.798828 0)"/>
      <use xlink:href="#Roboto-Light-76" transform="translate(193.115234 0)"/>
      <use xlink:href="#Roboto-Light-61" transform="translate(241.210938 0)"/>
      <use xlink:href="#Roboto-Light-70" transform="translate(294.775391 0)"/>
      <use xlink:href="#Roboto-Light-6f" transform="translate(350.195312 0)"/>
      <use xlink:href="#Roboto-Light-72" transform="translate(406.201172 0)"/>
     </g>
    </g>
    <g id="line2d_118">
     <path d="M 388.286791 21.064988 
L 395.286791 21.064988 
L 402.286791 21.064988 
" style="fill: none; stroke-dasharray: 2,2; stroke-dashoffset: 0; stroke: #343a40"/>
    </g>
    <g id="text_51">
     <!-- Ref. cycle -->
     <g transform="translate(404.386791 23.514988) scale(0.07 -0.07)">
      <use xlink:href="#Roboto-Light-52"/>
      <use xlink:href="#Roboto-Light-65" transform="translate(63.476562 0)"/>
      <use xlink:href="#Roboto-Light-66" transform="translate(115.136719 0)"/>
      <use xlink:href="#Roboto-Light-2e" transform="translate(148.242188 0)"/>
      <use xlink:href="#Roboto-Light-20" transform="translate(172.119141 0)"/>
      <use xlink:href="#Roboto-Light-63" transform="translate(196.435547 0)"/>
      <use xlink:href="#Roboto-Light-79" transform="translate(247.949219 0)"/>
      <use xlink:href="#Roboto-Light-63" transform="translate(295.458984 0)"/>
      <use xlink:href="#Roboto-Light-6c" transform="translate(346.972656 0)"/>
      <use xlink:href="#Roboto-Light-65" transform="translate(369.384766 0)"/>
     </g>
    </g>
   </g>
  </g>
 </g>
 <defs>
  <clipPath id="p89d4301bb1">
   <rect x="38.3161" y="14.6928" width="192.953301" height="157.9219"/>
  </clipPath>
  <clipPath id="pc6de012efe">
   <rect x="269.860062" y="14.6928" width="192.953301" height="157.9219"/>
  </clipPath>
 </defs>
</svg>
