<?xml version="1.0" encoding="utf-8" standalone="no"?>
<!DOCTYPE svg PUBLIC "-//W3C//DTD SVG 1.1//EN"
  "http://www.w3.org/Graphics/SVG/1.1/DTD/svg11.dtd">
<svg xmlns:xlink="http://www.w3.org/1999/xlink" width="368.4pt" height="276.24pt" viewBox="0 0 368.4 276.24" xmlns="http://www.w3.org/2000/svg" version="1.1">
 <metadata>
  <rdf:RDF xmlns:dc="http://purl.org/dc/elements/1.1/" xmlns:cc="http://creativecommons.org/ns#" xmlns:rdf="http://www.w3.org/1999/02/22-rdf-syntax-ns#">
   <cc:Work>
    <dc:type rdf:resource="http://purl.org/dc/dcmitype/StillImage"/>
    <dc:date>2026-05-17T23:52:57.568051</dc:date>
    <dc:format>image/svg+xml</dc:format>
    <dc:creator>
     <cc:Agent>
      <dc:title>Matplotlib v3.10.9, https://matplotlib.org/</dc:title>
     </cc:Agent>
    </dc:creator>
   </cc:Work>
  </rdf:RDF>
 </metadata>
 <defs>
  <style type="text/css">*{stroke-linejoin: round; stroke-linecap: butt}</style>
 </defs>
 <g id="figure_1">
  <g id="patch_1">
   <path d="M 0 276.24 
L 368.4 276.24 
L 368.4 0 
L 0 0 
z
" style="fill: #ffffff"/>
  </g>
  <g id="axes_1">
   <g id="patch_2">
    <path d="M 32.218 246.1072 
L 361.032 246.1072 
L 361.032 5.5248 
L 32.218 5.5248 
z
" style="fill: #ffffff"/>
   </g>
   <g id="matplotlib.axis_1">
    <g id="xtick_1">
     <g id="line2d_1">
      <path d="M 34.010333 246.1072 
L 34.010333 5.5248 
" clip-path="url(#pecd75d8b97)" style="fill: none; stroke: #dee2e6; stroke-opacity: 0.25; stroke-width: -1; stroke-linecap: square"/>
     </g>
     <g id="line2d_2">
      <defs>
       <path id="mc1f253ca44" d="M 0 0 
L 0 2 
" style="stroke: #000000; stroke-width: 0.3"/>
      </defs>
      <g>
       <use xlink:href="#mc1f253ca44" x="34.010333" y="246.1072" style="stroke: #000000; stroke-width: 0.3"/>
      </g>
     </g>
     <g id="text_1">
      <!-- −14 -->
      <g transform="translate(27.295333 256.1072) scale(0.08 -0.08)">
       <defs>
        <path id="Roboto-Light-2212" d="M 3125 2144 
L 516 2144 
L 516 2463 
L 3125 2463 
L 3125 2144 
z
" transform="scale(0.015625)"/>
        <path id="Roboto-Light-31" d="M 2169 0 
L 1794 0 
L 1794 4100 
L 556 3641 
L 556 3991 
L 2106 4566 
L 2169 4566 
L 2169 0 
z
" transform="scale(0.015625)"/>
        <path id="Roboto-Light-34" d="M 2725 1466 
L 3434 1466 
L 3434 1150 
L 2725 1150 
L 2725 0 
L 2350 0 
L 2350 1150 
L 209 1150 
L 209 1363 
L 2316 4550 
L 2725 4550 
L 2725 1466 
z
M 669 1466 
L 2350 1466 
L 2350 4066 
L 2184 3778 
L 669 1466 
z
" transform="scale(0.015625)"/>
       </defs>
       <use xlink:href="#Roboto-Light-2212"/>
       <use xlink:href="#Roboto-Light-31" transform="translate(57.03125 0)"/>
       <use xlink:href="#Roboto-Light-34" transform="translate(112.451172 0)"/>
      </g>
     </g>
    </g>
    <g id="xtick_2">
     <g id="line2d_3">
      <path d="M 81.917739 246.1072 
L 81.917739 5.5248 
" clip-path="url(#pecd75d8b97)" style="fill: none; stroke: #dee2e6; stroke-opacity: 0.25; stroke-width: -1; stroke-linecap: square"/>
     </g>
     <g id="line2d_4">
      <g>
       <use xlink:href="#mc1f253ca44" x="81.917739" y="246.1072" style="stroke: #000000; stroke-width: 0.3"/>
      </g>
     </g>
     <g id="text_2">
      <!-- −12 -->
      <g transform="translate(75.202739 256.1072) scale(0.08 -0.08)">
       <defs>
        <path id="Roboto-Light-32" d="M 3278 0 
L 428 0 
L 428 288 
L 1988 2056 
Q 2375 2503 2525 2793 
Q 2675 3084 2675 3359 
Q 2675 3791 2422 4042 
Q 2169 4294 1725 4294 
Q 1266 4294 983 4000 
Q 700 3706 700 3238 
L 328 3238 
Q 328 3622 501 3937 
Q 675 4253 995 4433 
Q 1316 4613 1725 4613 
Q 2350 4613 2701 4284 
Q 3053 3956 3053 3391 
Q 3053 3072 2854 2694 
Q 2656 2316 2156 1750 
L 888 316 
L 3278 316 
L 3278 0 
z
" transform="scale(0.015625)"/>
       </defs>
       <use xlink:href="#Roboto-Light-2212"/>
       <use xlink:href="#Roboto-Light-31" transform="translate(57.03125 0)"/>
       <use xlink:href="#Roboto-Light-32" transform="translate(112.451172 0)"/>
      </g>
     </g>
    </g>
    <g id="xtick_3">
     <g id="line2d_5">
      <path d="M 129.825145 246.1072 
L 129.825145 5.5248 
" clip-path="url(#pecd75d8b97)" style="fill: none; stroke: #dee2e6; stroke-opacity: 0.25; stroke-width: -1; stroke-linecap: square"/>
     </g>
     <g id="line2d_6">
      <g>
       <use xlink:href="#mc1f253ca44" x="129.825145" y="246.1072" style="stroke: #000000; stroke-width: 0.3"/>
      </g>
     </g>
     <g id="text_3">
      <!-- −10 -->
      <g transform="translate(123.110145 256.1072) scale(0.08 -0.08)">
       <defs>
        <path id="Roboto-Light-30" d="M 3172 1897 
Q 3172 934 2819 435 
Q 2466 -63 1778 -63 
Q 1103 -63 743 426 
Q 384 916 375 1850 
L 375 2666 
Q 375 3625 731 4119 
Q 1088 4613 1772 4613 
Q 2447 4613 2803 4136 
Q 3159 3659 3172 2731 
L 3172 1897 
z
M 2797 2713 
Q 2797 3494 2542 3894 
Q 2288 4294 1772 4294 
Q 1266 4294 1009 3903 
Q 753 3513 747 2750 
L 747 1856 
Q 747 1078 1011 665 
Q 1275 253 1778 253 
Q 2278 253 2536 656 
Q 2794 1059 2797 1838 
L 2797 2713 
z
" transform="scale(0.015625)"/>
       </defs>
       <use xlink:href="#Roboto-Light-2212"/>
       <use xlink:href="#Roboto-Light-31" transform="translate(57.03125 0)"/>
       <use xlink:href="#Roboto-Light-30" transform="translate(112.451172 0)"/>
      </g>
     </g>
    </g>
    <g id="xtick_4">
     <g id="line2d_7">
      <path d="M 177.732551 246.1072 
L 177.732551 5.5248 
" clip-path="url(#pecd75d8b97)" style="fill: none; stroke: #dee2e6; stroke-opacity: 0.25; stroke-width: -1; stroke-linecap: square"/>
     </g>
     <g id="line2d_8">
      <g>
       <use xlink:href="#mc1f253ca44" x="177.732551" y="246.1072" style="stroke: #000000; stroke-width: 0.3"/>
      </g>
     </g>
     <g id="text_4">
      <!-- −8 -->
      <g transform="translate(173.234426 256.1072) scale(0.08 -0.08)">
       <defs>
        <path id="Roboto-Light-38" d="M 3109 3378 
Q 3109 3025 2903 2745 
Q 2697 2466 2359 2334 
Q 2753 2200 2990 1900 
Q 3228 1600 3228 1206 
Q 3228 622 2831 279 
Q 2434 -63 1781 -63 
Q 1122 -63 726 278 
Q 331 619 331 1206 
Q 331 1594 559 1897 
Q 788 2200 1184 2334 
Q 847 2466 647 2745 
Q 447 3025 447 3378 
Q 447 3944 811 4278 
Q 1175 4613 1775 4613 
Q 2375 4613 2742 4275 
Q 3109 3938 3109 3378 
z
M 2853 1203 
Q 2853 1628 2550 1901 
Q 2247 2175 1775 2175 
Q 1303 2175 1003 1906 
Q 703 1638 703 1203 
Q 703 769 993 511 
Q 1284 253 1781 253 
Q 2266 253 2559 509 
Q 2853 766 2853 1203 
z
M 2734 3381 
Q 2734 3772 2464 4033 
Q 2194 4294 1775 4294 
Q 1350 4294 1086 4042 
Q 822 3791 822 3381 
Q 822 2981 1086 2737 
Q 1350 2494 1778 2494 
Q 2200 2494 2467 2739 
Q 2734 2984 2734 3381 
z
" transform="scale(0.015625)"/>
       </defs>
       <use xlink:href="#Roboto-Light-2212"/>
       <use xlink:href="#Roboto-Light-38" transform="translate(57.03125 0)"/>
      </g>
     </g>
    </g>
    <g id="xtick_5">
     <g id="line2d_9">
      <path d="M 225.639957 246.1072 
L 225.639957 5.5248 
" clip-path="url(#pecd75d8b97)" style="fill: none; stroke: #dee2e6; stroke-opacity: 0.25; stroke-width: -1; stroke-linecap: square"/>
     </g>
     <g id="line2d_10">
      <g>
       <use xlink:href="#mc1f253ca44" x="225.639957" y="246.1072" style="stroke: #000000; stroke-width: 0.3"/>
      </g>
     </g>
     <g id="text_5">
      <!-- −6 -->
      <g transform="translate(221.141832 256.1072) scale(0.08 -0.08)">
       <defs>
        <path id="Roboto-Light-36" d="M 2634 4584 
L 2634 4256 
L 2591 4256 
Q 1775 4256 1306 3776 
Q 838 3297 788 2444 
Q 975 2703 1265 2845 
Q 1556 2988 1916 2988 
Q 2516 2988 2870 2573 
Q 3225 2159 3225 1491 
Q 3225 1047 3059 690 
Q 2894 334 2584 135 
Q 2275 -63 1878 -63 
Q 1225 -63 815 410 
Q 406 884 406 1634 
L 406 2009 
Q 406 3231 962 3901 
Q 1519 4572 2541 4584 
L 2634 4584 
z
M 1856 2666 
Q 1500 2666 1192 2455 
Q 884 2244 781 1919 
L 781 1600 
Q 781 1006 1086 631 
Q 1391 256 1878 256 
Q 2316 256 2586 603 
Q 2856 950 2856 1478 
Q 2856 2016 2586 2341 
Q 2316 2666 1856 2666 
z
" transform="scale(0.015625)"/>
       </defs>
       <use xlink:href="#Roboto-Light-2212"/>
       <use xlink:href="#Roboto-Light-36" transform="translate(57.03125 0)"/>
      </g>
     </g>
    </g>
    <g id="xtick_6">
     <g id="line2d_11">
      <path d="M 273.547363 246.1072 
L 273.547363 5.5248 
" clip-path="url(#pecd75d8b97)" style="fill: none; stroke: #dee2e6; stroke-opacity: 0.25; stroke-width: -1; stroke-linecap: square"/>
     </g>
     <g id="line2d_12">
      <g>
       <use xlink:href="#mc1f253ca44" x="273.547363" y="246.1072" style="stroke: #000000; stroke-width: 0.3"/>
      </g>
     </g>
     <g id="text_6">
      <!-- −4 -->
      <g transform="translate(269.049238 256.1072) scale(0.08 -0.08)">
       <use xlink:href="#Roboto-Light-2212"/>
       <use xlink:href="#Roboto-Light-34" transform="translate(57.03125 0)"/>
      </g>
     </g>
    </g>
    <g id="xtick_7">
     <g id="line2d_13">
      <path d="M 321.454769 246.1072 
L 321.454769 5.5248 
" clip-path="url(#pecd75d8b97)" style="fill: none; stroke: #dee2e6; stroke-opacity: 0.25; stroke-width: -1; stroke-linecap: square"/>
     </g>
     <g id="line2d_14">
      <g>
       <use xlink:href="#mc1f253ca44" x="321.454769" y="246.1072" style="stroke: #000000; stroke-width: 0.3"/>
      </g>
     </g>
     <g id="text_7">
      <!-- −2 -->
      <g transform="translate(316.956644 256.1072) scale(0.08 -0.08)">
       <use xlink:href="#Roboto-Light-2212"/>
       <use xlink:href="#Roboto-Light-32" transform="translate(57.03125 0)"/>
      </g>
     </g>
    </g>
    <g id="text_8">
     <!-- $\ln(t / t_s)$, with $t_s = H^2 / (9\alpha_s)$ -->
     <g transform="translate(152.905 268.5872) scale(0.08 -0.08)">
      <defs>
       <path id="NotoSansMath-Regular-6c" d="M 544 0 
L 544 4864 
L 1107 4864 
L 1107 0 
L 544 0 
z
" transform="scale(0.015625)"/>
       <path id="NotoSansMath-Regular-6e" d="M 544 0 
L 544 3430 
L 998 3430 
L 1082 2963 
L 1114 2963 
Q 1280 3232 1574 3363 
Q 1869 3494 2195 3494 
Q 2810 3494 3123 3196 
Q 3437 2899 3437 2234 
L 3437 0 
L 2880 0 
L 2880 2195 
Q 2880 3021 2112 3021 
Q 1542 3021 1324 2701 
Q 1107 2381 1107 1779 
L 1107 0 
L 544 0 
z
" transform="scale(0.015625)"/>
       <path id="NotoSansMath-Regular-28" d="M 1197 -1011 
Q 710 -448 483 265 
Q 256 979 256 1754 
Q 256 2534 483 3260 
Q 710 3987 1197 4570 
L 1728 4570 
Q 1280 3968 1053 3245 
Q 826 2522 826 1760 
Q 826 1018 1053 304 
Q 1280 -410 1722 -1011 
L 1197 -1011 
z
" transform="scale(0.015625)"/>
       <path id="NotoSansMath-Regular-74" d="M 1594 -64 
Q 1325 -64 1097 29 
Q 870 122 729 352 
Q 589 582 589 998 
L 589 2995 
L 102 2995 
L 102 3264 
L 595 3488 
L 819 4218 
L 1152 4218 
L 1152 3430 
L 2144 3430 
L 2144 2995 
L 1152 2995 
L 1152 1011 
Q 1152 698 1302 547 
Q 1453 397 1690 397 
Q 1818 397 1952 419 
Q 2086 442 2170 467 
L 2170 38 
Q 2080 -6 1913 -35 
Q 1747 -64 1594 -64 
z
" transform="scale(0.015625)"/>
       <path id="NotoSansMath-Regular-2f" d="M 64 0 
L 1766 4570 
L 2317 4570 
L 614 0 
L 64 0 
z
" transform="scale(0.015625)"/>
       <path id="NotoSansMath-Regular-73" d="M 1408 -64 
Q 1050 -64 790 -6 
Q 531 51 333 154 
L 333 666 
Q 538 563 829 476 
Q 1120 390 1421 390 
Q 1850 390 2042 528 
Q 2234 666 2234 896 
Q 2234 1024 2163 1126 
Q 2093 1229 1910 1331 
Q 1728 1434 1389 1562 
Q 1056 1690 819 1818 
Q 582 1946 454 2125 
Q 326 2304 326 2586 
Q 326 3021 681 3257 
Q 1037 3494 1613 3494 
Q 1926 3494 2198 3433 
Q 2470 3373 2707 3264 
L 2515 2816 
Q 2298 2906 2061 2970 
Q 1824 3034 1574 3034 
Q 1229 3034 1046 2922 
Q 864 2810 864 2618 
Q 864 2477 947 2377 
Q 1030 2278 1225 2185 
Q 1421 2093 1747 1965 
Q 2074 1843 2304 1712 
Q 2534 1581 2656 1401 
Q 2778 1222 2778 947 
Q 2778 448 2406 192 
Q 2035 -64 1408 -64 
z
" transform="scale(0.015625)"/>
       <path id="NotoSansMath-Regular-29" d="M 198 -1011 
Q 640 -410 867 304 
Q 1094 1018 1094 1760 
Q 1094 2522 867 3245 
Q 640 3968 192 4570 
L 723 4570 
Q 1210 3987 1437 3260 
Q 1664 2534 1664 1754 
Q 1664 979 1437 265 
Q 1210 -448 723 -1011 
L 198 -1011 
z
" transform="scale(0.015625)"/>
       <path id="Roboto-Regular-2c" d="M 419 -906 
L 91 -681 
Q 384 -272 397 163 
L 397 684 
L 963 684 
L 963 231 
Q 963 -84 808 -400 
Q 653 -716 419 -906 
z
" transform="scale(0.015625)"/>
       <path id="Roboto-Regular-20" transform="scale(0.015625)"/>
       <path id="Roboto-Regular-77" d="M 3431 797 
L 4081 3381 
L 4659 3381 
L 3675 0 
L 3206 0 
L 2384 2563 
L 1584 0 
L 1116 0 
L 134 3381 
L 709 3381 
L 1375 850 
L 2163 3381 
L 2628 3381 
L 3431 797 
z
" transform="scale(0.015625)"/>
       <path id="Roboto-Regular-69" d="M 1066 0 
L 488 0 
L 488 3381 
L 1066 3381 
L 1066 0 
z
M 441 4278 
Q 441 4419 527 4516 
Q 613 4613 781 4613 
Q 950 4613 1037 4516 
Q 1125 4419 1125 4278 
Q 1125 4138 1037 4044 
Q 950 3950 781 3950 
Q 613 3950 527 4044 
Q 441 4138 441 4278 
z
" transform="scale(0.015625)"/>
       <path id="Roboto-Regular-74" d="M 1222 4200 
L 1222 3381 
L 1853 3381 
L 1853 2934 
L 1222 2934 
L 1222 838 
Q 1222 634 1306 532 
Q 1391 431 1594 431 
Q 1694 431 1869 469 
L 1869 0 
Q 1641 -63 1425 -63 
Q 1038 -63 841 171 
Q 644 406 644 838 
L 644 2934 
L 28 2934 
L 28 3381 
L 644 3381 
L 644 4200 
L 1222 4200 
z
" transform="scale(0.015625)"/>
       <path id="Roboto-Regular-68" d="M 1016 2972 
Q 1400 3444 2016 3444 
Q 3088 3444 3097 2234 
L 3097 0 
L 2519 0 
L 2519 2238 
Q 2516 2603 2352 2778 
Q 2188 2953 1841 2953 
Q 1559 2953 1346 2803 
Q 1134 2653 1016 2409 
L 1016 0 
L 438 0 
L 438 4800 
L 1016 4800 
L 1016 2972 
z
" transform="scale(0.015625)"/>
       <path id="NotoSansMath-Regular-3d" d="M 365 2662 
L 365 3117 
L 3296 3117 
L 3296 2662 
L 365 2662 
z
M 365 1389 
L 365 1843 
L 3296 1843 
L 3296 1389 
L 365 1389 
z
" transform="scale(0.015625)"/>
       <path id="NotoSansMath-Regular-48" d="M 621 0 
L 621 4570 
L 1197 4570 
L 1197 2637 
L 3539 2637 
L 3539 4570 
L 4115 4570 
L 4115 0 
L 3539 0 
L 3539 2131 
L 1197 2131 
L 1197 0 
L 621 0 
z
" transform="scale(0.015625)"/>
       <path id="NotoSansMath-Regular-32" d="M 307 0 
L 307 467 
L 1504 1677 
Q 1850 2022 2086 2291 
Q 2323 2560 2444 2819 
Q 2566 3078 2566 3386 
Q 2566 3763 2342 3958 
Q 2118 4154 1760 4154 
Q 1427 4154 1174 4038 
Q 922 3923 659 3718 
L 358 4096 
Q 627 4320 976 4477 
Q 1325 4634 1760 4634 
Q 2400 4634 2771 4310 
Q 3142 3987 3142 3418 
Q 3142 3059 2995 2748 
Q 2848 2438 2585 2131 
Q 2323 1824 1971 1478 
L 1018 538 
L 1018 512 
L 3328 512 
L 3328 0 
L 307 0 
z
" transform="scale(0.015625)"/>
       <path id="NotoSansMath-Regular-39" d="M 1229 -64 
Q 1101 -64 931 -48 
Q 762 -32 653 0 
L 653 480 
Q 902 397 1216 397 
Q 1664 397 1955 544 
Q 2246 691 2419 944 
Q 2592 1197 2669 1533 
Q 2746 1869 2758 2240 
L 2720 2240 
Q 2579 2022 2313 1865 
Q 2048 1709 1632 1709 
Q 1043 1709 681 2070 
Q 320 2432 320 3091 
Q 320 3571 502 3916 
Q 685 4262 1011 4448 
Q 1338 4634 1779 4634 
Q 2214 4634 2566 4413 
Q 2918 4192 3123 3747 
Q 3328 3302 3328 2618 
Q 3328 2125 3241 1648 
Q 3155 1171 2928 784 
Q 2701 397 2288 166 
Q 1875 -64 1229 -64 
z
M 1754 2150 
Q 2061 2150 2285 2275 
Q 2509 2400 2633 2592 
Q 2758 2784 2758 2989 
Q 2758 3264 2649 3533 
Q 2541 3802 2323 3981 
Q 2106 4160 1779 4160 
Q 1382 4160 1129 3897 
Q 877 3635 877 3098 
Q 877 2656 1091 2403 
Q 1306 2150 1754 2150 
z
" transform="scale(0.015625)"/>
       <path id="NotoSansMath-Regular-3b1" d="M 1760 -64 
Q 1133 -64 742 381 
Q 352 826 352 1702 
Q 352 2573 736 3033 
Q 1120 3494 1811 3494 
Q 2189 3494 2441 3363 
Q 2694 3232 2861 2970 
L 2899 2970 
Q 2931 3078 2982 3206 
Q 3034 3334 3104 3430 
L 3546 3430 
Q 3501 3290 3462 3059 
Q 3424 2829 3405 2573 
Q 3386 2317 3386 2086 
L 3386 755 
Q 3386 557 3462 477 
Q 3539 397 3648 397 
Q 3699 397 3756 409 
Q 3814 422 3840 429 
L 3840 19 
Q 3795 -6 3692 -35 
Q 3590 -64 3482 -64 
Q 3245 -64 3094 51 
Q 2944 166 2874 461 
L 2829 461 
Q 2682 243 2438 89 
Q 2195 -64 1760 -64 
z
M 1856 403 
Q 2387 403 2608 707 
Q 2829 1011 2829 1670 
L 2829 1709 
Q 2829 2349 2621 2685 
Q 2413 3021 1850 3021 
Q 1382 3021 1158 2681 
Q 934 2342 934 1696 
Q 934 1056 1155 729 
Q 1376 403 1856 403 
z
" transform="scale(0.015625)"/>
      </defs>
      <use xlink:href="#NotoSansMath-Regular-6c" transform="translate(0 0.8)"/>
      <use xlink:href="#NotoSansMath-Regular-6e" transform="translate(25.799988 0.8)"/>
      <use xlink:href="#NotoSansMath-Regular-28" transform="translate(87.599976 0.8)"/>
      <use xlink:href="#NotoSansMath-Regular-74" transform="translate(117.59996 0.8)"/>
      <use xlink:href="#NotoSansMath-Regular-2f" transform="translate(153.699951 0.8)"/>
      <use xlink:href="#NotoSansMath-Regular-74" transform="translate(190.899948 0.8)"/>
      <use xlink:href="#NotoSansMath-Regular-73" transform="translate(226.999939 -15.278125) scale(0.7)"/>
      <use xlink:href="#NotoSansMath-Regular-29" transform="translate(263.209622 0.8)"/>
      <use xlink:href="#Roboto-Regular-2c" transform="translate(293.209607 0.8)"/>
      <use xlink:href="#Roboto-Regular-20" transform="translate(312.838513 0.8)"/>
      <use xlink:href="#Roboto-Regular-77" transform="translate(337.594373 0.8)"/>
      <use xlink:href="#Roboto-Regular-69" transform="translate(412.740857 0.8)"/>
      <use xlink:href="#Roboto-Regular-74" transform="translate(437.008435 0.8)"/>
      <use xlink:href="#Roboto-Regular-68" transform="translate(469.674451 0.8)"/>
      <use xlink:href="#Roboto-Regular-20" transform="translate(524.752576 0.8)"/>
      <use xlink:href="#NotoSansMath-Regular-74" transform="translate(549.508435 0.8)"/>
      <use xlink:href="#NotoSansMath-Regular-73" transform="translate(585.608426 -15.278125) scale(0.7)"/>
      <use xlink:href="#NotoSansMath-Regular-3d" transform="translate(640.518106 0.8)"/>
      <use xlink:href="#NotoSansMath-Regular-48" transform="translate(716.4181 0.8)"/>
      <use xlink:href="#NotoSansMath-Regular-32" transform="translate(797.388664 38.315625) scale(0.7)"/>
      <use xlink:href="#NotoSansMath-Regular-2f" transform="translate(840.108349 0.8)"/>
      <use xlink:href="#NotoSansMath-Regular-28" transform="translate(877.308346 0.8)"/>
      <use xlink:href="#NotoSansMath-Regular-39" transform="translate(907.308331 0.8)"/>
      <use xlink:href="#NotoSansMath-Regular-3b1" transform="translate(964.508328 0.8)"/>
      <use xlink:href="#NotoSansMath-Regular-73" transform="translate(1026.008312 -15.278125) scale(0.7)"/>
      <use xlink:href="#NotoSansMath-Regular-29" transform="translate(1062.217996 0.8)"/>
     </g>
    </g>
   </g>
   <g id="matplotlib.axis_2">
    <g id="ytick_1">
     <g id="line2d_15">
      <path d="M 32.218 229.006132 
L 361.032 229.006132 
" clip-path="url(#pecd75d8b97)" style="fill: none; stroke: #dee2e6; stroke-opacity: 0.25; stroke-width: -1; stroke-linecap: square"/>
     </g>
     <g id="line2d_16">
      <defs>
       <path id="mc5c2f7087b" d="M 0 0 
L -2 0 
" style="stroke: #000000; stroke-width: 0.3"/>
      </defs>
      <g>
       <use xlink:href="#mc5c2f7087b" x="32.218" y="229.006132" style="stroke: #000000; stroke-width: 0.3"/>
      </g>
     </g>
     <g id="text_9">
      <!-- 0 -->
      <g transform="translate(24.78425 232.006132) scale(0.08 -0.08)">
       <use xlink:href="#Roboto-Light-30"/>
      </g>
     </g>
    </g>
    <g id="ytick_2">
     <g id="line2d_17">
      <path d="M 32.218 182.447305 
L 361.032 182.447305 
" clip-path="url(#pecd75d8b97)" style="fill: none; stroke: #dee2e6; stroke-opacity: 0.25; stroke-width: -1; stroke-linecap: square"/>
     </g>
     <g id="line2d_18">
      <g>
       <use xlink:href="#mc5c2f7087b" x="32.218" y="182.447305" style="stroke: #000000; stroke-width: 0.3"/>
      </g>
     </g>
     <g id="text_10">
      <!-- 5 -->
      <g transform="translate(24.78425 185.447305) scale(0.08 -0.08)">
       <defs>
        <path id="Roboto-Light-35" d="M 681 2331 
L 903 4550 
L 3178 4550 
L 3178 4203 
L 1225 4203 
L 1066 2666 
Q 1431 2916 1922 2916 
Q 2538 2916 2903 2516 
Q 3269 2116 3269 1450 
Q 3269 731 2912 334 
Q 2556 -63 1909 -63 
Q 1316 -63 947 268 
Q 578 600 525 1197 
L 884 1197 
Q 938 731 1200 492 
Q 1463 253 1909 253 
Q 2397 253 2645 562 
Q 2894 872 2894 1444 
Q 2894 1944 2616 2259 
Q 2338 2575 1856 2575 
Q 1591 2575 1394 2508 
Q 1197 2441 978 2247 
L 681 2331 
z
" transform="scale(0.015625)"/>
       </defs>
       <use xlink:href="#Roboto-Light-35"/>
      </g>
     </g>
    </g>
    <g id="ytick_3">
     <g id="line2d_19">
      <path d="M 32.218 135.888477 
L 361.032 135.888477 
" clip-path="url(#pecd75d8b97)" style="fill: none; stroke: #dee2e6; stroke-opacity: 0.25; stroke-width: -1; stroke-linecap: square"/>
     </g>
     <g id="line2d_20">
      <g>
       <use xlink:href="#mc5c2f7087b" x="32.218" y="135.888477" style="stroke: #000000; stroke-width: 0.3"/>
      </g>
     </g>
     <g id="text_11">
      <!-- 10 -->
      <g transform="translate(20.3505 138.888477) scale(0.08 -0.08)">
       <use xlink:href="#Roboto-Light-31"/>
       <use xlink:href="#Roboto-Light-30" transform="translate(55.419922 0)"/>
      </g>
     </g>
    </g>
    <g id="ytick_4">
     <g id="line2d_21">
      <path d="M 32.218 89.329649 
L 361.032 89.329649 
" clip-path="url(#pecd75d8b97)" style="fill: none; stroke: #dee2e6; stroke-opacity: 0.25; stroke-width: -1; stroke-linecap: square"/>
     </g>
     <g id="line2d_22">
      <g>
       <use xlink:href="#mc5c2f7087b" x="32.218" y="89.329649" style="stroke: #000000; stroke-width: 0.3"/>
      </g>
     </g>
     <g id="text_12">
      <!-- 15 -->
      <g transform="translate(20.3505 92.329649) scale(0.08 -0.08)">
       <use xlink:href="#Roboto-Light-31"/>
       <use xlink:href="#Roboto-Light-35" transform="translate(55.419922 0)"/>
      </g>
     </g>
    </g>
    <g id="ytick_5">
     <g id="line2d_23">
      <path d="M 32.218 42.770821 
L 361.032 42.770821 
" clip-path="url(#pecd75d8b97)" style="fill: none; stroke: #dee2e6; stroke-opacity: 0.25; stroke-width: -1; stroke-linecap: square"/>
     </g>
     <g id="line2d_24">
      <g>
       <use xlink:href="#mc5c2f7087b" x="32.218" y="42.770821" style="stroke: #000000; stroke-width: 0.3"/>
      </g>
     </g>
     <g id="text_13">
      <!-- 20 -->
      <g transform="translate(20.3505 45.770821) scale(0.08 -0.08)">
       <use xlink:href="#Roboto-Light-32"/>
       <use xlink:href="#Roboto-Light-30" transform="translate(55.419922 0)"/>
      </g>
     </g>
    </g>
    <g id="text_14">
     <!-- $g(t/t_s, B/H)$ [-] -->
     <g transform="translate(14.4305 149.616) rotate(-90) scale(0.08 -0.08)">
      <defs>
       <path id="NotoSansMath-Regular-67" d="M 1856 -1536 
Q 1101 -1536 621 -1318 
L 621 -800 
Q 1126 -1069 1888 -1069 
Q 2330 -1069 2582 -809 
Q 2835 -550 2835 -102 
L 2835 32 
Q 2835 109 2841 253 
Q 2848 397 2854 454 
L 2829 454 
Q 2483 -64 1766 -64 
Q 1101 -64 726 403 
Q 352 870 352 1709 
Q 352 2528 726 3011 
Q 1101 3494 1760 3494 
Q 2099 3494 2371 3366 
Q 2643 3238 2835 2976 
L 2867 2976 
L 2944 3430 
L 3392 3430 
L 3392 -58 
Q 3392 -794 3017 -1165 
Q 2643 -1536 1856 -1536 
z
M 1850 397 
Q 2368 397 2605 675 
Q 2842 954 2842 1574 
L 2842 1709 
Q 2842 2413 2598 2717 
Q 2355 3021 1837 3021 
Q 1408 3021 1171 2678 
Q 934 2336 934 1702 
Q 934 1069 1168 733 
Q 1402 397 1850 397 
z
" transform="scale(0.015625)"/>
       <path id="NotoSansMath-Regular-2c" d="M 262 -826 
Q 352 -461 445 -25 
Q 538 410 582 742 
L 1184 742 
L 1229 672 
Q 1146 333 989 -73 
Q 832 -480 678 -826 
L 262 -826 
z
" transform="scale(0.015625)"/>
       <path id="NotoSansMath-Regular-42" d="M 621 0 
L 621 4570 
L 1926 4570 
Q 2784 4570 3222 4317 
Q 3661 4064 3661 3437 
Q 3661 3034 3437 2768 
Q 3213 2502 2790 2426 
L 2790 2394 
Q 3078 2349 3312 2227 
Q 3546 2106 3680 1882 
Q 3814 1658 3814 1299 
Q 3814 678 3388 339 
Q 2963 0 2227 0 
L 621 0 
z
M 1197 2624 
L 2042 2624 
Q 2630 2624 2848 2813 
Q 3066 3002 3066 3373 
Q 3066 3750 2800 3913 
Q 2534 4077 1952 4077 
L 1197 4077 
L 1197 2624 
z
M 1197 486 
L 2118 486 
Q 2726 486 2963 723 
Q 3200 960 3200 1344 
Q 3200 1702 2953 1923 
Q 2707 2144 2074 2144 
L 1197 2144 
L 1197 486 
z
" transform="scale(0.015625)"/>
       <path id="Roboto-Regular-5b" d="M 1634 4725 
L 1038 4725 
L 1038 -500 
L 1634 -500 
L 1634 -975 
L 456 -975 
L 456 5200 
L 1634 5200 
L 1634 4725 
z
" transform="scale(0.015625)"/>
       <path id="Roboto-Regular-2d" d="M 1641 1697 
L 116 1697 
L 116 2169 
L 1641 2169 
L 1641 1697 
z
" transform="scale(0.015625)"/>
       <path id="Roboto-Regular-5d" d="M 28 5200 
L 1209 5200 
L 1209 -975 
L 28 -975 
L 28 -500 
L 631 -500 
L 631 4725 
L 28 4725 
L 28 5200 
z
" transform="scale(0.015625)"/>
      </defs>
      <use xlink:href="#NotoSansMath-Regular-67" transform="translate(0 0.75)"/>
      <use xlink:href="#NotoSansMath-Regular-28" transform="translate(61.499985 0.75)"/>
      <use xlink:href="#NotoSansMath-Regular-74" transform="translate(91.499969 0.75)"/>
      <use xlink:href="#NotoSansMath-Regular-2f" transform="translate(127.59996 0.75)"/>
      <use xlink:href="#NotoSansMath-Regular-74" transform="translate(164.799957 0.75)"/>
      <use xlink:href="#NotoSansMath-Regular-73" transform="translate(200.899948 -15.328125) scale(0.7)"/>
      <use xlink:href="#NotoSansMath-Regular-2c" transform="translate(237.109631 0.75)"/>
      <use xlink:href="#NotoSansMath-Regular-42" transform="translate(282.609616 0.75)"/>
      <use xlink:href="#NotoSansMath-Regular-2f" transform="translate(347.609601 0.75)"/>
      <use xlink:href="#NotoSansMath-Regular-48" transform="translate(384.809598 0.75)"/>
      <use xlink:href="#NotoSansMath-Regular-29" transform="translate(458.909589 0.75)"/>
      <use xlink:href="#Roboto-Regular-20" transform="translate(488.909573 0.75)"/>
      <use xlink:href="#Roboto-Regular-5b" transform="translate(513.665433 0.75)"/>
      <use xlink:href="#Roboto-Regular-2d" transform="translate(540.179105 0.75)"/>
      <use xlink:href="#Roboto-Regular-5d" transform="translate(567.766995 0.75)"/>
     </g>
    </g>
   </g>
   <g id="line2d_25">
    <path d="M 47.164091 226.058667 
L 56.176809 224.850699 
L 66.691647 223.257424 
L 80.210724 221.000034 
L 107.248878 216.090065 
L 146.30399 208.650979 
L 266.473566 185.774209 
L 287.503241 181.983614 
L 316.043515 177.186529 
L 332.566832 174.689324 
L 343.08167 173.245051 
L 346.085909 172.86112 
L 346.085909 172.86112 
" clip-path="url(#pecd75d8b97)" style="fill: none; stroke: #4c6ef5; stroke-width: 2; stroke-linecap: square"/>
   </g>
   <g id="line2d_26">
    <path d="M 47.164091 226.058667 
L 56.176809 224.850699 
L 66.691647 223.257424 
L 80.210724 221.000034 
L 107.248878 216.090065 
L 146.30399 208.650979 
L 201.882419 197.920738 
L 213.899376 195.379943 
L 221.409975 193.535892 
L 227.418454 191.843117 
L 233.426932 189.905106 
L 239.435411 187.693795 
L 245.44389 185.199101 
L 251.452369 182.428432 
L 258.962967 178.596273 
L 263.469326 176.156484 
L 272.482044 170.952087 
L 282.996882 164.546238 
L 305.528677 150.428123 
L 322.051994 140.49978 
L 332.566832 134.637183 
L 337.073191 132.228447 
L 346.085909 127.785089 
L 346.085909 127.785089 
" clip-path="url(#pecd75d8b97)" style="fill: none; stroke: #845ef7; stroke-width: 2; stroke-linecap: square"/>
   </g>
   <g id="line2d_27">
    <path d="M 47.164091 226.058667 
L 56.176809 224.850699 
L 66.691647 223.257424 
L 80.210724 221.000034 
L 107.248878 216.090065 
L 146.30399 208.650979 
L 200.380299 198.200616 
L 209.393017 196.294032 
L 215.401496 194.848991 
L 219.907855 193.617057 
L 224.414214 192.205185 
L 228.920573 190.581947 
L 233.426932 188.701526 
L 237.933291 186.525289 
L 242.439651 184.016349 
L 246.94601 181.124931 
L 249.950249 178.971725 
L 252.954488 176.623609 
L 255.958728 174.073895 
L 258.962967 171.313152 
L 261.967206 168.332882 
L 264.971446 165.127409 
L 267.975685 161.692888 
L 270.979925 158.027504 
L 273.984164 154.131612 
L 278.490523 147.854052 
L 282.996882 141.098823 
L 289.005361 131.36791 
L 295.01384 120.917979 
L 305.528677 101.273841 
L 311.537156 89.630232 
L 331.064712 51.836851 
L 341.57955 33.118839 
L 344.583789 28.082759 
L 346.085909 25.573333 
L 346.085909 25.573333 
" clip-path="url(#pecd75d8b97)" style="fill: none; stroke: #ff6b6b; stroke-width: 2; stroke-linecap: square"/>
   </g>
   <g id="patch_3">
    <path d="M 32.218 246.1072 
L 32.218 5.5248 
" style="fill: none; stroke: #000000; stroke-width: 0.3; stroke-linejoin: miter; stroke-linecap: square"/>
   </g>
   <g id="patch_4">
    <path d="M 32.218 246.1072 
L 361.032 246.1072 
" style="fill: none; stroke: #000000; stroke-width: 0.3; stroke-linejoin: miter; stroke-linecap: square"/>
   </g>
   <g id="text_15">
    <!-- $H = 150$ m, $B = 6$ m -->
    <g style="fill: #343a40" transform="translate(296.56572 224.93433) scale(0.07 -0.07)">
     <defs>
      <path id="NotoSansMath-Regular-31" d="M 1722 0 
L 1722 3194 
Q 1722 3469 1728 3635 
Q 1734 3802 1747 3981 
Q 1645 3885 1561 3811 
Q 1478 3738 1350 3629 
L 864 3232 
L 570 3610 
L 1805 4570 
L 2272 4570 
L 2272 0 
L 1722 0 
z
" transform="scale(0.015625)"/>
      <path id="NotoSansMath-Regular-35" d="M 1587 -64 
Q 1235 -64 924 0 
Q 614 64 403 186 
L 403 717 
Q 634 576 963 496 
Q 1293 416 1594 416 
Q 2099 416 2409 656 
Q 2720 896 2720 1402 
Q 2720 1850 2445 2090 
Q 2170 2330 1574 2330 
Q 1395 2330 1164 2298 
Q 934 2266 794 2234 
L 512 2413 
L 685 4570 
L 2976 4570 
L 2976 4058 
L 1165 4058 
L 1056 2733 
Q 1165 2752 1350 2777 
Q 1536 2803 1760 2803 
Q 2464 2803 2880 2451 
Q 3296 2099 3296 1459 
Q 3296 749 2845 342 
Q 2394 -64 1587 -64 
z
" transform="scale(0.015625)"/>
      <path id="NotoSansMath-Regular-30" d="M 1824 -64 
Q 1050 -64 682 560 
Q 314 1184 314 2291 
Q 314 3034 464 3558 
Q 614 4083 947 4361 
Q 1280 4640 1824 4640 
Q 2592 4640 2969 4022 
Q 3347 3405 3347 2291 
Q 3347 1555 3193 1027 
Q 3040 499 2707 217 
Q 2374 -64 1824 -64 
z
M 1824 416 
Q 2336 416 2557 880 
Q 2778 1344 2778 2291 
Q 2778 3226 2557 3693 
Q 2336 4160 1824 4160 
Q 1306 4160 1091 3693 
Q 877 3226 877 2291 
Q 877 1350 1091 883 
Q 1306 416 1824 416 
z
" transform="scale(0.015625)"/>
      <path id="Roboto-Light-20" transform="scale(0.015625)"/>
      <path id="Roboto-Light-6d" d="M 828 3381 
L 841 2831 
Q 1028 3138 1309 3291 
Q 1591 3444 1934 3444 
Q 2734 3444 2950 2788 
Q 3131 3103 3434 3273 
Q 3738 3444 4103 3444 
Q 5191 3444 5213 2256 
L 5213 0 
L 4838 0 
L 4838 2228 
Q 4834 2681 4642 2900 
Q 4450 3119 4016 3119 
Q 3613 3113 3334 2858 
Q 3056 2603 3025 2238 
L 3025 0 
L 2650 0 
L 2650 2256 
Q 2647 2691 2445 2905 
Q 2244 3119 1825 3119 
Q 1472 3119 1219 2917 
Q 966 2716 844 2319 
L 844 0 
L 469 0 
L 469 3381 
L 828 3381 
z
" transform="scale(0.015625)"/>
      <path id="Roboto-Light-2c" d="M 409 -850 
L 188 -688 
Q 472 -306 481 103 
L 481 588 
L 847 588 
L 847 197 
Q 847 -453 409 -850 
z
" transform="scale(0.015625)"/>
      <path id="NotoSansMath-Regular-36" d="M 1907 -64 
Q 1472 -64 1120 153 
Q 768 371 560 819 
Q 352 1267 352 1952 
Q 352 2445 438 2921 
Q 525 3398 752 3785 
Q 979 4173 1388 4403 
Q 1798 4634 2445 4634 
Q 2579 4634 2742 4621 
Q 2906 4608 3008 4576 
L 3008 4096 
Q 2893 4134 2749 4153 
Q 2605 4173 2458 4173 
Q 2016 4173 1721 4025 
Q 1427 3878 1257 3622 
Q 1088 3366 1011 3033 
Q 934 2701 915 2323 
L 954 2323 
Q 1101 2547 1363 2704 
Q 1626 2861 2035 2861 
Q 2630 2861 2995 2499 
Q 3360 2138 3360 1472 
Q 3360 755 2966 345 
Q 2573 -64 1907 -64 
z
M 1901 410 
Q 2304 410 2553 669 
Q 2803 928 2803 1472 
Q 2803 1907 2582 2163 
Q 2362 2419 1920 2419 
Q 1619 2419 1395 2294 
Q 1171 2170 1046 1978 
Q 922 1786 922 1581 
Q 922 1306 1030 1034 
Q 1139 762 1356 586 
Q 1574 410 1901 410 
z
" transform="scale(0.015625)"/>
     </defs>
     <use xlink:href="#NotoSansMath-Regular-48" transform="translate(0 0.5)"/>
     <use xlink:href="#NotoSansMath-Regular-3d" transform="translate(92.799988 0.5)"/>
     <use xlink:href="#NotoSansMath-Regular-31" transform="translate(168.699982 0.5)"/>
     <use xlink:href="#NotoSansMath-Regular-35" transform="translate(225.899979 0.5)"/>
     <use xlink:href="#NotoSansMath-Regular-30" transform="translate(283.099976 0.5)"/>
     <use xlink:href="#Roboto-Light-20" transform="translate(340.299973 0.5)"/>
     <use xlink:href="#Roboto-Light-6d" transform="translate(364.616379 0.5)"/>
     <use xlink:href="#Roboto-Light-2c" transform="translate(453.239426 0.5)"/>
     <use xlink:href="#Roboto-Light-20" transform="translate(472.380051 0.5)"/>
     <use xlink:href="#NotoSansMath-Regular-42" transform="translate(496.696457 0.5)"/>
     <use xlink:href="#NotoSansMath-Regular-3d" transform="translate(580.396439 0.5)"/>
     <use xlink:href="#NotoSansMath-Regular-36" transform="translate(656.296432 0.5)"/>
     <use xlink:href="#Roboto-Light-20" transform="translate(713.496429 0.5)"/>
     <use xlink:href="#Roboto-Light-6d" transform="translate(737.812836 0.5)"/>
    </g>
    <!-- $\alpha_s = 1.0e-06$ m²/s -->
    <g style="fill: #343a40" transform="translate(295.72572 232.656205) scale(0.07 -0.07)">
     <defs>
      <path id="NotoSansMath-Regular-2e" d="M 851 -90 
Q 691 -90 576 12 
Q 461 115 461 346 
Q 461 582 576 678 
Q 691 774 851 774 
Q 1018 774 1136 678 
Q 1254 582 1254 346 
Q 1254 115 1136 12 
Q 1018 -90 851 -90 
z
" transform="scale(0.015625)"/>
      <path id="NotoSansMath-Regular-65" d="M 2003 -64 
Q 1517 -64 1142 134 
Q 768 333 560 726 
Q 352 1120 352 1690 
Q 352 2253 541 2656 
Q 730 3059 1072 3276 
Q 1414 3494 1869 3494 
Q 2310 3494 2627 3302 
Q 2944 3110 3113 2761 
Q 3283 2413 3283 1946 
L 3283 1606 
L 934 1606 
Q 947 1024 1232 720 
Q 1517 416 2029 416 
Q 2355 416 2608 477 
Q 2861 538 3130 653 
L 3130 160 
Q 2867 45 2611 -9 
Q 2355 -64 2003 -64 
z
M 947 2054 
L 2694 2054 
Q 2694 2490 2492 2762 
Q 2291 3034 1862 3034 
Q 1459 3034 1225 2774 
Q 992 2515 947 2054 
z
" transform="scale(0.015625)"/>
      <path id="NotoSansMath-Regular-2212" d="M 326 2029 
L 326 2483 
L 3334 2483 
L 3334 2029 
L 326 2029 
z
" transform="scale(0.015625)"/>
      <path id="Roboto-Light-b2" d="M 2084 2078 
L 300 2078 
L 300 2313 
L 1300 3294 
Q 1631 3638 1631 3866 
Q 1631 4063 1504 4183 
Q 1378 4303 1131 4303 
Q 859 4303 712 4164 
Q 566 4025 566 3797 
L 238 3797 
Q 238 4134 484 4356 
Q 731 4578 1125 4578 
Q 1519 4578 1741 4384 
Q 1963 4191 1963 3872 
Q 1963 3556 1594 3175 
L 1422 3003 
L 716 2350 
L 2084 2350 
L 2084 2078 
z
" transform="scale(0.015625)"/>
      <path id="Roboto-Light-2f" d="M 434 -391 
L 94 -391 
L 1994 4550 
L 2331 4550 
L 434 -391 
z
" transform="scale(0.015625)"/>
      <path id="Roboto-Light-73" d="M 2513 859 
Q 2513 1138 2289 1306 
Q 2066 1475 1616 1570 
Q 1166 1666 917 1789 
Q 669 1913 548 2091 
Q 428 2269 428 2522 
Q 428 2922 762 3183 
Q 1097 3444 1619 3444 
Q 2184 3444 2526 3164 
Q 2869 2884 2869 2434 
L 2494 2434 
Q 2494 2731 2245 2928 
Q 1997 3125 1619 3125 
Q 1250 3125 1026 2961 
Q 803 2797 803 2534 
Q 803 2281 989 2142 
Q 1175 2003 1667 1887 
Q 2159 1772 2404 1640 
Q 2650 1509 2769 1325 
Q 2888 1141 2888 878 
Q 2888 450 2542 193 
Q 2197 -63 1641 -63 
Q 1050 -63 683 223 
Q 316 509 316 947 
L 691 947 
Q 713 619 967 436 
Q 1222 253 1641 253 
Q 2031 253 2272 425 
Q 2513 597 2513 859 
z
" transform="scale(0.015625)"/>
     </defs>
     <use xlink:href="#NotoSansMath-Regular-3b1" transform="translate(0 0.5)"/>
     <use xlink:href="#NotoSansMath-Regular-73" transform="translate(61.499985 -15.578125) scale(0.7)"/>
     <use xlink:href="#NotoSansMath-Regular-3d" transform="translate(116.409665 0.5)"/>
     <use xlink:href="#NotoSansMath-Regular-31" transform="translate(192.309659 0.5)"/>
     <use xlink:href="#NotoSansMath-Regular-2e" transform="translate(249.509656 0.5)"/>
     <use xlink:href="#NotoSansMath-Regular-30" transform="translate(276.309644 0.5)"/>
     <use xlink:href="#NotoSansMath-Regular-65" transform="translate(333.509641 0.5)"/>
     <use xlink:href="#NotoSansMath-Regular-2212" transform="translate(408.609631 0.5)"/>
     <use xlink:href="#NotoSansMath-Regular-30" transform="translate(484.509625 0.5)"/>
     <use xlink:href="#NotoSansMath-Regular-36" transform="translate(541.709622 0.5)"/>
     <use xlink:href="#Roboto-Light-20" transform="translate(598.909619 0.5)"/>
     <use xlink:href="#Roboto-Light-6d" transform="translate(623.226025 0.5)"/>
     <use xlink:href="#Roboto-Light-b2" transform="translate(711.849072 0.5)"/>
     <use xlink:href="#Roboto-Light-2f" transform="translate(747.981885 0.5)"/>
     <use xlink:href="#Roboto-Light-73" transform="translate(787.67915 0.5)"/>
    </g>
   </g>
   <g id="legend_1">
    <g id="line2d_28">
     <path d="M 35.718 12.152925 
L 42.718 12.152925 
L 49.718 12.152925 
" style="fill: none; stroke: #4c6ef5; stroke-width: 2; stroke-linecap: square"/>
    </g>
    <g id="text_16">
     <!-- 1×1 (single) -->
     <g transform="translate(51.818 14.602925) scale(0.07 -0.07)">
      <defs>
       <path id="Roboto-Light-d7" d="M 291 559 
L 1409 1700 
L 338 2794 
L 584 3044 
L 1653 1950 
L 2725 3044 
L 2972 2794 
L 1900 1700 
L 3019 559 
L 2772 313 
L 1653 1450 
L 538 313 
L 291 559 
z
" transform="scale(0.015625)"/>
       <path id="Roboto-Light-28" d="M 438 1838 
Q 438 2519 613 3161 
Q 788 3803 1125 4336 
Q 1463 4869 1850 5100 
L 1941 4847 
Q 1734 4700 1531 4419 
Q 1328 4138 1168 3750 
Q 1009 3363 911 2880 
Q 813 2397 813 1784 
Q 813 1131 961 528 
Q 1109 -75 1368 -536 
Q 1628 -997 1941 -1228 
L 1850 -1469 
Q 1453 -1231 1115 -701 
Q 778 -172 608 464 
Q 438 1100 438 1838 
z
" transform="scale(0.015625)"/>
       <path id="Roboto-Light-69" d="M 906 0 
L 531 0 
L 531 3381 
L 906 3381 
L 906 0 
z
M 466 4359 
Q 466 4466 534 4539 
Q 603 4613 722 4613 
Q 841 4613 911 4539 
Q 981 4466 981 4359 
Q 981 4253 911 4181 
Q 841 4109 722 4109 
Q 603 4109 534 4181 
Q 466 4253 466 4359 
z
" transform="scale(0.015625)"/>
       <path id="Roboto-Light-6e" d="M 844 3381 
L 856 2803 
Q 1047 3116 1331 3280 
Q 1616 3444 1959 3444 
Q 2503 3444 2768 3137 
Q 3034 2831 3038 2219 
L 3038 0 
L 2666 0 
L 2666 2222 
Q 2663 2675 2473 2897 
Q 2284 3119 1869 3119 
Q 1522 3119 1255 2901 
Q 988 2684 859 2316 
L 859 0 
L 488 0 
L 488 3381 
L 844 3381 
z
" transform="scale(0.015625)"/>
       <path id="Roboto-Light-67" d="M 338 1722 
Q 338 2516 689 2980 
Q 1041 3444 1644 3444 
Q 2334 3444 2694 2894 
L 2713 3381 
L 3063 3381 
L 3063 69 
Q 3063 -584 2697 -965 
Q 2331 -1347 1706 -1347 
Q 1353 -1347 1033 -1189 
Q 713 -1031 528 -769 
L 738 -544 
Q 1134 -1031 1681 -1031 
Q 2150 -1031 2412 -754 
Q 2675 -478 2684 13 
L 2684 438 
Q 2325 -63 1638 -63 
Q 1050 -63 694 406 
Q 338 875 338 1672 
L 338 1722 
z
M 716 1656 
Q 716 1009 975 636 
Q 1234 263 1706 263 
Q 2397 263 2684 881 
L 2684 2453 
Q 2553 2778 2306 2948 
Q 2059 3119 1713 3119 
Q 1241 3119 978 2748 
Q 716 2378 716 1656 
z
" transform="scale(0.015625)"/>
       <path id="Roboto-Light-6c" d="M 906 0 
L 531 0 
L 531 4800 
L 906 4800 
L 906 0 
z
" transform="scale(0.015625)"/>
       <path id="Roboto-Light-65" d="M 1797 -63 
Q 1366 -63 1017 150 
Q 669 363 475 742 
Q 281 1122 281 1594 
L 281 1728 
Q 281 2216 470 2606 
Q 659 2997 996 3220 
Q 1334 3444 1728 3444 
Q 2344 3444 2705 3023 
Q 3066 2603 3066 1875 
L 3066 1666 
L 653 1666 
L 653 1594 
Q 653 1019 983 636 
Q 1313 253 1813 253 
Q 2113 253 2342 362 
Q 2572 472 2759 713 
L 2994 534 
Q 2581 -63 1797 -63 
z
M 1728 3125 
Q 1306 3125 1017 2815 
Q 728 2506 666 1984 
L 2694 1984 
L 2694 2025 
Q 2678 2513 2415 2819 
Q 2153 3125 1728 3125 
z
" transform="scale(0.015625)"/>
       <path id="Roboto-Light-29" d="M 1606 1791 
Q 1606 1103 1436 467 
Q 1266 -169 931 -697 
Q 597 -1225 194 -1469 
L 103 -1228 
Q 409 -1009 670 -550 
Q 931 -91 1081 520 
Q 1231 1131 1231 1847 
Q 1231 2494 1081 3095 
Q 931 3697 667 4170 
Q 403 4644 103 4859 
L 194 5100 
Q 588 4859 922 4331 
Q 1256 3803 1431 3159 
Q 1606 2516 1606 1791 
z
" transform="scale(0.015625)"/>
      </defs>
      <use xlink:href="#Roboto-Light-31"/>
      <use xlink:href="#Roboto-Light-d7" transform="translate(55.419922 0)"/>
      <use xlink:href="#Roboto-Light-31" transform="translate(107.763672 0)"/>
      <use xlink:href="#Roboto-Light-20" transform="translate(163.183594 0)"/>
      <use xlink:href="#Roboto-Light-28" transform="translate(187.5 0)"/>
      <use xlink:href="#Roboto-Light-73" transform="translate(219.384766 0)"/>
      <use xlink:href="#Roboto-Light-69" transform="translate(270.019531 0)"/>
      <use xlink:href="#Roboto-Light-6e" transform="translate(292.431641 0)"/>
      <use xlink:href="#Roboto-Light-67" transform="translate(347.363281 0)"/>
      <use xlink:href="#Roboto-Light-6c" transform="translate(402.832031 0)"/>
      <use xlink:href="#Roboto-Light-65" transform="translate(425.244141 0)"/>
      <use xlink:href="#Roboto-Light-29" transform="translate(476.904297 0)"/>
     </g>
    </g>
    <g id="line2d_29">
     <path d="M 35.718 21.809644 
L 42.718 21.809644 
L 49.718 21.809644 
" style="fill: none; stroke: #845ef7; stroke-width: 2; stroke-linecap: square"/>
    </g>
    <g id="text_17">
     <!-- 2×2 field -->
     <g transform="translate(51.818 24.259644) scale(0.07 -0.07)">
      <defs>
       <path id="Roboto-Light-66" d="M 756 0 
L 756 3075 
L 197 3075 
L 197 3381 
L 756 3381 
L 756 3791 
Q 756 4309 1020 4587 
Q 1284 4866 1756 4866 
Q 1969 4866 2153 4813 
L 2125 4500 
Q 1969 4538 1784 4538 
Q 1475 4538 1303 4345 
Q 1131 4153 1131 3800 
L 1131 3381 
L 1938 3381 
L 1938 3075 
L 1131 3075 
L 1131 0 
L 756 0 
z
" transform="scale(0.015625)"/>
       <path id="Roboto-Light-64" d="M 338 1722 
Q 338 2509 689 2976 
Q 1041 3444 1644 3444 
Q 2328 3444 2688 2903 
L 2688 4800 
L 3059 4800 
L 3059 0 
L 2709 0 
L 2694 450 
Q 2334 -63 1638 -63 
Q 1053 -63 695 407 
Q 338 878 338 1678 
L 338 1722 
z
M 716 1656 
Q 716 1009 975 636 
Q 1234 263 1706 263 
Q 2397 263 2688 872 
L 2688 2459 
Q 2397 3119 1713 3119 
Q 1241 3119 978 2748 
Q 716 2378 716 1656 
z
" transform="scale(0.015625)"/>
      </defs>
      <use xlink:href="#Roboto-Light-32"/>
      <use xlink:href="#Roboto-Light-d7" transform="translate(55.419922 0)"/>
      <use xlink:href="#Roboto-Light-32" transform="translate(107.763672 0)"/>
      <use xlink:href="#Roboto-Light-20" transform="translate(163.183594 0)"/>
      <use xlink:href="#Roboto-Light-66" transform="translate(187.5 0)"/>
      <use xlink:href="#Roboto-Light-69" transform="translate(220.605469 0)"/>
      <use xlink:href="#Roboto-Light-65" transform="translate(243.017578 0)"/>
      <use xlink:href="#Roboto-Light-6c" transform="translate(294.677734 0)"/>
      <use xlink:href="#Roboto-Light-64" transform="translate(317.089844 0)"/>
     </g>
    </g>
    <g id="line2d_30">
     <path d="M 35.718 31.281519 
L 42.718 31.281519 
L 49.718 31.281519 
" style="fill: none; stroke: #ff6b6b; stroke-width: 2; stroke-linecap: square"/>
    </g>
    <g id="text_18">
     <!-- 4×4 field -->
     <g transform="translate(51.818 33.731519) scale(0.07 -0.07)">
      <use xlink:href="#Roboto-Light-34"/>
      <use xlink:href="#Roboto-Light-d7" transform="translate(55.419922 0)"/>
      <use xlink:href="#Roboto-Light-34" transform="translate(107.763672 0)"/>
      <use xlink:href="#Roboto-Light-20" transform="translate(163.183594 0)"/>
      <use xlink:href="#Roboto-Light-66" transform="translate(187.5 0)"/>
      <use xlink:href="#Roboto-Light-69" transform="translate(220.605469 0)"/>
      <use xlink:href="#Roboto-Light-65" transform="translate(243.017578 0)"/>
      <use xlink:href="#Roboto-Light-6c" transform="translate(294.677734 0)"/>
      <use xlink:href="#Roboto-Light-64" transform="translate(317.089844 0)"/>
     </g>
    </g>
   </g>
  </g>
 </g>
 <defs>
  <clipPath id="pecd75d8b97">
   <rect x="32.218" y="5.5248" width="328.814" height="240.5824"/>
  </clipPath>
 </defs>
</svg>
