<?xml version="1.0" encoding="utf-8" standalone="no"?>
<!DOCTYPE svg PUBLIC "-//W3C//DTD SVG 1.1//EN"
  "http://www.w3.org/Graphics/SVG/1.1/DTD/svg11.dtd">
<svg xmlns:xlink="http://www.w3.org/1999/xlink" width="481.68pt" height="200.64pt" viewBox="0 0 481.68 200.64" xmlns="http://www.w3.org/2000/svg" version="1.1">
 <metadata>
  <rdf:RDF xmlns:dc="http://purl.org/dc/elements/1.1/" xmlns:cc="http://creativecommons.org/ns#" xmlns:rdf="http://www.w3.org/1999/02/22-rdf-syntax-ns#">
   <cc:Work>
    <dc:type rdf:resource="http://purl.org/dc/dcmitype/StillImage"/>
    <dc:date>2026-05-17T23:52:19.950856</dc:date>
    <dc:format>image/svg+xml</dc:format>
    <dc:creator>
     <cc:Agent>
      <dc:title>Matplotlib v3.10.9, https://matplotlib.org/</dc:title>
     </cc:Agent>
    </dc:creator>
   </cc:Work>
  </rdf:RDF>
 </metadata>
 <defs>
  <style type="text/css">*{stroke-linejoin: round; stroke-linecap: butt}</style>
 </defs>
 <g id="figure_1">
  <g id="patch_1">
   <path d="M 0 200.64 
L 481.68 200.64 
L 481.68 0 
L 0 0 
z
" style="fill: #ffffff"/>
  </g>
  <g id="axes_1">
   <g id="patch_2">
    <path d="M 41.418046 170.6083 
L 166.656738 170.6083 
L 166.656738 26.8992 
L 41.418046 26.8992 
z
" style="fill: #ffffff"/>
   </g>
   <g id="matplotlib.axis_1">
    <g id="xtick_1">
     <g id="line2d_1">
      <path d="M 41.418046 170.6083 
L 41.418046 26.8992 
" clip-path="url(#pd92d1a01da)" style="fill: none; stroke: #dee2e6; stroke-opacity: 0.25; stroke-width: -1; stroke-linecap: square"/>
     </g>
     <g id="line2d_2">
      <defs>
       <path id="m5c0af12cd9" d="M 0 0 
L 0 2 
" style="stroke: #000000; stroke-width: 0.3"/>
      </defs>
      <g>
       <use xlink:href="#m5c0af12cd9" x="41.418046" y="170.6083" style="stroke: #000000; stroke-width: 0.3"/>
      </g>
     </g>
     <g id="text_1">
      <!-- 0 -->
      <g transform="translate(39.201171 180.6083) scale(0.08 -0.08)">
       <defs>
        <path id="Roboto-Light-30" d="M 3172 1897 
Q 3172 934 2819 435 
Q 2466 -63 1778 -63 
Q 1103 -63 743 426 
Q 384 916 375 1850 
L 375 2666 
Q 375 3625 731 4119 
Q 1088 4613 1772 4613 
Q 2447 4613 2803 4136 
Q 3159 3659 3172 2731 
L 3172 1897 
z
M 2797 2713 
Q 2797 3494 2542 3894 
Q 2288 4294 1772 4294 
Q 1266 4294 1009 3903 
Q 753 3513 747 2750 
L 747 1856 
Q 747 1078 1011 665 
Q 1275 253 1778 253 
Q 2278 253 2536 656 
Q 2794 1059 2797 1838 
L 2797 2713 
z
" transform="scale(0.015625)"/>
       </defs>
       <use xlink:href="#Roboto-Light-30"/>
      </g>
     </g>
    </g>
    <g id="xtick_2">
     <g id="line2d_3">
      <path d="M 74.81503 170.6083 
L 74.81503 26.8992 
" clip-path="url(#pd92d1a01da)" style="fill: none; stroke: #dee2e6; stroke-opacity: 0.25; stroke-width: -1; stroke-linecap: square"/>
     </g>
     <g id="line2d_4">
      <g>
       <use xlink:href="#m5c0af12cd9" x="74.81503" y="170.6083" style="stroke: #000000; stroke-width: 0.3"/>
      </g>
     </g>
     <g id="text_2">
      <!-- 200 -->
      <g transform="translate(68.164405 180.6083) scale(0.08 -0.08)">
       <defs>
        <path id="Roboto-Light-32" d="M 3278 0 
L 428 0 
L 428 288 
L 1988 2056 
Q 2375 2503 2525 2793 
Q 2675 3084 2675 3359 
Q 2675 3791 2422 4042 
Q 2169 4294 1725 4294 
Q 1266 4294 983 4000 
Q 700 3706 700 3238 
L 328 3238 
Q 328 3622 501 3937 
Q 675 4253 995 4433 
Q 1316 4613 1725 4613 
Q 2350 4613 2701 4284 
Q 3053 3956 3053 3391 
Q 3053 3072 2854 2694 
Q 2656 2316 2156 1750 
L 888 316 
L 3278 316 
L 3278 0 
z
" transform="scale(0.015625)"/>
       </defs>
       <use xlink:href="#Roboto-Light-32"/>
       <use xlink:href="#Roboto-Light-30" transform="translate(55.419922 0)"/>
       <use xlink:href="#Roboto-Light-30" transform="translate(110.839844 0)"/>
      </g>
     </g>
    </g>
    <g id="xtick_3">
     <g id="line2d_5">
      <path d="M 108.212015 170.6083 
L 108.212015 26.8992 
" clip-path="url(#pd92d1a01da)" style="fill: none; stroke: #dee2e6; stroke-opacity: 0.25; stroke-width: -1; stroke-linecap: square"/>
     </g>
     <g id="line2d_6">
      <g>
       <use xlink:href="#m5c0af12cd9" x="108.212015" y="170.6083" style="stroke: #000000; stroke-width: 0.3"/>
      </g>
     </g>
     <g id="text_3">
      <!-- 400 -->
      <g transform="translate(101.56139 180.6083) scale(0.08 -0.08)">
       <defs>
        <path id="Roboto-Light-34" d="M 2725 1466 
L 3434 1466 
L 3434 1150 
L 2725 1150 
L 2725 0 
L 2350 0 
L 2350 1150 
L 209 1150 
L 209 1363 
L 2316 4550 
L 2725 4550 
L 2725 1466 
z
M 669 1466 
L 2350 1466 
L 2350 4066 
L 2184 3778 
L 669 1466 
z
" transform="scale(0.015625)"/>
       </defs>
       <use xlink:href="#Roboto-Light-34"/>
       <use xlink:href="#Roboto-Light-30" transform="translate(55.419922 0)"/>
       <use xlink:href="#Roboto-Light-30" transform="translate(110.839844 0)"/>
      </g>
     </g>
    </g>
    <g id="xtick_4">
     <g id="line2d_7">
      <path d="M 141.609 170.6083 
L 141.609 26.8992 
" clip-path="url(#pd92d1a01da)" style="fill: none; stroke: #dee2e6; stroke-opacity: 0.25; stroke-width: -1; stroke-linecap: square"/>
     </g>
     <g id="line2d_8">
      <g>
       <use xlink:href="#m5c0af12cd9" x="141.609" y="170.6083" style="stroke: #000000; stroke-width: 0.3"/>
      </g>
     </g>
     <g id="text_4">
      <!-- 600 -->
      <g transform="translate(134.958375 180.6083) scale(0.08 -0.08)">
       <defs>
        <path id="Roboto-Light-36" d="M 2634 4584 
L 2634 4256 
L 2591 4256 
Q 1775 4256 1306 3776 
Q 838 3297 788 2444 
Q 975 2703 1265 2845 
Q 1556 2988 1916 2988 
Q 2516 2988 2870 2573 
Q 3225 2159 3225 1491 
Q 3225 1047 3059 690 
Q 2894 334 2584 135 
Q 2275 -63 1878 -63 
Q 1225 -63 815 410 
Q 406 884 406 1634 
L 406 2009 
Q 406 3231 962 3901 
Q 1519 4572 2541 4584 
L 2634 4584 
z
M 1856 2666 
Q 1500 2666 1192 2455 
Q 884 2244 781 1919 
L 781 1600 
Q 781 1006 1086 631 
Q 1391 256 1878 256 
Q 2316 256 2586 603 
Q 2856 950 2856 1478 
Q 2856 2016 2586 2341 
Q 2316 2666 1856 2666 
z
" transform="scale(0.015625)"/>
       </defs>
       <use xlink:href="#Roboto-Light-36"/>
       <use xlink:href="#Roboto-Light-30" transform="translate(55.419922 0)"/>
       <use xlink:href="#Roboto-Light-30" transform="translate(110.839844 0)"/>
      </g>
     </g>
    </g>
    <g id="text_5">
     <!-- Enthalpy [kJ/kg] -->
     <g transform="translate(75.497392 192.7333) scale(0.08 -0.08)">
      <defs>
       <path id="Roboto-Regular-45" d="M 3100 2103 
L 1128 2103 
L 1128 491 
L 3419 491 
L 3419 0 
L 528 0 
L 528 4550 
L 3388 4550 
L 3388 4056 
L 1128 4056 
L 1128 2594 
L 3100 2594 
L 3100 2103 
z
" transform="scale(0.015625)"/>
       <path id="Roboto-Regular-6e" d="M 984 3381 
L 1003 2956 
Q 1391 3444 2016 3444 
Q 3088 3444 3097 2234 
L 3097 0 
L 2519 0 
L 2519 2238 
Q 2516 2603 2352 2778 
Q 2188 2953 1841 2953 
Q 1559 2953 1346 2803 
Q 1134 2653 1016 2409 
L 1016 0 
L 438 0 
L 438 3381 
L 984 3381 
z
" transform="scale(0.015625)"/>
       <path id="Roboto-Regular-74" d="M 1222 4200 
L 1222 3381 
L 1853 3381 
L 1853 2934 
L 1222 2934 
L 1222 838 
Q 1222 634 1306 532 
Q 1391 431 1594 431 
Q 1694 431 1869 469 
L 1869 0 
Q 1641 -63 1425 -63 
Q 1038 -63 841 171 
Q 644 406 644 838 
L 644 2934 
L 28 2934 
L 28 3381 
L 644 3381 
L 644 4200 
L 1222 4200 
z
" transform="scale(0.015625)"/>
       <path id="Roboto-Regular-68" d="M 1016 2972 
Q 1400 3444 2016 3444 
Q 3088 3444 3097 2234 
L 3097 0 
L 2519 0 
L 2519 2238 
Q 2516 2603 2352 2778 
Q 2188 2953 1841 2953 
Q 1559 2953 1346 2803 
Q 1134 2653 1016 2409 
L 1016 0 
L 438 0 
L 438 4800 
L 1016 4800 
L 1016 2972 
z
" transform="scale(0.015625)"/>
       <path id="Roboto-Regular-61" d="M 2525 0 
Q 2475 100 2444 356 
Q 2041 -63 1481 -63 
Q 981 -63 661 220 
Q 341 503 341 938 
Q 341 1466 742 1758 
Q 1144 2050 1872 2050 
L 2434 2050 
L 2434 2316 
Q 2434 2619 2253 2798 
Q 2072 2978 1719 2978 
Q 1409 2978 1200 2822 
Q 991 2666 991 2444 
L 409 2444 
Q 409 2697 589 2933 
Q 769 3169 1076 3306 
Q 1384 3444 1753 3444 
Q 2338 3444 2669 3151 
Q 3000 2859 3013 2347 
L 3013 791 
Q 3013 325 3131 50 
L 3131 0 
L 2525 0 
z
M 1566 441 
Q 1838 441 2081 581 
Q 2325 722 2434 947 
L 2434 1641 
L 1981 1641 
Q 919 1641 919 1019 
Q 919 747 1100 594 
Q 1281 441 1566 441 
z
" transform="scale(0.015625)"/>
       <path id="Roboto-Regular-6c" d="M 1066 0 
L 488 0 
L 488 4800 
L 1066 4800 
L 1066 0 
z
" transform="scale(0.015625)"/>
       <path id="Roboto-Regular-70" d="M 3294 1653 
Q 3294 881 2941 409 
Q 2588 -63 1984 -63 
Q 1369 -63 1016 328 
L 1016 -1300 
L 438 -1300 
L 438 3381 
L 966 3381 
L 994 3006 
Q 1347 3444 1975 3444 
Q 2584 3444 2939 2984 
Q 3294 2525 3294 1706 
L 3294 1653 
z
M 2716 1719 
Q 2716 2291 2472 2622 
Q 2228 2953 1803 2953 
Q 1278 2953 1016 2488 
L 1016 872 
Q 1275 409 1809 409 
Q 2225 409 2470 739 
Q 2716 1069 2716 1719 
z
" transform="scale(0.015625)"/>
       <path id="Roboto-Regular-79" d="M 1544 847 
L 2331 3381 
L 2950 3381 
L 1591 -522 
Q 1275 -1366 588 -1366 
L 478 -1356 
L 263 -1316 
L 263 -847 
L 419 -859 
Q 713 -859 877 -740 
Q 1041 -622 1147 -306 
L 1275 38 
L 69 3381 
L 700 3381 
L 1544 847 
z
" transform="scale(0.015625)"/>
       <path id="Roboto-Regular-20" transform="scale(0.015625)"/>
       <path id="Roboto-Regular-5b" d="M 1634 4725 
L 1038 4725 
L 1038 -500 
L 1634 -500 
L 1634 -975 
L 456 -975 
L 456 5200 
L 1634 5200 
L 1634 4725 
z
" transform="scale(0.015625)"/>
       <path id="Roboto-Regular-6b" d="M 1381 1566 
L 1019 1188 
L 1019 0 
L 441 0 
L 441 4800 
L 1019 4800 
L 1019 1897 
L 1328 2269 
L 2381 3381 
L 3084 3381 
L 1769 1969 
L 3238 0 
L 2559 0 
L 1381 1566 
z
" transform="scale(0.015625)"/>
       <path id="Roboto-Regular-4a" d="M 2434 4550 
L 3038 4550 
L 3038 1328 
Q 3038 675 2645 306 
Q 2253 -63 1600 -63 
Q 922 -63 544 284 
Q 166 631 166 1256 
L 766 1256 
Q 766 866 980 647 
Q 1194 428 1600 428 
Q 1972 428 2201 662 
Q 2431 897 2434 1319 
L 2434 4550 
z
" transform="scale(0.015625)"/>
       <path id="Roboto-Regular-2f" d="M 553 -391 
L 56 -391 
L 1956 4550 
L 2450 4550 
L 553 -391 
z
" transform="scale(0.015625)"/>
       <path id="Roboto-Regular-67" d="M 300 1719 
Q 300 2509 665 2976 
Q 1031 3444 1634 3444 
Q 2253 3444 2600 3006 
L 2628 3381 
L 3156 3381 
L 3156 81 
Q 3156 -575 2767 -953 
Q 2378 -1331 1722 -1331 
Q 1356 -1331 1006 -1175 
Q 656 -1019 472 -747 
L 772 -400 
Q 1144 -859 1681 -859 
Q 2103 -859 2339 -621 
Q 2575 -384 2575 47 
L 2575 338 
Q 2228 -63 1628 -63 
Q 1034 -63 667 415 
Q 300 894 300 1719 
z
M 881 1653 
Q 881 1081 1115 754 
Q 1350 428 1772 428 
Q 2319 428 2575 925 
L 2575 2469 
Q 2309 2953 1778 2953 
Q 1356 2953 1118 2625 
Q 881 2297 881 1653 
z
" transform="scale(0.015625)"/>
       <path id="Roboto-Regular-5d" d="M 28 5200 
L 1209 5200 
L 1209 -975 
L 28 -975 
L 28 -500 
L 631 -500 
L 631 4725 
L 28 4725 
L 28 5200 
z
" transform="scale(0.015625)"/>
      </defs>
      <use xlink:href="#Roboto-Regular-45"/>
      <use xlink:href="#Roboto-Regular-6e" transform="translate(56.835938 0)"/>
      <use xlink:href="#Roboto-Regular-74" transform="translate(112.011719 0)"/>
      <use xlink:href="#Roboto-Regular-68" transform="translate(144.677734 0)"/>
      <use xlink:href="#Roboto-Regular-61" transform="translate(199.755859 0)"/>
      <use xlink:href="#Roboto-Regular-6c" transform="translate(254.150391 0)"/>
      <use xlink:href="#Roboto-Regular-70" transform="translate(278.417969 0)"/>
      <use xlink:href="#Roboto-Regular-79" transform="translate(334.521484 0)"/>
      <use xlink:href="#Roboto-Regular-20" transform="translate(381.835938 0)"/>
      <use xlink:href="#Roboto-Regular-5b" transform="translate(406.591797 0)"/>
      <use xlink:href="#Roboto-Regular-6b" transform="translate(433.105469 0)"/>
      <use xlink:href="#Roboto-Regular-4a" transform="translate(483.789062 0)"/>
      <use xlink:href="#Roboto-Regular-2f" transform="translate(538.964844 0)"/>
      <use xlink:href="#Roboto-Regular-6b" transform="translate(580.175781 0)"/>
      <use xlink:href="#Roboto-Regular-67" transform="translate(630.859375 0)"/>
      <use xlink:href="#Roboto-Regular-5d" transform="translate(686.962891 0)"/>
     </g>
    </g>
   </g>
   <g id="matplotlib.axis_2">
    <g id="ytick_1">
     <g id="line2d_9">
      <path d="M 41.418046 170.6083 
L 166.656738 170.6083 
" clip-path="url(#pd92d1a01da)" style="fill: none; stroke: #dee2e6; stroke-opacity: 0.25; stroke-width: -1; stroke-linecap: square"/>
     </g>
     <g id="line2d_10">
      <defs>
       <path id="m73491944b8" d="M 0 0 
L -2 0 
" style="stroke: #000000; stroke-width: 0.3"/>
      </defs>
      <g>
       <use xlink:href="#m73491944b8" x="41.418046" y="170.6083" style="stroke: #000000; stroke-width: 0.3"/>
      </g>
     </g>
     <g id="text_6">
      <!-- $\mathdefault{10^{2}}$ -->
      <g transform="translate(26.098046 173.6083) scale(0.08 -0.08)">
       <defs>
        <path id="Roboto-Light-31" d="M 2169 0 
L 1794 0 
L 1794 4100 
L 556 3641 
L 556 3991 
L 2106 4566 
L 2169 4566 
L 2169 0 
z
" transform="scale(0.015625)"/>
       </defs>
       <use xlink:href="#Roboto-Light-31" transform="translate(0 0.565625)"/>
       <use xlink:href="#Roboto-Light-30" transform="translate(55.419922 0.565625)"/>
       <use xlink:href="#Roboto-Light-32" transform="translate(111.764336 37.545313) scale(0.7)"/>
      </g>
     </g>
    </g>
    <g id="ytick_2">
     <g id="line2d_11">
      <path d="M 41.418046 98.75375 
L 166.656738 98.75375 
" clip-path="url(#pd92d1a01da)" style="fill: none; stroke: #dee2e6; stroke-opacity: 0.25; stroke-width: -1; stroke-linecap: square"/>
     </g>
     <g id="line2d_12">
      <g>
       <use xlink:href="#m73491944b8" x="41.418046" y="98.75375" style="stroke: #000000; stroke-width: 0.3"/>
      </g>
     </g>
     <g id="text_7">
      <!-- $\mathdefault{10^{3}}$ -->
      <g transform="translate(26.098046 101.75375) scale(0.08 -0.08)">
       <defs>
        <path id="Roboto-Light-33" d="M 1259 2478 
L 1647 2478 
Q 1969 2478 2209 2592 
Q 2450 2706 2576 2904 
Q 2703 3103 2703 3363 
Q 2703 3800 2456 4047 
Q 2209 4294 1747 4294 
Q 1309 4294 1029 4036 
Q 750 3778 750 3356 
L 375 3356 
Q 375 3709 553 4001 
Q 731 4294 1047 4453 
Q 1363 4613 1747 4613 
Q 2366 4613 2722 4275 
Q 3078 3938 3078 3350 
Q 3078 3022 2870 2745 
Q 2663 2469 2300 2331 
Q 2725 2213 2944 1923 
Q 3163 1634 3163 1234 
Q 3163 650 2781 293 
Q 2400 -63 1763 -63 
Q 1356 -63 1017 100 
Q 678 263 492 555 
Q 306 847 306 1234 
L 681 1234 
Q 681 800 984 526 
Q 1288 253 1763 253 
Q 2247 253 2517 501 
Q 2788 750 2788 1222 
Q 2788 1678 2495 1918 
Q 2203 2159 1634 2159 
L 1259 2159 
L 1259 2478 
z
" transform="scale(0.015625)"/>
       </defs>
       <use xlink:href="#Roboto-Light-31" transform="translate(0 0.565625)"/>
       <use xlink:href="#Roboto-Light-30" transform="translate(55.419922 0.565625)"/>
       <use xlink:href="#Roboto-Light-33" transform="translate(111.764336 37.545313) scale(0.7)"/>
      </g>
     </g>
    </g>
    <g id="ytick_3">
     <g id="line2d_13">
      <path d="M 41.418046 26.8992 
L 166.656738 26.8992 
" clip-path="url(#pd92d1a01da)" style="fill: none; stroke: #dee2e6; stroke-opacity: 0.25; stroke-width: -1; stroke-linecap: square"/>
     </g>
     <g id="line2d_14">
      <g>
       <use xlink:href="#m73491944b8" x="41.418046" y="26.8992" style="stroke: #000000; stroke-width: 0.3"/>
      </g>
     </g>
     <g id="text_8">
      <!-- $\mathdefault{10^{4}}$ -->
      <g transform="translate(26.098046 29.8992) scale(0.08 -0.08)">
       <use xlink:href="#Roboto-Light-31" transform="translate(0 0.254688)"/>
       <use xlink:href="#Roboto-Light-30" transform="translate(55.419922 0.254688)"/>
       <use xlink:href="#Roboto-Light-34" transform="translate(111.764336 37.234375) scale(0.7)"/>
      </g>
     </g>
    </g>
    <g id="ytick_4">
     <g id="line2d_15">
      <path d="M 41.418046 148.977925 
L 166.656738 148.977925 
" clip-path="url(#pd92d1a01da)" style="fill: none; stroke: #dee2e6; stroke-opacity: 0.25; stroke-width: -1; stroke-linecap: square"/>
     </g>
     <g id="line2d_16">
      <defs>
       <path id="m476b9b6353" d="M 0 0 
L -1 0 
" style="stroke: #000000; stroke-width: 0.2"/>
      </defs>
      <g>
       <use xlink:href="#m476b9b6353" x="41.418046" y="148.977925" style="stroke: #000000; stroke-width: 0.2"/>
      </g>
     </g>
    </g>
    <g id="ytick_5">
     <g id="line2d_17">
      <path d="M 41.418046 136.324967 
L 166.656738 136.324967 
" clip-path="url(#pd92d1a01da)" style="fill: none; stroke: #dee2e6; stroke-opacity: 0.25; stroke-width: -1; stroke-linecap: square"/>
     </g>
     <g id="line2d_18">
      <g>
       <use xlink:href="#m476b9b6353" x="41.418046" y="136.324967" style="stroke: #000000; stroke-width: 0.2"/>
      </g>
     </g>
    </g>
    <g id="ytick_6">
     <g id="line2d_19">
      <path d="M 41.418046 127.34755 
L 166.656738 127.34755 
" clip-path="url(#pd92d1a01da)" style="fill: none; stroke: #dee2e6; stroke-opacity: 0.25; stroke-width: -1; stroke-linecap: square"/>
     </g>
     <g id="line2d_20">
      <g>
       <use xlink:href="#m476b9b6353" x="41.418046" y="127.34755" style="stroke: #000000; stroke-width: 0.2"/>
      </g>
     </g>
    </g>
    <g id="ytick_7">
     <g id="line2d_21">
      <path d="M 41.418046 120.384125 
L 166.656738 120.384125 
" clip-path="url(#pd92d1a01da)" style="fill: none; stroke: #dee2e6; stroke-opacity: 0.25; stroke-width: -1; stroke-linecap: square"/>
     </g>
     <g id="line2d_22">
      <g>
       <use xlink:href="#m476b9b6353" x="41.418046" y="120.384125" style="stroke: #000000; stroke-width: 0.2"/>
      </g>
     </g>
    </g>
    <g id="ytick_8">
     <g id="line2d_23">
      <path d="M 41.418046 114.694592 
L 166.656738 114.694592 
" clip-path="url(#pd92d1a01da)" style="fill: none; stroke: #dee2e6; stroke-opacity: 0.25; stroke-width: -1; stroke-linecap: square"/>
     </g>
     <g id="line2d_24">
      <g>
       <use xlink:href="#m476b9b6353" x="41.418046" y="114.694592" style="stroke: #000000; stroke-width: 0.2"/>
      </g>
     </g>
    </g>
    <g id="ytick_9">
     <g id="line2d_25">
      <path d="M 41.418046 109.884161 
L 166.656738 109.884161 
" clip-path="url(#pd92d1a01da)" style="fill: none; stroke: #dee2e6; stroke-opacity: 0.25; stroke-width: -1; stroke-linecap: square"/>
     </g>
     <g id="line2d_26">
      <g>
       <use xlink:href="#m476b9b6353" x="41.418046" y="109.884161" style="stroke: #000000; stroke-width: 0.2"/>
      </g>
     </g>
    </g>
    <g id="ytick_10">
     <g id="line2d_27">
      <path d="M 41.418046 105.717175 
L 166.656738 105.717175 
" clip-path="url(#pd92d1a01da)" style="fill: none; stroke: #dee2e6; stroke-opacity: 0.25; stroke-width: -1; stroke-linecap: square"/>
     </g>
     <g id="line2d_28">
      <g>
       <use xlink:href="#m476b9b6353" x="41.418046" y="105.717175" style="stroke: #000000; stroke-width: 0.2"/>
      </g>
     </g>
    </g>
    <g id="ytick_11">
     <g id="line2d_29">
      <path d="M 41.418046 102.041634 
L 166.656738 102.041634 
" clip-path="url(#pd92d1a01da)" style="fill: none; stroke: #dee2e6; stroke-opacity: 0.25; stroke-width: -1; stroke-linecap: square"/>
     </g>
     <g id="line2d_30">
      <g>
       <use xlink:href="#m476b9b6353" x="41.418046" y="102.041634" style="stroke: #000000; stroke-width: 0.2"/>
      </g>
     </g>
    </g>
    <g id="ytick_12">
     <g id="line2d_31">
      <path d="M 41.418046 77.123375 
L 166.656738 77.123375 
" clip-path="url(#pd92d1a01da)" style="fill: none; stroke: #dee2e6; stroke-opacity: 0.25; stroke-width: -1; stroke-linecap: square"/>
     </g>
     <g id="line2d_32">
      <g>
       <use xlink:href="#m476b9b6353" x="41.418046" y="77.123375" style="stroke: #000000; stroke-width: 0.2"/>
      </g>
     </g>
    </g>
    <g id="ytick_13">
     <g id="line2d_33">
      <path d="M 41.418046 64.470417 
L 166.656738 64.470417 
" clip-path="url(#pd92d1a01da)" style="fill: none; stroke: #dee2e6; stroke-opacity: 0.25; stroke-width: -1; stroke-linecap: square"/>
     </g>
     <g id="line2d_34">
      <g>
       <use xlink:href="#m476b9b6353" x="41.418046" y="64.470417" style="stroke: #000000; stroke-width: 0.2"/>
      </g>
     </g>
    </g>
    <g id="ytick_14">
     <g id="line2d_35">
      <path d="M 41.418046 55.493 
L 166.656738 55.493 
" clip-path="url(#pd92d1a01da)" style="fill: none; stroke: #dee2e6; stroke-opacity: 0.25; stroke-width: -1; stroke-linecap: square"/>
     </g>
     <g id="line2d_36">
      <g>
       <use xlink:href="#m476b9b6353" x="41.418046" y="55.493" style="stroke: #000000; stroke-width: 0.2"/>
      </g>
     </g>
    </g>
    <g id="ytick_15">
     <g id="line2d_37">
      <path d="M 41.418046 48.529575 
L 166.656738 48.529575 
" clip-path="url(#pd92d1a01da)" style="fill: none; stroke: #dee2e6; stroke-opacity: 0.25; stroke-width: -1; stroke-linecap: square"/>
     </g>
     <g id="line2d_38">
      <g>
       <use xlink:href="#m476b9b6353" x="41.418046" y="48.529575" style="stroke: #000000; stroke-width: 0.2"/>
      </g>
     </g>
    </g>
    <g id="ytick_16">
     <g id="line2d_39">
      <path d="M 41.418046 42.840042 
L 166.656738 42.840042 
" clip-path="url(#pd92d1a01da)" style="fill: none; stroke: #dee2e6; stroke-opacity: 0.25; stroke-width: -1; stroke-linecap: square"/>
     </g>
     <g id="line2d_40">
      <g>
       <use xlink:href="#m476b9b6353" x="41.418046" y="42.840042" style="stroke: #000000; stroke-width: 0.2"/>
      </g>
     </g>
    </g>
    <g id="ytick_17">
     <g id="line2d_41">
      <path d="M 41.418046 38.029611 
L 166.656738 38.029611 
" clip-path="url(#pd92d1a01da)" style="fill: none; stroke: #dee2e6; stroke-opacity: 0.25; stroke-width: -1; stroke-linecap: square"/>
     </g>
     <g id="line2d_42">
      <g>
       <use xlink:href="#m476b9b6353" x="41.418046" y="38.029611" style="stroke: #000000; stroke-width: 0.2"/>
      </g>
     </g>
    </g>
    <g id="ytick_18">
     <g id="line2d_43">
      <path d="M 41.418046 33.862625 
L 166.656738 33.862625 
" clip-path="url(#pd92d1a01da)" style="fill: none; stroke: #dee2e6; stroke-opacity: 0.25; stroke-width: -1; stroke-linecap: square"/>
     </g>
     <g id="line2d_44">
      <g>
       <use xlink:href="#m476b9b6353" x="41.418046" y="33.862625" style="stroke: #000000; stroke-width: 0.2"/>
      </g>
     </g>
    </g>
    <g id="ytick_19">
     <g id="line2d_45">
      <path d="M 41.418046 30.187084 
L 166.656738 30.187084 
" clip-path="url(#pd92d1a01da)" style="fill: none; stroke: #dee2e6; stroke-opacity: 0.25; stroke-width: -1; stroke-linecap: square"/>
     </g>
     <g id="line2d_46">
      <g>
       <use xlink:href="#m476b9b6353" x="41.418046" y="30.187084" style="stroke: #000000; stroke-width: 0.2"/>
      </g>
     </g>
    </g>
    <g id="text_9">
     <!-- Pressure [kPa] -->
     <g transform="translate(20.473046 124.391875) rotate(-90) scale(0.08 -0.08)">
      <defs>
       <path id="Roboto-Regular-50" d="M 1128 1781 
L 1128 0 
L 528 0 
L 528 4550 
L 2206 4550 
Q 2953 4550 3376 4169 
Q 3800 3788 3800 3159 
Q 3800 2497 3386 2139 
Q 2972 1781 2200 1781 
L 1128 1781 
z
M 1128 2272 
L 2206 2272 
Q 2688 2272 2944 2498 
Q 3200 2725 3200 3153 
Q 3200 3559 2944 3803 
Q 2688 4047 2241 4056 
L 1128 4056 
L 1128 2272 
z
" transform="scale(0.015625)"/>
       <path id="Roboto-Regular-72" d="M 2072 2863 
Q 1941 2884 1788 2884 
Q 1219 2884 1016 2400 
L 1016 0 
L 438 0 
L 438 3381 
L 1000 3381 
L 1009 2991 
Q 1294 3444 1816 3444 
Q 1984 3444 2072 3400 
L 2072 2863 
z
" transform="scale(0.015625)"/>
       <path id="Roboto-Regular-65" d="M 1841 -63 
Q 1153 -63 722 389 
Q 291 841 291 1597 
L 291 1703 
Q 291 2206 483 2601 
Q 675 2997 1020 3220 
Q 1366 3444 1769 3444 
Q 2428 3444 2793 3009 
Q 3159 2575 3159 1766 
L 3159 1525 
L 869 1525 
Q 881 1025 1161 717 
Q 1441 409 1872 409 
Q 2178 409 2390 534 
Q 2603 659 2763 866 
L 3116 591 
Q 2691 -63 1841 -63 
z
M 1769 2969 
Q 1419 2969 1181 2714 
Q 944 2459 888 2000 
L 2581 2000 
L 2581 2044 
Q 2556 2484 2343 2726 
Q 2131 2969 1769 2969 
z
" transform="scale(0.015625)"/>
       <path id="Roboto-Regular-73" d="M 2406 897 
Q 2406 1131 2229 1261 
Q 2053 1391 1614 1484 
Q 1175 1578 917 1709 
Q 659 1841 536 2022 
Q 413 2203 413 2453 
Q 413 2869 764 3156 
Q 1116 3444 1663 3444 
Q 2238 3444 2595 3147 
Q 2953 2850 2953 2388 
L 2372 2388 
Q 2372 2625 2170 2797 
Q 1969 2969 1663 2969 
Q 1347 2969 1169 2831 
Q 991 2694 991 2472 
Q 991 2263 1156 2156 
Q 1322 2050 1755 1953 
Q 2188 1856 2456 1722 
Q 2725 1588 2854 1398 
Q 2984 1209 2984 938 
Q 2984 484 2621 210 
Q 2259 -63 1681 -63 
Q 1275 -63 962 81 
Q 650 225 473 483 
Q 297 741 297 1041 
L 875 1041 
Q 891 750 1108 579 
Q 1325 409 1681 409 
Q 2009 409 2207 542 
Q 2406 675 2406 897 
z
" transform="scale(0.015625)"/>
       <path id="Roboto-Regular-75" d="M 2525 334 
Q 2188 -63 1534 -63 
Q 994 -63 711 251 
Q 428 566 425 1181 
L 425 3381 
L 1003 3381 
L 1003 1197 
Q 1003 428 1628 428 
Q 2291 428 2509 922 
L 2509 3381 
L 3088 3381 
L 3088 0 
L 2538 0 
L 2525 334 
z
" transform="scale(0.015625)"/>
      </defs>
      <use xlink:href="#Roboto-Regular-50"/>
      <use xlink:href="#Roboto-Regular-72" transform="translate(63.085938 0)"/>
      <use xlink:href="#Roboto-Regular-65" transform="translate(96.923828 0)"/>
      <use xlink:href="#Roboto-Regular-73" transform="translate(149.902344 0)"/>
      <use xlink:href="#Roboto-Regular-73" transform="translate(201.464844 0)"/>
      <use xlink:href="#Roboto-Regular-75" transform="translate(253.027344 0)"/>
      <use xlink:href="#Roboto-Regular-72" transform="translate(308.154297 0)"/>
      <use xlink:href="#Roboto-Regular-65" transform="translate(341.992188 0)"/>
      <use xlink:href="#Roboto-Regular-20" transform="translate(394.970703 0)"/>
      <use xlink:href="#Roboto-Regular-5b" transform="translate(419.726562 0)"/>
      <use xlink:href="#Roboto-Regular-6b" transform="translate(446.240234 0)"/>
      <use xlink:href="#Roboto-Regular-50" transform="translate(496.923828 0)"/>
      <use xlink:href="#Roboto-Regular-61" transform="translate(560.009766 0)"/>
      <use xlink:href="#Roboto-Regular-5d" transform="translate(614.404297 0)"/>
     </g>
    </g>
   </g>
   <g id="line2d_47">
    <path d="M 60.1558 172.599492 
L 62.436869 159.345706 
L 64.741428 147.174586 
L 67.074876 135.954344 
L 69.443249 125.571941 
L 71.853459 115.929959 
L 74.313638 106.944034 
L 76.833675 98.540725 
L 79.426063 90.655722 
L 82.107302 83.232286 
L 84.680878 76.745729 
L 87.376008 70.57318 
L 89.987911 65.162061 
L 92.524199 60.426145 
L 94.997033 56.296642 
L 97.107324 53.161589 
L 99.120783 50.520597 
L 101.03878 48.346529 
L 102.866094 46.61958 
L 104.624247 45.326677 
L 105.389966 44.894803 
L 106.399236 44.461485 
L 108.776392 44.024897 
L 110.609317 43.991491 
L 110.609317 43.991491 
" clip-path="url(#pd92d1a01da)" style="fill: none; stroke: #339af0; stroke-width: 2; stroke-linecap: square"/>
   </g>
   <g id="line2d_48">
    <path d="M 124.190894 172.599492 
L 127.071347 115.929959 
L 127.581373 101.068331 
L 127.741586 90.06898 
L 127.64748 81.579284 
L 127.351397 74.655026 
L 126.901056 69.075122 
L 126.284809 64.201566 
L 125.605295 60.426145 
L 124.828894 57.204238 
L 123.980329 54.497565 
L 123.094257 52.276881 
L 121.971413 50.084047 
L 120.809397 48.346529 
L 119.682002 47.050654 
L 118.722187 46.18871 
L 117.451678 45.326677 
L 116.590799 44.894803 
L 115.381803 44.461485 
L 112.442242 44.024897 
L 110.609317 43.991491 
L 110.609317 43.991491 
" clip-path="url(#pd92d1a01da)" style="fill: none; stroke: #ff6b6b; stroke-width: 2; stroke-linecap: square"/>
   </g>
   <g id="line2d_49">
    <path d="M 127.358559 108.456013 
L 128.346634 108.456013 
L 143.242218 57.256269 
L 124.843234 57.256269 
L 94.395638 57.256269 
L 93.162844 57.256269 
L 93.162844 108.456013 
L 127.358559 108.456013 
" clip-path="url(#pd92d1a01da)" style="fill: none; stroke-dasharray: 2,2; stroke-dashoffset: 0; stroke: #343a40"/>
   </g>
   <g id="line2d_50">
    <defs>
     <path id="mccf4b8dfc2" d="M 0 1.5 
C 0.397805 1.5 0.77937 1.341951 1.06066 1.06066 
C 1.341951 0.77937 1.5 0.397805 1.5 0 
C 1.5 -0.397805 1.341951 -0.77937 1.06066 -1.06066 
C 0.77937 -1.341951 0.397805 -1.5 0 -1.5 
C -0.397805 -1.5 -0.77937 -1.341951 -1.06066 -1.06066 
C -1.341951 -0.77937 -1.5 -0.397805 -1.5 0 
C -1.5 0.397805 -1.341951 0.77937 -1.06066 1.06066 
C -0.77937 1.341951 -0.397805 1.5 0 1.5 
z
" style="stroke: #343a40"/>
    </defs>
    <g clip-path="url(#pd92d1a01da)">
     <use xlink:href="#mccf4b8dfc2" x="128.346634" y="108.456013" style="fill: #343a40; stroke: #343a40"/>
    </g>
   </g>
   <g id="line2d_51">
    <g clip-path="url(#pd92d1a01da)">
     <use xlink:href="#mccf4b8dfc2" x="143.242218" y="57.256269" style="fill: #343a40; stroke: #343a40"/>
    </g>
   </g>
   <g id="line2d_52">
    <g clip-path="url(#pd92d1a01da)">
     <use xlink:href="#mccf4b8dfc2" x="93.162844" y="57.256269" style="fill: #343a40; stroke: #343a40"/>
    </g>
   </g>
   <g id="line2d_53">
    <g clip-path="url(#pd92d1a01da)">
     <use xlink:href="#mccf4b8dfc2" x="93.162844" y="108.456013" style="fill: #343a40; stroke: #343a40"/>
    </g>
   </g>
   <g id="line2d_54"/>
   <g id="line2d_55"/>
   <g id="line2d_56"/>
   <g id="patch_3">
    <path d="M 41.418046 170.6083 
L 41.418046 26.8992 
" style="fill: none; stroke: #000000; stroke-width: 0.3; stroke-linejoin: miter; stroke-linecap: square"/>
   </g>
   <g id="patch_4">
    <path d="M 41.418046 170.6083 
L 166.656738 170.6083 
" style="fill: none; stroke: #000000; stroke-width: 0.3; stroke-linejoin: miter; stroke-linecap: square"/>
   </g>
   <g id="text_10">
    <!-- R32 -->
    <g transform="translate(97.081767 12.0742) scale(0.08 -0.08)">
     <defs>
      <path id="Roboto-Regular-52" d="M 2197 1841 
L 1128 1841 
L 1128 0 
L 525 0 
L 525 4550 
L 2031 4550 
Q 2800 4550 3214 4200 
Q 3628 3850 3628 3181 
Q 3628 2756 3398 2440 
Q 3169 2125 2759 1969 
L 3828 38 
L 3828 0 
L 3184 0 
L 2197 1841 
z
M 1128 2331 
L 2050 2331 
Q 2497 2331 2761 2562 
Q 3025 2794 3025 3181 
Q 3025 3603 2773 3828 
Q 2522 4053 2047 4056 
L 1128 4056 
L 1128 2331 
z
" transform="scale(0.015625)"/>
      <path id="Roboto-Regular-33" d="M 1219 2556 
L 1653 2556 
Q 2063 2563 2297 2772 
Q 2531 2981 2531 3338 
Q 2531 4138 1734 4138 
Q 1359 4138 1136 3923 
Q 913 3709 913 3356 
L 334 3356 
Q 334 3897 729 4255 
Q 1125 4613 1734 4613 
Q 2378 4613 2743 4272 
Q 3109 3931 3109 3325 
Q 3109 3028 2917 2750 
Q 2725 2472 2394 2334 
Q 2769 2216 2973 1941 
Q 3178 1666 3178 1269 
Q 3178 656 2778 296 
Q 2378 -63 1737 -63 
Q 1097 -63 695 284 
Q 294 631 294 1200 
L 875 1200 
Q 875 841 1109 625 
Q 1344 409 1738 409 
Q 2156 409 2378 628 
Q 2600 847 2600 1256 
Q 2600 1653 2356 1865 
Q 2113 2078 1653 2084 
L 1219 2084 
L 1219 2556 
z
" transform="scale(0.015625)"/>
      <path id="Roboto-Regular-32" d="M 3359 0 
L 378 0 
L 378 416 
L 1953 2166 
Q 2303 2563 2436 2811 
Q 2569 3059 2569 3325 
Q 2569 3681 2353 3909 
Q 2138 4138 1778 4138 
Q 1347 4138 1108 3892 
Q 869 3647 869 3209 
L 291 3209 
Q 291 3838 695 4225 
Q 1100 4613 1778 4613 
Q 2413 4613 2781 4280 
Q 3150 3947 3150 3394 
Q 3150 2722 2294 1794 
L 1075 472 
L 3359 472 
L 3359 0 
z
" transform="scale(0.015625)"/>
     </defs>
     <use xlink:href="#Roboto-Regular-52"/>
     <use xlink:href="#Roboto-Regular-33" transform="translate(61.572266 0)"/>
     <use xlink:href="#Roboto-Regular-32" transform="translate(117.724609 0)"/>
    </g>
    <!-- COP = 2.84 -->
    <g transform="translate(84.193017 20.8992) scale(0.08 -0.08)">
     <defs>
      <path id="Roboto-Regular-43" d="M 3875 1444 
Q 3791 722 3342 329 
Q 2894 -63 2150 -63 
Q 1344 -63 858 515 
Q 372 1094 372 2063 
L 372 2500 
Q 372 3134 598 3615 
Q 825 4097 1240 4355 
Q 1656 4613 2203 4613 
Q 2928 4613 3365 4208 
Q 3803 3803 3875 3088 
L 3272 3088 
Q 3194 3631 2933 3875 
Q 2672 4119 2203 4119 
Q 1628 4119 1301 3694 
Q 975 3269 975 2484 
L 975 2044 
Q 975 1303 1284 865 
Q 1594 428 2150 428 
Q 2650 428 2917 654 
Q 3184 881 3272 1444 
L 3875 1444 
z
" transform="scale(0.015625)"/>
      <path id="Roboto-Regular-4f" d="M 4028 2128 
Q 4028 1459 3803 961 
Q 3578 463 3165 200 
Q 2753 -63 2203 -63 
Q 1666 -63 1250 201 
Q 834 466 604 955 
Q 375 1444 369 2088 
L 369 2416 
Q 369 3072 597 3575 
Q 825 4078 1242 4345 
Q 1659 4613 2197 4613 
Q 2744 4613 3161 4348 
Q 3578 4084 3803 3582 
Q 4028 3081 4028 2416 
L 4028 2128 
z
M 3431 2422 
Q 3431 3231 3106 3664 
Q 2781 4097 2197 4097 
Q 1628 4097 1301 3664 
Q 975 3231 966 2463 
L 966 2128 
Q 966 1344 1295 895 
Q 1625 447 2203 447 
Q 2784 447 3103 870 
Q 3422 1294 3431 2084 
L 3431 2422 
z
" transform="scale(0.015625)"/>
      <path id="Roboto-Regular-3d" d="M 3081 2544 
L 475 2544 
L 475 3047 
L 3081 3047 
L 3081 2544 
z
M 3081 1247 
L 475 1247 
L 475 1747 
L 3081 1747 
L 3081 1247 
z
" transform="scale(0.015625)"/>
      <path id="Roboto-Regular-2e" d="M 450 303 
Q 450 453 539 553 
Q 628 653 806 653 
Q 984 653 1076 553 
Q 1169 453 1169 303 
Q 1169 159 1076 62 
Q 984 -34 806 -34 
Q 628 -34 539 62 
Q 450 159 450 303 
z
" transform="scale(0.015625)"/>
      <path id="Roboto-Regular-38" d="M 3138 3363 
Q 3138 3022 2958 2756 
Q 2778 2491 2472 2341 
Q 2828 2188 3036 1894 
Q 3244 1600 3244 1228 
Q 3244 638 2845 287 
Q 2447 -63 1797 -63 
Q 1141 -63 745 289 
Q 350 641 350 1228 
Q 350 1597 551 1894 
Q 753 2191 1109 2344 
Q 806 2494 631 2759 
Q 456 3025 456 3363 
Q 456 3938 825 4275 
Q 1194 4613 1797 4613 
Q 2397 4613 2767 4275 
Q 3138 3938 3138 3363 
z
M 2666 1241 
Q 2666 1622 2423 1862 
Q 2181 2103 1790 2103 
Q 1400 2103 1164 1865 
Q 928 1628 928 1240 
Q 928 853 1158 631 
Q 1388 409 1797 409 
Q 2203 409 2434 632 
Q 2666 856 2666 1241 
z
M 1797 4138 
Q 1456 4138 1245 3927 
Q 1034 3716 1034 3353 
Q 1034 3006 1242 2792 
Q 1450 2578 1797 2578 
Q 2144 2578 2351 2792 
Q 2559 3006 2559 3353 
Q 2559 3700 2343 3919 
Q 2128 4138 1797 4138 
z
" transform="scale(0.015625)"/>
      <path id="Roboto-Regular-34" d="M 2819 1528 
L 3450 1528 
L 3450 1056 
L 2819 1056 
L 2819 0 
L 2238 0 
L 2238 1056 
L 166 1056 
L 166 1397 
L 2203 4550 
L 2819 4550 
L 2819 1528 
z
M 822 1528 
L 2238 1528 
L 2238 3759 
L 2169 3634 
L 822 1528 
z
" transform="scale(0.015625)"/>
     </defs>
     <use xlink:href="#Roboto-Regular-43"/>
     <use xlink:href="#Roboto-Regular-4f" transform="translate(65.087891 0)"/>
     <use xlink:href="#Roboto-Regular-50" transform="translate(133.837891 0)"/>
     <use xlink:href="#Roboto-Regular-20" transform="translate(196.923828 0)"/>
     <use xlink:href="#Roboto-Regular-3d" transform="translate(221.679688 0)"/>
     <use xlink:href="#Roboto-Regular-20" transform="translate(276.5625 0)"/>
     <use xlink:href="#Roboto-Regular-32" transform="translate(301.318359 0)"/>
     <use xlink:href="#Roboto-Regular-2e" transform="translate(357.470703 0)"/>
     <use xlink:href="#Roboto-Regular-38" transform="translate(383.789062 0)"/>
     <use xlink:href="#Roboto-Regular-34" transform="translate(439.941406 0)"/>
    </g>
   </g>
  </g>
  <g id="axes_2">
   <g id="patch_5">
    <path d="M 191.704477 170.6083 
L 316.943169 170.6083 
L 316.943169 26.8992 
L 191.704477 26.8992 
z
" style="fill: #ffffff"/>
   </g>
   <g id="matplotlib.axis_3">
    <g id="xtick_5">
     <g id="line2d_57">
      <path d="M 191.704477 170.6083 
L 191.704477 26.8992 
" clip-path="url(#p29bb7cbe32)" style="fill: none; stroke: #dee2e6; stroke-opacity: 0.25; stroke-width: -1; stroke-linecap: square"/>
     </g>
     <g id="line2d_58">
      <g>
       <use xlink:href="#m5c0af12cd9" x="191.704477" y="170.6083" style="stroke: #000000; stroke-width: 0.3"/>
      </g>
     </g>
     <g id="text_11">
      <!-- 0 -->
      <g transform="translate(189.487602 180.6083) scale(0.08 -0.08)">
       <use xlink:href="#Roboto-Light-30"/>
      </g>
     </g>
    </g>
    <g id="xtick_6">
     <g id="line2d_59">
      <path d="M 225.101461 170.6083 
L 225.101461 26.8992 
" clip-path="url(#p29bb7cbe32)" style="fill: none; stroke: #dee2e6; stroke-opacity: 0.25; stroke-width: -1; stroke-linecap: square"/>
     </g>
     <g id="line2d_60">
      <g>
       <use xlink:href="#m5c0af12cd9" x="225.101461" y="170.6083" style="stroke: #000000; stroke-width: 0.3"/>
      </g>
     </g>
     <g id="text_12">
      <!-- 200 -->
      <g transform="translate(218.450836 180.6083) scale(0.08 -0.08)">
       <use xlink:href="#Roboto-Light-32"/>
       <use xlink:href="#Roboto-Light-30" transform="translate(55.419922 0)"/>
       <use xlink:href="#Roboto-Light-30" transform="translate(110.839844 0)"/>
      </g>
     </g>
    </g>
    <g id="xtick_7">
     <g id="line2d_61">
      <path d="M 258.498446 170.6083 
L 258.498446 26.8992 
" clip-path="url(#p29bb7cbe32)" style="fill: none; stroke: #dee2e6; stroke-opacity: 0.25; stroke-width: -1; stroke-linecap: square"/>
     </g>
     <g id="line2d_62">
      <g>
       <use xlink:href="#m5c0af12cd9" x="258.498446" y="170.6083" style="stroke: #000000; stroke-width: 0.3"/>
      </g>
     </g>
     <g id="text_13">
      <!-- 400 -->
      <g transform="translate(251.847821 180.6083) scale(0.08 -0.08)">
       <use xlink:href="#Roboto-Light-34"/>
       <use xlink:href="#Roboto-Light-30" transform="translate(55.419922 0)"/>
       <use xlink:href="#Roboto-Light-30" transform="translate(110.839844 0)"/>
      </g>
     </g>
    </g>
    <g id="xtick_8">
     <g id="line2d_63">
      <path d="M 291.895431 170.6083 
L 291.895431 26.8992 
" clip-path="url(#p29bb7cbe32)" style="fill: none; stroke: #dee2e6; stroke-opacity: 0.25; stroke-width: -1; stroke-linecap: square"/>
     </g>
     <g id="line2d_64">
      <g>
       <use xlink:href="#m5c0af12cd9" x="291.895431" y="170.6083" style="stroke: #000000; stroke-width: 0.3"/>
      </g>
     </g>
     <g id="text_14">
      <!-- 600 -->
      <g transform="translate(285.244806 180.6083) scale(0.08 -0.08)">
       <use xlink:href="#Roboto-Light-36"/>
       <use xlink:href="#Roboto-Light-30" transform="translate(55.419922 0)"/>
       <use xlink:href="#Roboto-Light-30" transform="translate(110.839844 0)"/>
      </g>
     </g>
    </g>
    <g id="text_15">
     <!-- Enthalpy [kJ/kg] -->
     <g transform="translate(225.783823 192.7333) scale(0.08 -0.08)">
      <use xlink:href="#Roboto-Regular-45"/>
      <use xlink:href="#Roboto-Regular-6e" transform="translate(56.835938 0)"/>
      <use xlink:href="#Roboto-Regular-74" transform="translate(112.011719 0)"/>
      <use xlink:href="#Roboto-Regular-68" transform="translate(144.677734 0)"/>
      <use xlink:href="#Roboto-Regular-61" transform="translate(199.755859 0)"/>
      <use xlink:href="#Roboto-Regular-6c" transform="translate(254.150391 0)"/>
      <use xlink:href="#Roboto-Regular-70" transform="translate(278.417969 0)"/>
      <use xlink:href="#Roboto-Regular-79" transform="translate(334.521484 0)"/>
      <use xlink:href="#Roboto-Regular-20" transform="translate(381.835938 0)"/>
      <use xlink:href="#Roboto-Regular-5b" transform="translate(406.591797 0)"/>
      <use xlink:href="#Roboto-Regular-6b" transform="translate(433.105469 0)"/>
      <use xlink:href="#Roboto-Regular-4a" transform="translate(483.789062 0)"/>
      <use xlink:href="#Roboto-Regular-2f" transform="translate(538.964844 0)"/>
      <use xlink:href="#Roboto-Regular-6b" transform="translate(580.175781 0)"/>
      <use xlink:href="#Roboto-Regular-67" transform="translate(630.859375 0)"/>
      <use xlink:href="#Roboto-Regular-5d" transform="translate(686.962891 0)"/>
     </g>
    </g>
   </g>
   <g id="matplotlib.axis_4">
    <g id="ytick_20">
     <g id="line2d_65">
      <path d="M 191.704477 170.6083 
L 316.943169 170.6083 
" clip-path="url(#p29bb7cbe32)" style="fill: none; stroke: #dee2e6; stroke-opacity: 0.25; stroke-width: -1; stroke-linecap: square"/>
     </g>
     <g id="line2d_66">
      <g>
       <use xlink:href="#m73491944b8" x="191.704477" y="170.6083" style="stroke: #000000; stroke-width: 0.3"/>
      </g>
     </g>
    </g>
    <g id="ytick_21">
     <g id="line2d_67">
      <path d="M 191.704477 98.75375 
L 316.943169 98.75375 
" clip-path="url(#p29bb7cbe32)" style="fill: none; stroke: #dee2e6; stroke-opacity: 0.25; stroke-width: -1; stroke-linecap: square"/>
     </g>
     <g id="line2d_68">
      <g>
       <use xlink:href="#m73491944b8" x="191.704477" y="98.75375" style="stroke: #000000; stroke-width: 0.3"/>
      </g>
     </g>
    </g>
    <g id="ytick_22">
     <g id="line2d_69">
      <path d="M 191.704477 26.8992 
L 316.943169 26.8992 
" clip-path="url(#p29bb7cbe32)" style="fill: none; stroke: #dee2e6; stroke-opacity: 0.25; stroke-width: -1; stroke-linecap: square"/>
     </g>
     <g id="line2d_70">
      <g>
       <use xlink:href="#m73491944b8" x="191.704477" y="26.8992" style="stroke: #000000; stroke-width: 0.3"/>
      </g>
     </g>
    </g>
    <g id="ytick_23">
     <g id="line2d_71">
      <path d="M 191.704477 148.977925 
L 316.943169 148.977925 
" clip-path="url(#p29bb7cbe32)" style="fill: none; stroke: #dee2e6; stroke-opacity: 0.25; stroke-width: -1; stroke-linecap: square"/>
     </g>
     <g id="line2d_72">
      <g>
       <use xlink:href="#m476b9b6353" x="191.704477" y="148.977925" style="stroke: #000000; stroke-width: 0.2"/>
      </g>
     </g>
    </g>
    <g id="ytick_24">
     <g id="line2d_73">
      <path d="M 191.704477 136.324967 
L 316.943169 136.324967 
" clip-path="url(#p29bb7cbe32)" style="fill: none; stroke: #dee2e6; stroke-opacity: 0.25; stroke-width: -1; stroke-linecap: square"/>
     </g>
     <g id="line2d_74">
      <g>
       <use xlink:href="#m476b9b6353" x="191.704477" y="136.324967" style="stroke: #000000; stroke-width: 0.2"/>
      </g>
     </g>
    </g>
    <g id="ytick_25">
     <g id="line2d_75">
      <path d="M 191.704477 127.34755 
L 316.943169 127.34755 
" clip-path="url(#p29bb7cbe32)" style="fill: none; stroke: #dee2e6; stroke-opacity: 0.25; stroke-width: -1; stroke-linecap: square"/>
     </g>
     <g id="line2d_76">
      <g>
       <use xlink:href="#m476b9b6353" x="191.704477" y="127.34755" style="stroke: #000000; stroke-width: 0.2"/>
      </g>
     </g>
    </g>
    <g id="ytick_26">
     <g id="line2d_77">
      <path d="M 191.704477 120.384125 
L 316.943169 120.384125 
" clip-path="url(#p29bb7cbe32)" style="fill: none; stroke: #dee2e6; stroke-opacity: 0.25; stroke-width: -1; stroke-linecap: square"/>
     </g>
     <g id="line2d_78">
      <g>
       <use xlink:href="#m476b9b6353" x="191.704477" y="120.384125" style="stroke: #000000; stroke-width: 0.2"/>
      </g>
     </g>
    </g>
    <g id="ytick_27">
     <g id="line2d_79">
      <path d="M 191.704477 114.694592 
L 316.943169 114.694592 
" clip-path="url(#p29bb7cbe32)" style="fill: none; stroke: #dee2e6; stroke-opacity: 0.25; stroke-width: -1; stroke-linecap: square"/>
     </g>
     <g id="line2d_80">
      <g>
       <use xlink:href="#m476b9b6353" x="191.704477" y="114.694592" style="stroke: #000000; stroke-width: 0.2"/>
      </g>
     </g>
    </g>
    <g id="ytick_28">
     <g id="line2d_81">
      <path d="M 191.704477 109.884161 
L 316.943169 109.884161 
" clip-path="url(#p29bb7cbe32)" style="fill: none; stroke: #dee2e6; stroke-opacity: 0.25; stroke-width: -1; stroke-linecap: square"/>
     </g>
     <g id="line2d_82">
      <g>
       <use xlink:href="#m476b9b6353" x="191.704477" y="109.884161" style="stroke: #000000; stroke-width: 0.2"/>
      </g>
     </g>
    </g>
    <g id="ytick_29">
     <g id="line2d_83">
      <path d="M 191.704477 105.717175 
L 316.943169 105.717175 
" clip-path="url(#p29bb7cbe32)" style="fill: none; stroke: #dee2e6; stroke-opacity: 0.25; stroke-width: -1; stroke-linecap: square"/>
     </g>
     <g id="line2d_84">
      <g>
       <use xlink:href="#m476b9b6353" x="191.704477" y="105.717175" style="stroke: #000000; stroke-width: 0.2"/>
      </g>
     </g>
    </g>
    <g id="ytick_30">
     <g id="line2d_85">
      <path d="M 191.704477 102.041634 
L 316.943169 102.041634 
" clip-path="url(#p29bb7cbe32)" style="fill: none; stroke: #dee2e6; stroke-opacity: 0.25; stroke-width: -1; stroke-linecap: square"/>
     </g>
     <g id="line2d_86">
      <g>
       <use xlink:href="#m476b9b6353" x="191.704477" y="102.041634" style="stroke: #000000; stroke-width: 0.2"/>
      </g>
     </g>
    </g>
    <g id="ytick_31">
     <g id="line2d_87">
      <path d="M 191.704477 77.123375 
L 316.943169 77.123375 
" clip-path="url(#p29bb7cbe32)" style="fill: none; stroke: #dee2e6; stroke-opacity: 0.25; stroke-width: -1; stroke-linecap: square"/>
     </g>
     <g id="line2d_88">
      <g>
       <use xlink:href="#m476b9b6353" x="191.704477" y="77.123375" style="stroke: #000000; stroke-width: 0.2"/>
      </g>
     </g>
    </g>
    <g id="ytick_32">
     <g id="line2d_89">
      <path d="M 191.704477 64.470417 
L 316.943169 64.470417 
" clip-path="url(#p29bb7cbe32)" style="fill: none; stroke: #dee2e6; stroke-opacity: 0.25; stroke-width: -1; stroke-linecap: square"/>
     </g>
     <g id="line2d_90">
      <g>
       <use xlink:href="#m476b9b6353" x="191.704477" y="64.470417" style="stroke: #000000; stroke-width: 0.2"/>
      </g>
     </g>
    </g>
    <g id="ytick_33">
     <g id="line2d_91">
      <path d="M 191.704477 55.493 
L 316.943169 55.493 
" clip-path="url(#p29bb7cbe32)" style="fill: none; stroke: #dee2e6; stroke-opacity: 0.25; stroke-width: -1; stroke-linecap: square"/>
     </g>
     <g id="line2d_92">
      <g>
       <use xlink:href="#m476b9b6353" x="191.704477" y="55.493" style="stroke: #000000; stroke-width: 0.2"/>
      </g>
     </g>
    </g>
    <g id="ytick_34">
     <g id="line2d_93">
      <path d="M 191.704477 48.529575 
L 316.943169 48.529575 
" clip-path="url(#p29bb7cbe32)" style="fill: none; stroke: #dee2e6; stroke-opacity: 0.25; stroke-width: -1; stroke-linecap: square"/>
     </g>
     <g id="line2d_94">
      <g>
       <use xlink:href="#m476b9b6353" x="191.704477" y="48.529575" style="stroke: #000000; stroke-width: 0.2"/>
      </g>
     </g>
    </g>
    <g id="ytick_35">
     <g id="line2d_95">
      <path d="M 191.704477 42.840042 
L 316.943169 42.840042 
" clip-path="url(#p29bb7cbe32)" style="fill: none; stroke: #dee2e6; stroke-opacity: 0.25; stroke-width: -1; stroke-linecap: square"/>
     </g>
     <g id="line2d_96">
      <g>
       <use xlink:href="#m476b9b6353" x="191.704477" y="42.840042" style="stroke: #000000; stroke-width: 0.2"/>
      </g>
     </g>
    </g>
    <g id="ytick_36">
     <g id="line2d_97">
      <path d="M 191.704477 38.029611 
L 316.943169 38.029611 
" clip-path="url(#p29bb7cbe32)" style="fill: none; stroke: #dee2e6; stroke-opacity: 0.25; stroke-width: -1; stroke-linecap: square"/>
     </g>
     <g id="line2d_98">
      <g>
       <use xlink:href="#m476b9b6353" x="191.704477" y="38.029611" style="stroke: #000000; stroke-width: 0.2"/>
      </g>
     </g>
    </g>
    <g id="ytick_37">
     <g id="line2d_99">
      <path d="M 191.704477 33.862625 
L 316.943169 33.862625 
" clip-path="url(#p29bb7cbe32)" style="fill: none; stroke: #dee2e6; stroke-opacity: 0.25; stroke-width: -1; stroke-linecap: square"/>
     </g>
     <g id="line2d_100">
      <g>
       <use xlink:href="#m476b9b6353" x="191.704477" y="33.862625" style="stroke: #000000; stroke-width: 0.2"/>
      </g>
     </g>
    </g>
    <g id="ytick_38">
     <g id="line2d_101">
      <path d="M 191.704477 30.187084 
L 316.943169 30.187084 
" clip-path="url(#p29bb7cbe32)" style="fill: none; stroke: #dee2e6; stroke-opacity: 0.25; stroke-width: -1; stroke-linecap: square"/>
     </g>
     <g id="line2d_102">
      <g>
       <use xlink:href="#m476b9b6353" x="191.704477" y="30.187084" style="stroke: #000000; stroke-width: 0.2"/>
      </g>
     </g>
    </g>
   </g>
   <g id="line2d_103">
    <path d="M 204.361438 186.25177 
L 207.149638 175.108049 
L 209.980565 164.766169 
L 212.857974 155.140666 
L 215.785844 146.156983 
L 218.768439 137.749861 
L 221.810388 129.861977 
L 224.916797 122.44281 
L 228.093387 115.447665 
L 231.346696 108.836844 
L 234.68437 102.574935 
L 238.115595 96.630176 
L 241.651778 90.973902 
L 245.307644 85.580017 
L 248.716569 80.929959 
L 252.258802 76.456457 
L 255.964192 72.143625 
L 259.43255 68.432213 
L 263.123213 64.824103 
L 266.616464 61.742049 
L 269.922893 59.148089 
L 272.400298 57.438853 
L 274.518935 56.164804 
L 277.111003 54.894488 
L 278.21282 54.471016 
L 279.632209 54.046893 
L 282.787718 53.621021 
L 284.469409 53.592591 
L 284.469409 53.592591 
" clip-path="url(#p29bb7cbe32)" style="fill: none; stroke: #339af0; stroke-width: 2; stroke-linecap: square"/>
   </g>
   <g id="line2d_104">
    <path d="M 277.31541 186.25177 
L 279.430849 170.880127 
L 281.680482 156.073182 
L 284.190855 141.047355 
L 286.917927 126.096724 
L 290.307704 108.836844 
L 294.887649 85.580017 
L 296.058567 78.42391 
L 296.706494 73.088949 
L 296.958434 69.349931 
L 296.963822 66.165786 
L 296.744483 63.49523 
L 296.335892 61.306884 
L 295.793377 59.577709 
L 295.20161 58.291733 
L 294.368503 57.013551 
L 293.604621 56.164804 
L 292.558525 55.31777 
L 290.945844 54.471016 
L 289.607929 54.046893 
L 286.1511 53.621021 
L 284.469409 53.592591 
L 284.469409 53.592591 
" clip-path="url(#p29bb7cbe32)" style="fill: none; stroke: #ff6b6b; stroke-width: 2; stroke-linecap: square"/>
   </g>
   <g id="line2d_105">
    <path d="M 287.97826 120.576903 
L 289.443382 120.576903 
L 303.600782 76.514004 
L 296.320047 76.514004 
L 252.21141 76.514004 
L 250.750275 76.514004 
L 250.750275 120.576903 
L 287.97826 120.576903 
" clip-path="url(#p29bb7cbe32)" style="fill: none; stroke-dasharray: 2,2; stroke-dashoffset: 0; stroke: #343a40"/>
   </g>
   <g id="line2d_106">
    <g clip-path="url(#p29bb7cbe32)">
     <use xlink:href="#mccf4b8dfc2" x="289.443382" y="120.576903" style="fill: #343a40; stroke: #343a40"/>
    </g>
   </g>
   <g id="line2d_107">
    <g clip-path="url(#p29bb7cbe32)">
     <use xlink:href="#mccf4b8dfc2" x="303.600782" y="76.514004" style="fill: #343a40; stroke: #343a40"/>
    </g>
   </g>
   <g id="line2d_108">
    <g clip-path="url(#p29bb7cbe32)">
     <use xlink:href="#mccf4b8dfc2" x="250.750275" y="76.514004" style="fill: #343a40; stroke: #343a40"/>
    </g>
   </g>
   <g id="line2d_109">
    <g clip-path="url(#p29bb7cbe32)">
     <use xlink:href="#mccf4b8dfc2" x="250.750275" y="120.576903" style="fill: #343a40; stroke: #343a40"/>
    </g>
   </g>
   <g id="patch_6">
    <path d="M 191.704477 170.6083 
L 191.704477 26.8992 
" style="fill: none; stroke: #000000; stroke-width: 0.3; stroke-linejoin: miter; stroke-linecap: square"/>
   </g>
   <g id="patch_7">
    <path d="M 191.704477 170.6083 
L 316.943169 170.6083 
" style="fill: none; stroke: #000000; stroke-width: 0.3; stroke-linejoin: miter; stroke-linecap: square"/>
   </g>
   <g id="text_16">
    <!-- R290 -->
    <g transform="translate(245.121948 12.0742) scale(0.08 -0.08)">
     <defs>
      <path id="Roboto-Regular-39" d="M 2594 2000 
Q 2413 1784 2161 1653 
Q 1909 1522 1609 1522 
Q 1216 1522 923 1715 
Q 631 1909 472 2261 
Q 313 2613 313 3038 
Q 313 3494 486 3859 
Q 659 4225 978 4419 
Q 1297 4613 1722 4613 
Q 2397 4613 2786 4108 
Q 3175 3603 3175 2731 
L 3175 2563 
Q 3175 1234 2650 623 
Q 2125 13 1066 -3 
L 953 -3 
L 953 484 
L 1075 484 
Q 1791 497 2175 858 
Q 2559 1219 2594 2000 
z
M 1703 2000 
Q 1994 2000 2239 2178 
Q 2484 2356 2597 2619 
L 2597 2850 
Q 2597 3419 2350 3775 
Q 2103 4131 1725 4131 
Q 1344 4131 1112 3839 
Q 881 3547 881 3069 
Q 881 2603 1104 2301 
Q 1328 2000 1703 2000 
z
" transform="scale(0.015625)"/>
      <path id="Roboto-Regular-30" d="M 3231 1941 
Q 3231 925 2884 431 
Q 2538 -63 1800 -63 
Q 1072 -63 722 420 
Q 372 903 359 1863 
L 359 2634 
Q 359 3638 706 4125 
Q 1053 4613 1794 4613 
Q 2528 4613 2875 4142 
Q 3222 3672 3231 2691 
L 3231 1941 
z
M 2653 2731 
Q 2653 3466 2447 3802 
Q 2241 4138 1794 4138 
Q 1350 4138 1147 3803 
Q 944 3469 938 2775 
L 938 1850 
Q 938 1113 1152 761 
Q 1366 409 1800 409 
Q 2228 409 2436 740 
Q 2644 1072 2653 1784 
L 2653 2731 
z
" transform="scale(0.015625)"/>
     </defs>
     <use xlink:href="#Roboto-Regular-52"/>
     <use xlink:href="#Roboto-Regular-32" transform="translate(61.572266 0)"/>
     <use xlink:href="#Roboto-Regular-39" transform="translate(117.724609 0)"/>
     <use xlink:href="#Roboto-Regular-30" transform="translate(173.876953 0)"/>
    </g>
    <!-- COP = 3.04 -->
    <g transform="translate(234.479448 20.8992) scale(0.08 -0.08)">
     <use xlink:href="#Roboto-Regular-43"/>
     <use xlink:href="#Roboto-Regular-4f" transform="translate(65.087891 0)"/>
     <use xlink:href="#Roboto-Regular-50" transform="translate(133.837891 0)"/>
     <use xlink:href="#Roboto-Regular-20" transform="translate(196.923828 0)"/>
     <use xlink:href="#Roboto-Regular-3d" transform="translate(221.679688 0)"/>
     <use xlink:href="#Roboto-Regular-20" transform="translate(276.5625 0)"/>
     <use xlink:href="#Roboto-Regular-33" transform="translate(301.318359 0)"/>
     <use xlink:href="#Roboto-Regular-2e" transform="translate(357.470703 0)"/>
     <use xlink:href="#Roboto-Regular-30" transform="translate(383.789062 0)"/>
     <use xlink:href="#Roboto-Regular-34" transform="translate(439.941406 0)"/>
    </g>
   </g>
  </g>
  <g id="axes_3">
   <g id="patch_8">
    <path d="M 341.990908 170.6083 
L 467.2296 170.6083 
L 467.2296 26.8992 
L 341.990908 26.8992 
z
" style="fill: #ffffff"/>
   </g>
   <g id="matplotlib.axis_5">
    <g id="xtick_9">
     <g id="line2d_110">
      <path d="M 341.990908 170.6083 
L 341.990908 26.8992 
" clip-path="url(#p44ffa1637f)" style="fill: none; stroke: #dee2e6; stroke-opacity: 0.25; stroke-width: -1; stroke-linecap: square"/>
     </g>
     <g id="line2d_111">
      <g>
       <use xlink:href="#m5c0af12cd9" x="341.990908" y="170.6083" style="stroke: #000000; stroke-width: 0.3"/>
      </g>
     </g>
     <g id="text_17">
      <!-- 0 -->
      <g transform="translate(339.774033 180.6083) scale(0.08 -0.08)">
       <use xlink:href="#Roboto-Light-30"/>
      </g>
     </g>
    </g>
    <g id="xtick_10">
     <g id="line2d_112">
      <path d="M 375.387892 170.6083 
L 375.387892 26.8992 
" clip-path="url(#p44ffa1637f)" style="fill: none; stroke: #dee2e6; stroke-opacity: 0.25; stroke-width: -1; stroke-linecap: square"/>
     </g>
     <g id="line2d_113">
      <g>
       <use xlink:href="#m5c0af12cd9" x="375.387892" y="170.6083" style="stroke: #000000; stroke-width: 0.3"/>
      </g>
     </g>
     <g id="text_18">
      <!-- 200 -->
      <g transform="translate(368.737267 180.6083) scale(0.08 -0.08)">
       <use xlink:href="#Roboto-Light-32"/>
       <use xlink:href="#Roboto-Light-30" transform="translate(55.419922 0)"/>
       <use xlink:href="#Roboto-Light-30" transform="translate(110.839844 0)"/>
      </g>
     </g>
    </g>
    <g id="xtick_11">
     <g id="line2d_114">
      <path d="M 408.784877 170.6083 
L 408.784877 26.8992 
" clip-path="url(#p44ffa1637f)" style="fill: none; stroke: #dee2e6; stroke-opacity: 0.25; stroke-width: -1; stroke-linecap: square"/>
     </g>
     <g id="line2d_115">
      <g>
       <use xlink:href="#m5c0af12cd9" x="408.784877" y="170.6083" style="stroke: #000000; stroke-width: 0.3"/>
      </g>
     </g>
     <g id="text_19">
      <!-- 400 -->
      <g transform="translate(402.134252 180.6083) scale(0.08 -0.08)">
       <use xlink:href="#Roboto-Light-34"/>
       <use xlink:href="#Roboto-Light-30" transform="translate(55.419922 0)"/>
       <use xlink:href="#Roboto-Light-30" transform="translate(110.839844 0)"/>
      </g>
     </g>
    </g>
    <g id="xtick_12">
     <g id="line2d_116">
      <path d="M 442.181862 170.6083 
L 442.181862 26.8992 
" clip-path="url(#p44ffa1637f)" style="fill: none; stroke: #dee2e6; stroke-opacity: 0.25; stroke-width: -1; stroke-linecap: square"/>
     </g>
     <g id="line2d_117">
      <g>
       <use xlink:href="#m5c0af12cd9" x="442.181862" y="170.6083" style="stroke: #000000; stroke-width: 0.3"/>
      </g>
     </g>
     <g id="text_20">
      <!-- 600 -->
      <g transform="translate(435.531237 180.6083) scale(0.08 -0.08)">
       <use xlink:href="#Roboto-Light-36"/>
       <use xlink:href="#Roboto-Light-30" transform="translate(55.419922 0)"/>
       <use xlink:href="#Roboto-Light-30" transform="translate(110.839844 0)"/>
      </g>
     </g>
    </g>
    <g id="text_21">
     <!-- Enthalpy [kJ/kg] -->
     <g transform="translate(376.070254 192.7333) scale(0.08 -0.08)">
      <use xlink:href="#Roboto-Regular-45"/>
      <use xlink:href="#Roboto-Regular-6e" transform="translate(56.835938 0)"/>
      <use xlink:href="#Roboto-Regular-74" transform="translate(112.011719 0)"/>
      <use xlink:href="#Roboto-Regular-68" transform="translate(144.677734 0)"/>
      <use xlink:href="#Roboto-Regular-61" transform="translate(199.755859 0)"/>
      <use xlink:href="#Roboto-Regular-6c" transform="translate(254.150391 0)"/>
      <use xlink:href="#Roboto-Regular-70" transform="translate(278.417969 0)"/>
      <use xlink:href="#Roboto-Regular-79" transform="translate(334.521484 0)"/>
      <use xlink:href="#Roboto-Regular-20" transform="translate(381.835938 0)"/>
      <use xlink:href="#Roboto-Regular-5b" transform="translate(406.591797 0)"/>
      <use xlink:href="#Roboto-Regular-6b" transform="translate(433.105469 0)"/>
      <use xlink:href="#Roboto-Regular-4a" transform="translate(483.789062 0)"/>
      <use xlink:href="#Roboto-Regular-2f" transform="translate(538.964844 0)"/>
      <use xlink:href="#Roboto-Regular-6b" transform="translate(580.175781 0)"/>
      <use xlink:href="#Roboto-Regular-67" transform="translate(630.859375 0)"/>
      <use xlink:href="#Roboto-Regular-5d" transform="translate(686.962891 0)"/>
     </g>
    </g>
   </g>
   <g id="matplotlib.axis_6">
    <g id="ytick_39">
     <g id="line2d_118">
      <path d="M 341.990908 170.6083 
L 467.2296 170.6083 
" clip-path="url(#p44ffa1637f)" style="fill: none; stroke: #dee2e6; stroke-opacity: 0.25; stroke-width: -1; stroke-linecap: square"/>
     </g>
     <g id="line2d_119">
      <g>
       <use xlink:href="#m73491944b8" x="341.990908" y="170.6083" style="stroke: #000000; stroke-width: 0.3"/>
      </g>
     </g>
    </g>
    <g id="ytick_40">
     <g id="line2d_120">
      <path d="M 341.990908 98.75375 
L 467.2296 98.75375 
" clip-path="url(#p44ffa1637f)" style="fill: none; stroke: #dee2e6; stroke-opacity: 0.25; stroke-width: -1; stroke-linecap: square"/>
     </g>
     <g id="line2d_121">
      <g>
       <use xlink:href="#m73491944b8" x="341.990908" y="98.75375" style="stroke: #000000; stroke-width: 0.3"/>
      </g>
     </g>
    </g>
    <g id="ytick_41">
     <g id="line2d_122">
      <path d="M 341.990908 26.8992 
L 467.2296 26.8992 
" clip-path="url(#p44ffa1637f)" style="fill: none; stroke: #dee2e6; stroke-opacity: 0.25; stroke-width: -1; stroke-linecap: square"/>
     </g>
     <g id="line2d_123">
      <g>
       <use xlink:href="#m73491944b8" x="341.990908" y="26.8992" style="stroke: #000000; stroke-width: 0.3"/>
      </g>
     </g>
    </g>
    <g id="ytick_42">
     <g id="line2d_124">
      <path d="M 341.990908 148.977925 
L 467.2296 148.977925 
" clip-path="url(#p44ffa1637f)" style="fill: none; stroke: #dee2e6; stroke-opacity: 0.25; stroke-width: -1; stroke-linecap: square"/>
     </g>
     <g id="line2d_125">
      <g>
       <use xlink:href="#m476b9b6353" x="341.990908" y="148.977925" style="stroke: #000000; stroke-width: 0.2"/>
      </g>
     </g>
    </g>
    <g id="ytick_43">
     <g id="line2d_126">
      <path d="M 341.990908 136.324967 
L 467.2296 136.324967 
" clip-path="url(#p44ffa1637f)" style="fill: none; stroke: #dee2e6; stroke-opacity: 0.25; stroke-width: -1; stroke-linecap: square"/>
     </g>
     <g id="line2d_127">
      <g>
       <use xlink:href="#m476b9b6353" x="341.990908" y="136.324967" style="stroke: #000000; stroke-width: 0.2"/>
      </g>
     </g>
    </g>
    <g id="ytick_44">
     <g id="line2d_128">
      <path d="M 341.990908 127.34755 
L 467.2296 127.34755 
" clip-path="url(#p44ffa1637f)" style="fill: none; stroke: #dee2e6; stroke-opacity: 0.25; stroke-width: -1; stroke-linecap: square"/>
     </g>
     <g id="line2d_129">
      <g>
       <use xlink:href="#m476b9b6353" x="341.990908" y="127.34755" style="stroke: #000000; stroke-width: 0.2"/>
      </g>
     </g>
    </g>
    <g id="ytick_45">
     <g id="line2d_130">
      <path d="M 341.990908 120.384125 
L 467.2296 120.384125 
" clip-path="url(#p44ffa1637f)" style="fill: none; stroke: #dee2e6; stroke-opacity: 0.25; stroke-width: -1; stroke-linecap: square"/>
     </g>
     <g id="line2d_131">
      <g>
       <use xlink:href="#m476b9b6353" x="341.990908" y="120.384125" style="stroke: #000000; stroke-width: 0.2"/>
      </g>
     </g>
    </g>
    <g id="ytick_46">
     <g id="line2d_132">
      <path d="M 341.990908 114.694592 
L 467.2296 114.694592 
" clip-path="url(#p44ffa1637f)" style="fill: none; stroke: #dee2e6; stroke-opacity: 0.25; stroke-width: -1; stroke-linecap: square"/>
     </g>
     <g id="line2d_133">
      <g>
       <use xlink:href="#m476b9b6353" x="341.990908" y="114.694592" style="stroke: #000000; stroke-width: 0.2"/>
      </g>
     </g>
    </g>
    <g id="ytick_47">
     <g id="line2d_134">
      <path d="M 341.990908 109.884161 
L 467.2296 109.884161 
" clip-path="url(#p44ffa1637f)" style="fill: none; stroke: #dee2e6; stroke-opacity: 0.25; stroke-width: -1; stroke-linecap: square"/>
     </g>
     <g id="line2d_135">
      <g>
       <use xlink:href="#m476b9b6353" x="341.990908" y="109.884161" style="stroke: #000000; stroke-width: 0.2"/>
      </g>
     </g>
    </g>
    <g id="ytick_48">
     <g id="line2d_136">
      <path d="M 341.990908 105.717175 
L 467.2296 105.717175 
" clip-path="url(#p44ffa1637f)" style="fill: none; stroke: #dee2e6; stroke-opacity: 0.25; stroke-width: -1; stroke-linecap: square"/>
     </g>
     <g id="line2d_137">
      <g>
       <use xlink:href="#m476b9b6353" x="341.990908" y="105.717175" style="stroke: #000000; stroke-width: 0.2"/>
      </g>
     </g>
    </g>
    <g id="ytick_49">
     <g id="line2d_138">
      <path d="M 341.990908 102.041634 
L 467.2296 102.041634 
" clip-path="url(#p44ffa1637f)" style="fill: none; stroke: #dee2e6; stroke-opacity: 0.25; stroke-width: -1; stroke-linecap: square"/>
     </g>
     <g id="line2d_139">
      <g>
       <use xlink:href="#m476b9b6353" x="341.990908" y="102.041634" style="stroke: #000000; stroke-width: 0.2"/>
      </g>
     </g>
    </g>
    <g id="ytick_50">
     <g id="line2d_140">
      <path d="M 341.990908 77.123375 
L 467.2296 77.123375 
" clip-path="url(#p44ffa1637f)" style="fill: none; stroke: #dee2e6; stroke-opacity: 0.25; stroke-width: -1; stroke-linecap: square"/>
     </g>
     <g id="line2d_141">
      <g>
       <use xlink:href="#m476b9b6353" x="341.990908" y="77.123375" style="stroke: #000000; stroke-width: 0.2"/>
      </g>
     </g>
    </g>
    <g id="ytick_51">
     <g id="line2d_142">
      <path d="M 341.990908 64.470417 
L 467.2296 64.470417 
" clip-path="url(#p44ffa1637f)" style="fill: none; stroke: #dee2e6; stroke-opacity: 0.25; stroke-width: -1; stroke-linecap: square"/>
     </g>
     <g id="line2d_143">
      <g>
       <use xlink:href="#m476b9b6353" x="341.990908" y="64.470417" style="stroke: #000000; stroke-width: 0.2"/>
      </g>
     </g>
    </g>
    <g id="ytick_52">
     <g id="line2d_144">
      <path d="M 341.990908 55.493 
L 467.2296 55.493 
" clip-path="url(#p44ffa1637f)" style="fill: none; stroke: #dee2e6; stroke-opacity: 0.25; stroke-width: -1; stroke-linecap: square"/>
     </g>
     <g id="line2d_145">
      <g>
       <use xlink:href="#m476b9b6353" x="341.990908" y="55.493" style="stroke: #000000; stroke-width: 0.2"/>
      </g>
     </g>
    </g>
    <g id="ytick_53">
     <g id="line2d_146">
      <path d="M 341.990908 48.529575 
L 467.2296 48.529575 
" clip-path="url(#p44ffa1637f)" style="fill: none; stroke: #dee2e6; stroke-opacity: 0.25; stroke-width: -1; stroke-linecap: square"/>
     </g>
     <g id="line2d_147">
      <g>
       <use xlink:href="#m476b9b6353" x="341.990908" y="48.529575" style="stroke: #000000; stroke-width: 0.2"/>
      </g>
     </g>
    </g>
    <g id="ytick_54">
     <g id="line2d_148">
      <path d="M 341.990908 42.840042 
L 467.2296 42.840042 
" clip-path="url(#p44ffa1637f)" style="fill: none; stroke: #dee2e6; stroke-opacity: 0.25; stroke-width: -1; stroke-linecap: square"/>
     </g>
     <g id="line2d_149">
      <g>
       <use xlink:href="#m476b9b6353" x="341.990908" y="42.840042" style="stroke: #000000; stroke-width: 0.2"/>
      </g>
     </g>
    </g>
    <g id="ytick_55">
     <g id="line2d_150">
      <path d="M 341.990908 38.029611 
L 467.2296 38.029611 
" clip-path="url(#p44ffa1637f)" style="fill: none; stroke: #dee2e6; stroke-opacity: 0.25; stroke-width: -1; stroke-linecap: square"/>
     </g>
     <g id="line2d_151">
      <g>
       <use xlink:href="#m476b9b6353" x="341.990908" y="38.029611" style="stroke: #000000; stroke-width: 0.2"/>
      </g>
     </g>
    </g>
    <g id="ytick_56">
     <g id="line2d_152">
      <path d="M 341.990908 33.862625 
L 467.2296 33.862625 
" clip-path="url(#p44ffa1637f)" style="fill: none; stroke: #dee2e6; stroke-opacity: 0.25; stroke-width: -1; stroke-linecap: square"/>
     </g>
     <g id="line2d_153">
      <g>
       <use xlink:href="#m476b9b6353" x="341.990908" y="33.862625" style="stroke: #000000; stroke-width: 0.2"/>
      </g>
     </g>
    </g>
    <g id="ytick_57">
     <g id="line2d_154">
      <path d="M 341.990908 30.187084 
L 467.2296 30.187084 
" clip-path="url(#p44ffa1637f)" style="fill: none; stroke: #dee2e6; stroke-opacity: 0.25; stroke-width: -1; stroke-linecap: square"/>
     </g>
     <g id="line2d_155">
      <g>
       <use xlink:href="#m476b9b6353" x="341.990908" y="30.187084" style="stroke: #000000; stroke-width: 0.2"/>
      </g>
     </g>
    </g>
   </g>
   <g id="line2d_156">
    <path d="M 365.475201 201.64 
L 367.54726 185.240376 
L 369.686794 170.143665 
L 371.86085 156.430864 
L 374.073314 143.915753 
L 376.328895 132.441388 
L 378.63345 121.874724 
L 380.99444 112.102242 
L 383.421654 103.02632 
L 385.928426 94.562166 
L 388.329347 87.22735 
L 390.836803 80.296977 
L 393.260015 74.256841 
L 395.610254 68.992327 
L 397.644698 64.914655 
L 399.614971 61.42816 
L 401.227238 58.973955 
L 402.365713 57.510727 
L 403.283905 56.536338 
L 404.580172 55.559123 
L 406.250537 55.06611 
L 407.090208 55.033948 
L 407.090208 55.033948 
" clip-path="url(#p44ffa1637f)" style="fill: none; stroke: #339af0; stroke-width: 2; stroke-linecap: square"/>
   </g>
   <g id="line2d_157">
    <path d="M 403.807307 201.64 
L 405.345174 178.087467 
L 407.112508 154.431744 
L 409.176848 129.926781 
L 413.120181 84.293451 
L 413.533721 76.421159 
L 413.63175 70.550894 
L 413.503663 66.431107 
L 413.165845 62.914143 
L 412.705712 60.443494 
L 412.095644 58.485698 
L 411.349111 57.023606 
L 410.515533 56.048452 
L 409.812996 55.559123 
L 407.92988 55.06611 
L 407.090208 55.033948 
L 407.090208 55.033948 
" clip-path="url(#p44ffa1637f)" style="fill: none; stroke: #ff6b6b; stroke-width: 2; stroke-linecap: square"/>
   </g>
   <g id="line2d_158">
    <path d="M 408.695923 135.414591 
L 409.447262 135.414591 
L 416.818802 83.867189 
L 413.147927 83.867189 
L 389.512847 83.867189 
L 388.78043 83.867189 
L 388.78043 135.414591 
L 408.695923 135.414591 
" clip-path="url(#p44ffa1637f)" style="fill: none; stroke-dasharray: 2,2; stroke-dashoffset: 0; stroke: #343a40"/>
   </g>
   <g id="line2d_159">
    <g clip-path="url(#p44ffa1637f)">
     <use xlink:href="#mccf4b8dfc2" x="409.447262" y="135.414591" style="fill: #343a40; stroke: #343a40"/>
    </g>
   </g>
   <g id="line2d_160">
    <g clip-path="url(#p44ffa1637f)">
     <use xlink:href="#mccf4b8dfc2" x="416.818802" y="83.867189" style="fill: #343a40; stroke: #343a40"/>
    </g>
   </g>
   <g id="line2d_161">
    <g clip-path="url(#p44ffa1637f)">
     <use xlink:href="#mccf4b8dfc2" x="388.78043" y="83.867189" style="fill: #343a40; stroke: #343a40"/>
    </g>
   </g>
   <g id="line2d_162">
    <g clip-path="url(#p44ffa1637f)">
     <use xlink:href="#mccf4b8dfc2" x="388.78043" y="135.414591" style="fill: #343a40; stroke: #343a40"/>
    </g>
   </g>
   <g id="patch_9">
    <path d="M 341.990908 170.6083 
L 341.990908 26.8992 
" style="fill: none; stroke: #000000; stroke-width: 0.3; stroke-linejoin: miter; stroke-linecap: square"/>
   </g>
   <g id="patch_10">
    <path d="M 341.990908 170.6083 
L 467.2296 170.6083 
" style="fill: none; stroke: #000000; stroke-width: 0.3; stroke-linejoin: miter; stroke-linecap: square"/>
   </g>
   <g id="text_22">
    <!-- R134a -->
    <g transform="translate(393.232754 12.0742) scale(0.08 -0.08)">
     <defs>
      <path id="Roboto-Regular-31" d="M 2278 0 
L 1697 0 
L 1697 3853 
L 531 3425 
L 531 3950 
L 2188 4572 
L 2278 4572 
L 2278 0 
z
" transform="scale(0.015625)"/>
     </defs>
     <use xlink:href="#Roboto-Regular-52"/>
     <use xlink:href="#Roboto-Regular-31" transform="translate(61.572266 0)"/>
     <use xlink:href="#Roboto-Regular-33" transform="translate(117.724609 0)"/>
     <use xlink:href="#Roboto-Regular-34" transform="translate(173.876953 0)"/>
     <use xlink:href="#Roboto-Regular-61" transform="translate(230.029297 0)"/>
    </g>
    <!-- COP = 3.10 -->
    <g transform="translate(384.765879 20.8992) scale(0.08 -0.08)">
     <use xlink:href="#Roboto-Regular-43"/>
     <use xlink:href="#Roboto-Regular-4f" transform="translate(65.087891 0)"/>
     <use xlink:href="#Roboto-Regular-50" transform="translate(133.837891 0)"/>
     <use xlink:href="#Roboto-Regular-20" transform="translate(196.923828 0)"/>
     <use xlink:href="#Roboto-Regular-3d" transform="translate(221.679688 0)"/>
     <use xlink:href="#Roboto-Regular-20" transform="translate(276.5625 0)"/>
     <use xlink:href="#Roboto-Regular-33" transform="translate(301.318359 0)"/>
     <use xlink:href="#Roboto-Regular-2e" transform="translate(357.470703 0)"/>
     <use xlink:href="#Roboto-Regular-31" transform="translate(383.789062 0)"/>
     <use xlink:href="#Roboto-Regular-30" transform="translate(439.941406 0)"/>
    </g>
   </g>
  </g>
  <g id="legend_1">
   <g id="line2d_163">
    <path d="M 166.378594 197.208737 
L 173.378594 197.208737 
L 180.378594 197.208737 
" style="fill: none; stroke: #339af0; stroke-width: 2; stroke-linecap: square"/>
   </g>
   <g id="text_23">
    <!-- Sat. liquid -->
    <g transform="translate(182.478594 199.658737) scale(0.07 -0.07)">
     <defs>
      <path id="Roboto-Light-53" d="M 3150 1119 
Q 3150 1497 2884 1717 
Q 2619 1938 1912 2136 
Q 1206 2334 881 2569 
Q 419 2900 419 3438 
Q 419 3959 848 4286 
Q 1278 4613 1947 4613 
Q 2400 4613 2758 4438 
Q 3116 4263 3312 3950 
Q 3509 3638 3509 3253 
L 3122 3253 
Q 3122 3719 2803 4001 
Q 2484 4284 1947 4284 
Q 1425 4284 1115 4051 
Q 806 3819 806 3444 
Q 806 3097 1084 2878 
Q 1363 2659 1975 2492 
Q 2588 2325 2903 2145 
Q 3219 1966 3378 1716 
Q 3538 1466 3538 1125 
Q 3538 588 3108 262 
Q 2678 -63 1975 -63 
Q 1494 -63 1092 109 
Q 691 281 483 590 
Q 275 900 275 1300 
L 659 1300 
Q 659 819 1018 541 
Q 1378 263 1975 263 
Q 2506 263 2828 497 
Q 3150 731 3150 1119 
z
" transform="scale(0.015625)"/>
      <path id="Roboto-Light-61" d="M 2622 0 
Q 2566 159 2550 472 
Q 2353 216 2048 76 
Q 1744 -63 1403 -63 
Q 916 -63 614 209 
Q 313 481 313 897 
Q 313 1391 723 1678 
Q 1134 1966 1869 1966 
L 2547 1966 
L 2547 2350 
Q 2547 2713 2323 2920 
Q 2100 3128 1672 3128 
Q 1281 3128 1025 2928 
Q 769 2728 769 2447 
L 394 2450 
Q 394 2853 769 3148 
Q 1144 3444 1691 3444 
Q 2256 3444 2582 3161 
Q 2909 2878 2919 2372 
L 2919 772 
Q 2919 281 3022 38 
L 3022 0 
L 2622 0 
z
M 1447 269 
Q 1822 269 2117 450 
Q 2413 631 2547 934 
L 2547 1678 
L 1878 1678 
Q 1319 1672 1003 1473 
Q 688 1275 688 928 
Q 688 644 898 456 
Q 1109 269 1447 269 
z
" transform="scale(0.015625)"/>
      <path id="Roboto-Light-74" d="M 1069 4247 
L 1069 3381 
L 1769 3381 
L 1769 3075 
L 1069 3075 
L 1069 822 
Q 1069 541 1170 403 
Q 1272 266 1509 266 
Q 1603 266 1813 297 
L 1828 -9 
Q 1681 -63 1428 -63 
Q 1044 -63 869 160 
Q 694 384 694 819 
L 694 3075 
L 72 3075 
L 72 3381 
L 694 3381 
L 694 4247 
L 1069 4247 
z
" transform="scale(0.015625)"/>
      <path id="Roboto-Light-2e" d="M 453 225 
Q 453 334 523 411 
Q 594 488 719 488 
Q 844 488 916 411 
Q 988 334 988 225 
Q 988 116 916 45 
Q 844 -25 719 -25 
Q 594 -25 523 45 
Q 453 116 453 225 
z
" transform="scale(0.015625)"/>
      <path id="Roboto-Light-20" transform="scale(0.015625)"/>
      <path id="Roboto-Light-6c" d="M 906 0 
L 531 0 
L 531 4800 
L 906 4800 
L 906 0 
z
" transform="scale(0.015625)"/>
      <path id="Roboto-Light-69" d="M 906 0 
L 531 0 
L 531 3381 
L 906 3381 
L 906 0 
z
M 466 4359 
Q 466 4466 534 4539 
Q 603 4613 722 4613 
Q 841 4613 911 4539 
Q 981 4466 981 4359 
Q 981 4253 911 4181 
Q 841 4109 722 4109 
Q 603 4109 534 4181 
Q 466 4253 466 4359 
z
" transform="scale(0.015625)"/>
      <path id="Roboto-Light-71" d="M 338 1722 
Q 338 2516 689 2980 
Q 1041 3444 1650 3444 
Q 2334 3444 2691 2922 
L 2709 3381 
L 3059 3381 
L 3059 -1300 
L 2684 -1300 
L 2684 419 
Q 2316 -63 1644 -63 
Q 1050 -63 694 406 
Q 338 875 338 1672 
L 338 1722 
z
M 716 1656 
Q 716 1000 980 626 
Q 1244 253 1713 253 
Q 2384 253 2684 838 
L 2684 2494 
Q 2544 2797 2295 2961 
Q 2047 3125 1719 3125 
Q 1247 3125 981 2751 
Q 716 2378 716 1656 
z
" transform="scale(0.015625)"/>
      <path id="Roboto-Light-75" d="M 2663 428 
Q 2325 -63 1584 -63 
Q 1044 -63 762 251 
Q 481 566 475 1181 
L 475 3381 
L 847 3381 
L 847 1228 
Q 847 263 1628 263 
Q 2441 263 2656 934 
L 2656 3381 
L 3031 3381 
L 3031 0 
L 2669 0 
L 2663 428 
z
" transform="scale(0.015625)"/>
      <path id="Roboto-Light-64" d="M 338 1722 
Q 338 2509 689 2976 
Q 1041 3444 1644 3444 
Q 2328 3444 2688 2903 
L 2688 4800 
L 3059 4800 
L 3059 0 
L 2709 0 
L 2694 450 
Q 2334 -63 1638 -63 
Q 1053 -63 695 407 
Q 338 878 338 1678 
L 338 1722 
z
M 716 1656 
Q 716 1009 975 636 
Q 1234 263 1706 263 
Q 2397 263 2688 872 
L 2688 2459 
Q 2397 3119 1713 3119 
Q 1241 3119 978 2748 
Q 716 2378 716 1656 
z
" transform="scale(0.015625)"/>
     </defs>
     <use xlink:href="#Roboto-Light-53"/>
     <use xlink:href="#Roboto-Light-61" transform="translate(59.228516 0)"/>
     <use xlink:href="#Roboto-Light-74" transform="translate(112.792969 0)"/>
     <use xlink:href="#Roboto-Light-2e" transform="translate(144.921875 0)"/>
     <use xlink:href="#Roboto-Light-20" transform="translate(168.798828 0)"/>
     <use xlink:href="#Roboto-Light-6c" transform="translate(193.115234 0)"/>
     <use xlink:href="#Roboto-Light-69" transform="translate(215.527344 0)"/>
     <use xlink:href="#Roboto-Light-71" transform="translate(237.939453 0)"/>
     <use xlink:href="#Roboto-Light-75" transform="translate(293.701172 0)"/>
     <use xlink:href="#Roboto-Light-69" transform="translate(348.632812 0)"/>
     <use xlink:href="#Roboto-Light-64" transform="translate(371.044922 0)"/>
    </g>
   </g>
   <g id="line2d_164">
    <path d="M 217.590156 197.208737 
L 224.590156 197.208737 
L 231.590156 197.208737 
" style="fill: none; stroke: #ff6b6b; stroke-width: 2; stroke-linecap: square"/>
   </g>
   <g id="text_24">
    <!-- Sat. vapor -->
    <g transform="translate(233.690156 199.658737) scale(0.07 -0.07)">
     <defs>
      <path id="Roboto-Light-76" d="M 1541 516 
L 2569 3381 
L 2953 3381 
L 1691 0 
L 1388 0 
L 119 3381 
L 503 3381 
L 1541 516 
z
" transform="scale(0.015625)"/>
      <path id="Roboto-Light-70" d="M 3206 1656 
Q 3206 866 2856 401 
Q 2506 -63 1919 -63 
Q 1225 -63 856 425 
L 856 -1300 
L 484 -1300 
L 484 3381 
L 831 3381 
L 850 2903 
Q 1216 3444 1909 3444 
Q 2516 3444 2861 2984 
Q 3206 2525 3206 1709 
L 3206 1656 
z
M 2831 1722 
Q 2831 2369 2565 2744 
Q 2300 3119 1825 3119 
Q 1481 3119 1234 2953 
Q 988 2788 856 2472 
L 856 850 
Q 991 559 1241 406 
Q 1491 253 1831 253 
Q 2303 253 2567 629 
Q 2831 1006 2831 1722 
z
" transform="scale(0.015625)"/>
      <path id="Roboto-Light-6f" d="M 281 1741 
Q 281 2228 470 2618 
Q 659 3009 1004 3226 
Q 1350 3444 1788 3444 
Q 2463 3444 2881 2970 
Q 3300 2497 3300 1716 
L 3300 1638 
Q 3300 1147 3111 755 
Q 2922 363 2578 150 
Q 2234 -63 1794 -63 
Q 1122 -63 701 410 
Q 281 884 281 1666 
L 281 1741 
z
M 656 1638 
Q 656 1031 970 642 
Q 1284 253 1794 253 
Q 2300 253 2614 642 
Q 2928 1031 2928 1669 
L 2928 1741 
Q 2928 2128 2784 2450 
Q 2641 2772 2381 2948 
Q 2122 3125 1788 3125 
Q 1288 3125 972 2733 
Q 656 2341 656 1706 
L 656 1638 
z
" transform="scale(0.015625)"/>
      <path id="Roboto-Light-72" d="M 2050 3063 
Q 1931 3084 1797 3084 
Q 1447 3084 1205 2889 
Q 963 2694 859 2322 
L 859 0 
L 488 0 
L 488 3381 
L 853 3381 
L 859 2844 
Q 1156 3444 1813 3444 
Q 1969 3444 2059 3403 
L 2050 3063 
z
" transform="scale(0.015625)"/>
     </defs>
     <use xlink:href="#Roboto-Light-53"/>
     <use xlink:href="#Roboto-Light-61" transform="translate(59.228516 0)"/>
     <use xlink:href="#Roboto-Light-74" transform="translate(112.792969 0)"/>
     <use xlink:href="#Roboto-Light-2e" transform="translate(144.921875 0)"/>
     <use xlink:href="#Roboto-Light-20" transform="translate(168.798828 0)"/>
     <use xlink:href="#Roboto-Light-76" transform="translate(193.115234 0)"/>
     <use xlink:href="#Roboto-Light-61" transform="translate(241.210938 0)"/>
     <use xlink:href="#Roboto-Light-70" transform="translate(294.775391 0)"/>
     <use xlink:href="#Roboto-Light-6f" transform="translate(350.195312 0)"/>
     <use xlink:href="#Roboto-Light-72" transform="translate(406.201172 0)"/>
    </g>
   </g>
   <g id="line2d_165">
    <path d="M 269.728125 197.208737 
L 276.728125 197.208737 
L 283.728125 197.208737 
" style="fill: none; stroke-dasharray: 2,2; stroke-dashoffset: 0; stroke: #343a40"/>
   </g>
   <g id="text_25">
    <!-- Ref. cycle -->
    <g transform="translate(285.828125 199.658737) scale(0.07 -0.07)">
     <defs>
      <path id="Roboto-Light-52" d="M 2275 1894 
L 953 1894 
L 953 0 
L 566 0 
L 566 4550 
L 2044 4550 
Q 2772 4550 3181 4197 
Q 3591 3844 3591 3209 
Q 3591 2772 3334 2437 
Q 3078 2103 2647 1975 
L 3784 41 
L 3784 0 
L 3375 0 
L 2275 1894 
z
M 953 2222 
L 2131 2222 
Q 2616 2222 2909 2497 
Q 3203 2772 3203 3209 
Q 3203 3691 2897 3956 
Q 2591 4222 2038 4222 
L 953 4222 
L 953 2222 
z
" transform="scale(0.015625)"/>
      <path id="Roboto-Light-65" d="M 1797 -63 
Q 1366 -63 1017 150 
Q 669 363 475 742 
Q 281 1122 281 1594 
L 281 1728 
Q 281 2216 470 2606 
Q 659 2997 996 3220 
Q 1334 3444 1728 3444 
Q 2344 3444 2705 3023 
Q 3066 2603 3066 1875 
L 3066 1666 
L 653 1666 
L 653 1594 
Q 653 1019 983 636 
Q 1313 253 1813 253 
Q 2113 253 2342 362 
Q 2572 472 2759 713 
L 2994 534 
Q 2581 -63 1797 -63 
z
M 1728 3125 
Q 1306 3125 1017 2815 
Q 728 2506 666 1984 
L 2694 1984 
L 2694 2025 
Q 2678 2513 2415 2819 
Q 2153 3125 1728 3125 
z
" transform="scale(0.015625)"/>
      <path id="Roboto-Light-66" d="M 756 0 
L 756 3075 
L 197 3075 
L 197 3381 
L 756 3381 
L 756 3791 
Q 756 4309 1020 4587 
Q 1284 4866 1756 4866 
Q 1969 4866 2153 4813 
L 2125 4500 
Q 1969 4538 1784 4538 
Q 1475 4538 1303 4345 
Q 1131 4153 1131 3800 
L 1131 3381 
L 1938 3381 
L 1938 3075 
L 1131 3075 
L 1131 0 
L 756 0 
z
" transform="scale(0.015625)"/>
      <path id="Roboto-Light-63" d="M 1738 253 
Q 2128 253 2392 473 
Q 2656 694 2678 1044 
L 3038 1044 
Q 3022 734 2844 479 
Q 2666 225 2370 81 
Q 2075 -63 1738 -63 
Q 1072 -63 683 400 
Q 294 863 294 1644 
L 294 1756 
Q 294 2256 469 2640 
Q 644 3025 970 3234 
Q 1297 3444 1734 3444 
Q 2291 3444 2652 3112 
Q 3013 2781 3038 2241 
L 2678 2241 
Q 2653 2638 2392 2881 
Q 2131 3125 1734 3125 
Q 1228 3125 948 2759 
Q 669 2394 669 1734 
L 669 1625 
Q 669 978 948 615 
Q 1228 253 1738 253 
z
" transform="scale(0.015625)"/>
      <path id="Roboto-Light-79" d="M 1559 538 
L 2547 3381 
L 2950 3381 
L 1506 -575 
L 1431 -750 
Q 1153 -1366 572 -1366 
Q 438 -1366 284 -1322 
L 281 -1013 
L 475 -1031 
Q 750 -1031 920 -895 
Q 1091 -759 1209 -428 
L 1375 28 
L 100 3381 
L 509 3381 
L 1559 538 
z
" transform="scale(0.015625)"/>
     </defs>
     <use xlink:href="#Roboto-Light-52"/>
     <use xlink:href="#Roboto-Light-65" transform="translate(63.476562 0)"/>
     <use xlink:href="#Roboto-Light-66" transform="translate(115.136719 0)"/>
     <use xlink:href="#Roboto-Light-2e" transform="translate(148.242188 0)"/>
     <use xlink:href="#Roboto-Light-20" transform="translate(172.119141 0)"/>
     <use xlink:href="#Roboto-Light-63" transform="translate(196.435547 0)"/>
     <use xlink:href="#Roboto-Light-79" transform="translate(247.949219 0)"/>
     <use xlink:href="#Roboto-Light-63" transform="translate(295.458984 0)"/>
     <use xlink:href="#Roboto-Light-6c" transform="translate(346.972656 0)"/>
     <use xlink:href="#Roboto-Light-65" transform="translate(369.384766 0)"/>
    </g>
   </g>
  </g>
 </g>
 <defs>
  <clipPath id="pd92d1a01da">
   <rect x="41.418046" y="26.8992" width="125.238692" height="143.7091"/>
  </clipPath>
  <clipPath id="p29bb7cbe32">
   <rect x="191.704477" y="26.8992" width="125.238692" height="143.7091"/>
  </clipPath>
  <clipPath id="p44ffa1637f">
   <rect x="341.990908" y="26.8992" width="125.238692" height="143.7091"/>
  </clipPath>
 </defs>
</svg>
